<?xml version="1.0" encoding="utf-8"?>
<!-- Generator: Adobe Illustrator 19.0.1, SVG Export Plug-In . SVG Version: 6.00 Build 0)  -->
<svg version="1.2" baseProfile="tiny" xmlns="http://www.w3.org/2000/svg" xmlns:xlink="http://www.w3.org/1999/xlink" x="0px"
	 y="0px" viewBox="0 0 300 300" xml:space="preserve">
<g id="Слой_2">
	<rect fill="#FFFFFF" width="300" height="300"/>
</g>
<g id="Слой_1">
	<g>
		<path fill="#2980B9" d="M60.2,142.8l0.6-5.6h-0.3l-2.2,6l-11.3,20.7h-5.6v-39.6h7.1V145l-0.6,5.8h0.3l2.3-6.2l11.3-20.3h5.5v39.6
			h-7.1V142.8z"/>
		<path fill="#2980B9" d="M109.2,130.8H98.9v33.1h-7.1v-39.6h24.6v39.6h-7.1V130.8z"/>
		<path fill="#2980B9" d="M166,143.5l0.8-7.6h-0.3l-2.1,6.8l-6.5,13.9h-2.4l-6.9-14l-2.1-6.8h-0.3l1.1,7.6v20.5h-6.7v-39.6h6.9
			l8.3,17.2l1.4,4.9h0.2l1.3-5l7.8-17h6.7v39.6H166V143.5z"/>
		<path fill="#2980B9" d="M197.5,124.3h19.8v6.6h-12.7v9.7h11.5v6.6h-11.5v10.2h12.9v6.6h-20V124.3z"/>
		<path fill="#2980B9" d="M249.3,143.7l-8.8-19.5h8.6l4.6,11.3l1.1,4.3l1-4.3l4.8-11.3h7.7l-9.1,19.1l9.5,20.6h-8.3l-5.3-12.2
			l-1.2-4.4l-1.1,4.4l-5.3,12.2h-7.9L249.3,143.7z"/>
	</g>
	<g>
		<path fill="#2980B9" d="M49.3,181l0.1-1.4h0l-0.5,1.4l-3.9,6.9h-0.8v-10.6h1.1v7l-0.1,1.4h0.1l0.5-1.4l3.9-7h0.7V188h-1.1V181z"/>
		<path fill="#2980B9" d="M65.2,181l0.1-1.6h-0.1l-0.5,1.5l-2.1,4.6h-0.4l-2.2-4.6l-0.5-1.5h-0.1l0.2,1.6v7h-1.1v-10.6h1l2.6,5.2
			l0.4,1.2h0l0.4-1.3l2.4-5.2h1V188h-1.1V181z"/>
		<path fill="#2980B9" d="M68.1,187.3c0-0.3,0.1-0.5,0.2-0.6c0.1-0.1,0.3-0.2,0.6-0.2c0.2,0,0.4,0.1,0.6,0.2
			c0.1,0.1,0.2,0.4,0.2,0.6c0,0.3-0.1,0.5-0.2,0.7c-0.1,0.1-0.3,0.2-0.6,0.2c-0.2,0-0.4-0.1-0.6-0.2
			C68.2,187.8,68.1,187.6,68.1,187.3z"/>
		<path fill="#2980B9" d="M90.5,185h-3l-0.8,3h-1.1l3.2-10.8h0.6l3.2,10.8h-1.2L90.5,185z M87.9,184h2.4l-0.9-3.3l-0.3-1.6h0
			l-0.3,1.6L87.9,184z"/>
		<path fill="#2980B9" d="M93.9,187.3c0-0.3,0.1-0.5,0.2-0.6c0.1-0.1,0.3-0.2,0.6-0.2c0.2,0,0.4,0.1,0.6,0.2
			c0.1,0.1,0.2,0.4,0.2,0.6c0,0.3-0.1,0.5-0.2,0.7c-0.1,0.1-0.3,0.2-0.6,0.2c-0.2,0-0.4-0.1-0.6-0.2
			C93.9,187.8,93.9,187.6,93.9,187.3z"/>
		<path fill="#2980B9" d="M104.3,182h1.4c0.1-1.6,0.3-2.8,0.9-3.6c0.5-0.8,1.4-1.2,2.5-1.2c0.6,0,1.1,0.1,1.6,0.4
			c0.4,0.3,0.8,0.6,1,1.1c0.3,0.5,0.4,1,0.6,1.7c0.1,0.7,0.2,1.4,0.2,2.3c0,1.8-0.3,3.1-0.8,4.1c-0.5,0.9-1.4,1.4-2.6,1.4
			c-0.6,0-1.1-0.1-1.5-0.4c-0.4-0.2-0.8-0.6-1-1c-0.3-0.4-0.5-1-0.6-1.6c-0.1-0.6-0.2-1.3-0.2-2.1h-1.4v4.9h-1.1v-10.6h1.1V182z
			 M106.9,182.7c0,0.6,0,1.2,0.1,1.7c0.1,0.5,0.2,1,0.4,1.4c0.2,0.4,0.4,0.7,0.7,1c0.3,0.2,0.6,0.4,1,0.4c0.8,0,1.3-0.4,1.6-1.1
			c0.3-0.7,0.5-1.8,0.5-3.4c0-0.6,0-1.1-0.1-1.7c-0.1-0.5-0.2-1-0.3-1.4c-0.2-0.4-0.4-0.7-0.6-1c-0.3-0.2-0.6-0.4-1-0.4
			c-0.8,0-1.3,0.4-1.7,1.1C107.1,180,106.9,181.2,106.9,182.7z"/>
		<path fill="#2980B9" d="M113.7,187.3c0-0.3,0.1-0.5,0.2-0.6c0.1-0.1,0.3-0.2,0.6-0.2c0.2,0,0.4,0.1,0.6,0.2
			c0.1,0.1,0.2,0.4,0.2,0.6c0,0.3-0.1,0.5-0.2,0.7c-0.1,0.1-0.3,0.2-0.6,0.2c-0.2,0-0.4-0.1-0.6-0.2
			C113.7,187.8,113.7,187.6,113.7,187.3z"/>
		<path fill="#2980B9" d="M137.2,181l0.1-1.4h0l-0.5,1.4l-3.9,6.9h-0.8v-10.6h1.1v7l-0.1,1.4h0.1l0.5-1.4l3.9-7h0.7V188h-1.1V181z"
			/>
		<path fill="#2980B9" d="M146.6,188v-10.6h1.1v9.5h2.6v-9.5h1.1v9.5h2.6v-9.5h1.1V188H146.6z"/>
		<path fill="#2980B9" d="M168.2,178.4h-2.4c-0.1,2-0.2,3.7-0.3,5.1c-0.1,1.4-0.3,2.4-0.6,3.1c-0.2,0.5-0.4,0.8-0.6,1.1
			c-0.3,0.2-0.5,0.3-0.9,0.3c-0.3,0-0.5-0.1-0.7-0.2l0.2-1c0.2,0.1,0.4,0.1,0.6,0c0.2-0.1,0.3-0.3,0.5-0.7c0.1-0.3,0.2-0.6,0.3-1.1
			c0.1-0.5,0.2-1,0.3-1.7c0.1-0.7,0.1-1.5,0.2-2.5c0.1-1,0.1-2.1,0.1-3.4h4.6V188h-1.1V178.4z"/>
		<path fill="#2980B9" d="M182.8,181l0.1-1.4h0l-0.5,1.4l-3.9,6.9h-0.8v-10.6h1.1v7l-0.1,1.4h0.1l0.5-1.4l3.9-7h0.7V188h-1.1V181z"
			/>
		<path fill="#2980B9" d="M197.1,183.1h-3.9v4.9h-1.1v-10.6h1.1v4.7h3.9v-4.7h1.1V188h-1.1V183.1z"/>
		<path fill="#2980B9" d="M212,187.5c-0.3,0.2-0.6,0.4-1,0.5c-0.4,0.1-0.8,0.1-1.2,0.1c-0.5,0-1-0.1-1.5-0.3c-0.5-0.2-0.8-0.5-1.2-1
			c-0.3-0.4-0.6-1-0.8-1.7c-0.2-0.7-0.3-1.5-0.3-2.5c0-1,0.1-1.9,0.3-2.6c0.2-0.7,0.5-1.3,0.8-1.7c0.3-0.4,0.7-0.7,1.2-0.9
			c0.4-0.2,0.9-0.3,1.4-0.3c0.5,0,0.9,0,1.2,0.1c0.3,0.1,0.6,0.2,0.8,0.3l-0.3,1c-0.2-0.1-0.4-0.2-0.7-0.3c-0.3-0.1-0.6-0.1-0.9-0.1
			s-0.7,0.1-1,0.2c-0.3,0.2-0.6,0.4-0.8,0.8c-0.2,0.3-0.4,0.8-0.6,1.4c-0.1,0.6-0.2,1.3-0.2,2.1c0,1.5,0.3,2.6,0.8,3.3
			c0.5,0.7,1.2,1.1,2,1.1c0.3,0,0.7,0,0.9-0.1c0.3-0.1,0.5-0.2,0.7-0.3L212,187.5z"/>
		<path fill="#2980B9" d="M221.4,183.1h-0.5v4.9h-1.1v-10.6h1.1v4.9l0.5-0.2l2.8-4.7h1.3l-2.8,4.6l-0.5,0.5l0.6,0.6l3.1,4.9h-1.4
			L221.4,183.1z"/>
		<path fill="#2980B9" d="M232.7,182.7c0-1.8,0.3-3.2,0.9-4.1c0.6-0.9,1.5-1.4,2.6-1.4c0.6,0,1.2,0.1,1.6,0.4
			c0.4,0.3,0.8,0.6,1.1,1.1s0.5,1,0.6,1.7c0.1,0.7,0.2,1.4,0.2,2.3c0,1.8-0.3,3.2-0.9,4.1s-1.5,1.4-2.6,1.4c-0.6,0-1.2-0.1-1.6-0.4
			c-0.4-0.3-0.8-0.6-1.1-1.1c-0.3-0.5-0.5-1-0.6-1.7C232.8,184.3,232.7,183.5,232.7,182.7z M233.9,182.7c0,0.6,0,1.2,0.1,1.7
			c0.1,0.5,0.2,1,0.4,1.4c0.2,0.4,0.4,0.7,0.7,1c0.3,0.2,0.6,0.4,1.1,0.4c0.8,0,1.3-0.4,1.7-1.1c0.4-0.7,0.6-1.8,0.6-3.3
			c0-0.6,0-1.1-0.1-1.7c-0.1-0.5-0.2-1-0.4-1.4c-0.2-0.4-0.4-0.7-0.7-1c-0.3-0.2-0.7-0.4-1.1-0.4c-0.7,0-1.3,0.4-1.7,1.1
			C234.1,180,233.9,181.2,233.9,182.7z"/>
		<path fill="#2980B9" d="M252.3,178.4h-3.5v9.5h-1.1v-10.6h4.6V178.4z"/>
		<path fill="#2980B9" d="M259.1,182.7c0-1.8,0.3-3.2,0.9-4.1c0.6-0.9,1.5-1.4,2.6-1.4c0.6,0,1.2,0.1,1.6,0.4
			c0.4,0.3,0.8,0.6,1.1,1.1c0.3,0.5,0.5,1,0.6,1.7c0.1,0.7,0.2,1.4,0.2,2.3c0,1.8-0.3,3.2-0.9,4.1c-0.6,0.9-1.5,1.4-2.6,1.4
			c-0.6,0-1.2-0.1-1.6-0.4c-0.4-0.3-0.8-0.6-1.1-1.1c-0.3-0.5-0.5-1-0.6-1.7C259.1,184.3,259.1,183.5,259.1,182.7z M260.3,182.7
			c0,0.6,0,1.2,0.1,1.7c0.1,0.5,0.2,1,0.4,1.4c0.2,0.4,0.4,0.7,0.7,1c0.3,0.2,0.6,0.4,1.1,0.4c0.8,0,1.3-0.4,1.7-1.1
			c0.4-0.7,0.6-1.8,0.6-3.3c0-0.6,0-1.1-0.1-1.7c-0.1-0.5-0.2-1-0.4-1.4c-0.2-0.4-0.4-0.7-0.7-1c-0.3-0.2-0.7-0.4-1.1-0.4
			c-0.7,0-1.3,0.4-1.7,1.1C260.5,180,260.3,181.2,260.3,182.7z"/>
	</g>
	<g display="none">
		<path display="inline" fill="#2980B9" d="M245.3,121.9H53.9V70.4h191.4V121.9z M55.9,119.9h187.4V72.4H55.9V119.9z"/>
		<path display="inline" fill="#2980B9" d="M245.3,162H53.9v-32.6h191.4V162z M55.9,160h187.4v-28.6H55.9V160z"/>
		<rect x="61.8" y="120" display="inline" fill="#2980B9" width="175.4" height="9.5"/>
		<g display="inline">
			<polygon fill="#2980B9" points="70.4,137.1 66.9,137.1 66.9,154.1 70.4,154.1 70.4,137.1 			"/>
			<polygon fill="#2980B9" points="75.9,137.1 72.4,137.1 72.4,154.1 75.9,154.1 75.9,137.1 			"/>
			<polygon fill="#2980B9" points="82,137.1 78.6,137.1 78.6,154.1 82,154.1 82,137.1 			"/>
			<polygon fill="#2980B9" points="88.5,137.1 85.1,137.1 85.1,154.1 88.5,154.1 88.5,137.1 			"/>
			<polygon fill="#2980B9" points="94.7,137.1 91.2,137.1 91.2,154.1 94.7,154.1 94.7,137.1 			"/>
			<polygon fill="#2980B9" points="100.2,137.1 96.7,137.1 96.7,154.1 100.2,154.1 100.2,137.1 			"/>
			<polygon fill="#2980B9" points="106.3,137.1 102.9,137.1 102.9,154.1 106.3,154.1 106.3,137.1 			"/>
			<polygon fill="#2980B9" points="112.1,137.1 108.7,137.1 108.7,154.1 112.1,154.1 112.1,137.1 			"/>
			<polygon fill="#2980B9" points="118.3,137.1 114.8,137.1 114.8,154.1 118.3,154.1 118.3,137.1 			"/>
			<polygon fill="#2980B9" points="123.8,137.1 120.3,137.1 120.3,154.1 123.8,154.1 123.8,137.1 			"/>
			<polygon fill="#2980B9" points="129.9,137.1 126.5,137.1 126.5,154.1 129.9,154.1 129.9,137.1 			"/>
			<polygon fill="#2980B9" points="136.4,137.1 133,137.1 133,154.1 136.4,154.1 136.4,137.1 			"/>
			<polygon fill="#2980B9" points="142.6,137.1 139.1,137.1 139.1,154.1 142.6,154.1 142.6,137.1 			"/>
			<polygon fill="#2980B9" points="148.1,137.1 144.6,137.1 144.6,154.1 148.1,154.1 148.1,137.1 			"/>
			<polygon fill="#2980B9" points="154.2,137.1 150.8,137.1 150.8,154.1 154.2,154.1 154.2,137.1 			"/>
			<polygon fill="#2980B9" points="160,136.9 156.5,136.9 156.5,154 160,154 160,136.9 			"/>
			<polygon fill="#2980B9" points="166.2,136.9 162.7,136.9 162.7,154 166.2,154 166.2,136.9 			"/>
			<polygon fill="#2980B9" points="171.6,136.9 168.2,136.9 168.2,154 171.6,154 171.6,136.9 			"/>
			<polygon fill="#2980B9" points="177.8,136.9 174.4,136.9 174.4,154 177.8,154 177.8,136.9 			"/>
			<polygon fill="#2980B9" points="184.3,136.9 180.8,136.9 180.8,154 184.3,154 184.3,136.9 			"/>
			<polygon fill="#2980B9" points="190.5,136.9 187,136.9 187,154 190.5,154 190.5,136.9 			"/>
			<polygon fill="#2980B9" points="195.9,136.9 192.5,136.9 192.5,154 195.9,154 195.9,136.9 			"/>
			<polygon fill="#2980B9" points="202.1,136.9 198.7,136.9 198.7,154 202.1,154 202.1,136.9 			"/>
			<polygon fill="#2980B9" points="207.9,136.9 204.4,136.9 204.4,154 207.9,154 207.9,136.9 			"/>
			<polygon fill="#2980B9" points="214.1,136.9 210.6,136.9 210.6,154 214.1,154 214.1,136.9 			"/>
			<polygon fill="#2980B9" points="219.5,136.9 216.1,136.9 216.1,154 219.5,154 219.5,136.9 			"/>
			<polygon fill="#2980B9" points="225.7,136.9 222.3,136.9 222.3,154 225.7,154 225.7,136.9 			"/>
			<polygon fill="#2980B9" points="232.2,136.9 228.7,136.9 228.7,154 232.2,154 232.2,136.9 			"/>
		</g>
		<g display="inline">
			<path fill="#2980B9" d="M142,103h-3V93h-17v10h-3V91.5c0-0.8,0.7-1.5,1.5-1.5h20c0.8,0,1.5,0.7,1.5,1.5V103z"/>
			<path fill="#2980B9" d="M100,103h-3V93H80v10h-3V91.5c0-0.8,0.7-1.5,1.5-1.5h20c0.8,0,1.5,0.7,1.5,1.5V103z"/>
			<path fill="#2980B9" d="M182,103h-3V93h-17v10h-3V91.5c0-0.8,0.7-1.5,1.5-1.5h20c0.8,0,1.5,0.7,1.5,1.5V103z"/>
			<path fill="#2980B9" d="M222,103h-3V93h-17v10h-3V91.5c0-0.8,0.7-1.5,1.5-1.5h20c0.8,0,1.5,0.7,1.5,1.5V103z"/>
			<rect x="79" y="98" fill="#2980B9" width="20" height="1"/>
			<rect x="120" y="98" fill="#2980B9" width="20" height="1"/>
			<rect x="161" y="98" fill="#2980B9" width="20" height="1"/>
			<rect x="201" y="98" fill="#2980B9" width="20" height="1"/>
		</g>
	</g>
	<g>
	</g>
	<g>
	</g>
	<g>
	</g>
	<g>
	</g>
	<g>
	</g>
	<g>
	</g>
	<g>
	</g>
	<g>
	</g>
	<g>
	</g>
	<g>
	</g>
	<g>
	</g>
	<g>
	</g>
	<g>
	</g>
	<g>
	</g>
	<g>
	</g>
</g>
</svg>
