<?xml version="1.0" encoding="UTF-8" standalone="no"?>
<!-- Generator: Adobe Illustrator 16.0.0, SVG Export Plug-In . SVG Version: 6.00 Build 0)  -->
<!DOCTYPE svg  PUBLIC '-//W3C//DTD SVG 1.1//EN'  'http://www.w3.org/Graphics/SVG/1.1/DTD/svg11.dtd'>
<svg id="Layer_4" xmlns="http://www.w3.org/2000/svg" xml:space="preserve" height="540px" viewBox="-280 -70 960 540" width="960px" version="1.1" y="0px" x="0px" xmlns:xlink="http://www.w3.org/1999/xlink" enable-background="new -280 -70 960 540">
<g stroke="#2980B9" stroke-width=".5" stroke-miterlimit="10" fill="none">
	<path d="m451.99 394.4l21.662-2.466 25.258-44.001-7.28-7.997-39.343 8.061-0.3 46.41z"/>
	<path d="m286.97-52.249l17.726 17.698 32.675-9.892-4.734-23.95-15.499-7.41-21.313 6.858-8.87 16.696z"/>
	<path d="m530.92 155.65l5.672 12.633 10.157 3.047 12.203-17.531-1.66-2.523-26.37 4.37z"/>
	<path d="m-5.186 119.92l18.093 15.934 11.499-28.279-6.748-7.69-9.538-4.156-13.306 24.196z"/>
	<path d="m53.759-28.772l3.628 25.543 6.544 10.703 19.755 4.803 18.799-11.124-24.371-31.407-24.35 1.482z"/>
	<path d="m256.72 371.65l16.141 20.935 5.297 4.025 9.789-46.596-30.769 3.434-0.46 18.22z"/>
	<path d="m-181.18-96.881l0.611 22.048 13.215-7.321 3.065-14.727h-16.88z"/>
	<path d="m307.11-8.965l41.229 24.775 2.862 0.647 0.994-44.196-45.08 18.774z"/>
	<path d="m-152.15 39.105l5.802 22.099 2.729 3.105 25.607-12.051-22.257-23.776-11.88 10.623z"/>
	<path d="m-223.7-50.814l13.815 26.375 12.791-24.265-0.813-1.002-25.8-1.108z"/>
	<path d="m-281.74 97.218l20.313 3.261 25.412-33.518-6.348-4.874-2.137-0.792-37.23 35.922z"/>
	<path d="m704.87 57.266l11.823 17.789 6.988 0.121v-89.748l-1.667 2.01-2.647 3.25-14.49 66.578z"/>
	<path d="m396.56 351.94l5.043 28.052 10.898 19.303 11.442 1.665-4.354-64.771-23.03 15.75z"/>
	<path d="m-255.17 285.87l9.206 24.408 18.133 1.509 16.338-15.755 7.26-39.719-7.532-11.183-4.521-1.596-14.836 1.174-24.05 41.16z"/>
	<path d="m450.57 171.26l28.952 41.426 11.401-0.924 6.482-4.822-31.391-54.011-6.109 0.824-8.926 12.07-0.4 5.43z"/>
	<path d="m389.97 11.26l3.473 1.933 11.372 3.855 11.434-3.565 3.81-14.098-14.885-21.223-1.816 1.143-12.1 17.204-1.27 14.751z"/>
	<path d="m229.89 437.65l1.529 15.792 1.829 3.058 19.327 10.653 22.123-11.717-4.234-34.364-40.58 16.58z"/>
	<path d="m29.936 164.96l5.666 16.771 3.198 2.31 7.836 2.518 39.344-28.122 13.664-14.531-13.944-10.89-21.505-2.791-8.193 3.114-26.066 31.62z"/>
	<path d="m37.788 252.54l24.671 14.354 19.831-26.932-6.747-6.521-37.755 19.1z"/>
	<path d="m64.194 130.24l21.505 2.791 6.931-43.682-13.895 1.39-12.636 22.782-1.905 16.72z"/>
	<path d="m351.21 16.458l4.04 5.861 2.515-0.048 32.208-11.011 1.287-14.751-32.826-27.37-5.768 1.931-0.462 1.192-0.99 44.196z"/>
	<path d="m572.62 208.69l4.446 15.824 21.48 13.759 13.91-18.573-38.708-13.341-1.13 2.33z"/>
	<path d="m-5.057 435.2l5.974 12.978 8.055 10.903 7.426 3.86 19.554-10.452 5.943-35.315-6.343-5.257-37.185 1.377-3.424 21.9z"/>
	<path d="m-263.54 472.38l31.729-8.836-2.19-10.95-2.294-4.672-12.254-17.953-6.052 2.064-8.95 40.35z"/>
	<path d="m618.34-96.881l28.668 41.235 15.063-2.063 16.997-39.173h-60.73z"/>
	<path d="m543.95 305.49l18.368 40.662 24.661 2.455 21.578-63.698-11.551-8.373-47.366-0.619-4.644 16.428-1.05 13.15z"/>
	<path d="m-287.16 327.05l11.088 16.747 13.085 10.947 6.948 1.324 7.781-9.415-0.01-34.18-38.9 14.57z"/>
	<path d="m376.28 353.69l25.33 26.303-5.043-28.052-20.29 1.75z"/>
	<path d="m163.89 25.632l5.824 7.152 17.623 18.804 24.874-17.123-0.088-4.417-1.89-2.672-0.98-1.076-44.354-7.213-0.428 1.023-0.57 5.522z"/>
	<path d="m548.1 249.89l1.06 25.507 0.481 0.521 47.366 0.619 1.537-38.266-21.48-13.759-25.485 15.987-3.48 9.39z"/>
	<path d="m620.23 358.3l15.98 32.395 25.182-4.198 17.322-23.548-41.08-16.143-17.4 11.49z"/>
	<path d="m406.83 179.92l2.357 13.072 12.182 12.205 1.184-0.062 11.613-18.454 0.384-4.104-21.534-7.119-6.18 4.45z"/>
	<path d="m-156.21 112.16l20.966 32.106 28.749 0.354 9.095-2.349-0.153-4.941-55.042-29.559-3.62 4.39z"/>
	<path d="m153.48-19.726l1.899 3.585 54.646 15.309 13.244-20.547-6.347-7.411-56.229-8.506-7.142 7.899-0.07 9.671z"/>
	<path d="m455.4 262.06l16.632 17.921 9.553-9.786-17.07-23.91-9.11 15.78z"/>
	<path d="m131.34 464.28l0.083 0.98 34.119 30.011h14.888l3.584-34.558-12.225-22.102-28.713-0.326-5.49 4.331-6.24 21.67z"/>
	<path d="m600.32 444.7l0.62 13.422 37.908-11.857-17.69-19.982-20.84 18.42z"/>
	<path d="m-200.26 407.5l13.16 37.139 0.092 0.079 18.001-19.912 4.579-14.848-0.269-12.721-35.56 10.26z"/>
	<path d="m464.52 246.29l17.07 23.91 22.727-8.709-13.386-49.726-11.401 0.924-0.188 0.104-14.376 19.737-0.44 13.77z"/>
	<path d="m-213.6-96.881l20.488 27.096 9.201-0.976 3.35-4.073-0.611-22.048h-32.43z"/>
	<path d="m47.043 93.809l19.056 19.711 12.637-22.786-6.599-2.276-25.094 5.351z"/>
	<path d="m274.17 263.8l16.106 30.333 40.32 10.331 4.169-2.747-9.704-51.719-50.9 13.81z"/>
	<path d="m289.18 5.893l9.203 17.121 49.963-7.204-41.23-24.775-1.059-0.089-16.87 14.947z"/>
	<path d="m165.54 495.27l-34.119-30.011-15.572 26.679-0.779 3.332h50.47z"/>
	<path d="m121.5 44.195l7.1 24.633 22.573-9.293 12.709-33.903 0.581-5.521-24.509 7.248-18.45 16.836z"/>
	<path d="m-256.63 1.198l25.987 11.487 13.489 1.424 17.529-20.57-10.236-12.496-28.235-6.471-18.53 26.626z"/>
	<path d="m-268.22-34.352l0.46 7.893 10.437 27.767 0.686-0.11 18.534-26.626 3.297-28.782-7.635-11.943-10.308 1.645-15.47 30.156z"/>
	<path d="m85.7 133.02l13.943 10.879 8.475 1.027 19.391-22.134-5.703-36.818-2.154-4.028-14.026-0.604-13 7.994-6.93 43.676z"/>
	<path d="m-216.81 377.04l34.213 4.443 7.801-42.34-29.667 4.995-9.928 19.054-2.41 13.85z"/>
	<path d="m634.71-37.873l8.896 29.866 51.757-20.972-18.006-18.119-15.291-10.61-15.063 2.063-12.3 17.772z"/>
	<path d="m163.31 189.76l13.026 1.467 11.226-4.38 7.663-20.583-11.699-18.314-10.682-2.251-9.54 44.05z"/>
	<path d="m194.71 235.57l37.637 15.567 22.517 0.44 0.187-3.335-33.657-45.62-26.383 31.56-0.31 1.39z"/>
	<path d="m80.099 476.42l0.694 18.854h12.893l-7.152-17.173-6.435-1.68z"/>
	<path d="m80.793 495.27l-0.694-18.854-14.836-11.116-1.635 29.971h17.165z"/>
	<path d="m-183.91-70.76l32.076 22.162-15.511-33.555-13.215 7.321-3.35 4.072z"/>
	<path d="m571.07-23.679l50.775 35.539h0.225l0.987-0.858-16.448-36.191-34.997-1.258-0.53 2.768z"/>
	<path d="m33.483 327.69l0.967 12.745 4.888 8.068 15.454-11.975-8.806-24.566-2.942-0.247-7.665 10.154-1.896 5.82z"/>
	<path d="m-312.58 325.55l25.424 1.499 38.892-14.576 2.306-2.194-9.206-24.408-47.105-20.995-8.067-1.619-2.243 0.546v61.74z"/>
	<path d="m418.03 292.42l3.095 14.086 0.875 0.784 42.536-4.499 7.496-22.803-16.632-17.921-6.313 1.148-31.07 29.2z"/>
	<path d="m-305.25-41.236l6.307-0.326 8.91-3.489 21.339-23.074-22.905-19.081-13.65 45.97z"/>
	<path d="m536.47 464.84l7.389 22.217 26.718-16.361-3.464-4.48-12.859-8.631-17.79 7.25z"/>
	<path d="m146.86 320.52l31.778 22.327 16.435-4.713 1.48-1.186 7.071-17.657 0.365-3.921-21.822-14.482-35.32 19.63z"/>
	<path d="m-234 452.59l2.191 10.95 25.54 31.729h18.415l3.809-38.867-2.963-11.688-0.092-0.079-6.624-1.646-40.28 9.61z"/>
	<path d="m-40.014 287.85l0.282 9.9 28.895 11.147 17.61-6.755 8.735-10.926-7.599-25.951-2.551-5.929-34.828-10.844-10.544 39.36z"/>
	<path d="m222.98 383.04l19.462 21.319 6.055-2.832-5.775-18.014-8.029-3.882-11.71 3.4z"/>
	<path d="m223.03 27.886l32.991 2.176 12.89-28.182-11.146-13.018-34.73 39.024z"/>
	<path d="m430.48 404.93l1.701 19.211 25.837 17.652 23.473-8.948-0.232-18.798-6.908-21.59-0.701-0.526-21.662 2.466-21.51 10.54z"/>
	<path d="m332.63-68.392l4.734 23.95 15.296 15.512 5.768-1.931 1.722-1.303 2.791-4.457 9.107-28.019-9.431-22.282-29.99 18.53z"/>
	<path d="m-67.542 451.44l16.121 4.979 18.499-8.535-2.98-24.053-8.586-4.869-22.232 27.405-0.822 5.08z"/>
	<path d="m643.32 483.63l0.64 11.641h58.9l-12.94-29.785-45.837 4.048-0.76 14.1z"/>
	<path d="m29.48 250.94l7.84 1.692 0.468-0.094 37.755-19.098-6.209-30.237-22.698-16.647-7.836-2.51-9.32 66.9z"/>
	<path d="m169.54 353.09l2.654 20.472 16.425 14.079 6.45-49.501-16.435 4.713-9.1 10.24z"/>
	<path d="m253.97 481.56l28.24 13.706h2.294l1.965-7.587-2.388-1.921-29.775-9.487-0.33 5.29z"/>
	<path d="m72.336 373.61l26.405 26.266 1.872-21.705-15.957-26.87-4.007 0.637-3.811 3.218-3.401 3.454-1.098 14.99z"/>
	<path d="m-136.64 495.27l19.661-36.807-7.645-16.531-3.655-0.023-55.762 14.494-3.809 38.867h51.21z"/>
	<path d="m252.57 467.15l1.732 9.122 29.775 9.487-8.723-30.179-0.662-0.147-22.13 11.72z"/>
	<path d="m602.6 468.38l4.696 9.488 36.026 5.764 0.763-14.097-1.289-2.309-40.2 1.16z"/>
	<path d="m180.51 74.967l9.207 12.204 3.051 2.099 13.131-8.793 12.387-28.462-6.076-17.549-24.874 17.123-4.589 14.024-2.24 9.354z"/>
	<path d="m642.64 104.83l25.895 13.313 25.369-30.754-42.44-4.885-8.83 22.329z"/>
	<path d="m442.44-37.692l7.668 16.37 17.33 19.846 3.113 0.697 17.5-0.778 14.149-44.221-39.486-18.495-20.27 26.581z"/>
	<path d="m-142.38 90.65l44.947 33.108 18.543-49.35-61.262-3.988-2.23 20.228z"/>
	<path d="m-255.01 179.88l8.165 14.827 25.576-1.322 5.933-6.62 6.607-23.572-16.356-14.529-24.248 13.863-5.68 17.35z"/>
	<path d="m572.29 41.214l8.291 13.406 42.16 1.323 4.102-1.116-4.771-42.966h-0.225l-47.424 17.935-2.13 11.418z"/>
	<path d="m37.32 252.63l10.813 27.163 12.539-0.833 2.392-10.172-0.604-1.897-24.672-14.35-0.468 0.09z"/>
	<path d="m-87.742 149.43l27.648 80.403 24.812 7.6 0.222-0.35-16.647-82.194-22.17-6.174-13.865 0.71z"/>
	<path d="m-218.71 380.03l15.079 25.3 3.371 2.165 35.564-10.263 1.222-2.601-19.124-13.152-34.213-4.443-1.9 2.98z"/>
	<path d="m221.4 202.62l33.657 45.62 12.936-26.754-9.216-41.768-35.227 15.642-1.997 2.232-0.15 5.03z"/>
	<path d="m351.92 65.946l16.691 29.036 20.137-34.845-10.981-0.852-25.85 6.661z"/>
	<path d="m149.41 152.64l1.646 26.417 10.676 11.15 1.571-0.448 9.534-44.062-12.019-12.086-11.41 19.03z"/>
	<path d="m558.86 138.18l22.089 0.258-0.002-0.409-16.935-37.872-3.678 0.859-1.48 37.16z"/>
	<path d="m281.37 328.17l9.774 19.077 14.84-0.674 24.612-42.106-40.32-10.331-7.033 16.564-1.87 17.47z"/>
	<path d="m567.11 466.22l3.464 4.48 5.423 3.703 23.074-8.622 1.868-7.659-0.62-13.422-18.168-15.257-15.03 36.78z"/>
	<path d="m5.718 357.47l16.607 19.53 8.374-3.708 12.525-17.054-3.887-7.735-4.888-8.068-16.763 7.53-11.968 9.51z"/>
	<path d="m34.017 60.726l0.803 5.033 11.734 28.031 0.489 0.019 25.093-5.351-15.02-28.331-17.364-2.491-5.735 3.09z"/>
	<path d="m-312.58 165.1l6.024-1.028 29.628-28.387-21.341-39.314-12.602-6.908-1.71 0.159v75.483z"/>
	<path d="m629.24 7.684l33.909 40.599 8.685-6.663 2.907-19.637-27.53-20.243-5.225-3.696-12.76 9.64z"/>
	<path d="m137.23 376.17l34.964-2.606-2.654-20.472-21.648-0.225-10.66 23.31z"/>
	<path d="m464.54 302.79l17.491 10.739 10.395-7.227 20.666-38.407-8.776-6.403-22.727 8.709-9.553 9.786-7.49 22.8z"/>
	<path d="m67.464 285.19l10.527 12.574 17.384-20.636-4.204-11.62-18.54 4.207-5.167 15.48z"/>
	<path d="m166.7 257.65l1.513 2.105 39.71 11.86 24.432-20.479-37.637-15.567-28.01 22.08z"/>
	<path d="m155.38-16.141l9.516 35.228 44.35 7.213 0.776-27.132-54.65-15.309z"/>
	<path d="m-44.761 69.297l15.536 30.907 2.247 1.81 33.241-8.457-5.746-40.902-13.416-8.928-2.114 0.63-29.748 24.944z"/>
	<path d="m11.321 332.65l6.366 15.319 16.763-7.53-0.967-12.745-22.162 4.95z"/>
	<path d="m6.773 302.15l5.381 14.297 23.224 5.425 7.665-10.154-2.449-4.537-25.086-15.956-8.735 10.92z"/>
	<path d="m-164.7 397.23l0.269 12.721 41.209 22.628 6.343-16.909-7.961-37.272-6.433-5.887-32.206 22.119-1.22 2.6z"/>
	<path d="m45.985 311.96l8.806 24.566 22.047 18.629 3.811-3.218-17.342-40.32-17.322 0.34z"/>
	<path d="m138.42 397.27l4.652 41.012 28.713 0.326 25.863-28.234-1.783-11.844-3.031-2.721-54.41 1.45z"/>
	<path d="m-66.51 339.45l3.318 24.776 3.243 1.824 36.788 0.671 2.277-3.265-31.732-44.96-8.163 6.17-4.568 9.638-1.163 5.14z"/>
	<path d="m-248.27 312.48l0.01 34.18 33.863 16.533 9.928-19.054-23.362-32.345-18.133-1.509-2.31 2.19z"/>
	<path d="m121.81 85.979l5.703 36.818 29.719 8.893-2.355-32.872-0.864-3.069-32.21-9.77z"/>
	<path d="m617.52 495.27l-9.415-14.81-9.058 14.81h18.48z"/>
	<path d="m256.02 30.062l3.775 19.05 23.367 24.248 18.694-15.788-3.474-34.558-9.203-17.121-20.28-4.013-12.89 28.182z"/>
	<path d="m277.51 455.7l26.193 21.485 5.481 0.301 1.932-7.988-9.728-25.938-23.87 12.15z"/>
	<path d="m88.826 47.912l10.332 25.104 6.468 8.332 14.026 0.604 8.953-13.123-7.1-24.633-7.68-10.67-17.616-2.805-7.388 17.191z"/>
	<path d="m419.59 336.19l4.354 64.771 6.535 3.973 21.507-10.533 0.297-46.403-28.376-25.99-4.32 14.18z"/>
	<path d="m113.82 33.525l7.68 10.67 18.454-16.836-19.272-7.917-6.86 14.083z"/>
	<path d="m675.39 154.22l48.289 12.661v-21.487l-44.148-3.158-4.14 11.99z"/>
	<path d="m359.52 407.09l4.972 32.09 22.908 27.861 40.867-34.477 3.921-8.428-1.701-19.211-6.535-3.973-11.442-1.665-52.374 7.157-0.63 0.65z"/>
	<path d="m-154.62-96.881l16.992 28.586 19.915-28.586h-36.9z"/>
	<path d="m195.68 459.9l20.818 24.449 16.745-27.853-1.829-3.058-35.73 6.46z"/>
	<path d="m-290.03-45.051l21.811 10.7 15.472-30.157-15.943-3.617-21.34 23.074z"/>
	<path d="m108.12 144.93l8.278 15.937 33.019-8.232 11.409-19.029-0.041-0.109-3.555-1.809-29.719-8.893-19.4 22.13z"/>
	<path d="m0.318 21.471l11.695-2.952 45.374-21.748-3.628-25.543-1.511-2.057-32.137-2.155-12.564 22.242-7.229 32.213z"/>
	<path d="m-97.557 137.33l0.153 4.941 5.005 4.716 4.657 2.436 13.864-0.715 16.994-14.471 27.659-34.037-15.536-30.907-26.116 2.045-7.512 2.384-0.499 0.682-18.543 49.35-0.126 13.57z"/>
	<path d="m-83.626 378.4l1.709 6.058 10.946 19.814 23.619 4.679-2.766-14.983-9.832-27.91-3.243-1.824-20.433 14.16z"/>
	<path d="m-52.617 318.5l31.732 44.96 12.355-11.467-0.103-6.196-37.516-33.96-6.468 6.67z"/>
	<path d="m490.34 93.691l3.796 48.057 7.751 7.643 21.795-1.554 10.369-11.884 5.874-35.959-7.616-4.232-41.96-2.077z"/>
	<path d="m-0.729 327.31l0.133 5.054 11.917 0.281 22.162-4.956 1.896-5.82-23.224-5.425-12.884 10.87z"/>
	<path d="m216.84 169.43l6.71 25.934 35.227-15.642 16.174-28.74-2.279-18.538-6.974 0.308-48.86 36.68z"/>
	<path d="m-70.117 495.27l-7.196-33.447-39.67-3.359-19.661 36.807h66.523z"/>
	<path d="m137.81 321.45l10.084 31.417 21.648 0.225 9.095-10.237-31.778-22.327-9.05 0.92z"/>
	<path d="m409.42 220.9l14.195 21.532 3.173-1.304 9.506-28.447-13.743-7.545-1.184 0.062-11.96 15.7z"/>
	<path d="m647.27 65.529l4.188 16.972 42.44 4.885 8.531 0.258 14.262-12.589-11.823-17.789-33.04-15.646-8.685 6.663-15.87 17.246z"/>
	<path d="m551.16 443.45l3.085 14.135 12.859 8.631 15.041-36.776-9.127-18.418-11.827 0.668-10.02 31.77z"/>
	<path d="m-242.44-66.153l7.635 11.943 11.104 3.396 25.792 1.108 4.791-20.079-20.488-27.096h-14.061l-14.77 30.728z"/>
	<path d="m30.699 373.29l27.575 18.788 14.063-18.468 1.102-15.001-30.214-2.373-12.526 17.05z"/>
	<path d="m149.04 223.84l0.248 11.6 12.422 21.022 4.982 1.188 28.018-22.081 0.3-1.388-18.68-42.96-13.026-1.467-1.571 0.448-5.635 7.377-7.06 26.26z"/>
	<path d="m487.22 495.27l-0.138-3.47-30.938-23.047-17.305 12.583-3.108 13.934h51.49z"/>
	<path d="m582.43 196.24l20.473 4.089-4.559-30.821-15.91 26.73z"/>
	<path d="m501.55 203.45l5.13-1.196 29.913-33.972-5.672-12.633-7.242-7.812-21.795 1.554-0.33 54.06z"/>
	<path d="m-209.88-24.439l0.018 5.482 10.236 12.496 2.596-0.599 5.377-37.867-5.437-3.777-12.8 24.265z"/>
	<path d="m586.98 348.61l5.443 5.962 27.81 3.729 17.404-11.494 7.296-42.941-7.389-17.753-28.986-1.201-21.57 63.69z"/>
	<path d="m168.21 259.76l13.955 41.136 21.822 14.482 9.859-6.518-0.985-24.368-4.941-12.872-39.71-11.86z"/>
	<path d="m354.42 178.63l12.46 32.721 16.269-6.462 5.273-28.949-19.888-18.527-14.11 21.22z"/>
	<path d="m203.62 319.3l39.648 31.464 2.198 0.248 0.117-0.034 0.708-38.463-5.803-8.575-26.645 4.922-9.859 6.518-0.38 3.92z"/>
	<path d="m466.02 152.93l31.391 54.011 1.298-0.745 2.846-2.749 0.334-54.059-7.751-7.643-28.12 11.18z"/>
	<path d="m-217.16 14.109l19.681 33.179 24.942-11.31-3.336-23.918-9.631-18.289-11.53-0.83-2.596 0.599-17.52 20.569z"/>
	<path d="m438.35 115.5l21.563 38.256 6.109-0.824 28.117-11.185-3.796-48.057-6.981-5.736-41.979 18.593-3.03 8.94z"/>
	<path d="m358.43-30.861l32.826 27.37 12.1-17.204-24.772-10.112-18.432-1.357-1.73 1.303z"/>
	<path d="m506.68 202.25l29.839 1.405 18.318-20.03-8.087-12.3-10.157-3.047-29.91 33.97z"/>
	<path d="m151.18 59.535l29.331 15.432 2.236-9.355-13.034-32.828-5.824-7.152-12.72 33.903z"/>
	<path d="m-169.01 424.8l40.724 17.106 3.655 0.023 1.41-9.35-41.209-22.628-4.57 14.85z"/>
	<path d="m190.02 103.73l5.707 36.783 19.233 0.236 17.214-10.94-38.687-31.383-3.46 5.303z"/>
	<path d="m62.833 11.004l10.126 35.901 15.866 1.007 7.384-17.191-12.522-18.444-19.756-4.803-1.098 3.53z"/>
	<path d="m440.6 27.553l3.513 22.117 24.928 14.326 1.514-64.776-3.113-0.697-26.395 23.927-0.44 5.103z"/>
	<path d="m-103.15 284.32l63.137 3.53 10.544-39.356-5.813-11.068-24.812-7.6-37.51 11.621-5.546 42.88z"/>
	<path d="m111.16 198.07l5.135 8.631 32.744 17.142 7.058-26.261-41.701-3.497-3.24 3.99z"/>
	<path d="m275.36 455.58l8.723 30.179 2.388 1.921 17.234-10.496-26.193-21.485-2.15-0.12z"/>
	<path d="m369.74 109.31l62.872 11.231 5.729-5.038 3.033-8.952-24.364-19.847-1.554-0.255-44.855 20.801-0.86 2.06z"/>
	<path d="m-286.36 385.1l39.582 2.438-9.257-31.466-6.948-1.324-17.018 18.305-6.35 12.04z"/>
	<path d="m699.54 119.48l24.146 17.097v-61.405l-6.988-0.121-14.262 12.589-2.9 31.837z"/>
	<path d="m564.29-96.881l6.024 22.932 60.024 35.877 4.371 0.199 12.292-17.773-28.668-41.235h-54.03z"/>
	<path d="m-298.08 74.831l47.811-16.401-26.522-44.631-1.834 0.209-19.46 60.823z"/>
	<path d="m-73.878 148.71l22.17 6.174 21.397 4.701 2.371-0.914 3.018-1.376 2.088-32.196-34.049 9.141-16.995 14.48z"/>
	<path d="m473.65 391.93l0.701 0.526 25.815 8.113 36.122-21.07-0.4-14.981-34.515-16.435-2.466-0.154-25.24 44z"/>
	<path d="m474.35 392.46l6.908 21.59 21.494 18.312 13.672-7.748-16.259-24.04-25.81-8.11z"/>
	<path d="m637.64 346.81l41.08 16.143 19.8-7.623-18.215-27.891-35.369-23.57-7.29 42.94z"/>
	<path d="m57.117 60.126l15.02 28.331 6.599 2.276 13.895-1.39 12.995-7.996-6.468-8.332-38.248-14.3-3.797 1.411z"/>
	<path d="m100.63 241.02l37.198 32.303 23.885-16.859-12.422-21.022-33.357-2.098-10.944 4.609-4.37 3.07z"/>
	<path d="m679.33 282.18l9.715 25.476 20.893-5.943-15.295-19.571-4.628-3.62-10.68 3.65z"/>
	<path d="m-180.3 207.25l8.493 21.512 34.571 3.703 4.072-3.359-16.554-28.619-30.58 6.77z"/>
	<path d="m120.69 19.441l19.272 7.917 24.509-7.248 0.428-1.023-9.516-35.228-1.899-3.585-30.88 21.484-1.91 17.683z"/>
	<path d="m-77.313 461.82l7.196 33.447h31.774l8.873-22.559-21.951-16.29-16.121-4.979-9.771 10.38z"/>
	<path d="m383.68 259.14l22.528 10.515 17.41-27.215-14.195-21.532-8.107-0.802-17.139 19.893-0.49 19.14z"/>
	<path d="m-30.311 159.59l3.034 66.009 29.836-22.179-30.5-44.744-2.37 0.91z"/>
	<path d="m69.334 203.2l6.209 30.237 6.747 6.521 6.467 4.147 11.874-3.09 4.359-3.067-0.802-38.195-6.141 0.104-23.755 1.954-4.96 1.39z"/>
	<path d="m-29.661-20.467l1.886 2.378 35.323 7.347 12.564-22.242-11.214-8.777-37.118 9.2-1.441 12.094z"/>
	<path d="m105.26 344.5l16.781 22.605 12.998 10.994 2.193-1.936 10.661-23.303-10.084-31.417-6.41-2.816-26.14 25.89z"/>
	<path d="m501.95 306.05l23.64 12.504 18.359-13.056 1.047-13.146-43.05 13.71z"/>
	<path d="m313.94 423.39l13.263 29.254 13.425 5.531 23.858-18.991-4.972-32.09-36.261 3.153-8.246 4.779-1.06 8.37z"/>
	<path d="m637.54 286.11l7.389 17.753 35.369 23.57 8.74-19.782-9.715-25.476-38.232 0.781-3.55 3.16z"/>
	<path d="m317.13-75.802l15.499 7.41 29.987-18.53 3.891-9.958h-48.572l-0.81 21.078z"/>
	<path d="m160.78 133.5l0.041 0.109 12.019 12.086 10.682 2.251 12.199-7.434-5.707-36.783-15.944 14.704-13.29 15.06z"/>
	<path d="m508.41 11.936l3.36 20.344 29.848 15.735 30.673-6.801 2.134-11.418-13.65-34.019-30.329 4.875-22.03 11.284z"/>
	<path d="m39.753 57.636l17.364 2.491 3.792-1.411 12.05-11.811-10.126-35.901-15.096 22.364-7.984 24.268z"/>
	<path d="m492.87 461.16l26.954-1.915 3.88-19.809-6.439-14.613-0.835-0.215-13.672 7.748-8.318 9.26-1.56 19.55z"/>
	<path d="m258.77 179.72l9.216 41.768 38.798-10.488-1.193-30.271-30.646-29.749-16.18 28.74z"/>
	<path d="m333.7 230.75l33.166-19.358 0.019-0.037-12.46-32.721-13.557 4.373-7.17 47.75z"/>
	<path d="m523.68 147.84l7.242 7.812 26.372-4.375-1.694-7.425-21.551-7.896-10.37 11.88z"/>
	<path d="m78.109-30.254l24.376 31.407 0.15-0.075-3.435-33.738-21.086 2.406z"/>
	<path d="m422 307.29l1.908 14.714 28.376 25.99 39.343-8.061-9.6-26.403-17.491-10.739-42.54 4.5z"/>
	<path d="m328.23 245.21l54.86 14.053 0.596-0.125 0.497-19.142-17.317-28.604-33.166 19.358-5.25 5.531-0.22 8.92z"/>
	<path d="m188.62 387.64l4.217 8.172 3.031 2.721 17.846-15.129 3.006-23.341-20.169-23.109-1.48 1.186-6.46 49.5z"/>
	<path d="m195.87 398.53l1.783 11.844 23.658 14.131 21.136-20.151-19.462-21.319-9.27 0.367-17.85 15.13z"/>
	<path d="m566.68 184.18l9.563 13.441 6.186-1.382 15.914-26.732 1.955-9.996-12.13-2.37-8.767 3.706-12.72 23.33z"/>
	<path d="m-64.189-74.617l35.969 42.056 37.118-9.2-12.141-55.12h-56.011l-4.935 22.264z"/>
	<path d="m482.03 313.53l9.6 26.403 7.28 7.997 2.466 0.154 24.216-29.533-23.64-12.504-9.527 0.256-10.4 7.22z"/>
	<path d="m207.92 271.62l4.941 12.872 42.247-32.506-0.24-0.405-22.517-0.44-24.43 20.48z"/>
	<path d="m116.4 160.87l0.402 1.809 1.356 2.891 32.907 13.485-1.646-26.417-33.02 8.23z"/>
	<path d="m426.79 241.13l11.502 0.627 26.666-9.227 14.376-19.737-27.305-2.879-15.733 2.769-9.52 28.45z"/>
	<path d="m-310.87 89.458l12.602 6.908 16.527 0.852 37.239-35.922-5.771-2.865-47.811 16.401-12.79 14.626z"/>
	<path d="m116.46-80.534l20.942 44.167 16.155 6.97 7.142-7.899 19.959-59.585h-60.815l-3.38 16.347z"/>
	<path d="m119.65 81.952l2.154 4.028 32.202 9.769 35.708-8.577-9.207-12.204-29.331-15.432-22.573 9.293-8.95 13.123z"/>
	<path d="m662.07-57.708l15.291 10.61 33.452-49.783h-31.746l-16.99 39.173z"/>
	<path d="m115.94 233.34l33.357 2.098-0.248-11.6-32.75-17.14-0.36 26.64z"/>
	<path d="m-312.58 5.601l29.344 6.865-3.129-42.376-12.572-11.651-6.307 0.326-7.335 3.176v43.66z"/>
	<path d="m-295.08 245.26l35.687-25.999-0.039-0.207-20.579-15.268-1.404 0.091-11.747 26.824-1.92 14.57z"/>
	<path d="m-124.63 441.93l7.645 16.531 39.67 3.359 9.771-10.38 0.82-5.073-17.249-25.991-7.474-2.903-25.431-1.802-6.343 16.909-1.42 9.34z"/>
	<path d="m392.4 207.93l8.921 12.173 8.107 0.802 11.947-15.702-12.182-12.205-16.8 14.93z"/>
	<path d="m-118.38 349.51l51.867-10.055 1.162-5.146-38.965-8.288-14.06 23.49z"/>
	<path d="m16.398 462.94l0.304 32.328h46.926l1.635-29.971-3.429-7.157-25.881-5.652-19.555 10.45z"/>
	<path d="m-56.029 5.819l41.016 38.535 2.114-0.63 7.253-16.222-14.376-27.885-36.007 6.202z"/>
	<path d="m588.22 390.07l42.39 10.936 5.598-10.313-15.98-32.395-27.81-3.729-4.2 35.5z"/>
	<path d="m532.31 95.761l7.616 4.232 20.407 1.021 3.678-0.859 11.957-6.895 4.615-38.64-8.291-13.406-30.673 6.801-9.33 47.751z"/>
	<path d="m-286.52 170.47l12.408 11.025 19.109-1.615 5.677-17.354-13.836-7.107-23.36 15.05z"/>
	<path d="m210.23 27.376l1.89 2.672 10.906-2.163 34.741-39.023-3.592-5.864-0.777-0.033-43.17 44.411z"/>
	<path d="m408.77-96.881l2.154 13.178 51.769 17.711 5.379-30.89h-59.3z"/>
	<path d="m318.14 179.42l22.719 3.586 13.557-4.373 14.114-21.218-0.655-18.485-7.821-12.256-7.425-0.716-34.5 53.46z"/>
	<path d="m39.337 348.5l3.887 7.735 30.214 2.373 3.401-3.454-22.047-18.629-15.455 11.97z"/>
	<path d="m242.72 383.51l5.775 18.014 30.001 4.497 0.621-0.438-0.96-8.976-5.297-4.025-10.739-5.902-11.206-5.82-2.953 0.373-5.24 2.28z"/>
	<path d="m573.74 206.36l38.708 13.341 7.181-7.521-16.73-11.852-20.473-4.089-6.186 1.382-2.5 8.74z"/>
	<path d="m482.49 79.104l0.872 8.852 6.981 5.736 41.969 2.07 9.31-47.746-29.85-15.736-29.28 46.824z"/>
	<path d="m57.122 406.4l33.174 11.487 0.836-0.34 7.878-17.13-0.269-0.543-26.405-26.266-14.063 18.47-1.151 14.32z"/>
	<path d="m-195.28 88.985l50.709 2.79 2.191-1.125 2.229-20.23-3.468-6.11-2.729-3.105-48.93 27.78z"/>
	<path d="m128.04 285.27l1.172 27.536 2.183 5.82 6.41 2.816 9.049-0.923 35.308-19.632-13.955-41.136-1.513-2.105-4.982-1.188-23.885 16.859-9.78 11.94z"/>
	<path d="m367.88 138.93l0.655 18.485 19.888 18.527 18.411 3.982 6.186-4.462 6.626-22.211-4.632-11.943-47.15-2.39z"/>
	<path d="m-35.902 423.83l2.98 24.053 33.839 0.292-5.974-12.97-30.845-11.37z"/>
	<path d="m534.05 135.95l21.551 7.896 3.256-5.671 1.475-37.164-20.407-1.021-5.88 35.951z"/>
	<path d="m60.671 278.96l6.792 6.226 5.167-15.482-9.568-0.915-2.391 10.16z"/>
	<path d="m409.42-55.828l0.059 0.156 2.762 4.287 7.68 9.012 22.513 4.681 20.28-26.581-0.028-1.718-51.76-17.712-1.5 27.875z"/>
	<path d="m413.02 175.46l21.534 7.119 16.021-11.317 0.41-5.437-31.339-12.577-6.62 22.22z"/>
	<path d="m362.62-86.922l9.431 22.282 37.374 8.812 1.496-27.875-2.154-13.178h-42.26l-3.89 9.959z"/>
	<path d="m259.83-59.313l9.396 13.283 17.738-6.218 8.854-16.696-6.188-9.5-25.81-8.188-3.99 27.319z"/>
	<path d="m632.32 156.39l3.664 50.744 16.95 10.684 29.935-15.444-11.785-45.177-38.76-0.8z"/>
	<path d="m378.58-30.807l24.772 10.112 1.816-1.143 14.752-20.536-7.68-9.012-33.66 20.579z"/>
	<path d="m-248.55 429.96l12.254 17.953 29.864-10.659-16.622-11.535-23.241 0.92-2.25 3.32z"/>
	<path d="m415.01 141.31l4.632 11.943 31.339 12.577 8.926-12.07-21.563-38.256-5.729 5.038-17.61 20.77z"/>
	<path d="m564.01 100.15l16.935 37.872 10.745-10.474-3.912-30.097-11.811-4.196-11.95 6.893z"/>
	<path d="m278.16 396.61l0.96 8.976 35.887 9.443 8.246-4.779-14.042-60.944-3.224-2.727-14.84 0.674-3.198 2.762-9.8 46.6z"/>
	<path d="m-109.96 7.006l21.398 52.447 10.173 14.273 7.512-2.384 4.665-64.306-40.008-7.006-3.74 6.976z"/>
	<path d="m19.168 384.2l16.385 27.719 6.343 5.257 15.227-10.771 1.151-14.323-27.575-18.788-8.374 3.7-3.157 7.2z"/>
	<path d="m-312.58 449.91l41.824 31.094 7.219-8.631 8.938-40.347-40.048-2.255-17.933-0.85v21z"/>
	<path d="m-312.58-38.06l7.335-3.176 13.651-45.971-6.272-9.674h-14.714v58.821z"/>
	<path d="m560.77-4.223l13.651 34.018 47.424-17.935-50.775-35.539-10.29 19.456z"/>
	<path d="m-312.58 428.92l17.933 0.85 48.853-41.711-0.985-0.526-39.582-2.438-26.219 7.315v36.52z"/>
	<path d="m679.53 142.24l44.148 3.158v-8.817l-24.146-17.097-16.189 9.044-3.81 13.72z"/>
	<path d="m256.65-96.881l7.174 10.249 25.81 8.188-1.377-18.437h-31.6z"/>
	<path d="m671.83 41.62l33.038 15.646 14.497-66.578-44.63 31.295-2.91 19.637z"/>
	<path d="m434.17 186.68l17.863 23.23 27.305 2.879 0.188-0.104-28.952-41.426-16.021 11.317-0.39 4.1z"/>
	<path d="m-211.76 245.14l7.532 11.183 44.212 14.776 22.785-38.626-34.571-3.703-37.792 14.404-2.16 1.97z"/>
	<path d="m83.687 12.277l12.523 18.444 17.616 2.805 6.861-14.084 1.91-17.684-19.96-0.679-0.15 0.075-18.803 11.123z"/>
	<path d="m-56.884 134.24l34.049-9.141 4.251-9.692-8.395-13.395-2.247-1.81-27.658 34.03z"/>
	<path d="m39.249 104.64l16.752 28.711 8.193-3.114 1.905-16.715-19.056-19.711-0.489-0.019-7.305 10.85z"/>
	<path d="m-10.837 308.9l10.108 18.408 12.883-10.866-5.381-14.297-17.61 6.76z"/>
	<path d="m621.08 421.89l0.081 4.389 17.69 19.982 2.855 1.777 26.154-18.57-37.464-23.18-9.31 15.6z"/>
	<path d="m-201.05 91.461l18.988 22.333 25.847-1.631 3.614-4.389 8.03-15.999-50.709-2.79-5.673 1.263-0.1 1.217z"/>
	<path d="m-312.58 217.94l17.788-6.838 6.539-8.012-24.327-18.244v33.09z"/>
	<path d="m7.909 265.27l7.599 25.951 25.086 15.956 3.845-20.725-36.53-21.19z"/>
	<path d="m38.548-96.881l17.611 47.595 27.011-18.331-0.196-29.264h-44.426z"/>
	<path d="m576 474.4l0.108 20.867h22.944l9.058-14.81-0.81-2.595-4.696-9.488-3.53-2.597-23.07 8.63z"/>
	<path d="m-215.33 186.77l10.874 7.728 18.542 6.068 10.009-37.146-1.049-2.981-31.768 2.758-6.6 23.57z"/>
	<path d="m288.26-96.881l1.377 18.437 6.188 9.5 21.313-6.858 0.805-21.079h-29.68z"/>
	<path d="m661.39 386.5l16.811 40.885 8.218 2.695 5.963-15.124 10.398-58.879-4.268-0.748-19.8 7.623-17.32 23.55z"/>
	<path d="m-238.1-25.428l28.235 6.471-0.018-5.482-13.815-26.375-11.104-3.396-3.3 28.782z"/>
	<path d="m390.79 51.572l3.392 5.077 15.002-11.887 0.493-3.221-4.863-24.494-11.372-3.855-2.65 38.38z"/>
	<path d="m196.55 336.95l20.169 23.109 26.551-9.303-39.648-31.464-7.07 17.65z"/>
	<path d="m680.3 327.44l18.215 27.891 4.268 0.748 20.899-2.767v-43.762l-13.749-7.836-20.893 5.943-8.75 19.79z"/>
	<path d="m77.444 300.08l9.222 6.525 42.548 6.202-1.172-27.536-32.667-8.146-17.384 20.636-0.545 2.33z"/>
	<path d="m63.308 311.62l17.342 40.32 4.007-0.637 15.952-6.366-13.943-38.328-9.222-6.525-14.137 11.54z"/>
	<path d="m-286.37-29.911l3.129 42.376 4.606 1.542 1.834-0.209 19.477-12.491-10.437-27.767-18.61-3.451z"/>
	<path d="m192.77 89.27l0.717 9.153 38.687 31.383 33.524 2.944 6.974-0.308 4.58-7.833-2.623-19.931-28.02-15.55-40.709-8.654-13.13 8.794z"/>
	<path d="m298.38 23.014l3.474 34.558 28.214 0.251 8.928-3.303 13.654-25.834 2.596-6.366-4.04-5.861-2.862-0.647-49.96 7.202z"/>
	<path d="m-167.35-82.154l15.511 33.555 3.377 3.866 9.062-1.579 1.772-21.984-16.992-28.586h-9.665l-3.07 14.728z"/>
	<path d="m0.517 52.651l5.746 40.906 1.858 2.167 9.538 4.166 17.161-34.132-0.803-5.033-33.5-8.074z"/>
	<path d="m500.17 400.57l16.259 24.04 0.835 0.215 32.49-19.21-13.462-26.115-36.12 21.07z"/>
	<path d="m-302.27 264.88l47.105 20.995 24.047-41.161-4.727-2.52-66.43 22.68z"/>
	<path d="m-160.02 271.09l9.273 30.48 43.118-9.203 4.475-8.047 5.547-42.873-27.978-12.165-7.578-0.178-4.072 3.359-22.78 38.63z"/>
	<path d="m-139.4-46.311l25.788 11.237 3.938 1.67 32.623-25.052 12.862-16.162 4.936-22.264h-58.458l-19.915 28.586-1.78 21.985z"/>
	<path d="m692.38 414.96l31.298-18.715v-42.93l-20.899 2.767-10.4 58.88z"/>
	<path d="m325.06 250l9.704 51.719 13.999 3.291 34.317-45.753-54.86-14.053-3.16 4.79z"/>
	<path d="m-27.94 158.67l30.5 44.744 33.042-21.687-5.666-16.771-11.977-9.479-42.881 1.815-3.018 1.39z"/>
	<path d="m207.62 162.53l9.222 6.898 48.857-36.678-33.524-2.944-17.214 10.94-7.35 21.78z"/>
	<path d="m-298.94-41.562l12.572 11.651 18.609 3.452-0.46-7.893-21.811-10.7-8.91 3.49z"/>
	<path d="m254.18-17.002l3.592 5.864 11.14 13.018 20.265 4.013 16.878-14.947-1.364-25.497-17.726-17.698-17.738 6.218-9.26 14.325-5.79 14.704z"/>
	<path d="m-312.58 392.42l26.219-7.315 6.36-12.048 3.933-29.252-11.088-16.747-25.424-1.499v66.87z"/>
	<path d="m404.81 17.048l4.863 24.494 30.93-13.989 0.446-5.103-24.799-8.968-11.44 3.566z"/>
	<path d="m-59.95 366.05l9.832 27.91 30.053-16.414-3.097-10.825-36.788-0.67z"/>
	<path d="m694.64 282.14l15.295 19.571 13.749 7.836v-29.365l-29.05 1.96z"/>
	<path d="m360.06 126.67l7.821 12.256 47.134 2.377 17.604-20.768-62.872-11.231-9.68 17.36z"/>
	<path d="m492.42 306.3l9.527-0.256 43.046-13.697 4.644-16.428-0.481-0.521-36.069-7.505-20.67 38.42z"/>
	<path d="m160.7-37.296l56.229 8.506 3.431-36.081-2.522-16.995-8.357-15.016h-28.82l-19.96 59.586z"/>
	<path d="m255.34 374.04l6.785 12.644 10.739 5.902-16.141-20.935-1.38 2.4z"/>
	<path d="m525.94-31.675l4.509 32.328 30.329-4.875 10.3-19.456 0.542-2.769-0.946-5.69-44.73 0.462z"/>
	<path d="m-185.92 200.56l2.682 5.988 2.939 0.7 30.583-6.764-0.058-0.591-26.136-36.479-10 37.14z"/>
	<path d="m-294.65 429.77l40.048 2.255 6.052-2.064 2.256-3.321 3.589-36.967-3.092-1.613-48.86 41.71z"/>
	<path d="m-5.409 396.59l3.777 16.703 37.185-1.377-16.385-27.719-24.577 12.4z"/>
	<path d="m-77.051-58.456l23.489 54.792 23.901-16.804 1.441-12.094-35.969-42.056-12.862 16.162z"/>
	<path d="m-83.97 420.38l17.249 25.991 22.232-27.405-0.313-6.982-2.55-3.036-23.619-4.679-12.999 16.12z"/>
	<path d="m456.15 468.75l30.938 23.047 2.034-26.884-23.241-10.987-9.73 14.82z"/>
	<path d="m86.666 306.61l13.943 38.328 4.649-0.434 26.139-25.872-2.183-5.82-42.554-6.21z"/>
	<path d="m212.12 30.048l0.088 4.417 6.076 17.549 13.134 3.301 28.375-6.204-3.775-19.05-32.991-2.176-10.91 2.163z"/>
	<path d="m234.69 379.63l8.029 3.882 5.242-2.278 2.188-28.989-4.569-1.269-0.117 0.034-10.77 28.63z"/>
	<path d="m677.36-47.098l18.006 18.119 28.318 10.424v-78.326h-12.872l-33.46 49.783z"/>
	<path d="m-270.76 481.01l3.556 14.263h60.932l-25.54-31.729-31.729 8.836-7.22 8.63z"/>
	<path d="m-273.8 136.47l10.635 18.957 13.836 7.107 24.248-13.863-4.152-23.489-11.386-3.103-33.19 14.38z"/>
	<path d="m-51.708 154.89l16.647 82.194 7.784-11.484-3.034-66.009-21.397-4.7z"/>
	<path d="m309.21 349.3l14.042 60.944 36.261-3.153 0.615-0.645-4.093-45.519-46.82-11.62z"/>
	<path d="m305.59 180.73l1.193 30.271 21.658 25.278 5.25-5.531 7.168-47.744-22.719-3.586-12.55 1.31z"/>
	<path d="m-246.29 426.64l23.241-0.92 19.42-20.393-15.079-25.3-23.993 9.646-3.59 36.96z"/>
	<path d="m98.742 399.88l0.269 0.543 34.761-10.216 1.266-12.103-12.998-10.994-21.426 11.064-1.868 21.71z"/>
	<path d="m-12.899 43.723l13.416 8.928 33.5 8.074 5.736-3.09 7.984-24.268-35.724-14.848-11.695 2.952-5.964 6.03-7.253 16.222z"/>
	<path d="m-187.01 444.71l2.963 11.688 55.762-14.494-40.724-17.106-18 19.91z"/>
	<path d="m-175.87 12.06l3.336 23.918 20.386 3.127 11.88-10.624 7.753-10.229-19.02-15.353-24.34 9.161z"/>
	<path d="m-221.26 193.39l4.983 50.15 4.521 1.596 2.165-1.966 13.393-23.399-8.255-25.273-10.874-7.728-5.93 6.62z"/>
	<path d="m94.57 475.96l21.279 15.98 15.572-26.679-0.083-0.98-31.64-1.765-5.13 13.44z"/>
	<path d="m-312.58 184.85l24.327 18.244 6.839 0.779 1.404-0.091 5.897-22.284-12.408-11.025-20.034-6.406-6.024 1.028v19.75z"/>
	<path d="m247.97 381.23l2.953-0.373 4.421-6.823 1.384-2.389 0.458-18.202-7.027-1.202-2.18 28.98z"/>
	<path d="m-312.58 263.81l2.243-0.546 15.258-18.003 1.917-14.559-1.63-19.592-17.788 6.838v45.86z"/>
	<path d="m487.08 491.8l0.138 3.47h32.99l6.085-29.996-6.477-6.027-26.954 1.915-3.748 3.755-2.04 26.88z"/>
	<path d="m435.73 495.27l3.108-13.934-10.58-48.769-40.867 34.477-0.951 28.226h49.29z"/>
	<path d="m245.58 350.97l4.569 1.269 7.027 1.202 30.769-3.434 3.198-2.762-9.774-19.077-35.081-15.661-0.72 38.46z"/>
	<path d="m-143.62 64.31l3.468 6.11 61.262 3.988 0.499-0.682-10.173-14.273-29.449-7.194-25.61 12.051z"/>
	<path d="m352.65 28.685l25.115 30.6 10.981 0.852 5.353-3.127 0.082-0.36-3.392-5.077-33.029-29.302-2.515 0.048-2.59 6.366z"/>
	<path d="m428.26 432.57l10.58 48.769 17.305-12.583 9.73-14.824-7.857-12.137-25.837-17.652-3.91 8.42z"/>
	<path d="m357.76 22.271l33.029 29.302 2.651-38.38-3.473-1.933-32.21 11.011z"/>
	<path d="m-227.83 311.79l23.362 32.345 29.667-4.995 17.738-6.608 2.141-22.448-56.57-14.048-16.34 15.76z"/>
	<path d="m304.69-34.55l1.364 25.497 1.059 0.089 45.09-18.774 0.462-1.192-15.296-15.512-32.67 9.892z"/>
	<path d="m-3.242-96.881l12.141 55.12 11.213 8.777 32.137 2.155 3.911-18.457-17.612-47.595h-41.79z"/>
	<path d="m-236.29 447.92l2.294 4.672 40.276-9.602-12.706-5.729-29.86 10.66z"/>
	<path d="m587.78 97.456l3.912 30.097 36.529 12.241 3.083-24.866-31.664-15.713-11.86-1.751z"/>
	<path d="m652.93 217.82l2.228 14.796 53.493 16.626 15.031-8.077v-35.945l-40.817-2.844-29.93 15.44z"/>
	<path d="m422.56 205.14l13.743 7.545 15.733-2.769-17.863-23.23-11.61 18.46z"/>
	<path d="m-44.802 411.98l0.313 6.982 8.586 4.869 30.846 11.37 3.425-21.906-3.777-16.703-8.713-4.517-30.68 19.91z"/>
	<path d="m-182.06 113.79l10.896 39.359 35.917-8.884-20.966-32.106-25.85 1.63z"/>
	<path d="m607.3 477.86l0.81 2.595 9.415 14.81h26.441l-0.64-11.641-36.02-5.77z"/>
	<path d="m325.77 495.27l-16.585-17.782-5.481-0.301-17.234 10.496-1.965 7.587h41.27z"/>
	<path d="m5.358 259.34l2.551 5.929 36.53 21.183 3.694-6.656-10.813-27.16-7.84-1.692-24.122 8.4z"/>
	<path d="m-24.923 157.3l42.881-1.815-5.051-19.623-18.093-15.934-13.398-4.516-4.251 9.692-2.088 32.2z"/>
	<path d="m417.02 86.702l24.364 19.847 41.979-18.593-0.872-8.852-13.45-15.108-24.93-14.327-12.872 6.278-14.22 30.754z"/>
	<path d="m171.79 438.61l12.225 22.102 11.672-0.81 35.734-6.461-1.529-15.792-8.58-13.143-23.658-14.131-25.86 28.23z"/>
	<path d="m547.7 213.08l3.882 27.419 25.485-15.987-4.446-15.824-24.91 4.39z"/>
	<path d="m-259.43 219.05l0.039 0.207 23.549 22.936 4.727 2.52 14.836-1.174-4.983-50.15-25.576 1.322-12.6 24.33z"/>
	<path d="m630.39 406.29l37.464 23.18 10.348-2.087-16.811-40.885-25.182 4.198-5.598 10.313-0.22 5.28z"/>
	<path d="m642-1.956l5.225 3.696 74.794-14.302 1.667-2.01v-3.982l-28.318-10.424-51.75 20.971-1.61 6.051z"/>
	<path d="m60.909 58.715l38.248 14.3-10.331-25.103-15.866-1.007-12.051 11.81z"/>
	<path d="m-140.27 28.482l22.257 23.776 29.449 7.194-21.398-52.447-22.555 11.247-7.75 10.23z"/>
	<path d="m-165.33-20.488l11.44 19.118 40.279-33.704-25.788-11.237-9.062 1.579-8.217 6.026-8.65 18.218z"/>
	<path d="m154.87 98.818l2.355 32.872 3.555 1.809 13.289-15.067-19.2-19.612z"/>
	<path d="m-35.283 237.43l5.813 11.068 34.828 10.844 24.122-8.4 9.32-66.901-3.198-2.31-33.043 21.69-29.836 22.179-7.784 11.484-0.222 0.35z"/>
	<path d="m-280 373.05l17.018-18.305-13.085-10.947-3.94 29.26z"/>
	<path d="m254.87 251.58l0.24 0.405 5.978 8.184 13.089 3.638 50.892-13.802 3.16-4.796 0.22-8.928-21.658-25.278-38.798 10.488-12.936 26.754-0.18 3.35z"/>
	<path d="m-133.55 360.88l2.278 11.635 6.433 5.887 41.209-0.006 20.434-14.167-3.318-24.776-51.867 10.055-15.17 11.38z"/>
	<path d="m360.15-32.164l18.432 1.357 33.661-20.579-2.762-4.287-46.54 19.051-2.79 4.458z"/>
	<path d="m88.757 244.11l2.414 21.39 4.204 11.628 32.667 8.146 9.787-11.951-37.198-32.303-11.873 3.08z"/>
	<path d="m364.59 350.34l11.684 3.343 20.287-1.749 23.03-15.751 4.316-14.184-1.908-14.714-0.875-0.784-52.553 14.261-3.98 29.57z"/>
	<path d="m599.64 99.215l31.664 15.713 11.336-10.101 8.823-22.326-4.188-16.972-20.43-10.702-4.102 1.116-23.1 43.269z"/>
	<path d="m598.34 169.51l4.559 30.821 16.73 11.852 16.347-5.047-3.664-50.744-3.904-4.066-28.112 7.189-1.97 10z"/>
	<path d="m383.15 204.89l9.248 3.037 16.794-14.933-2.357-13.072-18.411-3.982-5.27 28.94z"/>
	<path d="m-209.6 243.17l37.792-14.404-8.493-21.512-2.939-0.7-12.968 13.217-13.39 23.39z"/>
	<path d="m628.22 139.79l0.193 12.529 3.904 4.066 38.764 0.807 4.313-2.973 4.141-11.983 3.813-13.712-14.815-10.387-25.895-13.313-11.336 10.101-3.06 24.85z"/>
	<path d="m647.22 1.74l27.519 20.244 44.628-31.296 2.647-3.25-74.8 14.302z"/>
	<path d="m622.07 11.86l4.771 42.966 20.43 10.702 15.875-17.246-33.9-40.598-6.179 3.319-0.99 0.857z"/>
	<path d="m689.92 465.48l12.94 29.785h20.819v-63.656l-32.812 3.169-0.95 30.71z"/>
	<path d="m212.86 284.49l0.985 24.368 26.645-4.922 7.043-11.194 13.552-32.574-5.978-8.184-42.23 32.49z"/>
	<path d="m169.71 32.784l13.034 32.828 4.589-14.024-17.62-18.804z"/>
	<path d="m-51.42 456.42l21.951 16.29 38.442-13.63-8.055-10.903-33.839-0.292-18.499 8.53z"/>
	<path d="m17.658 99.89l6.748 7.69 14.843-2.942 7.305-10.848-11.734-28.034-17.162 34.132z"/>
	<path d="m-182.6 381.48l19.124 13.152 32.206-22.119-2.278-11.635-23.513-28.347-17.738 6.608-7.8 42.34z"/>
	<path d="m-8.632 345.8l0.103 6.196 14.248 5.481 11.969-9.508-6.366-15.319-11.917-0.281-8.037 13.43z"/>
	<path d="m-297.87-96.881l6.272 9.674 22.905 19.081 15.943 3.617 10.308-1.645 14.774-30.728h-70.19z"/>
	<path d="m-310.34 263.26l8.067 1.619 66.426-22.686-23.549-22.936-35.687 25.999-15.26 18.01z"/>
	<path d="m362.94-36.621l46.54-19.051-0.059-0.156-37.37-8.812-9.11 28.019z"/>
	<path d="m86.533 478.1l7.152 17.173h21.384l0.779-3.332-21.279-15.98-8.038 2.14z"/>
	<path d="m-125.58 229.29l27.978 12.165 37.51-11.621-27.648-80.403-4.657-2.436-33.183 82.29z"/>
	<path d="m416.25 13.483l24.799 8.968 26.39-23.927-17.336-19.846-30.04 20.707-3.81 14.098z"/>
	<path d="m247.53 292.74l35.714 17.961 7.033-16.564-16.106-30.333-13.089-3.638-13.54 32.57z"/>
	<path d="m546.75 171.33l8.087 12.3 11.842 0.552 12.722-23.333-20.447-7.05-12.2 17.53z"/>
	<path d="m597.01 276.54l11.551 8.373 28.986 1.201 3.551-3.153 10.834-32.72 3.23-17.629-2.228-14.796-16.95-10.684-16.347 5.047-7.181 7.521-13.91 18.573-1.53 38.27z"/>
	<path d="m348.77 305.01l19.805 15.752 52.553-14.261-3.095-14.086-11.821-22.769-22.528-10.515-0.596 0.125-34.32 45.77z"/>
	<path d="m458.02 441.79l7.857 12.137 23.241 10.987 3.748-3.755 1.569-19.544-12.943-8.773-23.48 8.94z"/>
	<path d="m61.833 458.14l3.429 7.157 14.836 11.116 6.434 1.682 8.037-2.14 5.128-13.443-8.577-6.738-17.715-4.709-11.572 7.07z"/>
	<path d="m-153.89-1.37l2.355 4.27 19.02 15.353 22.555-11.247 3.74-6.976-3.453-33.434-3.938-1.67-40.28 33.704z"/>
	<path d="m-23.162 366.72l3.097 10.825 5.942 14.526 8.713 4.517 24.577-12.393 3.158-7.2-16.607-19.53-14.248-5.481-12.355 11.467-2.277 3.26z"/>
	<path d="m96.827-63.717l12.04 25.495 28.532 1.855-20.942-44.167-19.633 16.817z"/>
	<path d="m301.39 443.56l9.728 25.938 16.086-16.856-13.263-29.254-12.56 20.17z"/>
	<path d="m-276.8 13.799l26.522 44.631 5.771 2.865 2.137 0.792 11.718-49.402-25.987-11.487-0.686 0.11-19.47 12.491z"/>
	<path d="m481.26 414.05l0.232 18.798 12.943 8.773 8.318-9.26-21.49-18.31z"/>
	<path d="m216.92-28.79l6.347 7.411 30.128 4.344 0.777 0.033 5.792-14.703-39.613-33.166-3.44 36.081z"/>
	<path d="m-306.56 164.07l20.034 6.406 23.358-15.051-10.635-18.957-3.128-0.785-29.63 28.39z"/>
	<path d="m576.1 495.27l-0.108-20.867-5.423-3.703-26.718 16.361-4.687 8.209h36.94z"/>
	<path d="m-211.49 296.04l56.57 14.048 4.174-8.51-9.273-30.48-44.212-14.776-7.26 39.72z"/>
	<path d="m-204.46 194.5l8.255 25.273 12.968-13.217-2.682-5.988-18.55-6.06z"/>
	<path d="m641.7 448.04l1.095 19.183 1.289 2.309 45.837-4.048 0.948-30.702-4.449-4.703-8.218-2.695-10.348 2.087-26.16 18.57z"/>
	<path d="m221.31 424.51l8.58 13.143 40.574-16.578 8.037-15.051-30.001-4.497-6.055 2.832-21.13 20.16z"/>
	<path d="m-242.37 62.087l6.348 4.874 27.913 7.153 10.628-26.826-19.681-33.179-13.489-1.424-11.72 49.402z"/>
	<path d="m-50.118 393.96l2.766 14.983 2.55 3.036 30.679-19.907-5.942-14.526-30.053 16.42z"/>
	<path d="m282.21 495.27l-28.24-13.706-2.396 13.706h30.64z"/>
	<path d="m-185.5-6.229l9.631 18.289 24.336-9.16-2.355-4.27-11.44-19.118-20.18 14.259z"/>
	<path d="m40.594 307.18l2.449 4.537 2.942 0.247 17.323-0.343 14.136-11.536 0.547-2.319-10.527-12.574-6.792-6.226-12.539 0.833-3.694 6.656-3.845 20.72z"/>
	<path d="m211.42 495.27l5.085-10.918-20.818-24.449-11.672 0.81-3.584 34.558h30.99z"/>
	<path d="m91.121 455.78l8.577 6.738 31.64 1.765 6.246-21.663-21.619-8.012-24.849 21.17z"/>
	<path d="m-57.421 4.604l1.392 1.215 36.007-6.202-7.753-17.706-1.886-2.378-23.902 16.803-3.858 8.268z"/>
	<path d="m-223.05 425.72l16.622 11.535 12.706 5.729 6.624 1.646-13.16-37.139-3.371-2.165-19.42 20.38z"/>
	<path d="m231.42 55.315l15.188 33.815 28.019 15.549 8.535-31.32-23.367-24.248-28.37 6.203z"/>
	<path d="m85.979 158.44l6.289 19.325 6.356-2.623 18.174-12.46-0.402-1.809-8.278-15.937-8.475-1.027-13.666 14.54z"/>
	<path d="m-294.79 211.11l1.63 19.592 11.747-26.824-6.839-0.779-6.54 8.01z"/>
	<path d="m409.18 44.763l22.057 11.186 12.872-6.278-3.51-22.118-30.923 13.988-0.5 3.222z"/>
	<path d="m517.26 424.82l6.439 14.613 27.465 4.016 10.031-31.761-11.445-6.078-32.48 19.21z"/>
	<path d="m580.94 138.03l0.002 0.409 7.224 18.706 12.13 2.37 28.112-7.189-0.193-12.529-36.529-12.241-10.74 10.47z"/>
	<path d="m73.406 451.07l17.715 4.709 24.844-21.172-24.833-17.053-0.836 0.34-16.885 33.17z"/>
	<path d="m690.01 278.52l4.628 3.62 29.044-1.958v-39.021l-15.031 8.077-8.34 10.112-10.3 19.17z"/>
	<path d="m98.048 199.86l6.141-0.104 6.977-1.688 3.236-3.985 3.753-28.516-1.356-2.891-18.174 12.46-0.578 24.73z"/>
	<path d="m-124.84 378.4l7.961 37.272 25.431 1.802 9.527-33.022-1.709-6.058-41.209 0.01z"/>
	<path d="m16.702 495.27l-0.304-32.328-7.426-3.86-38.442 13.63-8.873 22.559h55.045z"/>
	<path d="m368.61 94.982l1.995 12.265 44.855-20.801-21.36-29.439-5.353 3.127-20.14 34.845z"/>
	<path d="m498.71 206.2l49.392 43.694 3.479-9.39-3.882-27.419-11.174-9.426-29.839-1.405-5.13 1.196-2.85 2.76z"/>
	<path d="m488.05-1.557l20.356 13.493 22.034-11.283-4.509-32.328-15.368-18.8-8.364 4.697-14.15 44.221z"/>
	<path d="m599.07 465.78l3.53 2.597 40.196-1.153-1.095-19.183-2.855-1.777-37.908 11.857-1.86 7.65z"/>
	<path d="m99.201-32.659l3.435 33.738 19.96 0.679 30.884-21.483 0.073-9.671-16.155-6.97-28.532-1.855-9.669 5.562z"/>
	<path d="m12.907 135.86l5.051 19.623 11.977 9.479 26.065-31.611-16.752-28.711-14.843 2.942-11.498 28.28z"/>
	<path d="m575.97 93.26l11.811 4.196 11.86 1.759 23.104-43.272-42.16-1.323-4.61 38.64z"/>
	<path d="m91.132 417.55l24.833 17.053 21.619 8.012 5.49-4.331-4.652-41.012-4.65-7.067-34.761 10.216-7.877 17.13z"/>
	<path d="m394.1 57.01l21.361 29.437 1.554 0.255 14.226-30.753-22.057-11.186-15.002 11.887-0.08 0.36z"/>
	<path d="m-267.2 495.27l-3.556-14.263-41.824-31.094v45.356h45.38z"/>
	<path d="m251.58 495.27l2.396-13.706 0.336-5.289-1.732-9.122-19.327-10.653-16.745 27.853-5.085 10.918h40.14z"/>
	<path d="m-46.148 311.84l37.516 33.96 8.037-13.431-0.133-5.054-10.108-18.408-28.895-11.147-6.417 14.08z"/>
	<path d="m469.04 63.997l13.446 15.107 29.284-46.824-3.36-20.344-20.36-13.493-17.5 0.778-1.51 64.776z"/>
	<path d="m686.42 430.08l4.449 4.703 32.812-3.169v-35.37l-31.298 18.715-5.96 15.12z"/>
	<path d="m641.09 282.96l38.232-0.781 10.685-3.659 10.301-19.17-48.384-9.109-10.83 32.72z"/>
	<path d="m12.013 18.519l35.724 14.849 15.097-22.364 1.098-3.53-6.545-10.703-45.374 21.748z"/>
	<path d="m35.952 452.49l25.881 5.652 11.572-7.075 16.89-33.176-33.174-11.487-15.227 10.771-5.942 35.33z"/>
	<path d="m-208.1 74.114l7.153 16.134 5.673-1.263 48.932-27.781-5.802-22.099-20.386-3.127-24.942 11.31-10.62 26.826z"/>
	<path d="m-312.58 89.617l1.71-0.159 12.786-14.627 19.454-60.823-4.606-1.542-29.344-6.865v84.016z"/>
	<path d="m-261.43 100.48l20.81 21.596 11.386 3.103 28.184-33.716 0.097-1.213-7.153-16.134-27.913-7.153-25.42 33.516z"/>
	<path d="m573.02 411.02l9.127 18.418 18.168 15.257 20.838-18.418-0.081-4.389-43.099-14.659-4.96 3.79z"/>
	<path d="m-70.877 71.342l26.116-2.045 29.748-24.943-41.016-38.535-1.392-1.215-8.791 2.433-4.665 64.305z"/>
	<path d="m462.69-65.991l0.028 1.718 39.486 18.495 8.364-4.697 36.357-46.406h-78.857l-5.38 30.89z"/>
	<path d="m535.89 364.52l0.4 14.981 13.462 26.115 11.445 6.078 11.827-0.668 4.953-3.791 10.248-17.159 4.197-35.501-5.443-5.962-24.661-2.455-26.44 18.36z"/>
	<path d="m539.17 495.27l4.687-8.209-7.389-22.217-10.17 0.43-6.085 29.996h18.95z"/>
	<path d="m-109.67-33.404l3.453 33.434 40.008 7.006 8.791-2.433 3.859-8.267-23.489-54.792-32.619 25.052z"/>
	<path d="m270.46 421.07l4.234 34.364 0.662 0.147 2.151 0.118 23.879-12.141 12.551-20.172 1.067-8.363-35.887-9.443-0.621 0.438-8.03 15.04z"/>
	<path d="m405.17-21.838l14.885 21.223 30.048-20.707-7.668-16.37-22.513-4.681-14.76 20.535z"/>
	<path d="m84.657 351.3l15.957 26.87 21.426-11.064-16.781-22.605-4.649 0.434-15.953 6.37z"/>
	<path d="m570.32-73.949l0.353 41.811 0.946 5.69 34.997 1.258 23.729-12.882-60.03-35.877z"/>
	<path d="m555.6 143.85l1.694 7.425 1.66 2.523 20.447 7.05 8.767-3.706-7.224-18.706-22.089-0.258-3.26 5.68z"/>
	<path d="m519.82 459.25l6.477 6.027 10.17-0.43 17.783-7.256-3.085-14.135-27.465-4.016-3.88 19.81z"/>
	<path d="m-256.04 356.07l9.257 31.466 0.985 0.526 3.092 1.613 23.993-9.646 1.898-2.994 2.419-13.848-33.863-16.533-7.78 9.41z"/>
	<path d="m330.07 57.822l4.275 63.746 18.289 4.389 7.425 0.716 9.687-17.366 0.861-2.06-1.995-12.265-16.691-29.036-12.93-11.429-8.93 3.302z"/>
	<path d="m272.67 132.44l2.279 18.538 30.646 29.749 12.551-1.312 34.488-53.461-18.289-4.389-57.096 3.042-4.58 7.83z"/>
	<path d="m-152.6 107.77l55.042 29.559 0.125-13.575-44.947-33.108-2.191 1.125-8.03 15.993z"/>
	<path d="m176.33 191.22l18.68 42.96 26.383-31.56 0.153-5.027-33.99-10.753-11.22 4.38z"/>
	<path d="m438.3 241.76l10.794 21.456 6.313-1.148 9.114-15.775 0.445-13.759-26.66 9.22z"/>
	<path d="m187.56 186.84l33.99 10.753 1.997-2.232-6.71-25.934-9.222-6.898-12.393 3.728-7.67 20.58z"/>
	<path d="m406.21 269.65l11.821 22.769 31.058-29.204-10.794-21.456-11.502-0.627-3.173 1.304-17.42 27.22z"/>
	<path d="m-197.03-7.06l11.53 0.83 20.172-14.259 8.653-18.218-34.978-6.22-5.37 37.867z"/>
	<path d="m-27.775-18.089l7.753 17.706 14.376 27.884 5.964-6.03 7.229-32.213-35.322-7.347z"/>
	<path d="m-107.62 292.37l2.293 3.487 44.553 28.81 8.163-6.17 6.468-6.663 6.417-14.08-0.282-9.9-63.137-3.53-4.47 8.04z"/>
	<path d="m104.19 199.76l0.802 38.195 10.944-4.609 0.37-26.65-5.135-8.631-6.97 1.69z"/>
	<path d="m606.61-25.189l16.448 36.191 6.179-3.319 12.758-9.64 1.61-6.051-8.896-29.866-4.371-0.199-23.73 12.884z"/>
	<path d="m213.71 383.4l9.27-0.367 11.712-3.408 10.773-28.62-2.198-0.248-26.551 9.303-3 23.35z"/>
	<path d="m209.48-96.881l8.357 15.016 42 22.552 3.99-27.319-7.174-10.249h-47.18z"/>
	<path d="m309.19 477.49l16.585 17.782h15.573l-0.716-37.096-13.425-5.531-16.086 16.856-1.92 7.99z"/>
	<path d="m-280.01 203.78l20.579 15.268 12.592-24.34-8.165-14.827-19.109 1.615-5.9 22.28z"/>
	<path d="m-197.91-49.706l0.813 1.002 5.437 3.777 34.978 6.22 8.217-6.026-3.377-3.866-32.076-22.162-9.201 0.976-4.79 20.079z"/>
	<path d="m366.86 211.39l17.317 28.604 17.139-19.893-8.921-12.173-9.248-3.037-16.269 6.462-0.02 0.04z"/>
	<path d="m-26.979 102.01l8.395 13.395 13.398 4.516 13.306-24.196-1.858-2.167-33.241 8.453z"/>
	<path d="m217.83-81.865l2.522 16.995 39.613 33.166 9.26-14.325-9.396-13.283-41.99-22.553z"/>
	<path d="m209.25 26.3l0.98 1.076 43.168-44.411-30.128-4.344-13.24 20.547-0.78 27.132z"/>
	<path d="m114.4 194.08l41.701 3.497 5.635-7.377-10.676-11.15-32.907-13.485-3.75 28.52z"/>
	<path d="m133.77 390.2l4.65 7.067 54.414-1.461-4.217-8.172-16.425-14.079-34.964 2.606-2.193 1.936-1.26 12.09z"/>
	<path d="m-149.77 199.9l0.058 0.591 16.554 28.619 7.578 0.178 33.183-82.295-5.005-4.716-9.095 2.349-43.27 55.27z"/>
	<path d="m490.93 211.77l13.386 49.726 8.776 6.403 36.069 7.505-1.06-25.507-49.392-43.694-1.298 0.745-6.49 4.83z"/>
	<path d="m82.975-96.881l0.196 29.264 13.657 3.9 19.629-16.817 3.383-16.347h-36.865z"/>
	<path d="m-105.33 295.86l1.019 30.159 38.965 8.288 4.568-9.638-44.553-28.81z"/>
	<path d="m305.99 346.58l3.224 2.727 46.825 11.628 8.555-10.587 3.981-29.578-19.805-15.752-13.999-3.291-4.169 2.747-24.62 42.1z"/>
	<path d="m339 54.52l12.923 11.427 25.847-6.661-25.115-30.6-13.66 25.834z"/>
	<path d="m340.63 458.17l0.716 37.096h45.1l0.951-28.226-22.908-27.861-23.86 18.99z"/>
	<path d="m668.53 118.14l14.815 10.387 16.189-9.044 2.896-31.839-8.531-0.258-25.37 30.747z"/>
	<path d="m274.62 104.68l2.623 19.931 57.096-3.042-4.275-63.746-28.214-0.251-18.69 15.786-8.54 31.321z"/>
	<path d="m-298.27 96.366l21.341 39.314 3.128 0.785 33.181-14.391-20.81-21.596-20.313-3.261-16.53-0.843z"/>
	<path d="m-91.444 417.48l7.474 2.903 13-16.111-10.946-19.814-9.528 33.02z"/>
	<path d="m205.9 80.477l40.709 8.654-15.188-33.815-13.134-3.301-12.39 28.462z"/>
	<path d="m356.04 360.93l4.093 45.519 52.374-7.157-10.898-19.303-25.33-26.303-11.684-3.343-8.55 10.58z"/>
	<path d="m577.98 407.23l43.099 14.659 9.317-15.602 0.222-5.281-42.39-10.936-10.25 17.16z"/>
	<path d="m62.459 266.9l0.604 1.897 9.568 0.915 18.54-4.207-2.414-21.39-6.467-4.147-19.831 26.93z"/>
	<path d="m536.52 203.66l11.174 9.426 24.921-4.393 1.129-2.331 2.5-8.739-9.563-13.441-11.842-0.552-18.32 20.02z"/>
	<path d="m240.49 303.94l5.803 8.575 35.081 15.661 1.873-17.47-35.714-17.961-7.04 11.19z"/>
	<path d="m651.93 250.24l48.384 9.109 8.34-10.112-53.493-16.626-3.23 17.63z"/>
	<path d="m510.57-50.475l15.368 18.8 44.733-0.463-0.353-41.811-6.024-22.932h-17.367l-36.36 46.406z"/>
	<path d="m-176.96 160.44l1.049 2.981 26.136 36.479 43.272-55.275-28.749-0.354-35.917 8.884-5.79 7.29z"/>
	<path d="m74.292 201.82l23.755-1.954 0.576-24.725-6.356 2.623-17.975 24.06z"/>
	<path d="m154.01 95.749l0.864 3.069 19.199 19.614 15.944-14.704 3.468-5.304-0.717-9.153-3.051-2.099-35.7 8.575z"/>
	<path d="m501.37 348.08l34.515 16.435 26.429-18.361-18.368-40.662-18.35 13.05-24.22 29.53z"/>
	<path d="m183.52 147.94l11.699 18.314 12.393-3.728 7.341-21.784-19.233-0.236-12.2 7.44z"/>
	<path d="m-229.23 125.18l4.152 23.489 16.356 14.529 31.768-2.758 5.792-7.284-10.896-39.359-18.988-22.333-28.18 33.713z"/>
	<path d="m250.92 380.86l11.206 5.82-6.785-12.644-4.42 6.82z"/>
	<path d="m46.636 186.56l22.698 16.647 4.958-1.389 17.976-24.056-6.289-19.325-39.343 28.12z"/>
	<path d="m671.08 157.2l11.785 45.177 40.817 2.844v-38.333l-48.289-12.661-4.31 2.97z"/>
	<path d="m-157.06 332.53l23.513 28.347 15.169-11.373 14.063-23.488-1.019-30.159-2.293-3.487-43.118 9.203-4.174 8.51-2.14 22.45z"/>
	<path d="m52.249-30.829l1.511 2.057 24.35-1.482 21.092-2.405 9.666-5.563-12.04-25.495-13.657-3.9-27.014 18.331-3.91 18.457z"/>
</g>
</svg>
