<svg xmlns="http://www.w3.org/2000/svg" width="1920" height="1080"><path d="M70,-245L490,-230L1084,-285Z" fill="#b76257" stroke="#b76257" stroke-width="1.51"/><path d="M1307,1341L725,1355L1531,1340Z" fill="#7588ab" stroke="#7588ab" stroke-width="1.51"/><path d="M1084,-285L1277,-247L1631,-270Z" fill="#9c727b" stroke="#9c727b" stroke-width="1.51"/><path d="M1740,1279L1531,1340L1880,1258Z" fill="#2a69a0" stroke="#2a69a0" stroke-width="1.51"/><path d="M1880,1258L1531,1340L2094,1247Z" fill="#22609d" stroke="#22609d" stroke-width="1.51"/><path d="M2013,589L2020,741L2095,954Z" fill="#708eb7" stroke="#708eb7" stroke-width="1.51"/><path d="M2020,741L2024,898L2095,954Z" fill="#5a85b1" stroke="#5a85b1" stroke-width="1.51"/><path d="M1631,-270L1828,-201L2116,-210Z" fill="#754767" stroke="#754767" stroke-width="1.51"/><path d="M1828,-201L1966,-139L2116,-210Z" fill="#763f5f" stroke="#763f5f" stroke-width="1.51"/><path d="M1981,262L2014,369L2131,204Z" fill="#968093" stroke="#968093" stroke-width="1.51"/><path d="M2013,589L2095,954L2131,204Z" fill="#8694b6" stroke="#8694b6" stroke-width="1.51"/><path d="M2014,369L2013,589L2131,204Z" fill="#948ea7" stroke="#948ea7" stroke-width="1.51"/><path d="M2116,-210L2057,-132L2131,204Z" fill="#7e4158" stroke="#7e4158" stroke-width="1.51"/><path d="M2057,-132L2020,24L2131,204Z" fill="#885165" stroke="#885165" stroke-width="1.51"/><path d="M1890,1128L2094,1247L2154,1068Z" fill="#215e9b" stroke="#215e9b" stroke-width="1.51"/><path d="M2095,954L1907,1024L2154,1068Z" fill="#336fa3" stroke="#336fa3" stroke-width="1.51"/><path d="M1907,1024L1890,1128L2154,1068Z" fill="#2d6faa" stroke="#2d6faa" stroke-width="1.51"/><path d="M2131,204L2095,954L2154,1068Z" fill="#6d85aa" stroke="#6d85aa" stroke-width="1.51"/><path d="M2020,24L1981,262L2131,204Z" fill="#936c7e" stroke="#936c7e" stroke-width="1.51"/><path d="M1966,-139L2057,-132L2116,-210Z" fill="#743855" stroke="#743855" stroke-width="1.51"/><path d="M1973,592L2013,589L2014,369Z" fill="#939fc1" stroke="#939fc1" stroke-width="1.51"/><path d="M1874,86L1981,262L2020,24Z" fill="#9a6f85" stroke="#9a6f85" stroke-width="1.51"/><path d="M1890,1128L1880,1258L2094,1247Z" fill="#1e60a4" stroke="#1e60a4" stroke-width="1.51"/><path d="M2024,898L1907,1024L2095,954Z" fill="#467caf" stroke="#467caf" stroke-width="1.51"/><path d="M1864,453L1973,592L2014,369Z" fill="#99a2c3" stroke="#99a2c3" stroke-width="1.51"/><path d="M1966,-139L1905,-43L2020,24Z" fill="#8c506b" stroke="#8c506b" stroke-width="1.51"/><path d="M2013,589L1973,592L2020,741Z" fill="#869cc2" stroke="#869cc2" stroke-width="1.51"/><path d="M2020,741L1955,756L2024,898Z" fill="#6b90bc" stroke="#6b90bc" stroke-width="1.51"/><path d="M1966,-139L2020,24L2057,-132Z" fill="#844560" stroke="#844560" stroke-width="1.51"/><path d="M1864,453L1844,507L1973,592Z" fill="#9bacd0" stroke="#9bacd0" stroke-width="1.51"/><path d="M1973,592L1955,756L2020,741Z" fill="#809bc4" stroke="#809bc4" stroke-width="1.51"/><path d="M1955,756L1877,888L2024,898Z" fill="#6491c1" stroke="#6491c1" stroke-width="1.51"/><path d="M1877,888L1907,1024L2024,898Z" fill="#5088bd" stroke="#5088bd" stroke-width="1.51"/><path d="M1905,-43L1874,86L2020,24Z" fill="#966079" stroke="#966079" stroke-width="1.51"/><path d="M1981,262L1864,453L2014,369Z" fill="#9d98b2" stroke="#9d98b2" stroke-width="1.51"/><path d="M1828,659L1955,756L1973,592Z" fill="#88a5cf" stroke="#88a5cf" stroke-width="1.51"/><path d="M1874,86L1785,221L1981,262Z" fill="#a38497" stroke="#a38497" stroke-width="1.51"/><path d="M1785,221L1864,453L1981,262Z" fill="#a498af" stroke="#a498af" stroke-width="1.51"/><path d="M1857,-89L1905,-43L1966,-139Z" fill="#8f506e" stroke="#8f506e" stroke-width="1.51"/><path d="M1844,507L1828,659L1973,592Z" fill="#95add3" stroke="#95add3" stroke-width="1.51"/><path d="M1828,-201L1857,-89L1966,-139Z" fill="#884c6a" stroke="#884c6a" stroke-width="1.51"/><path d="M1828,659L1877,888L1955,756Z" fill="#79a1cc" stroke="#79a1cc" stroke-width="1.51"/><path d="M1785,221L1696,401L1839,462Z" fill="#a8abbe" stroke="#a8abbe" stroke-width="1.51"/><path d="M1785,221L1839,462L1864,453Z" fill="#a5a8c0" stroke="#a5a8c0" stroke-width="1.51"/><path d="M1857,-89L1716,49L1874,86Z" fill="#9d6a7e" stroke="#9d6a7e" stroke-width="1.51"/><path d="M1828,659L1691,765L1877,888Z" fill="#7da9d1" stroke="#7da9d1" stroke-width="1.51"/><path d="M1691,765L1716,868L1877,888Z" fill="#70a6ce" stroke="#70a6ce" stroke-width="1.51"/><path d="M1792,957L1800,1176L1890,1128Z" fill="#357eb9" stroke="#357eb9" stroke-width="1.51"/><path d="M1800,1176L1880,1258L1890,1128Z" fill="#286db0" stroke="#286db0" stroke-width="1.51"/><path d="M1857,-89L1874,86L1905,-43Z" fill="#966078" stroke="#966078" stroke-width="1.51"/><path d="M1792,957L1890,1128L1907,1024Z" fill="#3881ba" stroke="#3881ba" stroke-width="1.51"/><path d="M1877,888L1792,957L1907,1024Z" fill="#4f8dc1" stroke="#4f8dc1" stroke-width="1.51"/><path d="M1792,957L1696,1000L1800,1176Z" fill="#3d89be" stroke="#3d89be" stroke-width="1.51"/><path d="M1839,462L1844,507L1864,453Z" fill="#9fadcc" stroke="#9fadcc" stroke-width="1.51"/><path d="M1716,49L1785,221L1874,86Z" fill="#a4808f" stroke="#a4808f" stroke-width="1.51"/><path d="M1800,1176L1740,1279L1880,1258Z" fill="#286aa8" stroke="#286aa8" stroke-width="1.51"/><path d="M1716,868L1792,957L1877,888Z" fill="#609bc8" stroke="#609bc8" stroke-width="1.51"/><path d="M1658,-71L1716,49L1857,-89Z" fill="#9c697b" stroke="#9c697b" stroke-width="1.51"/><path d="M1594,584L1828,659L1844,507Z" fill="#9cbad9" stroke="#9cbad9" stroke-width="1.51"/><path d="M1828,-201L1658,-71L1857,-89Z" fill="#94596f" stroke="#94596f" stroke-width="1.51"/><path d="M1839,462L1696,401L1844,507Z" fill="#a3b1cc" stroke="#a3b1cc" stroke-width="1.51"/><path d="M1696,401L1594,584L1844,507Z" fill="#a5bdd5" stroke="#a5bdd5" stroke-width="1.51"/><path d="M1631,-270L1658,-71L1828,-201Z" fill="#895a70" stroke="#895a70" stroke-width="1.51"/><path d="M1595,655L1691,765L1828,659Z" fill="#91b9d9" stroke="#91b9d9" stroke-width="1.51"/><path d="M1594,584L1595,655L1828,659Z" fill="#9bc0dc" stroke="#9bc0dc" stroke-width="1.51"/><path d="M1716,49L1635,159L1785,221Z" fill="#aa8c97" stroke="#aa8c97" stroke-width="1.51"/><path d="M1572,1115L1740,1279L1800,1176Z" fill="#337bb7" stroke="#337bb7" stroke-width="1.51"/><path d="M1696,1000L1572,1115L1800,1176Z" fill="#3d89be" stroke="#3d89be" stroke-width="1.51"/><path d="M1635,159L1696,401L1785,221Z" fill="#aea2ad" stroke="#aea2ad" stroke-width="1.51"/><path d="M1716,868L1696,1000L1792,957Z" fill="#5a9cc8" stroke="#5a9cc8" stroke-width="1.51"/><path d="M1635,159L1590,180L1696,401Z" fill="#b4a6ad" stroke="#b4a6ad" stroke-width="1.51"/><path d="M1590,180L1539,309L1696,401Z" fill="#b8b2b9" stroke="#b8b2b9" stroke-width="1.51"/><path d="M1570,1276L1531,1340L1740,1279Z" fill="#3a71a3" stroke="#3a71a3" stroke-width="1.51"/><path d="M1572,1115L1570,1276L1740,1279Z" fill="#3e7db5" stroke="#3e7db5" stroke-width="1.51"/><path d="M1277,-247L1467,-200L1631,-270Z" fill="#956c78" stroke="#956c78" stroke-width="1.51"/><path d="M1542,399L1594,584L1696,401Z" fill="#b2c5d6" stroke="#b2c5d6" stroke-width="1.51"/><path d="M1691,765L1408,791L1716,868Z" fill="#86b9d8" stroke="#86b9d8" stroke-width="1.51"/><path d="M1405,1009L1696,1000L1716,868Z" fill="#65a6cd" stroke="#65a6cd" stroke-width="1.51"/><path d="M1408,791L1405,1009L1716,868Z" fill="#84bad8" stroke="#84bad8" stroke-width="1.51"/><path d="M1658,-71L1635,159L1716,49Z" fill="#a87e88" stroke="#a87e88" stroke-width="1.51"/><path d="M1458,103L1635,159L1658,-71Z" fill="#b48a8f" stroke="#b48a8f" stroke-width="1.51"/><path d="M1631,-270L1495,-109L1658,-71Z" fill="#9c6877" stroke="#9c6877" stroke-width="1.51"/><path d="M1416,767L1408,791L1691,765Z" fill="#9cc7e0" stroke="#9cc7e0" stroke-width="1.51"/><path d="M1405,1009L1429,1042L1696,1000Z" fill="#66a7ce" stroke="#66a7ce" stroke-width="1.51"/><path d="M1429,1042L1572,1115L1696,1000Z" fill="#589cc9" stroke="#589cc9" stroke-width="1.51"/><path d="M1539,309L1542,399L1696,401Z" fill="#b8bfca" stroke="#b8bfca" stroke-width="1.51"/><path d="M1595,655L1416,767L1691,765Z" fill="#9cc5df" stroke="#9cc5df" stroke-width="1.51"/><path d="M507,1324L166,1354L725,1355Z" fill="#8c6876" stroke="#8c6876" stroke-width="1.51"/><path d="M1467,-200L1495,-109L1631,-270Z" fill="#996a77" stroke="#996a77" stroke-width="1.51"/><path d="M1458,103L1590,180L1635,159Z" fill="#bb9c9e" stroke="#bb9c9e" stroke-width="1.51"/><path d="M1495,-109L1458,103L1658,-71Z" fill="#b28086" stroke="#b28086" stroke-width="1.51"/><path d="M1542,399L1449,570L1594,584Z" fill="#bbd2e2" stroke="#bbd2e2" stroke-width="1.51"/><path d="M1429,1042L1487,1121L1572,1115Z" fill="#609eca" stroke="#609eca" stroke-width="1.51"/><path d="M1487,1121L1570,1276L1572,1115Z" fill="#528ec1" stroke="#528ec1" stroke-width="1.51"/><path d="M1594,584L1449,570L1595,655Z" fill="#b0cfe3" stroke="#b0cfe3" stroke-width="1.51"/><path d="M1449,570L1435,652L1595,655Z" fill="#b4d4e6" stroke="#b4d4e6" stroke-width="1.51"/><path d="M1435,652L1416,767L1595,655Z" fill="#aed1e5" stroke="#aed1e5" stroke-width="1.51"/><path d="M1458,103L1539,309L1590,180Z" fill="#c1aaa9" stroke="#c1aaa9" stroke-width="1.51"/><path d="M1487,1121L1327,1182L1531,1340Z" fill="#5f90c1" stroke="#5f90c1" stroke-width="1.51"/><path d="M1487,1121L1531,1340L1570,1276Z" fill="#4e82b5" stroke="#4e82b5" stroke-width="1.51"/><path d="M1320,22L1458,103L1495,-109Z" fill="#c3908f" stroke="#c3908f" stroke-width="1.51"/><path d="M1327,1182L1307,1341L1531,1340Z" fill="#6087b2" stroke="#6087b2" stroke-width="1.51"/><path d="M1458,103L1331,308L1539,309Z" fill="#cdbab6" stroke="#cdbab6" stroke-width="1.51"/><path d="M1303,456L1449,570L1542,399Z" fill="#c9d9e2" stroke="#c9d9e2" stroke-width="1.51"/><path d="M1539,309L1331,308L1542,399Z" fill="#c9c7c9" stroke="#c9c7c9" stroke-width="1.51"/><path d="M1331,308L1303,456L1542,399Z" fill="#d1d4d7" stroke="#d1d4d7" stroke-width="1.51"/><path d="M1385,-126L1320,22L1495,-109Z" fill="#bf8587" stroke="#bf8587" stroke-width="1.51"/><path d="M1467,-200L1385,-126L1495,-109Z" fill="#af777e" stroke="#af777e" stroke-width="1.51"/><path d="M1429,1042L1327,1182L1487,1121Z" fill="#6ca2cc" stroke="#6ca2cc" stroke-width="1.51"/><path d="M1145,1257L725,1355L1307,1341Z" fill="#8292b4" stroke="#8292b4" stroke-width="1.51"/><path d="M1320,22L1201,231L1331,308Z" fill="#debcb1" stroke="#debcb1" stroke-width="1.51"/><path d="M1303,456L1353,586L1449,570Z" fill="#cfe2ed" stroke="#cfe2ed" stroke-width="1.51"/><path d="M1320,22L1331,308L1458,103Z" fill="#d2ada6" stroke="#d2ada6" stroke-width="1.51"/><path d="M1277,-247L1385,-126L1467,-200Z" fill="#ab777e" stroke="#ab777e" stroke-width="1.51"/><path d="M1353,586L1435,652L1449,570Z" fill="#c2dcea" stroke="#c2dcea" stroke-width="1.51"/><path d="M1191,777L1405,1009L1408,791Z" fill="#a2cde2" stroke="#a2cde2" stroke-width="1.51"/><path d="M1405,1009L1327,1182L1429,1042Z" fill="#73a9d0" stroke="#73a9d0" stroke-width="1.51"/><path d="M1263,704L1416,767L1435,652Z" fill="#bbd9e9" stroke="#bbd9e9" stroke-width="1.51"/><path d="M1353,586L1263,704L1435,652Z" fill="#c4deec" stroke="#c4deec" stroke-width="1.51"/><path d="M1191,777L1113,934L1405,1009Z" fill="#a6cde3" stroke="#a6cde3" stroke-width="1.51"/><path d="M1221,751L1191,777L1408,791Z" fill="#bbd9ea" stroke="#bbd9ea" stroke-width="1.51"/><path d="M1188,1119L1327,1182L1405,1009Z" fill="#7daad1" stroke="#7daad1" stroke-width="1.51"/><path d="M1263,704L1408,791L1416,767Z" fill="#b3d5e7" stroke="#b3d5e7" stroke-width="1.51"/><path d="M1232,-70L1320,22L1385,-126Z" fill="#c98c8b" stroke="#c98c8b" stroke-width="1.51"/><path d="M1263,704L1221,751L1408,791Z" fill="#bddaea" stroke="#bddaea" stroke-width="1.51"/><path d="M1113,934L1188,1119L1405,1009Z" fill="#8ebbd9" stroke="#8ebbd9" stroke-width="1.51"/><path d="M927,1240L725,1355L1145,1257Z" fill="#8f9aba" stroke="#8f9aba" stroke-width="1.51"/><path d="M1178,54L1201,231L1320,22Z" fill="#deaea4" stroke="#deaea4" stroke-width="1.51"/><path d="M1277,-247L1232,-70L1385,-126Z" fill="#be8083" stroke="#be8083" stroke-width="1.51"/><path d="M1084,-285L1194,-229L1277,-247Z" fill="#ae7b80" stroke="#ae7b80" stroke-width="1.51"/><path d="M1145,1257L1307,1341L1327,1182Z" fill="#7594be" stroke="#7594be" stroke-width="1.51"/><path d="M1223,319L1303,456L1331,308Z" fill="#dfd8d6" stroke="#dfd8d6" stroke-width="1.51"/><path d="M1303,456L1184,504L1353,586Z" fill="#dbe6ed" stroke="#dbe6ed" stroke-width="1.51"/><path d="M1184,504L1263,704L1353,586Z" fill="#d5e6f0" stroke="#d5e6f0" stroke-width="1.51"/><path d="M1194,-229L1232,-70L1277,-247Z" fill="#bc8083" stroke="#bc8083" stroke-width="1.51"/><path d="M1201,231L1223,319L1331,308Z" fill="#e3cec6" stroke="#e3cec6" stroke-width="1.51"/><path d="M1188,1119L1145,1257L1327,1182Z" fill="#82a4cf" stroke="#82a4cf" stroke-width="1.51"/><path d="M1232,-70L1178,54L1320,22Z" fill="#d69a95" stroke="#d69a95" stroke-width="1.51"/><path d="M1223,319L1184,504L1303,456Z" fill="#e3e2e2" stroke="#e3e2e2" stroke-width="1.51"/><path d="M70,-245L323,-214L490,-230Z" fill="#ad413d" stroke="#ad413d" stroke-width="1.51"/><path d="M490,-230L763,-169L1084,-285Z" fill="#c37b75" stroke="#c37b75" stroke-width="1.51"/><path d="M1184,504L1221,751L1263,704Z" fill="#d4e6f0" stroke="#d4e6f0" stroke-width="1.51"/><path d="M490,-230L643,-177L763,-169Z" fill="#c97165" stroke="#c97165" stroke-width="1.51"/><path d="M1178,54L1103,189L1201,231Z" fill="#e8bcb0" stroke="#e8bcb0" stroke-width="1.51"/><path d="M1184,504L1000,703L1221,751Z" fill="#dceaf2" stroke="#dceaf2" stroke-width="1.51"/><path d="M1000,703L1109,796L1191,777Z" fill="#cfe3ef" stroke="#cfe3ef" stroke-width="1.51"/><path d="M1109,796L1113,934L1191,777Z" fill="#bedbea" stroke="#bedbea" stroke-width="1.51"/><path d="M1000,703L1191,777L1221,751Z" fill="#cfe3ef" stroke="#cfe3ef" stroke-width="1.51"/><path d="M1049,478L1184,504L1223,319Z" fill="#ebe7e5" stroke="#ebe7e5" stroke-width="1.51"/><path d="M1072,62L1178,54L1232,-70Z" fill="#dea098" stroke="#dea098" stroke-width="1.51"/><path d="M991,-78L1072,62L1232,-70Z" fill="#de9b93" stroke="#de9b93" stroke-width="1.51"/><path d="M1194,-229L991,-78L1232,-70Z" fill="#d28a88" stroke="#d28a88" stroke-width="1.51"/><path d="M989,1219L927,1240L1145,1257Z" fill="#8fa2c7" stroke="#8fa2c7" stroke-width="1.51"/><path d="M1049,478L1000,703L1184,504Z" fill="#ecf1f5" stroke="#ecf1f5" stroke-width="1.51"/><path d="M1201,231L1103,189L1223,319Z" fill="#ebccc0" stroke="#ebccc0" stroke-width="1.51"/><path d="M1103,189L1049,478L1223,319Z" fill="#efdcd2" stroke="#efdcd2" stroke-width="1.51"/><path d="M988,456L1049,478L1103,189Z" fill="#f4e6dd" stroke="#f4e6dd" stroke-width="1.51"/><path d="M1072,62L1103,189L1178,54Z" fill="#e7b2a6" stroke="#e7b2a6" stroke-width="1.51"/><path d="M1113,934L1012,981L1188,1119Z" fill="#9ec2dd" stroke="#9ec2dd" stroke-width="1.51"/><path d="M1058,1184L1145,1257L1188,1119Z" fill="#8ba7d0" stroke="#8ba7d0" stroke-width="1.51"/><path d="M1084,-285L991,-78L1194,-229Z" fill="#c38485" stroke="#c38485" stroke-width="1.51"/><path d="M1012,981L1058,1184L1188,1119Z" fill="#96b6d7" stroke="#96b6d7" stroke-width="1.51"/><path d="M909,393L988,456L1103,189Z" fill="#f8e2d8" stroke="#f8e2d8" stroke-width="1.51"/><path d="M1058,1184L989,1219L1145,1257Z" fill="#8ea4cb" stroke="#8ea4cb" stroke-width="1.51"/><path d="M763,-169L875,-160L1084,-285Z" fill="#ca8581" stroke="#ca8581" stroke-width="1.51"/><path d="M875,-160L991,-78L1084,-285Z" fill="#d08a87" stroke="#d08a87" stroke-width="1.51"/><path d="M950,130L879,181L1103,189Z" fill="#f6c4b3" stroke="#f6c4b3" stroke-width="1.51"/><path d="M879,181L909,393L1103,189Z" fill="#f9d5c5" stroke="#f9d5c5" stroke-width="1.51"/><path d="M1072,62L950,130L1103,189Z" fill="#efbaac" stroke="#efbaac" stroke-width="1.51"/><path d="M911,938L1012,981L1109,796Z" fill="#bbd6e7" stroke="#bbd6e7" stroke-width="1.51"/><path d="M1000,703L911,938L1109,796Z" fill="#cde1ed" stroke="#cde1ed" stroke-width="1.51"/><path d="M1109,796L1012,981L1113,934Z" fill="#b5d4e6" stroke="#b5d4e6" stroke-width="1.51"/><path d="M988,456L1000,703L1049,478Z" fill="#f3f4f6" stroke="#f3f4f6" stroke-width="1.51"/><path d="M1012,981L989,1219L1058,1184Z" fill="#99b4d6" stroke="#99b4d6" stroke-width="1.51"/><path d="M807,1079L822,1158L989,1219Z" fill="#9faecd" stroke="#9faecd" stroke-width="1.51"/><path d="M988,456L830,524L1000,703Z" fill="#f5f5f5" stroke="#f5f5f5" stroke-width="1.51"/><path d="M830,524L876,693L1000,703Z" fill="#edeeef" stroke="#edeeef" stroke-width="1.51"/><path d="M807,1079L989,1219L1012,981Z" fill="#a2bad7" stroke="#a2bad7" stroke-width="1.51"/><path d="M991,-78L950,130L1072,62Z" fill="#eba99d" stroke="#eba99d" stroke-width="1.51"/><path d="M825,773L911,938L1000,703Z" fill="#d4e1e9" stroke="#d4e1e9" stroke-width="1.51"/><path d="M903,-85L950,130L991,-78Z" fill="#e9a297" stroke="#e9a297" stroke-width="1.51"/><path d="M822,1158L927,1240L989,1219Z" fill="#9aa7cb" stroke="#9aa7cb" stroke-width="1.51"/><path d="M875,-160L903,-85L991,-78Z" fill="#e19088" stroke="#e19088" stroke-width="1.51"/><path d="M876,693L825,773L1000,703Z" fill="#e2e9ed" stroke="#e2e9ed" stroke-width="1.51"/><path d="M911,938L807,1079L1012,981Z" fill="#aec7db" stroke="#aec7db" stroke-width="1.51"/><path d="M909,393L830,524L988,456Z" fill="#faede6" stroke="#faede6" stroke-width="1.51"/><path d="M690,71L879,181L903,-85Z" fill="#efa793" stroke="#efa793" stroke-width="1.51"/><path d="M725,-67L690,71L903,-85Z" fill="#e79584" stroke="#e79584" stroke-width="1.51"/><path d="M879,181L762,412L909,393Z" fill="#fcdbca" stroke="#fcdbca" stroke-width="1.51"/><path d="M825,773L793,892L911,938Z" fill="#cad7df" stroke="#cad7df" stroke-width="1.51"/><path d="M903,-85L879,181L950,130Z" fill="#f1af9f" stroke="#f1af9f" stroke-width="1.51"/><path d="M830,524L770,580L876,693Z" fill="#f3ece8" stroke="#f3ece8" stroke-width="1.51"/><path d="M682,274L762,412L879,181Z" fill="#fcd0ba" stroke="#fcd0ba" stroke-width="1.51"/><path d="M763,998L807,1079L911,938Z" fill="#afc1d2" stroke="#afc1d2" stroke-width="1.51"/><path d="M822,1158L725,1355L927,1240Z" fill="#969ab8" stroke="#969ab8" stroke-width="1.51"/><path d="M762,412L830,524L909,393Z" fill="#fbe7dc" stroke="#fbe7dc" stroke-width="1.51"/><path d="M793,892L763,998L911,938Z" fill="#bbcbd7" stroke="#bbcbd7" stroke-width="1.51"/><path d="M875,-160L763,-169L903,-85Z" fill="#da887f" stroke="#da887f" stroke-width="1.51"/><path d="M763,-169L725,-67L903,-85Z" fill="#e0897d" stroke="#e0897d" stroke-width="1.51"/><path d="M690,71L682,274L879,181Z" fill="#f7bba1" stroke="#f7bba1" stroke-width="1.51"/><path d="M685,735L825,773L876,693Z" fill="#e2e2e2" stroke="#e2e2e2" stroke-width="1.51"/><path d="M770,580L685,735L876,693Z" fill="#ece6e2" stroke="#ece6e2" stroke-width="1.51"/><path d="M550,1230L725,1355L822,1158Z" fill="#9a93ad" stroke="#9a93ad" stroke-width="1.51"/><path d="M685,735L793,892L825,773Z" fill="#d7dadb" stroke="#d7dadb" stroke-width="1.51"/><path d="M762,412L770,580L830,524Z" fill="#fbeae0" stroke="#fbeae0" stroke-width="1.51"/><path d="M553,1153L550,1230L822,1158Z" fill="#a298b1" stroke="#a298b1" stroke-width="1.51"/><path d="M685,735L631,803L793,892Z" fill="#d7d4d4" stroke="#d7d4d4" stroke-width="1.51"/><path d="M807,1079L553,1153L822,1158Z" fill="#a5a9c0" stroke="#a5a9c0" stroke-width="1.51"/><path d="M762,412L630,433L770,580Z" fill="#fce3d5" stroke="#fce3d5" stroke-width="1.51"/><path d="M763,998L561,1046L807,1079Z" fill="#acb4c4" stroke="#acb4c4" stroke-width="1.51"/><path d="M561,1046L553,1153L807,1079Z" fill="#a9a5b7" stroke="#a9a5b7" stroke-width="1.51"/><path d="M631,803L763,998L793,892Z" fill="#c6ccd1" stroke="#c6ccd1" stroke-width="1.51"/><path d="M628,293L630,433L682,274Z" fill="#fccbb3" stroke="#fccbb3" stroke-width="1.51"/><path d="M682,274L630,433L762,412Z" fill="#fdd7c2" stroke="#fdd7c2" stroke-width="1.51"/><path d="M653,-127L725,-67L763,-169Z" fill="#de8273" stroke="#de8273" stroke-width="1.51"/><path d="M631,803L561,1046L763,998Z" fill="#bdbdc3" stroke="#bdbdc3" stroke-width="1.51"/><path d="M599,658L685,735L770,580Z" fill="#eedfd7" stroke="#eedfd7" stroke-width="1.51"/><path d="M581,596L599,658L770,580Z" fill="#f3ddd3" stroke="#f3ddd3" stroke-width="1.51"/><path d="M630,433L581,596L770,580Z" fill="#fbe2d5" stroke="#fbe2d5" stroke-width="1.51"/><path d="M643,-177L653,-127L763,-169Z" fill="#d37b6e" stroke="#d37b6e" stroke-width="1.51"/><path d="M492,105L628,293L690,71Z" fill="#f3a88a" stroke="#f3a88a" stroke-width="1.51"/><path d="M628,293L682,274L690,71Z" fill="#f9ba9d" stroke="#f9ba9d" stroke-width="1.51"/><path d="M550,1230L507,1324L725,1355Z" fill="#937e90" stroke="#937e90" stroke-width="1.51"/><path d="M564,40L690,71L725,-67Z" fill="#e9927b" stroke="#e9927b" stroke-width="1.51"/><path d="M653,-127L564,40L725,-67Z" fill="#e28673" stroke="#e28673" stroke-width="1.51"/><path d="M564,40L492,105L690,71Z" fill="#eb9479" stroke="#eb9479" stroke-width="1.51"/><path d="M599,658L631,803L685,735Z" fill="#e4d5ce" stroke="#e4d5ce" stroke-width="1.51"/><path d="M402,814L448,1035L561,1046Z" fill="#bca6a7" stroke="#bca6a7" stroke-width="1.51"/><path d="M478,527L581,596L630,433Z" fill="#fad5c4" stroke="#fad5c4" stroke-width="1.51"/><path d="M628,293L490,335L630,433Z" fill="#fbc8ae" stroke="#fbc8ae" stroke-width="1.51"/><path d="M402,814L561,1046L631,803Z" fill="#cab9b6" stroke="#cab9b6" stroke-width="1.51"/><path d="M424,8L564,40L653,-127Z" fill="#e27e68" stroke="#e27e68" stroke-width="1.51"/><path d="M490,-230L424,8L653,-127Z" fill="#d76d5b" stroke="#d76d5b" stroke-width="1.51"/><path d="M643,-177L490,-230L653,-127Z" fill="#cb6f61" stroke="#cb6f61" stroke-width="1.51"/><path d="M238,1308L166,1354L507,1324Z" fill="#885668" stroke="#885668" stroke-width="1.51"/><path d="M492,105L490,335L628,293Z" fill="#f7b191" stroke="#f7b191" stroke-width="1.51"/><path d="M599,658L402,814L631,803Z" fill="#e0c7bf" stroke="#e0c7bf" stroke-width="1.51"/><path d="M490,335L478,527L630,433Z" fill="#fbcbb4" stroke="#fbcbb4" stroke-width="1.51"/><path d="M378,230L490,335L492,105Z" fill="#f3a381" stroke="#f3a381" stroke-width="1.51"/><path d="M490,1088L553,1153L561,1046Z" fill="#aa99a7" stroke="#aa99a7" stroke-width="1.51"/><path d="M581,596L379,654L599,658Z" fill="#f0cebf" stroke="#f0cebf" stroke-width="1.51"/><path d="M379,654L402,814L599,658Z" fill="#e7c2b6" stroke="#e7c2b6" stroke-width="1.51"/><path d="M478,527L379,654L581,596Z" fill="#f4cbba" stroke="#f4cbba" stroke-width="1.51"/><path d="M424,8L492,105L564,40Z" fill="#e7866a" stroke="#e7866a" stroke-width="1.51"/><path d="M448,1035L490,1088L561,1046Z" fill="#ad9ba5" stroke="#ad9ba5" stroke-width="1.51"/><path d="M490,1088L324,1199L550,1230Z" fill="#a38598" stroke="#a38598" stroke-width="1.51"/><path d="M490,1088L550,1230L553,1153Z" fill="#a590a3" stroke="#a590a3" stroke-width="1.51"/><path d="M324,1199L507,1324L550,1230Z" fill="#9a798b" stroke="#9a798b" stroke-width="1.51"/><path d="M323,-214L281,-102L424,8Z" fill="#ce5548" stroke="#ce5548" stroke-width="1.51"/><path d="M323,-214L424,8L490,-230Z" fill="#ca5a4c" stroke="#ca5a4c" stroke-width="1.51"/><path d="M264,485L478,527L490,335Z" fill="#f7bca6" stroke="#f7bca6" stroke-width="1.51"/><path d="M324,1199L238,1308L507,1324Z" fill="#926679" stroke="#926679" stroke-width="1.51"/><path d="M378,230L264,485L490,335Z" fill="#f4ae93" stroke="#f4ae93" stroke-width="1.51"/><path d="M448,1035L324,1199L490,1088Z" fill="#a78a98" stroke="#a78a98" stroke-width="1.51"/><path d="M424,8L378,230L492,105Z" fill="#e98b6d" stroke="#e98b6d" stroke-width="1.51"/><path d="M276,184L378,230L424,8Z" fill="#e78669" stroke="#e78669" stroke-width="1.51"/><path d="M402,814L251,854L448,1035Z" fill="#c4a2a0" stroke="#c4a2a0" stroke-width="1.51"/><path d="M264,485L379,654L478,527Z" fill="#f3beae" stroke="#f3beae" stroke-width="1.51"/><path d="M214,451L264,485L378,230Z" fill="#f0a58f" stroke="#f0a58f" stroke-width="1.51"/><path d="M281,17L276,184L424,8Z" fill="#df735a" stroke="#df735a" stroke-width="1.51"/><path d="M228,1039L324,1199L448,1035Z" fill="#a5818e" stroke="#a5818e" stroke-width="1.51"/><path d="M251,854L228,1039L448,1035Z" fill="#b48f94" stroke="#b48f94" stroke-width="1.51"/><path d="M379,654L241,696L402,814Z" fill="#e0b1a7" stroke="#e0b1a7" stroke-width="1.51"/><path d="M281,-102L281,17L424,8Z" fill="#d5614f" stroke="#d5614f" stroke-width="1.51"/><path d="M276,184L214,451L378,230Z" fill="#ed977c" stroke="#ed977c" stroke-width="1.51"/><path d="M241,696L251,854L402,814Z" fill="#d4a49e" stroke="#d4a49e" stroke-width="1.51"/><path d="M264,485L241,696L379,654Z" fill="#eab0a4" stroke="#eab0a4" stroke-width="1.51"/><path d="M202,499L241,696L264,485Z" fill="#ecab9d" stroke="#ecab9d" stroke-width="1.51"/><path d="M72,276L214,451L276,184Z" fill="#e78d75" stroke="#e78d75" stroke-width="1.51"/><path d="M162,1146L238,1308L324,1199Z" fill="#966279" stroke="#966279" stroke-width="1.51"/><path d="M228,1039L162,1146L324,1199Z" fill="#9f6f82" stroke="#9f6f82" stroke-width="1.51"/><path d="M70,-245L281,-102L323,-214Z" fill="#b33938" stroke="#b33938" stroke-width="1.51"/><path d="M72,276L172,460L214,451Z" fill="#e89683" stroke="#e89683" stroke-width="1.51"/><path d="M241,696L162,786L251,854Z" fill="#d19b96" stroke="#d19b96" stroke-width="1.51"/><path d="M121,122L72,276L276,184Z" fill="#de765e" stroke="#de765e" stroke-width="1.51"/><path d="M121,122L276,184L281,17Z" fill="#db6c56" stroke="#db6c56" stroke-width="1.51"/><path d="M62,-78L121,122L281,17Z" fill="#cd5144" stroke="#cd5144" stroke-width="1.51"/><path d="M62,-78L281,17L281,-102Z" fill="#c94a40" stroke="#c94a40" stroke-width="1.51"/><path d="M70,-245L62,-78L281,-102Z" fill="#b83133" stroke="#b83133" stroke-width="1.51"/><path d="M57,1303L-118,1318L166,1354Z" fill="#7a3852" stroke="#7a3852" stroke-width="1.51"/><path d="M73,1041L228,1039L251,854Z" fill="#ae7f87" stroke="#ae7f87" stroke-width="1.51"/><path d="M22,974L73,1041L251,854Z" fill="#ae7b83" stroke="#ae7b83" stroke-width="1.51"/><path d="M202,499L49,720L241,696Z" fill="#e09e96" stroke="#e09e96" stroke-width="1.51"/><path d="M162,786L22,974L251,854Z" fill="#be8b8b" stroke="#be8b8b" stroke-width="1.51"/><path d="M214,451L202,499L264,485Z" fill="#eda695" stroke="#eda695" stroke-width="1.51"/><path d="M162,1146L57,1303L166,1354Z" fill="#894d65" stroke="#894d65" stroke-width="1.51"/><path d="M162,1146L166,1354L238,1308Z" fill="#8c536a" stroke="#8c536a" stroke-width="1.51"/><path d="M49,720L101,749L241,696Z" fill="#d59691" stroke="#d59691" stroke-width="1.51"/><path d="M101,749L162,786L241,696Z" fill="#d49893" stroke="#d49893" stroke-width="1.51"/><path d="M62,-78L17,-3L121,122Z" fill="#c6443d" stroke="#c6443d" stroke-width="1.51"/><path d="M-31,530L49,720L202,499Z" fill="#e0968f" stroke="#e0968f" stroke-width="1.51"/><path d="M73,1041L162,1146L228,1039Z" fill="#9e6e7d" stroke="#9e6e7d" stroke-width="1.51"/><path d="M172,460L-31,530L202,499Z" fill="#e69a8e" stroke="#e69a8e" stroke-width="1.51"/><path d="M172,460L202,499L214,451Z" fill="#eca191" stroke="#eca191" stroke-width="1.51"/><path d="M11,451L-31,530L172,460Z" fill="#e39186" stroke="#e39186" stroke-width="1.51"/><path d="M72,276L11,451L172,460Z" fill="#e48e7e" stroke="#e48e7e" stroke-width="1.51"/><path d="M-46,803L22,974L101,749Z" fill="#bc7f83" stroke="#bc7f83" stroke-width="1.51"/><path d="M101,749L22,974L162,786Z" fill="#c18889" stroke="#c18889" stroke-width="1.51"/><path d="M16,1180L57,1303L162,1146Z" fill="#8e526e" stroke="#8e526e" stroke-width="1.51"/><path d="M73,1041L16,1180L162,1146Z" fill="#975f75" stroke="#975f75" stroke-width="1.51"/><path d="M15,134L-27,179L72,276Z" fill="#d56654" stroke="#d56654" stroke-width="1.51"/><path d="M17,-3L15,134L121,122Z" fill="#cc5145" stroke="#cc5145" stroke-width="1.51"/><path d="M15,134L72,276L121,122Z" fill="#d76854" stroke="#d76854" stroke-width="1.51"/><path d="M-67,-137L62,-78L70,-245Z" fill="#ab1b2b" stroke="#ab1b2b" stroke-width="1.51"/><path d="M49,720L-46,803L101,749Z" fill="#ca8888" stroke="#ca8888" stroke-width="1.51"/><path d="M-27,179L-163,455L11,451Z" fill="#d37c70" stroke="#d37c70" stroke-width="1.51"/><path d="M-95,1020L-97,1150L16,1180Z" fill="#88536d" stroke="#88536d" stroke-width="1.51"/><path d="M-180,-152L-67,-137L70,-245Z" fill="#9b1028" stroke="#9b1028" stroke-width="1.51"/><path d="M-27,179L11,451L72,276Z" fill="#dc7867" stroke="#dc7867" stroke-width="1.51"/><path d="M22,974L-95,1020L73,1041Z" fill="#9e6675" stroke="#9e6675" stroke-width="1.51"/><path d="M-95,1020L16,1180L73,1041Z" fill="#955c71" stroke="#955c71" stroke-width="1.51"/><path d="M-46,803L-113,852L22,974Z" fill="#ad767d" stroke="#ad767d" stroke-width="1.51"/><path d="M-31,530L-129,762L49,720Z" fill="#cc8886" stroke="#cc8886" stroke-width="1.51"/><path d="M16,1180L-118,1318L57,1303Z" fill="#7f3d5b" stroke="#7f3d5b" stroke-width="1.51"/><path d="M-67,-137L17,-3L62,-78Z" fill="#b82730" stroke="#b82730" stroke-width="1.51"/><path d="M-129,762L-46,803L49,720Z" fill="#bf8183" stroke="#bf8183" stroke-width="1.51"/><path d="M-237,207L-163,455L-27,179Z" fill="#c1695e" stroke="#c1695e" stroke-width="1.51"/><path d="M-226,85L-27,179L15,134Z" fill="#c05147" stroke="#c05147" stroke-width="1.51"/><path d="M-97,1150L-118,1318L16,1180Z" fill="#7e4464" stroke="#7e4464" stroke-width="1.51"/><path d="M-226,85L15,134L17,-3Z" fill="#bc443e" stroke="#bc443e" stroke-width="1.51"/><path d="M-113,852L-95,1020L22,974Z" fill="#9e6b78" stroke="#9e6b78" stroke-width="1.51"/><path d="M-240,594L-129,762L-31,530Z" fill="#bf8284" stroke="#bf8284" stroke-width="1.51"/><path d="M-67,-137L-184,-114L17,-3Z" fill="#a91f2c" stroke="#a91f2c" stroke-width="1.51"/><path d="M-184,-114L-226,85L17,-3Z" fill="#a92f33" stroke="#a92f33" stroke-width="1.51"/><path d="M-163,455L-31,530L11,451Z" fill="#d48780" stroke="#d48780" stroke-width="1.51"/><path d="M-163,455L-240,594L-31,530Z" fill="#c68584" stroke="#c68584" stroke-width="1.51"/><path d="M-226,85L-237,207L-27,179Z" fill="#b45148" stroke="#b45148" stroke-width="1.51"/><path d="M-129,762L-113,852L-46,803Z" fill="#af797f" stroke="#af797f" stroke-width="1.51"/><path d="M-180,-152L-184,-114L-67,-137Z" fill="#970f27" stroke="#970f27" stroke-width="1.51"/><path d="M-240,594L-97,1150L-95,1020Z" fill="#946977" stroke="#946977" stroke-width="1.51"/><path d="M-113,852L-240,594L-95,1020Z" fill="#a3747d" stroke="#a3747d" stroke-width="1.51"/><path d="M-240,594L-118,1318L-97,1150Z" fill="#815b6f" stroke="#815b6f" stroke-width="1.51"/><path d="M-129,762L-240,594L-113,852Z" fill="#ae7a80" stroke="#ae7a80" stroke-width="1.51"/><path d="M-237,207L-240,594L-163,455Z" fill="#b97773" stroke="#b97773" stroke-width="1.51"/><path d="M-226,85L-184,-114L-180,-152Z" fill="#99202c" stroke="#99202c" stroke-width="1.51"/></svg>