<?xml version="1.0" encoding="utf-8"?>
<!-- Generator: Adobe Illustrator 17.0.0, SVG Export Plug-In . SVG Version: 6.00 Build 0)  -->
<svg version="1.2" baseProfile="tiny" id="Слой_1"
	 xmlns="http://www.w3.org/2000/svg" xmlns:xlink="http://www.w3.org/1999/xlink" x="0px" y="0px" width="100px" height="100px"
	 viewBox="0 0 100 100" xml:space="preserve">
<g id="Make2D::visible::lines">
	<path fill="#EEF0F7" d="M59.573,44.717c-0.02,0.008-0.041,0.012-0.061,0.012c-0.064,0-0.125-0.038-0.15-0.101l-0.237-0.579
		c-0.034-0.083,0.006-0.178,0.089-0.212c0.083-0.034,0.178,0.006,0.212,0.089l0.237,0.579
		C59.696,44.589,59.656,44.683,59.573,44.717z M61.49,49.835l0.237,0.579c0.026,0.063,0.087,0.101,0.15,0.101
		c0.021,0,0.041-0.004,0.061-0.012c0.083-0.034,0.123-0.129,0.089-0.212l-0.237-0.579c-0.034-0.083-0.129-0.123-0.212-0.089
		C61.496,49.657,61.456,49.752,61.49,49.835z M59.598,45.207l0.237,0.579c0.026,0.063,0.087,0.101,0.15,0.101
		c0.021,0,0.041-0.004,0.061-0.012c0.083-0.034,0.123-0.129,0.089-0.212l-0.237-0.579c-0.034-0.083-0.129-0.123-0.212-0.089
		C59.604,45.029,59.564,45.124,59.598,45.207z M60.544,47.521l0.237,0.579c0.026,0.063,0.086,0.101,0.15,0.101
		c0.021,0,0.041-0.004,0.062-0.012c0.083-0.034,0.123-0.129,0.089-0.212l-0.237-0.579c-0.034-0.083-0.129-0.123-0.212-0.089
		C60.55,47.343,60.51,47.438,60.544,47.521z M60.519,47.031c0.083-0.034,0.123-0.129,0.089-0.212l-0.237-0.579
		c-0.034-0.083-0.129-0.123-0.212-0.089c-0.083,0.034-0.123,0.129-0.089,0.212l0.237,0.579c0.026,0.063,0.087,0.101,0.15,0.101
		C60.478,47.043,60.499,47.04,60.519,47.031z M61.465,49.345c0.083-0.034,0.123-0.129,0.089-0.212l-0.237-0.579
		c-0.034-0.083-0.129-0.123-0.212-0.089c-0.083,0.034-0.123,0.129-0.089,0.212l0.237,0.579c0.026,0.063,0.086,0.101,0.15,0.101
		C61.424,49.357,61.445,49.353,61.465,49.345z M62.412,51.659c0.083-0.034,0.123-0.129,0.089-0.212l-0.236-0.579
		c-0.034-0.083-0.129-0.123-0.212-0.089c-0.083,0.034-0.123,0.129-0.089,0.212L62.2,51.57c0.026,0.063,0.087,0.101,0.15,0.101
		C62.37,51.671,62.391,51.667,62.412,51.659z M63.031,52.218l-0.214,0.005l-0.081-0.197c-0.034-0.083-0.129-0.123-0.212-0.089
		c-0.083,0.034-0.123,0.129-0.089,0.212l0.079,0.193l-0.158,0.136c-0.068,0.058-0.075,0.161-0.017,0.229
		c0.032,0.038,0.078,0.057,0.123,0.057c0.038,0,0.075-0.013,0.106-0.039l0.203-0.174l0.267-0.006
		c0.09-0.002,0.161-0.076,0.159-0.166C63.195,52.287,63.122,52.227,63.031,52.218z M65.918,52.155l-0.722,0.016
		c-0.09,0.002-0.161,0.076-0.159,0.166c0.002,0.088,0.074,0.159,0.162,0.159c0.001,0,0.002,0,0.004,0l0.722-0.016
		c0.09-0.002,0.161-0.076,0.159-0.166C66.082,52.224,66.017,52.163,65.918,52.155z M64.475,52.187l-0.722,0.016
		c-0.09,0.002-0.161,0.076-0.159,0.166c0.002,0.088,0.074,0.159,0.162,0.159c0.001,0,0.002,0,0.004,0l0.722-0.016
		c0.09-0.002,0.161-0.076,0.159-0.166C64.639,52.256,64.563,52.189,64.475,52.187z M54.163,60.483
		c-0.089-0.019-0.174,0.038-0.192,0.126l-0.155,0.743c-0.018,0.088,0.038,0.174,0.126,0.192c0.011,0.003,0.022,0.004,0.033,0.004
		c0.075,0,0.143-0.053,0.159-0.129l0.155-0.743C54.307,60.587,54.251,60.501,54.163,60.483z M53.853,61.97
		c-0.089-0.02-0.174,0.038-0.192,0.126l-0.155,0.743c-0.018,0.088,0.038,0.174,0.126,0.192c0.011,0.003,0.022,0.004,0.033,0.004
		c0.075,0,0.143-0.053,0.159-0.129l0.155-0.743C53.997,62.074,53.941,61.988,53.853,61.97z M54.491,59.245l-0.158,0.136
		l-0.179-0.107c-0.078-0.047-0.177-0.022-0.223,0.055s-0.022,0.177,0.055,0.223l0.181,0.109l-0.043,0.204
		c-0.018,0.088,0.038,0.174,0.126,0.192c0.011,0.003,0.022,0.004,0.033,0.004c0.075,0,0.143-0.053,0.159-0.129l0.055-0.264
		l0.204-0.176c0.068-0.058,0.075-0.161,0.017-0.229C54.661,59.194,54.559,59.187,54.491,59.245z M60.969,53.671l-0.463,0.398
		c-0.068,0.058-0.075,0.161-0.017,0.229c0.032,0.038,0.078,0.057,0.123,0.057c0.038,0,0.075-0.013,0.106-0.039l0.463-0.398
		c0.068-0.059,0.076-0.161,0.017-0.229C61.139,53.62,61.036,53.612,60.969,53.671z M60.044,54.467l-0.463,0.398
		c-0.068,0.058-0.076,0.161-0.017,0.229c0.032,0.038,0.078,0.056,0.123,0.056c0.038,0,0.075-0.013,0.106-0.039l0.463-0.398
		c0.068-0.058,0.075-0.161,0.017-0.229C60.214,54.416,60.111,54.409,60.044,54.467z M55.416,58.449l-0.463,0.398
		c-0.068,0.058-0.076,0.161-0.017,0.229c0.032,0.038,0.078,0.057,0.123,0.057c0.038,0,0.075-0.013,0.106-0.039l0.463-0.398
		c0.068-0.059,0.076-0.161,0.017-0.229S55.484,58.39,55.416,58.449z M61.894,52.875l-0.463,0.398
		c-0.068,0.058-0.076,0.161-0.017,0.229c0.032,0.037,0.078,0.056,0.123,0.056c0.038,0,0.075-0.013,0.106-0.039l0.463-0.398
		c0.068-0.058,0.075-0.161,0.017-0.229C62.065,52.824,61.962,52.816,61.894,52.875z M59.118,55.264l-0.463,0.398
		c-0.068,0.059-0.075,0.161-0.017,0.229c0.032,0.037,0.078,0.056,0.123,0.056c0.038,0,0.075-0.013,0.106-0.039l0.463-0.398
		c0.068-0.058,0.076-0.161,0.017-0.229C59.288,55.213,59.186,55.205,59.118,55.264z M57.267,56.856l-0.463,0.398
		c-0.068,0.058-0.075,0.161-0.017,0.229c0.032,0.037,0.078,0.056,0.123,0.056c0.038,0,0.075-0.013,0.106-0.039l0.463-0.398
		c0.068-0.058,0.076-0.161,0.017-0.229C57.438,56.805,57.335,56.798,57.267,56.856z M56.342,57.652l-0.463,0.398
		c-0.068,0.059-0.075,0.161-0.017,0.229c0.032,0.037,0.078,0.056,0.123,0.056c0.038,0,0.075-0.013,0.106-0.039l0.463-0.398
		c0.068-0.058,0.075-0.161,0.017-0.229C56.512,57.602,56.409,57.594,56.342,57.652z M51.252,57.525l-0.58-0.35
		c-0.077-0.047-0.177-0.022-0.223,0.055c-0.046,0.077-0.022,0.176,0.055,0.223l0.58,0.35c0.026,0.016,0.055,0.023,0.084,0.023
		c0.055,0,0.109-0.028,0.139-0.078C51.353,57.671,51.329,57.571,51.252,57.525z M50.091,56.825l-0.581-0.35
		c-0.077-0.047-0.176-0.022-0.223,0.055c-0.046,0.077-0.022,0.176,0.055,0.223l0.581,0.35c0.026,0.016,0.055,0.023,0.083,0.023
		c0.055,0,0.109-0.028,0.139-0.079C50.192,56.972,50.168,56.872,50.091,56.825z M53.574,58.924l-0.58-0.35
		c-0.077-0.047-0.176-0.022-0.223,0.055c-0.047,0.077-0.022,0.177,0.055,0.223l0.581,0.35c0.026,0.016,0.055,0.023,0.084,0.023
		c0.055,0,0.109-0.028,0.139-0.079C53.676,59.07,53.651,58.97,53.574,58.924z M52.413,58.224l-0.581-0.35
		c-0.076-0.047-0.177-0.022-0.223,0.055s-0.022,0.176,0.055,0.223l0.581,0.35c0.026,0.016,0.055,0.023,0.083,0.023
		c0.055,0,0.109-0.028,0.139-0.079C52.515,58.371,52.49,58.271,52.413,58.224z M48.93,56.126l-0.581-0.35
		c-0.077-0.047-0.177-0.022-0.223,0.055c-0.046,0.077-0.022,0.177,0.055,0.223l0.581,0.35c0.026,0.016,0.055,0.023,0.083,0.023
		c0.055,0,0.109-0.028,0.139-0.079C49.031,56.272,49.007,56.172,48.93,56.126z M47.768,55.426l-0.581-0.35
		c-0.077-0.047-0.177-0.022-0.223,0.055c-0.046,0.077-0.022,0.177,0.055,0.223l0.581,0.35c0.026,0.016,0.055,0.023,0.084,0.023
		c0.055,0,0.109-0.028,0.139-0.079C47.87,55.572,47.846,55.473,47.768,55.426z M48.025,43.165l-0.242,0.022l-0.16-0.182
		c-0.059-0.067-0.162-0.074-0.229-0.014c-0.067,0.06-0.074,0.162-0.014,0.229l0.159,0.18l-0.058,0.233
		c-0.022,0.087,0.031,0.175,0.119,0.197c0.013,0.003,0.026,0.005,0.039,0.005c0.073,0,0.139-0.049,0.158-0.123l0.05-0.203
		l0.208-0.019c0.089-0.008,0.155-0.087,0.147-0.176C48.194,43.222,48.115,43.157,48.025,43.165z M56.398,42.563
		c-0.008-0.089-0.087-0.155-0.176-0.147l-0.683,0.062c-0.089,0.008-0.155,0.087-0.147,0.176c0.008,0.084,0.079,0.148,0.162,0.148
		c0.005,0,0.01,0,0.015-0.001l0.683-0.062C56.34,42.731,56.406,42.652,56.398,42.563z M54.856,42.54l-0.683,0.062
		c-0.089,0.008-0.155,0.087-0.147,0.176c0.008,0.084,0.079,0.148,0.162,0.148c0.005,0,0.01,0,0.015,0l0.683-0.062
		c0.089-0.008,0.155-0.087,0.147-0.176C55.024,42.598,54.945,42.532,54.856,42.54z M49.391,43.04l-0.683,0.062
		c-0.089,0.008-0.155,0.087-0.147,0.176c0.008,0.084,0.079,0.148,0.162,0.148c0.005,0,0.01,0,0.015,0l0.683-0.062
		c0.089-0.008,0.155-0.087,0.147-0.176C49.559,43.097,49.48,43.032,49.391,43.04z M52.123,42.79l-0.683,0.062
		c-0.089,0.008-0.155,0.087-0.147,0.176c0.008,0.084,0.079,0.148,0.162,0.148c0.005,0,0.01,0,0.015,0l0.683-0.062
		c0.089-0.008,0.155-0.087,0.147-0.176C52.292,42.848,52.211,42.782,52.123,42.79z M50.757,42.915l-0.683,0.062
		c-0.089,0.008-0.155,0.087-0.147,0.176c0.008,0.084,0.079,0.148,0.162,0.148c0.005,0,0.01,0,0.015-0.001l0.683-0.062
		c0.089-0.008,0.155-0.087,0.147-0.177C50.925,42.973,50.846,42.907,50.757,42.915z M53.489,42.666l-0.683,0.062
		c-0.089,0.008-0.155,0.087-0.147,0.177c0.008,0.084,0.078,0.148,0.162,0.148c0.005,0,0.01,0,0.015-0.001l0.683-0.062
		c0.089-0.008,0.155-0.087,0.147-0.176C53.658,42.723,53.58,42.657,53.489,42.666z M59.861,37.8
		c0.014,0.004,0.029,0.006,0.043,0.006c0.071,0,0.137-0.047,0.157-0.119l0.173-0.629c0.024-0.086-0.027-0.176-0.114-0.199
		c-0.087-0.024-0.176,0.027-0.199,0.113L59.748,37.6C59.724,37.687,59.775,37.777,59.861,37.8z M59.516,39.058
		c0.014,0.004,0.029,0.006,0.043,0.006c0.071,0,0.137-0.047,0.156-0.119l0.173-0.629c0.024-0.087-0.027-0.176-0.114-0.199
		c-0.087-0.024-0.176,0.027-0.199,0.114l-0.173,0.629C59.378,38.945,59.429,39.035,59.516,39.058z M59.17,40.316
		c0.014,0.004,0.029,0.006,0.043,0.006c0.071,0,0.137-0.047,0.156-0.119l0.173-0.629c0.024-0.087-0.027-0.176-0.114-0.199
		c-0.086-0.024-0.176,0.027-0.199,0.114l-0.173,0.629C59.033,40.204,59.083,40.293,59.17,40.316z M58.825,41.575
		c0.014,0.004,0.029,0.006,0.043,0.006c0.071,0,0.137-0.047,0.156-0.119l0.173-0.629c0.024-0.086-0.027-0.176-0.114-0.199
		c-0.086-0.025-0.176,0.027-0.199,0.113l-0.173,0.629C58.687,41.462,58.738,41.551,58.825,41.575z M46.964,42.748
		c0.032,0.037,0.077,0.055,0.122,0.055c0.038,0,0.076-0.013,0.107-0.041c0.067-0.059,0.074-0.162,0.014-0.229l-0.416-0.471
		c-0.06-0.067-0.162-0.074-0.229-0.014c-0.067,0.06-0.074,0.162-0.014,0.229L46.964,42.748z M44.468,39.919
		c0.032,0.036,0.077,0.055,0.122,0.055c0.038,0,0.076-0.013,0.107-0.04c0.067-0.06,0.074-0.162,0.014-0.229l-0.416-0.472
		c-0.06-0.067-0.162-0.074-0.229-0.014c-0.067,0.06-0.074,0.162-0.014,0.229L44.468,39.919z M43.636,38.977
		c0.032,0.036,0.077,0.055,0.122,0.055c0.038,0,0.076-0.013,0.107-0.041c0.067-0.059,0.074-0.162,0.014-0.229l-0.416-0.471
		c-0.06-0.067-0.162-0.074-0.229-0.014c-0.067,0.06-0.074,0.162-0.014,0.229L43.636,38.977z M45.861,50.856
		c-0.087-0.022-0.175,0.031-0.197,0.119l-0.165,0.668c-0.022,0.087,0.031,0.175,0.119,0.197c0.013,0.003,0.026,0.005,0.039,0.005
		c0.073,0,0.139-0.049,0.158-0.123l0.165-0.668C46.001,50.965,45.948,50.877,45.861,50.856z M45.53,52.19
		c-0.087-0.021-0.175,0.031-0.197,0.119l-0.165,0.668c-0.022,0.087,0.031,0.175,0.119,0.197c0.013,0.003,0.026,0.005,0.039,0.005
		c0.073,0,0.139-0.049,0.158-0.123l0.165-0.668C45.671,52.3,45.618,52.212,45.53,52.19z M46.191,49.52
		c-0.087-0.021-0.175,0.031-0.197,0.119l-0.165,0.667c-0.022,0.087,0.031,0.175,0.119,0.197c0.013,0.003,0.026,0.005,0.039,0.005
		c0.073,0,0.139-0.049,0.158-0.123l0.165-0.667C46.331,49.63,46.278,49.542,46.191,49.52z M47.512,44.181
		c-0.088-0.021-0.175,0.031-0.197,0.119l-0.165,0.667c-0.022,0.087,0.031,0.175,0.119,0.197c0.013,0.003,0.026,0.005,0.039,0.005
		c0.073,0,0.139-0.049,0.158-0.123l0.165-0.667C47.653,44.29,47.599,44.203,47.512,44.181z M47.182,45.516
		c-0.088-0.021-0.175,0.031-0.197,0.119l-0.165,0.668c-0.022,0.087,0.031,0.175,0.119,0.197c0.013,0.003,0.026,0.005,0.039,0.005
		c0.073,0,0.139-0.049,0.158-0.123l0.165-0.668C47.322,45.626,47.269,45.538,47.182,45.516z M46.521,48.186
		c-0.087-0.021-0.175,0.031-0.197,0.119l-0.165,0.668c-0.022,0.087,0.031,0.175,0.119,0.197c0.013,0.003,0.026,0.005,0.039,0.005
		c0.073,0,0.139-0.049,0.158-0.123l0.165-0.668C46.661,48.295,46.608,48.207,46.521,48.186z M46.852,46.851
		c-0.087-0.022-0.175,0.031-0.197,0.119l-0.165,0.668c-0.022,0.087,0.031,0.175,0.119,0.197c0.013,0.003,0.026,0.005,0.039,0.005
		c0.073,0,0.139-0.049,0.158-0.123l0.165-0.668C46.992,46.96,46.939,46.872,46.852,46.851z M42.743,54.153l-0.665,0.091
		c-0.089,0.012-0.151,0.094-0.139,0.183c0.011,0.082,0.081,0.14,0.161,0.14c0.007,0,0.015,0,0.022-0.001l0.665-0.091
		c0.089-0.012,0.151-0.094,0.139-0.183C42.914,54.203,42.833,54.142,42.743,54.153z M44.074,53.971l-0.665,0.091
		c-0.089,0.012-0.151,0.094-0.139,0.183c0.011,0.082,0.081,0.14,0.161,0.14c0.007,0,0.014,0,0.022-0.001l0.665-0.091
		c0.089-0.012,0.151-0.094,0.139-0.183C44.245,54.022,44.163,53.96,44.074,53.971z M41.413,54.334l-0.665,0.091
		c-0.089,0.012-0.151,0.094-0.139,0.183c0.011,0.082,0.081,0.14,0.161,0.14c0.007,0,0.015,0,0.022-0.001l0.665-0.091
		c0.089-0.012,0.151-0.094,0.139-0.183C41.583,54.384,41.502,54.322,41.413,54.334z M40.082,54.516l-0.665,0.091
		c-0.089,0.012-0.151,0.094-0.139,0.183c0.011,0.082,0.081,0.14,0.161,0.14c0.008,0,0.015,0,0.022-0.001l0.665-0.091
		c0.089-0.012,0.151-0.094,0.139-0.183C40.252,54.565,40.171,54.504,40.082,54.516z M67.29,52.248c0,0.003-0.001,0.005,0,0.008
		c0.003,0.019-0.002,0.039-0.003,0.059c-0.001,0.022,0,0.045-0.006,0.067c-0.003,0.012-0.012,0.022-0.016,0.034
		c-0.011,0.028-0.022,0.055-0.04,0.078c-0.001,0.001-0.001,0.004-0.003,0.005l-5.726,7.135c-0.005,0.007-0.014,0.009-0.019,0.016
		c-0.007,0.008-0.011,0.018-0.019,0.025c-0.009,0.008-0.021,0.011-0.03,0.018c-0.008,0.006-0.014,0.015-0.022,0.02l-7.798,4.502
		c-0.013,0.008-0.027,0.011-0.04,0.016c-0.01,0.004-0.019,0.009-0.03,0.012c-0.03,0.009-0.06,0.014-0.089,0.014
		c-0.001,0-0.003,0.001-0.004,0.001c-0.004,0-0.008-0.001-0.013-0.002c-0.025-0.001-0.05-0.004-0.074-0.01
		c-0.002,0-0.003,0-0.005-0.001l-9.826-2.89c-0.008-0.003-0.014-0.008-0.022-0.012c-0.017-0.006-0.032-0.016-0.049-0.025
		c-0.013-0.008-0.029-0.012-0.041-0.022c-0.01-0.008-0.016-0.019-0.025-0.028c-0.006-0.006-0.015-0.009-0.021-0.016l-5.166-6.141
		c-0.006-0.007-0.007-0.015-0.012-0.023c-0.015-0.021-0.027-0.043-0.037-0.067c-0.006-0.015-0.012-0.029-0.015-0.045
		c-0.003-0.01-0.008-0.018-0.01-0.029l-1.466-10.083c0-0.002,0.001-0.004,0-0.006c-0.001-0.007,0-0.013-0.001-0.02
		c0-0.005-0.003-0.009-0.003-0.014c0-0.016,0.006-0.03,0.008-0.045c0-0.002,0-0.004,0-0.006c0.002-0.013,0-0.027,0.003-0.04
		c0.002-0.007,0.006-0.013,0.008-0.02c0.007-0.021,0.018-0.038,0.029-0.057c0.007-0.012,0.011-0.025,0.019-0.036
		c0.001-0.002,0.002-0.005,0.004-0.007l5.727-7.135c0.012-0.015,0.03-0.024,0.044-0.036c0.016-0.014,0.028-0.031,0.047-0.041
		l7.799-4.501c0.002-0.001,0.004-0.001,0.006-0.002c0.012-0.006,0.025-0.008,0.038-0.013c0.022-0.009,0.044-0.019,0.068-0.023
		c0.005-0.001,0.01-0.003,0.015-0.004c0,0,0,0,0,0c0.019-0.002,0.038,0.003,0.057,0.004c0.015,0.001,0.03-0.003,0.045,0
		c0.003,0.001,0.005,0.003,0.008,0.003c0.005,0.001,0.009,0.001,0.014,0.003c0.001,0,0.003,0,0.004,0l9.826,2.891
		c0.009,0.003,0.016,0.01,0.025,0.013c0.021,0.008,0.039,0.018,0.058,0.031c0.019,0.012,0.035,0.025,0.05,0.04
		c0.007,0.007,0.016,0.01,0.023,0.018l5.166,6.14c0.006,0.007,0.008,0.016,0.013,0.023c0.012,0.017,0.021,0.035,0.03,0.054
		c0.009,0.021,0.018,0.041,0.022,0.063c0.001,0.008,0.007,0.014,0.008,0.022L67.29,52.248z M49.968,37.376l8.183,4.929
		c0.026-0.041,0.068-0.071,0.12-0.076l0.211-0.019l0.056-0.204c0.023-0.087,0.113-0.138,0.199-0.114
		c0.087,0.023,0.137,0.113,0.114,0.199l-0.071,0.26l0.102,0.25c0.011,0.027,0.012,0.056,0.008,0.083
		c0.022,0.017,0.041,0.037,0.052,0.065l0.012,0.028l5.919-0.806l-4.576-5.437c-0.016,0.005-0.03,0.016-0.048,0.016
		c-0.014,0-0.029-0.002-0.043-0.006c-0.087-0.023-0.137-0.113-0.114-0.199l0.001-0.003l-9.338-2.748L49.968,37.376z M55.975,53.456
		l2.519-10.185l-1.061-0.639l-0.5,0.045c-0.005,0-0.01,0.001-0.015,0.001c-0.083,0-0.154-0.063-0.162-0.148
		c-0.008-0.089,0.058-0.168,0.147-0.176l0.06-0.005l-7.327-4.414l-3.69,3.175c0.004,0.004,0.009,0.006,0.013,0.01l0.416,0.472
		c0.06,0.067,0.053,0.17-0.014,0.229c-0.031,0.027-0.069,0.04-0.107,0.04c-0.045,0-0.09-0.018-0.122-0.055l-0.416-0.472
		c-0.005-0.005-0.006-0.012-0.01-0.018l-4.073,3.504l3.559,8.705c0.003,0,0.005,0,0.008,0c0.087,0.022,0.14,0.11,0.119,0.197
		l-0.017,0.071l0.037,0.09c0,0.001,0,0.002,0,0.003l0.042,0.102l0.066,0.04c0.077,0.046,0.101,0.146,0.055,0.223
		c-0.003,0.004-0.007,0.006-0.01,0.009l0.061,0.149l0.303-0.028c0.043-0.027,0.096-0.032,0.145-0.013L55.975,53.456z M37.673,44.478
		l3.448-0.074l4.152-3.572l-0.389-0.441c-0.059-0.067-0.053-0.17,0.014-0.229c0.067-0.059,0.17-0.053,0.229,0.014l0.391,0.444
		l3.789-3.26l0.736-3.535l-6.977,4.027c0.034,0.065,0.024,0.145-0.034,0.196c-0.031,0.027-0.069,0.04-0.107,0.04
		c-0.034,0-0.067-0.014-0.096-0.036L37.673,44.478z M45.001,54.774l-0.233-0.571c-0.002,0-0.004,0-0.006,0
		c-0.08,0-0.15-0.059-0.161-0.14c-0.008-0.054,0.016-0.105,0.053-0.139l-3.626-8.869l-3.669,0.079l1.39,9.562l0.002,0
		c0.089-0.011,0.171,0.05,0.183,0.139c0.005,0.039-0.005,0.075-0.025,0.106l4.559,5.418L45.001,54.774z M60.736,59.348l-2.532-2.869
		l-0.262,0.225c-0.03,0.027-0.068,0.039-0.106,0.039c-0.045,0-0.091-0.019-0.123-0.057c-0.058-0.068-0.051-0.171,0.017-0.229
		l0.259-0.223l-1.888-2.139l-9.449,0.864c-0.031,0.042-0.078,0.068-0.128,0.068c-0.028,0-0.057-0.008-0.083-0.023l-0.036-0.022
		l-0.807,0.074l-1.582,5.765l9.342,2.748c0.024-0.08,0.103-0.13,0.186-0.113c0.016,0.003,0.03,0.011,0.044,0.019L60.736,59.348z
		 M66.495,52.366c-0.008-0.019-0.013-0.039-0.013-0.061c-0.002-0.082,0.059-0.148,0.137-0.161l-1.392-9.568l-6.028,0.821
		c0.005,0.068-0.031,0.135-0.098,0.163c-0.003,0.001-0.006,0.001-0.008,0.001l-2.501,10.108l4.639,5.256L66.495,52.366z"/>
</g>
<g id="Layer_27">
	<path fill="#EEF0F7" d="M23.858,27.515l0.522,0.522l0.503-0.503l-0.851-0.851l2.8-9.134c0.808,0.16,1.678-0.072,2.304-0.698
		c0.852-0.852,0.975-2.157,0.369-3.141l0.747-0.747l-0.92-0.92l-0.769,0.769c-0.97-0.535-2.214-0.392-3.036,0.43
		c-0.612,0.612-0.847,1.457-0.708,2.249l-9.156,2.824l-0.844-0.844l-0.503,0.503l0.512,0.512l-8.321,2.398l0.023-0.024
		c-0.275,0.081-0.437,0.197-0.509,0.372l3.272,0.318l6.684-1.915l2.997,2.997l-0.854,0.854l0.69,0.69l0.854-0.854l3.062,3.062
		l-2.406,8.188l0.399,1.364l0.905-0.844L23.858,27.515z M28.314,14.065c0.543,0.543,0.543,1.423,0,1.965
		c-0.543,0.543-1.422,0.543-1.965,0c-0.542-0.542-0.542-1.422,0-1.964C26.892,13.523,27.772,13.523,28.314,14.065z M20.164,22.816
		l0.885-0.885l-0.69-0.69l-0.885,0.885l-2.661-2.661l8.652-2.513l-2.567,8.598L20.164,22.816z"/>
</g>
<path fill="#EEF0F7" d="M34.578,75.887c-0.954,0.954-2.474,1-3.481,0.134l-0.155-0.125c-3.753-3.317-8.326-4.459-12.835-3.863
	c-0.077-0.094-0.159-0.187-0.248-0.276c-0.5-0.5-1.12-0.809-1.766-0.931l0-6.134l0.308,0c0.169,0,0.306-0.137,0.307-0.307
	l0.002-0.653c-0.001-0.17-0.138-0.307-0.307-0.307l-1.522,0l0.009-1.416c0.115-0.015,0.2-0.111,0.194-0.227
	c0.021-0.26,0.276-0.452,0.391-0.526l0.16,0.002c0.182,0.002,0.33-0.141,0.334-0.326c0.003-0.18-0.144-0.331-0.325-0.332
	l-4.561-0.055c-0.183,0-0.331,0.144-0.332,0.326c-0.003,0.183,0.142,0.331,0.323,0.331l0.156,0.003
	c0.117,0.081,0.38,0.287,0.379,0.56c0.006,0.123,0.108,0.217,0.23,0.211c0.002,0,0.004-0.002,0.006-0.002l-0.009,1.449l-1.527,0
	c-0.169,0-0.307,0.139-0.308,0.308l0.001,0.654c-0.001,0.169,0.137,0.306,0.307,0.307l0.313,0l0,13.161l-0.139-0.001
	c-0.264,0.001-0.476,0.215-0.475,0.479l0,1.265c-0.001,0.455,0.091,0.889,0.256,1.284L8.73,82.712
	c-0.075,0.121-0.031,0.531,0.473,1.027c0.504,0.496,0.906,0.55,1.028,0.475l1.778-1.493l0.172,1.941
	c0.034,0.139,0.355,0.397,1.063,0.391c0.707-0.006,1.028-0.252,1.062-0.391l0.37-1.905l2.021,1.698
	c0.121,0.074,0.532,0.029,1.027-0.475c0.497-0.504,0.55-0.905,0.475-1.027l-1.745-2.078c0.163-0.393,0.253-0.824,0.254-1.277
	l0-1.264c-0.001-0.264-0.216-0.477-0.479-0.476h-0.137l0-0.395c0.647-0.12,1.266-0.429,1.766-0.93
	c0.149-0.149,0.28-0.309,0.395-0.477c0.949,0.18,2.455,0.584,4.022,1.559c0.499,0.31,1.018,0.665,1.505,1.124l1.292-1.292
	c0.236-0.236,0.619-0.237,0.855-0.001c0.236,0.236,0.237,0.62,0,0.856l-7.349,7.349l-1.304,1.304c-0.334,0.334-0.334,0.874,0,1.208
	c0.333,0.333,0.873,0.333,1.207-0.001l6.885-6.885l0.002,0.003c0.306,1.088,0.248,2.25-0.192,3.299
	c-1.497,3.575-3.521,5.86-5.151,7.756c-0.382,0.382-0.383,1.003-0.001,1.386c0.384,0.384,1.022,0.4,1.405,0.018L36.931,78.24
	c0.65-0.65,0.649-1.704,0-2.352C36.281,75.237,35.228,75.237,34.578,75.887z M12.347,63.236l0-1.048
	c0.001-0.095,0.068-0.17,0.156-0.189l0.39,0c0.089,0.019,0.157,0.095,0.157,0.19l0,1.048c-0.001,0.108-0.088,0.196-0.198,0.198
	l-0.307-0.001C12.437,63.433,12.348,63.344,12.347,63.236z M11.566,79.81c0,0.867,0.334,1.653,0.878,2.246
	c-0.923-0.365-1.576-1.261-1.578-2.314l0.002-1.113l0.697,0V79.81z M16.29,74.413c-0.106,0.291-0.279,0.53-0.484,0.709l0.002,0
	c-0.061,0.06-0.098,0.147-0.088,0.241c0.015,0.151,0.142,0.256,0.285,0.239c0.34-0.022,0.656-0.137,0.909-0.329l0.001-0.001
	c0.015-0.014,0.033-0.026,0.055-0.029c0.051-0.006,0.097,0.032,0.103,0.085c0.003,0.033-0.01,0.064-0.033,0.084l0.001,0.004
	c-0.429,0.556-1.249,0.767-2.016,0.465c-0.592-0.237-1.005-0.715-1.149-1.248c-0.119-0.349-0.119-0.761,0.03-1.16
	c0.295-0.803,1.068-1.238,1.726-0.981C16.292,72.753,16.586,73.612,16.29,74.413z M14.202,70.474
	c0.134-0.048,0.28,0.023,0.327,0.156c0.046,0.134-0.024,0.28-0.157,0.326l-0.002,0.001c-0.521,0.178-0.967,0.471-1.324,0.842v0.005
	c-0.872,0.9-1.145,2.163-0.817,3.29c0,0-0.001,0.002,0,0.002c0.149,0.512,0.421,0.995,0.816,1.403l0,1.163
	c0,0.11-0.088,0.198-0.198,0.198l-1.217,0c-0.11,0-0.198-0.088-0.199-0.199V64.89c0-0.094,0.068-0.171,0.155-0.19l1.302,0.001
	c0.089,0.019,0.155,0.094,0.156,0.189l0,6.219C13.383,70.839,13.77,70.621,14.202,70.474z"/>
<g id="Your_Icon">
	<path fill="#EEF0F7" d="M80.787,87.608c0.031,0.29,0.152,0.572,0.374,0.793c0.518,0.518,1.362,0.516,1.884-0.007
		c0.521-0.521,0.524-1.367,0.007-1.884c-0.051-0.051-0.108-0.093-0.165-0.134c0.057,0.04,0.113,0.083,0.165,0.134
		c0.022,0.022,0.037,0.046,0.057,0.069c1.548-1.303,3.887-3.291,4.725-4.087c0.518,0.378,1.252,0.331,1.725-0.142
		c0.522-0.522,0.524-1.364,0.005-1.883c-0.518-0.518-1.361-0.516-1.883,0.005c-0.092,0.092-0.153,0.2-0.213,0.308
		c-0.008-0.327-0.134-0.65-0.383-0.899c-0.52-0.52-1.362-0.516-1.883,0.005c-0.522,0.522-0.525,1.364-0.005,1.884
		c0.053,0.053,0.111,0.1,0.171,0.142l-4.119,3.574c-0.013-0.014-0.022-0.03-0.035-0.043c-0.518-0.518-1.36-0.516-1.882,0.006
		c-0.522,0.522-0.525,1.364-0.007,1.883C79.719,87.727,80.301,87.818,80.787,87.608z M85.764,82.105
		c0.45,0.13,0.958,0.017,1.316-0.341c0.093-0.093,0.164-0.2,0.225-0.311c0.007,0.267,0.078,0.533,0.243,0.755
		c-0.718,0.679-2.893,2.537-4.754,4.105c0.001,0.001,0.002,0.001,0.003,0.002c-0.368-0.222-0.82-0.249-1.211-0.081
		c-0.015-0.141-0.052-0.279-0.112-0.411L85.764,82.105z"/>
	<path fill="#EEF0F7" d="M70.007,76.126c0.485-0.485,0.515-1.243,0.102-1.765c1.357-1.455,2.893-3.085,3.976-4.213
		c-0.092,0.359-0.026,0.744,0.186,1.063c-0.119,0.062-0.238,0.124-0.338,0.224c-0.424,0.424-0.503,1.059-0.242,1.56
		c-0.316,0.263-0.683,0.568-1.03,0.856c-0.517-0.351-1.226-0.299-1.689,0.164c-0.522,0.522-0.524,1.364-0.006,1.883
		c0.518,0.518,1.362,0.517,1.884-0.005c0.484-0.484,0.514-1.238,0.106-1.759c0.321-0.266,0.668-0.555,0.975-0.813
		c0.003,0.003,0.006,0.003,0.007,0.005c0.028-0.035,0.053-0.072,0.086-0.105c0.065-0.065,0.134-0.121,0.208-0.17
		c-0.073,0.049-0.143,0.105-0.208,0.17c-0.523,0.523-0.527,1.367-0.007,1.886c0.126,0.126,0.272,0.22,0.427,0.284
		c-0.471-0.172-1.021-0.071-1.4,0.308c-0.523,0.523-0.526,1.366-0.007,1.884c0.518,0.518,1.362,0.516,1.885-0.007
		c0.37-0.37,0.475-0.902,0.322-1.366c0.493-0.332,1.048-0.708,1.494-1.02c-0.013-0.012-0.026-0.019-0.039-0.032
		c-0.05-0.05-0.092-0.104-0.13-0.159c0.04,0.055,0.081,0.11,0.13,0.159c0.42,0.42,1.05,0.493,1.553,0.231
		c-0.001,0.001-0.002,0.001-0.003,0.002c-1.036,1.115-2.238,2.402-3.064,3.284c-0.518-0.35-1.23-0.296-1.691,0.166
		c-0.521,0.521-0.524,1.366-0.006,1.885c0.518,0.518,1.363,0.513,1.884-0.007c0.485-0.485,0.522-1.246,0.11-1.768
		c1.178-1.26,3.113-3.331,4.255-4.572c0.337,0.221,0.751,0.267,1.127,0.148c-0.144,0.458-0.041,0.976,0.32,1.337
		c0.519,0.519,1.362,0.516,1.885-0.007c0.522-0.522,0.525-1.363,0.005-1.883c-0.361-0.361-0.878-0.464-1.336-0.321
		c0.144-0.457,0.041-0.974-0.32-1.335c-0.518-0.518-1.362-0.517-1.883,0.005c-0.49,0.49-0.517,1.258-0.093,1.78
		c-0.174,0.187-0.362,0.392-0.566,0.613c-0.004,0.01-0.011,0.019-0.016,0.029c0.215-0.488,0.127-1.077-0.271-1.475
		c-0.518-0.518-1.359-0.519-1.881,0.003c-0.434,0.434-0.403,0.99-0.214,1.593c0,0-0.001-0.001-0.001-0.001
		c-0.476,0.352-0.926,0.637-1.434,0.98c-0.04-0.054-0.083-0.105-0.131-0.153c-0.126-0.126-0.272-0.219-0.427-0.283
		c0.472,0.171,1.022,0.07,1.403-0.311c0.522-0.522,0.522-1.364,0.004-1.881c-0.006-0.006-0.014-0.01-0.021-0.017
		c0.368-0.453,0.39-1.068,0.08-1.546c0.123-0.063,0.242-0.14,0.345-0.243c0.482-0.482,0.522-1.238,0.118-1.759
		c0.086-0.053,0.168-0.116,0.242-0.191c0.522-0.522,0.524-1.364,0.005-1.883c-0.519-0.519-1.361-0.516-1.883,0.006
		c-0.414,0.414-0.501,1.028-0.262,1.524c-0.106,0.108-0.227,0.23-0.363,0.371c-0.537,0.552-1.274,1.327-2.192,2.298
		c-0.787,0.835-1.571,1.672-2.16,2.304c-0.517-0.349-1.225-0.294-1.686,0.166c-0.522,0.522-0.525,1.364-0.006,1.883
		C68.642,76.65,69.485,76.648,70.007,76.126z M78.411,75.294c0.059-0.042,0.117-0.086,0.17-0.139
		C78.528,75.208,78.471,75.253,78.411,75.294z M74.403,72.962c0.019-0.009,0.037-0.022,0.057-0.03
		C74.44,72.94,74.422,72.953,74.403,72.962z"/>
	<path fill="#EEF0F7" d="M86.265,87.072c-0.091,0.426,0.026,0.887,0.355,1.216c0.519,0.519,1.363,0.514,1.885-0.007
		c0.211-0.211,0.333-0.476,0.374-0.75c0.091-0.426-0.027-0.886-0.355-1.215c-0.518-0.518-1.362-0.516-1.885,0.006
		C86.426,86.532,86.305,86.797,86.265,87.072z"/>
	<path fill="#EEF0F7" d="M92.253,86.263c-0.521,0.521-0.524,1.367-0.006,1.885c-0.035-0.035-0.061-0.074-0.091-0.112l-4.603,4.172
		c-0.05-0.078-0.109-0.152-0.177-0.22c-0.118-0.118-0.255-0.206-0.4-0.271c0.181-0.064,0.351-0.159,0.496-0.304
		c0.454-0.454,0.516-1.152,0.183-1.668c0.67-0.549,1.688-1.387,2.069-1.714c-0.004-0.002-0.008-0.005-0.012-0.007
		c0.505,0.274,1.147,0.202,1.577-0.228c0.521-0.521,0.524-1.364,0.005-1.883c-0.518-0.518-1.361-0.515-1.882,0.006
		c-0.522,0.522-0.525,1.364-0.007,1.883c0.052,0.052,0.11,0.095,0.168,0.137c-0.059-0.04-0.115-0.085-0.168-0.137
		c-0.005-0.005-0.01-0.012-0.016-0.018c-0.375,0.32-1.23,1.023-2.004,1.659c-0.522-0.43-1.3-0.399-1.791,0.092
		c-0.521,0.521-0.522,1.364-0.004,1.881c0.118,0.118,0.257,0.201,0.401,0.266c-0.182,0.065-0.354,0.165-0.499,0.311
		c-0.523,0.523-0.525,1.364-0.006,1.884c0.518,0.518,1.361,0.516,1.884-0.006c0.345-0.345,0.462-0.83,0.353-1.27l4.73-4.288
		c0.516,0.342,1.223,0.284,1.68-0.173c0.522-0.522,0.523-1.364,0.004-1.883C93.617,85.741,92.775,85.741,92.253,86.263z"/>
	<path fill="#EEF0F7" d="M79.255,84.507c0.519,0.519,1.361,0.516,1.882-0.005c0.462-0.462,0.516-1.174,0.163-1.691l1.492-0.878
		c0.51,0.303,1.181,0.236,1.623-0.206c0.522-0.522,0.526-1.367,0.007-1.885c-0.518-0.518-1.362-0.514-1.884,0.008
		c-0.497,0.497-0.522,1.284-0.075,1.807l-1.451,0.855c-0.117-0.09-0.244-0.159-0.379-0.204c0.336-0.004,0.671-0.135,0.928-0.391
		c0.523-0.523,0.527-1.366,0.007-1.885c-0.518-0.518-1.362-0.515-1.885,0.007c-0.521,0.521-0.524,1.365-0.006,1.883
		c0.148,0.148,0.325,0.249,0.511,0.312l0,0c-0.336,0.005-0.671,0.134-0.929,0.392C78.738,83.146,78.737,83.989,79.255,84.507z"/>
	<path fill="#EEF0F7" d="M89.469,85.368c0.521-0.521,0.522-1.364,0.004-1.883c-0.518-0.518-1.362-0.516-1.882,0.005
		c-0.411,0.411-0.499,1.018-0.268,1.512c-0.478,0.386-1.179,0.947-1.899,1.52c-0.501-0.261-1.133-0.187-1.557,0.237
		c-0.522,0.522-0.522,1.364-0.005,1.882c0.519,0.519,1.361,0.518,1.883-0.004c0.518-0.518,0.522-1.348,0.018-1.868
		c0.628-0.5,1.303-1.039,1.787-1.431c0.012,0.012,0.022,0.025,0.033,0.036C88.102,85.894,88.946,85.891,89.469,85.368z"/>
	<path fill="#EEF0F7" d="M77.303,80.532c-0.468-0.165-1.012-0.061-1.389,0.315c-0.522,0.522-0.526,1.366-0.007,1.885
		c0.519,0.519,1.362,0.515,1.885-0.007c0.522-0.522,0.524-1.364,0.005-1.883c-0.042-0.042-0.087-0.079-0.132-0.113
		c0.685-0.884,1.543-1.989,2.321-3c-0.045,0.39,0.075,0.794,0.372,1.091c0.519,0.519,1.362,0.517,1.883-0.005
		c0.522-0.522,0.524-1.365,0.005-1.884c-0.383-0.383-0.944-0.48-1.422-0.294c0.18-0.236,0.348-0.456,0.498-0.655
		c-0.048-0.037-0.097-0.072-0.142-0.117c-0.054-0.054-0.099-0.114-0.143-0.174C80.178,76.825,78.653,78.796,77.303,80.532z
		 M80.208,77.128c0.045-0.067,0.097-0.131,0.156-0.191C80.304,76.997,80.254,77.062,80.208,77.128z M80.025,77.528
		c0.003-0.011,0.006-0.021,0.009-0.031C80.032,77.507,80.029,77.517,80.025,77.528z M80.097,77.327
		c0.013-0.028,0.029-0.055,0.044-0.083C80.126,77.272,80.11,77.299,80.097,77.327z"/>
</g>
<path fill="#EEF0F7" d="M88.552,16.448l-1.924-0.554c-0.077-0.361-0.296-0.682-0.613-0.88c-0.151-0.112-0.32-0.188-0.496-0.231
	l-0.532-1.985c0.012-0.011,0.026-0.019,0.038-0.031c0.532-0.532,0.532-1.397,0-1.929c-0.532-0.532-1.397-0.532-1.929,0
	c-0.012,0.012-0.02,0.026-0.031,0.038l-1.985-0.531c-0.057-0.234-0.172-0.456-0.354-0.638c-0.532-0.532-1.397-0.532-1.929,0
	c-0.368,0.368-0.475,0.895-0.334,1.362l-1.416,1.416c-0.467-0.142-0.993-0.034-1.361,0.334c-0.532,0.532-0.532,1.397,0,1.929
	c0.185,0.185,0.41,0.301,0.647,0.357l0.529,1.975c-0.012,0.011-0.026,0.019-0.038,0.031c-0.362,0.362-0.471,0.878-0.339,1.338
	l-1.412,1.359c-0.016-0.005-0.03-0.014-0.046-0.018c-0.723-0.208-1.48,0.21-1.689,0.933c-0.071,0.246-0.064,0.495-0.003,0.726
	c0,0,0,0.001,0,0.001c0.01,0.037,0.019,0.073,0.032,0.108c0.061,0.217,0.171,0.424,0.342,0.595c0.18,0.18,0.4,0.294,0.631,0.352
	l0.472,1.905c-0.178,0.164-0.318,0.373-0.39,0.622c-0.146,0.506,0.02,1.025,0.379,1.365c0.015,0.016,0.026,0.036,0.042,0.052
	c0.532,0.532,1.397,0.532,1.929,0c0.012-0.012,0.02-0.026,0.031-0.038l1.459,0.391l0.373,0.108c0.101,0.477,0.45,0.886,0.951,1.031
	c0.189,0.054,0.379,0.064,0.562,0.039c0.335-0.011,0.666-0.14,0.921-0.395c0.368-0.368,0.475-0.895,0.334-1.362l1.365-1.365
	c0.008,0.004,0.016,0.007,0.025,0.01c0.477,0.137,0.965-0.005,1.304-0.322c0.017-0.014,0.034-0.028,0.051-0.044l1.922,0.554
	c0.102,0.477,0.45,0.886,0.951,1.03c0.723,0.208,1.48-0.21,1.689-0.933c0.071-0.247,0.064-0.498,0.002-0.73l1.48-1.425
	c0.015,0.005,0.03,0.014,0.046,0.018c0.723,0.208,1.48-0.21,1.688-0.933c0.208-0.723-0.21-1.48-0.933-1.689
	c-0.016-0.005-0.032-0.005-0.048-0.009l-0.495-1.994c0.176-0.164,0.316-0.371,0.387-0.619c0.208-0.723-0.21-1.481-0.933-1.689
	C89.405,15.937,88.892,16.098,88.552,16.448z M82.153,22.657c-0.13,0.146-0.234,0.319-0.292,0.52
	c-0.073,0.255-0.065,0.514,0.003,0.752l-1.427,1.375c-0.148-0.037-0.301-0.051-0.453-0.039c-0.374-0.004-0.73,0.15-0.988,0.412
	l-0.374-0.1l-1.498-0.432c-0.058-0.23-0.172-0.448-0.351-0.627c-0.014-0.014-0.031-0.026-0.046-0.039
	c-0.161-0.176-0.37-0.311-0.616-0.382c-0.005-0.002-0.01-0.002-0.015-0.003l-0.51-1.901c0.017-0.015,0.036-0.026,0.052-0.042
	c0.368-0.368,0.475-0.895,0.334-1.362l1.418-1.418c0.419,0.127,0.886,0.052,1.244-0.231c0.059-0.041,0.114-0.086,0.166-0.136
	l1.958,0.525c0.018,0.075,0.044,0.149,0.074,0.221c0.15,0.378,0.461,0.687,0.881,0.808c0.016,0.005,0.032,0.005,0.048,0.009
	l0.49,1.976C82.217,22.579,82.185,22.618,82.153,22.657z M77.567,14.784c0.015-0.014,0.033-0.024,0.048-0.039
	c0.368-0.368,0.476-0.895,0.334-1.362l1.415-1.415c0.467,0.142,0.993,0.034,1.361-0.334c0.017-0.017,0.029-0.037,0.045-0.055
	l1.965,0.526c0.055,0.242,0.173,0.472,0.361,0.66c0.188,0.188,0.418,0.306,0.66,0.361l0.526,1.964
	c-0.018,0.016-0.038,0.028-0.055,0.045c-0.368,0.368-0.475,0.895-0.334,1.362l-1.416,1.416c-0.467-0.142-0.993-0.035-1.362,0.334
	c-0.012,0.012-0.02,0.026-0.031,0.038l-0.407-0.109l-1.488-0.429c-0.102-0.477-0.45-0.886-0.951-1.03
	c-0.054-0.016-0.108-0.021-0.162-0.03L77.567,14.784z M89.149,18.703c0.023,0.007,0.046,0.007,0.07,0.013l0.489,1.975
	c-0.185,0.165-0.329,0.38-0.403,0.635c-0.073,0.255-0.066,0.514,0.003,0.752l-1.465,1.411c-0.023-0.008-0.043-0.02-0.066-0.026
	c-0.5-0.144-1.013,0.017-1.353,0.367l-1.861-0.536c-0.043-0.276-0.167-0.54-0.379-0.752c-0.185-0.185-0.41-0.301-0.647-0.357
	l-0.52-1.94c0.176-0.162,0.315-0.371,0.386-0.618c0.074-0.255,0.066-0.514-0.003-0.752l1.464-1.411
	c0.02,0.007,0.037,0.017,0.057,0.023c0.5,0.144,1.013-0.017,1.353-0.367l1.923,0.554C88.3,18.15,88.648,18.558,89.149,18.703z"/>
</svg>
