<?xml version="1.0" encoding="utf-8"?>
<!-- Generator: Adobe Illustrator 19.0.1, SVG Export Plug-In . SVG Version: 6.00 Build 0)  -->
<svg version="1.1" id="Слой_1" xmlns="http://www.w3.org/2000/svg" xmlns:xlink="http://www.w3.org/1999/xlink" x="0px" y="0px"
	 viewBox="-379 181 200 200" style="enable-background:new -379 181 200 200;" xml:space="preserve">
<style type="text/css">
	.st0{fill:#F0C419;}
	.st1{fill:#E64C3C;}
	.st2{fill:#FFFFFF;}
</style>
<g id="Layer_2">
	<rect x="-343.3" y="214.3" class="st0" width="131.7" height="132"/>
</g>
<g id="Layer_1">
	<g>
		<polygon class="st1" points="-280.6,225.2 -280.6,225.2 -280.6,225.2 		"/>
		<polygon class="st1" points="-280.7,225.2 -280.8,225.2 -280.7,225.2 		"/>
		<path class="st1" d="M-242.2,326l-3.2-3.2h-0.1h-0.2v-5.5h0v-0.2h1.2h0.1V316h0v-0.5h-0.1h-1.5v-13.3h0.3h0.1
			c0.3,0,0.5-0.2,0.5-0.5c0-0.3-0.2-0.5-0.5-0.5h0v-1.5c0-1.5-1.1-2.7-2.5-2.9v-6.7h0.3h0.1c0.3,0,0.6-0.3,0.6-0.6
			c0-0.3-0.2-0.5-0.4-0.5c1.1-1,1.9-2.4,2.4-3.8c0.2-0.4,0.4-0.8,0.4-1.3c0,0,0,0,0,0c0-0.1,0-0.2,0-0.4c0-0.2,0-0.4,0-0.7
			c0-0.1,0-0.2,0-0.3c0,0,0-0.1,0-0.1c0-0.1,0-0.3,0-0.4c0,0,0,0,0-0.1c0,0,0-0.1,0-0.1c0-0.2,0-0.4,0-0.6c0-0.2,0-0.3-0.1-0.5
			c0-0.2-0.1-0.4-0.1-0.5c0-0.2-0.1-0.4-0.1-0.5c0-0.1-0.1-0.3-0.1-0.4c-0.1-0.4-0.3-0.7-0.4-1.1c0-0.1-0.1-0.2-0.1-0.3
			c-0.1-0.2-0.2-0.4-0.3-0.5c-0.1-0.1-0.1-0.2-0.2-0.3c-0.1-0.2-0.2-0.3-0.4-0.5c-0.1-0.1-0.2-0.2-0.2-0.3c-0.2-0.3-0.5-0.5-0.8-0.8
			c-0.1-0.1-0.2-0.2-0.3-0.3c-0.1-0.1-0.3-0.2-0.4-0.3c-0.1-0.1-0.3-0.2-0.4-0.3c-0.1,0-0.1-0.1-0.2-0.2c-2.4-1.9-3.6-4.3-4.2-6.1
			v-2c0-0.1,0-0.1,0-0.2c0.4-0.2,0.7-0.7,0.6-1.3c0-0.1,0-0.1-0.1-0.2c0-0.1,0-0.1,0-0.2c0-0.6-0.5-1.2-1.2-1.2
			c-0.6,0-1.2,0.5-1.2,1.2c0,0.1,0,0.2,0.1,0.3c0,0.1,0,0.1,0,0.2c0,0.5,0.3,0.9,0.7,1.1v1.8c-0.5,1.9-1.8,4.5-4.5,6.6
			c-2.6,1.6-4.4,4.5-4.4,7.8c0,0.4,0,0.7,0.1,1.1c0.1,2.3,1.1,4.3,2.6,5.9c-0.1,0.1-0.1,0.2-0.1,0.3c0,0,0,0.1,0,0.1
			c-0.1,0-0.1-0.1-0.2-0.2c0,0,0,0,0,0c-0.1-0.1-0.2-0.2-0.3-0.3c-0.1,0-0.1-0.1-0.2-0.1c0,0-0.1-0.1-0.1-0.1
			c-0.1,0-0.1-0.1-0.2-0.1c-1.8-1.5-2.7-3.2-3.2-4.6v-1.4c0,0,0-0.1,0-0.1c0.3-0.2,0.6-0.6,0.5-1c0-0.1,0-0.1-0.1-0.1
			c0-0.1,0-0.1,0-0.2c0-0.5-0.4-0.9-0.9-0.9c-0.5,0-0.9,0.4-0.9,0.9c0,0.1,0,0.3,0.1,0.4c0,0.1,0,0.1,0,0.2c0,0.4,0.2,0.7,0.5,0.8
			v1.2c-0.2,0.7-0.6,1.6-1.1,2.5h-0.2v-19.9h0.4v0h0.1v-0.3h0v-1.4h-0.2v-0.2h-1.1v-1h-0.1v-0.2h-1.2l-5.1-16.8h0.7
			c0.1,0,0.2-0.1,0.2-0.2v-1.2c0-0.1-0.1-0.2-0.2-0.2c0-0.1-0.1-0.2-0.2-0.2h-0.8v-5.8c0,0,0-0.1,0-0.1c0.2-0.2,0.4-0.5,0.6-0.8
			c0.3-0.5,0.5-1.1,0.5-1.8c0,0,0,0,0,0c0-0.1,0-0.2,0-0.3c0-0.5-0.1-1-0.3-1.5c-0.1-0.3-0.2-0.5-0.4-0.8c0,0,0,0,0-0.1
			c-0.3-0.4-0.6-0.7-0.9-0.9c0,0-0.1,0-0.1-0.1c0,0-0.1-0.1-0.1-0.1c-0.9-0.8-1.4-1.7-1.7-2.4v-0.5c0,0,0,0,0-0.1
			c0.1-0.1,0.2-0.2,0.2-0.3c0,0,0-0.1,0-0.2c0-0.1,0-0.1,0-0.1c0-0.1,0-0.1,0-0.2c0-0.1,0-0.2-0.1-0.3c0-0.2-0.2-0.4-0.5-0.4
			c-0.3,0-0.5,0.2-0.5,0.5c0,0.1,0,0.2,0.1,0.3c-0.1,0.1-0.1,0.2-0.1,0.3c0,0.2,0.1,0.3,0.3,0.4v0.4c-0.2,0.8-0.7,1.8-1.8,2.7
			c-0.1,0.1-0.2,0.1-0.3,0.2c0,0-0.1,0.1-0.1,0.1h0c0,0,0,0,0,0c-0.8,0.7-1.3,1.7-1.3,2.8c0,0.2,0,0.3,0,0.4c0,0,0,0.1,0,0.1
			c0,1,0.4,1.9,1,2.6v5.9h-1.1c-0.1,0-0.2,0.1-0.2,0.2v1.2c0,0.1,0.1,0.2,0.2,0.2h0.7l-5.2,17h-1.2v1.2h-1.3v1.4h0v0.5h0.5v0.2h0
			v7.1c-2-1.8-3-3.9-3.6-5.6v-2c0-0.1,0-0.1,0-0.2c0.4-0.2,0.7-0.7,0.6-1.3c0-0.1,0-0.1-0.1-0.2c0-0.1,0-0.1,0-0.2
			c0-0.6-0.5-1.2-1.2-1.2c-0.6,0-1.2,0.5-1.2,1.2c0,0.1,0,0.2,0.1,0.3c0,0.1,0,0.1,0,0.2c0,0.5,0.3,0.9,0.7,1.1v1.8
			c-0.6,1.9-1.8,4.5-4.5,6.6c-1.2,0.8-2.2,1.8-3,3c0,0-0.1,0.1-0.1,0.1c-0.1,0.2-0.2,0.3-0.3,0.5c-0.1,0.2-0.2,0.4-0.3,0.5
			c0,0,0,0.1-0.1,0.1c-0.2,0.4-0.3,0.8-0.4,1.2c-1.2-1.4-1.9-2.9-2.3-4.1v-1.8c0-0.1,0-0.1,0-0.2v0c0.4-0.2,0.7-0.7,0.5-1.2
			c0,0,0-0.1,0-0.1c0-0.1,0-0.1,0-0.2c0-0.6-0.5-1-1-1s-1,0.5-1,1c0,0.1,0,0.2,0.1,0.3c0,0.1,0,0.1,0,0.2c0,0.4,0.3,0.8,0.6,0.9v1.5
			c-0.5,1.7-1.6,4-4,5.9c-2.3,1.4-3.9,4-3.9,7c0,0.4,0,0.8,0.1,1.1c0,0.1,0,0.3,0.1,0.4c0.3,1.7,1.2,3.2,2.4,4.4
			c-0.2,0.1-0.3,0.3-0.3,0.5c0,0.3,0.2,0.5,0.5,0.5h0.2l0.1,0.1v5.8c-1.3,0.2-2.2,1.3-2.2,2.6v1.3h0c-0.2,0-0.4,0.2-0.4,0.4
			c0,0.2,0.2,0.4,0.4,0.4h0.4v11.8h-1.3v1h0v0.5h0.8v5h-0.3l-3,3h0l0,0v0.5h0.7v5.8c0,0,0,0.1,0,0.1v0.5c0,0.1,0.1,0.2,0.2,0.2h0.8
			v8.6h0v0.5h67.9h0.1h0.1v-9.3h1h0.1c0.1,0,0.2-0.1,0.2-0.3v-7.2h0.7h0.1v-0.5L-242.2,326z"/>
		<polygon class="st1" points="-280.6,224.6 -280.6,224.6 -280.6,224.6 		"/>
		<polygon class="st1" points="-280.7,224.6 -280.8,224.6 -280.7,224.6 		"/>
	</g>
	<path class="st2" d="M-195.5,220.2v-5.2l-17.1-17.1h-5.3c-1.5,3.4-4.8,5.7-8.7,5.7c-3.9,0-7.3-2.3-8.7-5.7h-3.4
		c-1.5,3.4-4.8,5.7-8.7,5.7c-3.9,0-7.3-2.3-8.7-5.7h-3.6c-1.5,3.4-4.8,5.7-8.7,5.7c-3.9,0-7.2-2.3-8.7-5.7h-3.5
		c-1.5,3.4-4.8,5.7-8.7,5.7c-3.9,0-7.2-2.3-8.7-5.7h-3c-1.5,3.4-4.8,5.7-8.7,5.7c-3.9,0-7.2-2.3-8.7-5.7h-3.6
		c-1.5,3.4-4.8,5.7-8.7,5.7c-3.9,0-7.2-2.3-8.7-5.7h-5.1l-17.1,17.1v5.3c3.4,1.5,5.7,4.8,5.7,8.7s-2.3,7.2-5.7,8.7l0,3.4
		c3.4,1.5,5.7,4.8,5.7,8.7s-2.3,7.2-5.7,8.7v3.6c3.4,1.5,5.7,4.8,5.7,8.7c0,3.9-2.3,7.2-5.7,8.7v3.5c3.4,1.5,5.7,4.8,5.7,8.7
		c0,3.9-2.3,7.2-5.7,8.7v3c3.4,1.5,5.7,4.8,5.7,8.7c0,3.9-2.3,7.2-5.7,8.7v3.6c3.4,1.5,5.7,4.8,5.7,8.7c0,3.9-2.3,7.2-5.7,8.7v5.2
		l17.1,17.1h5.3c1.5-3.4,4.8-5.7,8.7-5.7c3.9,0,7.2,2.3,8.7,5.7h3.4c1.5-3.4,4.8-5.7,8.7-5.7s7.2,2.3,8.7,5.7h3.6
		c1.5-3.4,4.8-5.7,8.7-5.7c3.9,0,7.2,2.3,8.7,5.7h3.5c1.5-3.4,4.8-5.7,8.7-5.7c3.9,0,7.3,2.3,8.7,5.7h3c1.5-3.4,4.8-5.7,8.7-5.7
		c3.9,0,7.2,2.3,8.7,5.7h3.6c1.5-3.4,4.8-5.7,8.7-5.7c3.9,0,7.2,2.3,8.7,5.7h5.2l17.1-17.1v-5.3c-3.4-1.5-5.7-4.8-5.7-8.7
		c0-3.9,2.3-7.3,5.7-8.7v-3.4c-3.4-1.5-5.7-4.8-5.7-8.7c0-3.9,2.3-7.3,5.7-8.7v-3.6c-3.4-1.5-5.7-4.8-5.7-8.7c0-3.9,2.3-7.2,5.7-8.7
		v-3.5c-3.4-1.5-5.7-4.8-5.7-8.7c0-3.9,2.3-7.3,5.7-8.7v-3c-3.4-1.5-5.7-4.8-5.7-8.7c0-3.9,2.3-7.2,5.7-8.7v-3.6
		c-3.4-1.5-5.7-4.8-5.7-8.7C-201.2,225.1-198.9,221.7-195.5,220.2z M-219.5,340.5H-338v-122h118.4V340.5z"/>
</g>
</svg>
