<?xml version="1.0" encoding="utf-8"?>
<!-- Generator: Adobe Illustrator 17.0.0, SVG Export Plug-In . SVG Version: 6.00 Build 0)  -->
<svg version="1.2" baseProfile="tiny" id="Слой_1"
	 xmlns="http://www.w3.org/2000/svg" xmlns:xlink="http://www.w3.org/1999/xlink" x="0px" y="0px" width="141.732px"
	 height="62.362px" viewBox="0 0 141.732 62.362" overflow="scroll" xml:space="preserve">
<g transform="translate(0,-952.3622)">
	<path d="M48.678,1000.764c-0.526,0.055-0.908,0.526-0.853,1.052c0.054,0.521,0.517,0.902,1.039,0.855h44.323
		c0.526,0.017,0.967-0.397,0.983-0.923c0.017-0.526-0.397-0.967-0.923-0.983c-0.02-0.001-0.04-0.001-0.06,0H48.864
		C48.802,1000.758,48.74,1000.758,48.678,1000.764L48.678,1000.764z"/>
	<path d="M41.291,1008.151c-0.527,0.048-0.915,0.513-0.868,1.04c0.048,0.527,0.513,0.915,1.04,0.867
		c0.004,0,0.009-0.001,0.013-0.001h59.097c0.526,0.017,0.967-0.396,0.984-0.922c0.017-0.526-0.396-0.967-0.922-0.984
		c-0.021-0.001-0.041-0.001-0.062,0H41.477C41.415,1008.145,41.353,1008.145,41.291,1008.151z"/>
	<path d="M70.866,956.68c-0.045,0.006-0.089,0.015-0.132,0.026l-22.161,7.387c-0.513,0.118-0.834,0.63-0.715,1.143
		c0.106,0.461,0.535,0.775,1.007,0.737h44.323c0.525,0.043,0.985-0.348,1.028-0.873c0.038-0.472-0.275-0.901-0.737-1.007
		l-22.161-7.387C71.171,956.661,71.016,956.652,70.866,956.68L70.866,956.68z M71.025,958.639l16.31,5.428h-32.62L71.025,958.639z"
		/>
	<path d="M49.234,971.189c-0.527,0-0.954,0.427-0.954,0.954c0,0.009,0,0.017,0,0.026v22.161c-0.017,0.526,0.396,0.967,0.923,0.983
		c0.526,0.017,0.967-0.396,0.983-0.923c0.001-0.02,0.001-0.04,0-0.061v-22.161c0.014-0.526-0.401-0.965-0.927-0.979
		C49.252,971.189,49.243,971.189,49.234,971.189z"/>
	<path d="M92.789,971.189c-0.526,0.015-0.941,0.453-0.927,0.98v22.161c-0.017,0.526,0.396,0.967,0.923,0.983
		c0.526,0.017,0.967-0.396,0.983-0.923c0.001-0.02,0.001-0.04,0-0.061v-22.161c0.015-0.526-0.4-0.965-0.927-0.98
		C92.825,971.189,92.807,971.189,92.789,971.189z"/>
	<path d="M81.907,971.189c-0.527,0-0.954,0.427-0.954,0.954c0,0.009,0,0.017,0,0.026v22.161c-0.017,0.526,0.396,0.967,0.923,0.983
		c0.526,0.017,0.967-0.396,0.983-0.923c0.001-0.02,0.001-0.04,0-0.061v-22.161c0.014-0.526-0.401-0.965-0.927-0.979
		C81.925,971.189,81.916,971.189,81.907,971.189z"/>
	<path d="M60.117,971.189c-0.526,0.015-0.941,0.453-0.927,0.98v22.161c-0.017,0.526,0.396,0.967,0.923,0.984
		c0.526,0.017,0.967-0.396,0.984-0.923c0.001-0.02,0.001-0.04,0-0.061v-22.161c0.015-0.526-0.4-0.965-0.927-0.98
		C60.152,971.189,60.134,971.189,60.117,971.189L60.117,971.189z"/>
	<path d="M66.365,974.753c0,5.858,0,5.56,0,8.34c-0.243,0-0.511,0-0.741,0c-0.499,0.048-0.909,0.547-0.861,1.046
		c0.049,0.499,0.547,0.909,1.046,0.86h0.556v1.165c-0.209,0-0.433,0-0.635,0c-0.499,0.02-0.934,0.494-0.913,0.993
		c0.021,0.499,0.494,0.934,0.993,0.914h0.556v3.707c-0.016,0.509,0.444,0.984,0.953,0.984c0.509,0,0.969-0.475,0.953-0.984v-3.707
		h5.004c0.509,0.016,0.984-0.444,0.984-0.953c0-0.51-0.475-0.969-0.984-0.953h-5.004v-1.165c1.221,0,2.469,0.031,3.68,0
		c2.955-0.076,5.297-2.713,5.216-5.799c-0.078-2.975-2.386-5.403-5.196-5.471c-1.588-0.039-3.055-0.01-4.574-0.01
		C66.719,973.72,66.365,974.283,66.365,974.753L66.365,974.753z M68.272,975.626c1.116,0.003,2.321,0.025,3.402,0.013
		c1.962-0.021,3.587,1.566,3.641,3.614c0.053,2.038-1.484,3.793-3.435,3.836c-1.167,0.026-2.41,0-3.608,0c0-2.489,0-4.978,0-7.467
		V975.626z"/>
</g>
</svg>
