<?xml version="1.0" encoding="utf-8"?>
<!-- Generator: Adobe Illustrator 17.0.0, SVG Export Plug-In . SVG Version: 6.00 Build 0)  -->
<svg version="1.2" baseProfile="tiny" id="Слой_1"
	 xmlns="http://www.w3.org/2000/svg" xmlns:xlink="http://www.w3.org/1999/xlink" x="0px" y="0px" width="141.732px"
	 height="62.362px" viewBox="0 0 141.732 62.362" xml:space="preserve">
<path fill-rule="evenodd" fill="#D35400" d="M76.096,36.111c-1.53,4.31-9.91,6.57-18.23,6.57c-3.85,0-7.71-0.49-10.91-1.44
	c1.89,2.56,8.29,4.44,15.91,4.44c9.11,0,16.5-2.69,16.5-6C79.366,38.341,78.136,37.101,76.096,36.111z M77.366,25.521v-3.71
	c-0.62,0.32-1.28,0.62-2,0.89v3.88C76.136,26.261,76.796,25.901,77.366,25.521z M78.366,24.721c0.64-0.63,1-1.32,1-2.04v-2.19
	c-0.3,0.26-0.64,0.5-1,0.73V24.721z M62.866,10.681c-9.11,0-16.5,2.69-16.5,6s7.39,6,16.5,6s16.5-2.69,16.5-6
	S71.976,10.681,62.866,10.681z M47.366,24.721v-3.5c-0.36-0.23-0.7-0.47-1-0.73v2.19C46.366,23.401,46.726,24.081,47.366,24.721z
	 M50.366,26.581v-3.89c-0.71-0.27-1.39-0.55-2-0.87v3.73C48.926,25.921,49.616,26.261,50.366,26.581z M53.366,27.571v-3.97
	c-0.68-0.17-1.37-0.34-2-0.54v3.91C51.986,27.191,52.656,27.391,53.366,27.571z M56.366,28.181v-3.99c-0.68-0.1-1.35-0.22-2-0.36
	v3.98C55.006,27.951,55.676,28.071,56.366,28.181z M59.366,28.521v-4c-0.67-0.06-1.34-0.12-2-0.2v4
	C58.016,28.401,58.686,28.461,59.366,28.521z M62.366,28.661v-4c-0.67-0.01-1.34-0.02-2-0.06v3.99
	C61.016,28.631,61.686,28.651,62.366,28.661z M65.366,28.601v-4c-0.66,0.04-1.33,0.07-2,0.07v4
	C64.046,28.661,64.706,28.641,65.366,28.601z M68.366,28.321v-3.99c-0.66,0.08-1.33,0.15-2,0.2v4
	C67.056,28.481,67.716,28.411,68.366,28.321z M71.366,27.811v-3.99c-0.65,0.13-1.32,0.26-2,0.36v4
	C70.056,28.071,70.726,27.951,71.366,27.811z M74.366,26.961v-3.92c-0.64,0.21-1.31,0.4-2,0.56v3.97
	C73.086,27.391,73.736,27.181,74.366,26.961z M73.366,33.221v3.5c0.64-0.63,1-1.32,1-2.04v-2.19
	C74.066,32.751,73.726,32.991,73.366,33.221z M70.366,34.701v3.88c0.77-0.32,1.43-0.68,2-1.06v-3.71
	C71.746,34.131,71.086,34.431,70.366,34.701z M67.366,35.601v3.97c0.72-0.18,1.37-0.39,2-0.61v-3.92
	C68.726,35.251,68.056,35.441,67.366,35.601z M64.366,36.181v4c0.69-0.11,1.36-0.23,2-0.37v-3.99
	C65.716,35.951,65.046,36.081,64.366,36.181z M61.366,36.531v4c0.69-0.05,1.35-0.12,2-0.21v-3.99
	C62.706,36.411,62.036,36.481,61.366,36.531z M58.366,36.671v4c0.68-0.01,1.34-0.03,2-0.07v-4
	C59.706,36.641,59.036,36.671,58.366,36.671z M55.366,36.601v3.99c0.65,0.04,1.32,0.06,2,0.07v-4
	C56.696,36.651,56.026,36.641,55.366,36.601z M52.366,36.321v4c0.65,0.08,1.32,0.14,2,0.2v-4
	C53.696,36.461,53.026,36.401,52.366,36.321z M49.366,35.831v3.98c0.64,0.14,1.31,0.26,2,0.37v-3.99
	C50.686,36.091,50.016,35.971,49.366,35.831z M45.016,24.921c-2.28,1.03-3.65,2.34-3.65,3.76c0,3.31,7.39,6,16.5,6
	c8.73,0,15.87-2.47,16.44-5.59c-3.29,1.05-7.38,1.59-11.44,1.59C55.086,30.681,47.256,28.711,45.016,24.921z M41.366,34.681
	c0,0.72,0.36,1.4,1,2.04v-3.5c-0.36-0.23-0.7-0.47-1-0.73V34.681z M43.366,37.551c0.56,0.37,1.25,0.71,2,1.03v-3.89
	c-0.71-0.27-1.39-0.55-2-0.87V37.551z M46.366,38.971c0.62,0.22,1.29,0.42,2,0.6v-3.97c-0.68-0.17-1.37-0.34-2-0.54V38.971z
	 M46.366,45.681c0,0.72,0.36,1.4,1,2.04v-3.5c-0.36-0.23-0.7-0.47-1-0.73V45.681z M48.366,48.551c0.56,0.37,1.25,0.71,2,1.03v-3.89
	c-0.71-0.27-1.39-0.55-2-0.87V48.551z M51.366,49.971c0.62,0.22,1.29,0.42,2,0.6v-3.97c-0.68-0.17-1.37-0.34-2-0.54V49.971z
	 M54.366,50.811c0.64,0.14,1.31,0.26,2,0.37v-3.99c-0.68-0.1-1.35-0.22-2-0.36V50.811z M57.366,51.321c0.65,0.08,1.32,0.14,2,0.2v-4
	c-0.67-0.06-1.34-0.12-2-0.2V51.321z M60.366,51.591c0.65,0.04,1.32,0.06,2,0.07v-4c-0.67-0.01-1.34-0.02-2-0.06V51.591z
	 M63.366,51.671c0.68-0.01,1.34-0.03,2-0.07v-4c-0.66,0.04-1.33,0.07-2,0.07V51.671z M66.366,51.531c0.69-0.05,1.35-0.12,2-0.21
	v-3.99c-0.66,0.08-1.33,0.15-2,0.2V51.531z M69.366,51.181c0.69-0.11,1.36-0.23,2-0.37v-3.99c-0.65,0.13-1.32,0.26-2,0.36V51.181z
	 M72.366,50.571c0.72-0.18,1.37-0.39,2-0.61v-3.92c-0.64,0.21-1.31,0.4-2,0.56V50.571z M75.366,49.581c0.77-0.32,1.43-0.68,2-1.06
	v-3.71c-0.62,0.32-1.28,0.62-2,0.89V49.581z M79.366,43.491c-0.3,0.26-0.64,0.5-1,0.73v3.5c0.64-0.63,1-1.32,1-2.04V43.491z
	 M76.366,34.051c3.02,1.34,5,3.22,5,5.63v6c0,5.25-9.31,8-18.5,8s-18.5-2.75-18.5-8v-5.37c-3.02-1.34-5-3.22-5-5.63v-6
	c0-2.43,2-4.31,5.04-5.64c-0.01-0.12-0.04-0.24-0.04-0.36v-6c0-5.25,9.31-8,18.5-8s18.5,2.75,18.5,8v6c0,2.43-2,4.31-5.04,5.64
	c0.01,0.12,0.04,0.24,0.04,0.36V34.051z"/>
</svg>
