<?xml version="1.0" encoding="utf-8"?>
<!-- Generator: Adobe Illustrator 16.0.0, SVG Export Plug-In . SVG Version: 6.00 Build 0)  -->
<svg version="1.2" baseProfile="tiny" id="Layer_1" xmlns="http://www.w3.org/2000/svg" xmlns:xlink="http://www.w3.org/1999/xlink"
	 x="0px" y="0px" width="300px" height="200px" viewBox="0 0 300 200" xml:space="preserve">
<g>
	
		<rect x="38.42" y="80.25" fill="none" stroke="#FFFFFF" stroke-width="2" stroke-miterlimit="10" width="218.159" height="39.379"/>
	
		<rect x="38.42" y="48.567" fill="none" stroke="#FFFFFF" stroke-width="2" stroke-miterlimit="10" width="139.401" height="31.682"/>
	
		<rect x="38.42" y="119.843" fill="none" stroke="#FFFFFF" stroke-width="2" stroke-miterlimit="10" width="152.002" height="31.683"/>
</g>
<g>
	<path fill="#FFFFFF" d="M63.167,97.324l0.284-2.693H63.31l-1.361,2.438l-2.892,4.849h-0.709l-3.034-4.877l-1.304-2.41h-0.142
		l0.34,2.665v13.212h-2.296V90.661h2.183l4.707,7.542h0.057l4.537-7.542h2.126v19.847h-2.354V97.324z"/>
	<path fill="#FFFFFF" d="M79.686,101.321h-2.183v9.187h-2.353V90.661h2.353v8.846h2.126l6.379-8.846h2.722l-7.003,9.442
		l7.882,10.405h-2.977L79.686,101.321z"/>
	<path fill="#FFFFFF" d="M108.685,97.324l0.284-2.693h-0.142l-1.361,2.438l-2.892,4.849h-0.709l-3.034-4.877l-1.304-2.41h-0.142
		l0.34,2.665v13.212h-2.296V90.661h2.183l4.707,7.542h0.057l4.537-7.542h2.126v19.847h-2.354V97.324z"/>
	<path fill="#FFFFFF" d="M125.203,101.321h-2.183v9.187h-2.353V90.661h2.353v8.846h2.126l6.379-8.846h2.722l-7.003,9.442
		l7.882,10.405h-2.977L125.203,101.321z"/>
</g>
<g>
	<path fill="#FFFFFF" d="M58.95,63.285l0.099-1.654H58.95l-0.959,1.853l-4.3,7.476h-1.307V59.382h1.373v7.773l-0.083,1.638h0.1
		l0.942-1.853l4.3-7.558h1.307v11.577H58.95V63.285z"/>
	<path fill="#FFFFFF" d="M72.115,60.606h-4.863v10.354H65.88V59.382h7.608v11.577h-1.373V60.606z"/>
	<path fill="#FFFFFF" d="M79.38,59.498c0.419-0.1,0.871-0.166,1.356-0.199c0.485-0.033,0.964-0.049,1.439-0.049
		c0.507,0,1.022,0.049,1.546,0.148c0.523,0.1,1,0.281,1.431,0.546c0.43,0.265,0.78,0.628,1.05,1.092
		c0.271,0.463,0.405,1.053,0.405,1.77c0,0.706-0.127,1.301-0.38,1.786c-0.253,0.485-0.59,0.879-1.009,1.183
		s-0.899,0.521-1.439,0.653s-1.097,0.199-1.67,0.199c-0.055,0-0.146,0-0.273,0s-0.259-0.003-0.397-0.008
		c-0.138-0.006-0.273-0.014-0.405-0.025c-0.132-0.011-0.226-0.022-0.281-0.033v4.399H79.38V59.498z M82.214,60.44
		c-0.288,0-0.564,0.006-0.83,0.017c-0.266,0.011-0.476,0.039-0.63,0.083v4.796c0.055,0.022,0.144,0.036,0.265,0.042
		c0.122,0.006,0.249,0.011,0.382,0.017c0.133,0.006,0.26,0.008,0.382,0.008c0.122,0,0.21,0,0.266,0c0.376,0,0.75-0.036,1.121-0.107
		c0.37-0.072,0.705-0.201,1.004-0.389s0.54-0.452,0.722-0.794s0.274-0.777,0.274-1.307c0-0.452-0.085-0.83-0.257-1.133
		c-0.171-0.303-0.398-0.546-0.681-0.728c-0.282-0.182-0.601-0.311-0.955-0.389C82.922,60.479,82.568,60.44,82.214,60.44z"/>
	<path fill="#FFFFFF" d="M98.275,63.285l0.099-1.654h-0.099l-0.959,1.853l-4.3,7.476h-1.307V59.382h1.373v7.773l-0.083,1.638h0.1
		l0.942-1.853l4.3-7.558h1.307v11.577h-1.373V63.285z"/>
	<path fill="#FFFFFF" d="M111.693,63.269l0.165-1.571h-0.083l-0.794,1.422l-1.687,2.828h-0.414l-1.77-2.845l-0.761-1.406h-0.083
		l0.198,1.555v7.707h-1.34V59.382h1.273l2.746,4.399h0.033l2.646-4.399h1.24v11.577h-1.373V63.269z"/>
	<path fill="#FFFFFF" d="M124.653,59.498c0.419-0.1,0.871-0.166,1.356-0.199c0.485-0.033,0.964-0.049,1.439-0.049
		c0.507,0,1.022,0.049,1.546,0.148c0.523,0.1,1,0.281,1.431,0.546c0.43,0.265,0.78,0.628,1.05,1.092
		c0.271,0.463,0.405,1.053,0.405,1.77c0,0.706-0.127,1.301-0.38,1.786c-0.253,0.485-0.59,0.879-1.009,1.183
		s-0.899,0.521-1.439,0.653s-1.097,0.199-1.67,0.199c-0.055,0-0.146,0-0.273,0s-0.259-0.003-0.397-0.008
		c-0.138-0.006-0.273-0.014-0.405-0.025c-0.132-0.011-0.226-0.022-0.281-0.033v4.399h-1.373V59.498z M127.486,60.44
		c-0.288,0-0.564,0.006-0.83,0.017c-0.266,0.011-0.476,0.039-0.63,0.083v4.796c0.055,0.022,0.144,0.036,0.265,0.042
		c0.122,0.006,0.249,0.011,0.382,0.017c0.133,0.006,0.26,0.008,0.382,0.008c0.122,0,0.21,0,0.266,0c0.376,0,0.75-0.036,1.121-0.107
		c0.37-0.072,0.705-0.201,1.004-0.389s0.54-0.452,0.722-0.794s0.274-0.777,0.274-1.307c0-0.452-0.085-0.83-0.257-1.133
		c-0.171-0.303-0.398-0.546-0.681-0.728c-0.282-0.182-0.601-0.311-0.955-0.389C128.195,60.479,127.841,60.44,127.486,60.44z"/>
	<path fill="#FFFFFF" d="M142.302,67.751h-4.438l-1.053,3.208h-1.373l3.87-11.577h1.621l3.903,11.577h-1.439L142.302,67.751z
		 M138.292,66.56h3.63l-1.704-5.441h-0.198L138.292,66.56z"/>
	<path fill="#FFFFFF" d="M156.121,65.65h-5.193v5.309h-1.373V59.382h1.373v5.044h5.193v-5.044h1.373v11.577h-1.373V65.65z"/>
</g>
<g>
	<path fill="#FFFFFF" d="M180.747,95.679c0,1.739-0.825,3.677-2.475,5.812c-1.649,2.137-3.953,4.462-6.91,6.976h10.008v2.041
		h-12.616v-2.041c0.358-0.341,0.851-0.784,1.474-1.333c0.624-0.548,1.295-1.157,2.014-1.829c0.718-0.67,1.45-1.394,2.197-2.169
		c0.746-0.774,1.422-1.568,2.027-2.381c0.604-0.813,1.096-1.626,1.474-2.439c0.378-0.813,0.567-1.597,0.567-2.353
		c0-1.134-0.298-2.027-0.894-2.679c-0.595-0.652-1.488-0.979-2.679-0.979c-1.021,0-1.881,0.114-2.58,0.34
		c-0.699,0.227-1.333,0.558-1.899,0.992l-0.965-1.559c0.853-0.605,1.758-1.049,2.715-1.333c0.957-0.284,2.004-0.425,3.141-0.425
		c1.781,0,3.127,0.482,4.036,1.446C180.292,92.73,180.747,94.035,180.747,95.679z"/>
	<path fill="#FFFFFF" d="M189.649,100.584c0-1.606,0.142-3.047,0.426-4.323s0.71-2.354,1.278-3.232s1.288-1.55,2.16-2.013
		c0.87-0.463,1.902-0.694,3.096-0.694c1.27,0,2.345,0.227,3.226,0.68c0.88,0.454,1.596,1.116,2.145,1.985
		c0.55,0.87,0.947,1.942,1.193,3.218s0.369,2.736,0.369,4.38c0,1.607-0.143,3.048-0.426,4.324c-0.285,1.275-0.711,2.354-1.279,3.232
		s-1.288,1.55-2.159,2.013s-1.903,0.694-3.097,0.694c-1.25,0-2.315-0.25-3.196-0.751c-0.88-0.501-1.601-1.205-2.159-2.112
		s-0.961-1.989-1.207-3.246C189.771,103.481,189.649,102.097,189.649,100.584z M192.003,100.584c0,0.473,0.014,0.927,0.042,1.361
		s0.062,0.86,0.1,1.275l8.449-7.655c-0.322-1.021-0.799-1.833-1.433-2.438c-0.633-0.604-1.488-0.907-2.565-0.907
		c-1.683,0-2.868,0.695-3.559,2.084C192.348,95.693,192.003,97.787,192.003,100.584z M201.188,100.584
		c0-1.001-0.057-1.956-0.17-2.863l-8.421,7.684c0.321,1.077,0.804,1.938,1.446,2.58s1.483,0.964,2.523,0.964
		c1.663,0,2.85-0.689,3.559-2.069C200.834,105.499,201.188,103.401,201.188,100.584z"/>
	<path fill="#FFFFFF" d="M213.326,108.467h4.451V93.553l-4.536,3.176l-1.105-1.616l6.237-4.452h1.588v17.806h4.366v2.041h-11.001
		V108.467z"/>
	<path fill="#FFFFFF" d="M238.487,108.863c0.718,0,1.379-0.09,1.984-0.27c0.604-0.179,1.12-0.453,1.545-0.822
		c0.426-0.368,0.756-0.826,0.992-1.375c0.236-0.548,0.354-1.19,0.354-1.928c0-1.361-0.486-2.396-1.46-3.104
		s-2.302-1.063-3.983-1.063l-2.665,0.142v-9.782h9.753v2.042h-7.627v5.756l1.423-0.057c2.105,0,3.765,0.51,4.979,1.531
		c1.214,1.021,1.821,2.476,1.821,4.367c0,1.059-0.185,1.994-0.555,2.807c-0.369,0.813-0.876,1.498-1.521,2.056
		c-0.644,0.558-1.406,0.979-2.287,1.262s-1.843,0.425-2.885,0.425c-0.568,0-1.108-0.042-1.62-0.127s-0.976-0.189-1.393-0.313
		c-0.417-0.122-0.781-0.255-1.095-0.396c-0.313-0.142-0.535-0.27-0.667-0.383l0.907-1.843c0.321,0.189,0.813,0.416,1.475,0.681
		C236.625,108.731,237.466,108.863,238.487,108.863z"/>
</g>
<circle fill="#FFFFFF" cx="149.518" cy="101.79" r="2.63"/>
<g>
	<path fill="#FFFFFF" d="M53.492,140.257h2.597v-8.7l-2.646,1.853l-0.645-0.942l3.639-2.597h0.926v10.387h2.547v1.19h-6.417V140.257
		z"/>
	<path fill="#FFFFFF" d="M65.354,140.488c0.419,0,0.805-0.053,1.158-0.157s0.653-0.265,0.901-0.479s0.441-0.482,0.579-0.803
		c0.138-0.319,0.207-0.694,0.207-1.124c0-0.794-0.284-1.397-0.852-1.812c-0.568-0.413-1.343-0.62-2.324-0.62l-1.555,0.083v-5.706
		h5.689v1.19h-4.449v3.357l0.83-0.033c1.228,0,2.196,0.298,2.904,0.894s1.062,1.444,1.062,2.547c0,0.617-0.108,1.163-0.323,1.638
		c-0.215,0.474-0.511,0.874-0.887,1.199c-0.376,0.325-0.821,0.57-1.334,0.735c-0.514,0.166-1.075,0.248-1.683,0.248
		c-0.332,0-0.646-0.024-0.945-0.074s-0.569-0.11-0.813-0.182c-0.243-0.072-0.456-0.149-0.638-0.231
		c-0.183-0.083-0.312-0.157-0.39-0.224l0.529-1.075c0.188,0.11,0.474,0.243,0.86,0.397
		C64.268,140.411,64.758,140.488,65.354,140.488z"/>
	<path fill="#FFFFFF" d="M72.523,136.072h5.656v1.224h-5.656V136.072z"/>
	<path fill="#FFFFFF" d="M80.411,140.257h2.597v-8.7l-2.646,1.853l-0.645-0.942l3.639-2.597h0.926v10.387h2.547v1.19h-6.417V140.257
		z"/>
	<path fill="#FFFFFF" d="M89.749,141.447l5.061-10.387h-5.971v-1.19h7.311v1.075l-5.044,10.502H89.749z"/>
	<path fill="#FFFFFF" d="M117.732,143.432h-1.125v-1.984h-6.648v1.984h-1.125v-3.109h0.926c0.099-0.121,0.231-0.339,0.397-0.653
		c0.166-0.313,0.325-0.755,0.479-1.323c0.154-0.567,0.292-1.273,0.414-2.116c0.122-0.844,0.193-1.861,0.215-3.052h5.193v7.145h1.274
		V143.432z M115.152,140.339v-6.053h-2.729c-0.022,0.474-0.063,0.986-0.123,1.538c-0.06,0.551-0.145,1.1-0.253,1.646
		s-0.242,1.066-0.4,1.563c-0.158,0.496-0.34,0.933-0.547,1.307H115.152z"/>
	<path fill="#FFFFFF" d="M127.093,140.405c-0.198,0.177-0.433,0.342-0.703,0.496c-0.271,0.154-0.565,0.287-0.885,0.397
		c-0.32,0.11-0.653,0.195-1.001,0.256c-0.347,0.061-0.697,0.091-1.05,0.091c-0.661,0-1.246-0.102-1.753-0.306
		c-0.507-0.204-0.932-0.496-1.273-0.877c-0.342-0.38-0.601-0.835-0.777-1.364c-0.177-0.529-0.265-1.125-0.265-1.786
		c0-0.694,0.096-1.313,0.29-1.853c0.193-0.54,0.471-0.992,0.835-1.356c0.364-0.363,0.805-0.642,1.323-0.835
		c0.518-0.192,1.097-0.289,1.737-0.289c0.463,0,0.92,0.061,1.373,0.182s0.852,0.351,1.199,0.687c0.347,0.336,0.614,0.8,0.802,1.39
		s0.254,1.354,0.199,2.29h-6.384c0,0.992,0.267,1.734,0.8,2.225c0.533,0.491,1.245,0.736,2.136,0.736
		c0.297,0,0.591-0.036,0.882-0.107c0.292-0.072,0.569-0.157,0.833-0.257s0.498-0.209,0.701-0.331c0.204-0.121,0.36-0.231,0.47-0.33
		L127.093,140.405z M123.611,134.071c-0.363,0-0.707,0.038-1.03,0.115c-0.325,0.077-0.61,0.207-0.858,0.389
		c-0.247,0.182-0.451,0.419-0.61,0.711c-0.159,0.293-0.261,0.653-0.305,1.084h5.127c-0.055-0.729-0.289-1.293-0.701-1.695
		S124.282,134.071,123.611,134.071z"/>
	<path fill="#FFFFFF" d="M132.224,137.709h-0.91v3.738h-1.273v-8.27h1.273v3.539h0.91l3.258-3.539h1.555l-3.655,3.92l3.01,3.241
		h1.075v1.108h-1.704L132.224,137.709z"/>
	<path fill="#FFFFFF" d="M140.103,133.822c0.474-0.275,1.009-0.474,1.604-0.595c0.595-0.121,1.18-0.183,1.753-0.183
		c0.563,0,1.022,0.089,1.381,0.265c0.358,0.177,0.639,0.405,0.843,0.687s0.342,0.602,0.414,0.96
		c0.071,0.358,0.107,0.719,0.107,1.083c0,0.419-0.011,0.865-0.033,1.34c-0.022,0.474-0.039,0.948-0.049,1.422
		c0,0.552,0.033,1.075,0.099,1.571h1.108v1.075h-2.184l-0.148-1.24h-0.083c-0.066,0.099-0.166,0.226-0.298,0.38
		c-0.133,0.155-0.307,0.307-0.523,0.455c-0.215,0.148-0.478,0.278-0.788,0.389s-0.675,0.165-1.095,0.165
		c-0.818,0-1.465-0.209-1.941-0.628s-0.713-0.992-0.713-1.72c0-0.563,0.125-1.031,0.374-1.406c0.249-0.375,0.605-0.662,1.07-0.86
		c0.465-0.198,1.026-0.314,1.684-0.347c0.658-0.033,1.396,0.011,2.215,0.132c0.055-0.507,0.063-0.929,0.025-1.266
		c-0.039-0.336-0.127-0.604-0.266-0.802c-0.138-0.198-0.332-0.339-0.581-0.422c-0.25-0.082-0.556-0.124-0.921-0.124
		c-0.498,0-0.974,0.069-1.427,0.207s-0.857,0.278-1.211,0.422L140.103,133.822z M142.55,140.488c0.309,0,0.596-0.05,0.86-0.149
		c0.265-0.099,0.496-0.226,0.694-0.38c0.199-0.154,0.364-0.322,0.496-0.505c0.132-0.182,0.232-0.355,0.298-0.521v-1.158
		c-0.573-0.099-1.103-0.148-1.588-0.148s-0.904,0.052-1.257,0.157c-0.353,0.104-0.628,0.268-0.827,0.487
		c-0.198,0.221-0.297,0.508-0.297,0.86c0,0.364,0.124,0.681,0.372,0.951S141.966,140.488,142.55,140.488z"/>
	<path fill="#FFFFFF" d="M150.405,134.683c0.419-0.551,0.879-0.937,1.381-1.157c0.501-0.221,1.127-0.331,1.877-0.331
		c1.136,0,2.007,0.342,2.613,1.025s0.909,1.654,0.909,2.911c0,1.455-0.353,2.571-1.059,3.349c-0.705,0.777-1.692,1.166-2.96,1.166
		c-2.68,0-4.019-1.736-4.019-5.21c0-0.948,0.052-1.758,0.157-2.431c0.105-0.673,0.257-1.24,0.455-1.704
		c0.198-0.463,0.441-0.832,0.728-1.107c0.286-0.275,0.612-0.494,0.976-0.653c0.364-0.16,0.761-0.273,1.191-0.34
		c0.43-0.065,0.893-0.121,1.389-0.165c0.64-0.044,1.131-0.104,1.473-0.182s0.622-0.21,0.843-0.397l0.199,1.158
		c-0.122,0.099-0.254,0.182-0.397,0.248s-0.319,0.121-0.529,0.165c-0.209,0.045-0.454,0.083-0.735,0.116s-0.615,0.061-1.001,0.083
		c-0.54,0.032-1.02,0.087-1.438,0.164c-0.42,0.077-0.775,0.233-1.067,0.47c-0.292,0.235-0.523,0.575-0.694,1.021
		c-0.171,0.444-0.284,1.045-0.339,1.802H150.405z M150.521,137.329c0,0.408,0.052,0.805,0.157,1.19
		c0.104,0.387,0.265,0.729,0.479,1.025c0.215,0.298,0.488,0.538,0.818,0.72c0.331,0.182,0.729,0.273,1.191,0.273
		c0.882,0,1.543-0.287,1.984-0.86s0.662-1.39,0.662-2.448c0-0.407-0.048-0.788-0.141-1.141c-0.094-0.353-0.234-0.662-0.422-0.927
		s-0.433-0.474-0.736-0.628s-0.659-0.231-1.066-0.231c-1.025,0-1.77,0.256-2.233,0.769
		C150.752,135.584,150.521,136.337,150.521,137.329z"/>
	<path fill="#FFFFFF" d="M159.921,136.072c0-0.1-0.003-0.229-0.009-0.389c-0.005-0.16-0.014-0.325-0.024-0.496
		s-0.024-0.339-0.041-0.505c-0.017-0.165-0.036-0.309-0.059-0.43h-1.107v-1.075h2.199l0.166,1.157h0.082
		c0.298-0.386,0.676-0.708,1.133-0.967c0.458-0.259,1.018-0.389,1.679-0.389c1.18,0,2.067,0.325,2.663,0.976
		s0.894,1.715,0.894,3.192c0,0.694-0.103,1.32-0.307,1.877s-0.493,1.028-0.868,1.414s-0.827,0.684-1.356,0.893
		c-0.529,0.21-1.113,0.314-1.753,0.314c-0.231,0-0.438-0.008-0.62-0.024s-0.348-0.039-0.496-0.066s-0.295-0.063-0.438-0.107
		s-0.298-0.1-0.463-0.165v3.473h-1.273V136.072z M163.725,134.203c-0.331,0-0.643,0.061-0.935,0.182s-0.551,0.28-0.777,0.479
		c-0.226,0.197-0.41,0.418-0.554,0.659c-0.144,0.242-0.231,0.484-0.265,0.727v3.761c0.242,0.165,0.516,0.294,0.818,0.388
		c0.304,0.094,0.703,0.141,1.199,0.141c0.882,0,1.588-0.289,2.117-0.866s0.794-1.422,0.794-2.532c0-0.935-0.185-1.658-0.554-2.17
		C165.199,134.459,164.585,134.203,163.725,134.203z"/>
	<path fill="#FFFFFF" d="M174.953,138.222h-1.969l-2.083,3.226h-1.654v-1.108h0.86l1.505-2.249c-0.21-0.055-0.414-0.146-0.612-0.272
		c-0.198-0.127-0.378-0.287-0.537-0.48c-0.16-0.192-0.287-0.419-0.381-0.678s-0.141-0.549-0.141-0.868
		c0-0.496,0.1-0.924,0.298-1.282c0.198-0.357,0.474-0.653,0.827-0.885c0.353-0.231,0.771-0.399,1.257-0.504s1.02-0.157,1.604-0.157
		c0.419,0,0.815,0.03,1.19,0.091s0.755,0.124,1.142,0.19v8.203h-1.307V138.222z M174.953,137.229v-2.943
		c-0.153-0.056-0.334-0.104-0.541-0.149c-0.208-0.044-0.388-0.065-0.541-0.065c-0.83,0-1.464,0.129-1.901,0.389
		c-0.437,0.259-0.655,0.669-0.655,1.231c0,0.452,0.131,0.803,0.394,1.051c0.262,0.248,0.579,0.41,0.95,0.487H174.953z"/>
</g>
</svg>
