<?xml version="1.0" encoding="utf-8"?>
<!-- Generator: Adobe Illustrator 16.0.0, SVG Export Plug-In . SVG Version: 6.00 Build 0)  -->
<!DOCTYPE svg PUBLIC "-//W3C//DTD SVG 1.1//EN" "http://www.w3.org/Graphics/SVG/1.1/DTD/svg11.dtd">
<svg version="1.1" id="Layer_1" xmlns="http://www.w3.org/2000/svg" xmlns:xlink="http://www.w3.org/1999/xlink" x="0px" y="0px"
	 width="300px" height="200px" viewBox="0 0 300 200" enable-background="new 0 0 300 200" xml:space="preserve">
<rect fill="#F9BB3C" width="300" height="200"/>
<g>
	<g>
		<g>
			<g>
				<polygon fill="#E2E4E5" points="169.441,121.323 166.16,119.683 133.348,119.683 130.066,121.323 149.754,152.5 				"/>
			</g>
		</g>
	</g>
	<g>
		<g>
			<path fill="#F8E1C2" d="M174.363,83.594c-1.641,0-1.641,1.823-1.641,1.823v-1.823c-0.003-1.747-0.032-3.422-0.11-5.024
				c-6.632-6.457-22.858-6.46-22.858-6.46s-16.227,0.003-22.858,6.46c-0.079,1.602-0.107,3.278-0.11,5.024v13.12l6.563,16.406
				l8.376,6.557c0.934,1.047,2.271,1.646,3.675,1.646h4.355h4.354c1.405,0,2.743-0.6,3.676-1.646l8.376-6.557l5.262-13.152
				c4.651-0.334,6.223-7.391,6.223-12.728C177.645,85.417,176.004,83.594,174.363,83.594z"/>
		</g>
	</g>
	<g>
		<g>
			<path fill="#FCF1E2" d="M126.785,83.594v1.823c0,0,0-1.823-1.641-1.823s-3.281,1.823-3.281,3.646
				c0,5.337,1.572,12.393,6.224,12.728l5.261,13.152l8.376,6.557c0.934,1.047,2.271,1.646,3.675,1.646h4.355V72.109
				c0,0-16.227,0.003-22.858,6.46C126.816,80.171,126.789,81.847,126.785,83.594z"/>
		</g>
	</g>
	<g>
		<g>
			<g>
				<path fill="#F79392" d="M141.551,103.276h16.406c0,0,0,4.922-8.203,4.922S141.551,103.276,141.551,103.276z"/>
			</g>
		</g>
	</g>
	<g>
		<g>
			<g>
				<path fill="#3E3E3F" d="M159.598,87.404c1.955,0,3.688,0.436,4.89,1.112c0.117-0.933-0.282-1.894-1.228-2.608
					c-1.688-1.282-4.432-1.282-6.123,0c-0.763,0.577-1.163,1.314-1.235,2.067C156.954,87.615,158.227,87.404,159.598,87.404z"/>
			</g>
		</g>
	</g>
	<g>
		<g>
			<g>
				<path fill="#3E3E3F" d="M139.899,87.404c-1.955,0-3.688,0.436-4.892,1.112c-0.115-0.933,0.282-1.894,1.228-2.608
					c1.69-1.282,4.433-1.282,6.125,0c0.761,0.577,1.163,1.314,1.235,2.067C142.542,87.615,141.271,87.404,139.899,87.404z"/>
			</g>
		</g>
	</g>
	<g>
		<g>
			<path fill="#F4D0A1" d="M154.108,121.323h-4.354h-4.355c-1.404,0-2.741-0.6-3.675-1.646l-8.376-6.557v7.383
				c0,0,0,12.305,16.406,12.305s16.406-12.305,16.406-12.305v-7.383l-8.376,6.557C156.852,120.724,155.514,121.323,154.108,121.323z
				"/>
		</g>
	</g>
	<g>
		<g>
			<g>
				<path fill="#3E3E3F" d="M149.754,72.109c0,0-1.244,0-3.179,0.138c0,2.051,0,6.96,0,9.229c6.101,0,9.797-4.404,11.935-8.587
					C153.708,72.111,149.754,72.109,149.754,72.109z"/>
			</g>
		</g>
		<g>
			<g>
				<path fill="#3E3E3F" d="M134.855,74.295c-3.112,0.968-6.056,2.361-8.07,4.377c0,5.81,3.811,8.613,3.811,8.613
					C130.114,82.436,130.087,79.276,134.855,74.295z"/>
			</g>
		</g>
		<g>
			<g>
				<path fill="#3E3E3F" d="M136.407,73.851c0,1.565,0,4.592,0,7.625c4.701,0,8.448-6.652,9.709-9.195
					C143.549,72.481,139.954,72.914,136.407,73.851z"/>
			</g>
		</g>
		<g>
			<g>
				<path fill="#3E3E3F" d="M168.365,75.727c0,0.636,0,7.407,0,11.558c4.082,0,4.34-7.646,4.355-8.613
					C171.539,77.488,170.034,76.522,168.365,75.727z"/>
			</g>
		</g>
		<g>
			<g>
				<path fill="#3E3E3F" d="M161.101,73.374c0,2.78,0,5.786,0,8.102c5.503,0,7.096-5.204,7.248-5.756
					C166.107,74.654,163.569,73.902,161.101,73.374z"/>
			</g>
		</g>
	</g>
	<g>
		<g>
			<path fill="#F8E1C2" d="M141.724,119.677l-8.376-6.557v7.383c0,0,0,12.305,16.406,12.305v-11.484h-4.355
				C143.994,121.323,142.657,120.724,141.724,119.677z"/>
		</g>
	</g>
	<g>
		<g>
			<g>
				<path fill="#FA5655" d="M116.106,97.449V65.262c-1.143-0.409-2.245-0.809-3.281-1.195v33.383
					c-4.282,2.822-1.641,11.237-1.641,15.676c1.633,0,2.534,0,3.022,0c0.105,0,0.19,0,0.259,0c0.214,0,0.276,0,0.26,0
					c0.488,0,1.389,0,3.021,0C117.747,108.687,120.389,100.271,116.106,97.449z"/>
			</g>
		</g>
		<g>
			<g>
				<path fill="#3E3E3F" d="M194.051,60.625c0-1.641-41.016-13.125-44.297-13.125s-44.297,11.484-44.297,13.125
					c0,1.025,12.193,5.262,21.328,8.29c0,2.83,0,6.181,0,9.757c6.563-6.563,22.969-6.563,22.969-6.563s16.406,0,22.969,6.563
					c0-3.576,0-6.928,0-9.757C181.858,65.887,194.051,61.65,194.051,60.625z"/>
			</g>
		</g>
	</g>
	<g>
		<g>
			<g>
				<polygon fill="#FFFFFF" points="169.384,121.424 169.441,121.328 166.16,119.688 149.779,127.858 159.283,137.417 				"/>
			</g>
		</g>
	</g>
	<g>
		<g>
			<g>
				<polygon fill="#DF2C2C" points="156.316,152.5 151.725,135.767 154.676,132.815 149.724,127.854 144.805,132.774 
					147.787,135.756 143.191,152.5 				"/>
			</g>
		</g>
	</g>
	<g>
		<g>
			<g>
				<polygon fill="#FA5655" points="149.754,152.5 149.754,127.886 149.724,127.854 144.805,132.774 147.787,135.756 143.191,152.5 
									"/>
			</g>
		</g>
	</g>
	<g>
		<g>
			<g>
				<polygon fill="#FFFFFF" points="130.124,121.424 130.066,121.328 133.348,119.688 149.729,127.858 140.225,137.417 				"/>
			</g>
		</g>
	</g>
	<g>
		<g>
			<g>
				<path fill="#3E3E3F" d="M97.254,152.5l6.563-18.047c1.009-2.187,2.785-3.929,4.992-4.893l21.258-8.232l19.688,31.172H97.254z"/>
			</g>
		</g>
	</g>
	<g>
		<g>
			<g>
				<path fill="#3E3E3F" d="M202.254,152.5l-6.563-18.047c-1.01-2.187-2.784-3.929-4.992-4.893l-21.258-8.232L149.754,152.5H202.254
					z"/>
			</g>
		</g>
	</g>
	<g>
		<g>
			<g>
				<polygon fill="#9E9FA0" points="149.754,152.5 130.066,121.328 115.301,126.25 143.191,152.5 				"/>
			</g>
		</g>
	</g>
	<g>
		<g>
			<g>
				<polygon fill="#9E9FA0" points="149.754,152.5 169.441,121.328 184.207,126.25 156.316,152.5 				"/>
			</g>
		</g>
	</g>
</g>
</svg>
