<?xml version="1.0" encoding="utf-8"?>
<!-- Generator: Adobe Illustrator 17.0.0, SVG Export Plug-In . SVG Version: 6.00 Build 0)  -->
<!DOCTYPE svg PUBLIC "-//W3C//DTD SVG 1.1//EN" "http://www.w3.org/Graphics/SVG/1.1/DTD/svg11.dtd">
<svg version="1.1" id="Слой_2" xmlns="http://www.w3.org/2000/svg" xmlns:xlink="http://www.w3.org/1999/xlink" x="0px" y="0px"
	 width="300px" height="300px" viewBox="0 0 300 300" enable-background="new 0 0 300 300" xml:space="preserve">
<g>
	<path fill="#9B59B6" d="M69.05,101.168c-0.015,0.001-0.04,0.002-0.072,0.003C68.989,101.171,69.01,101.17,69.05,101.168z"/>
	<path fill="#9B59B6" d="M73.916,132.08c0.006-0.004,0.009-0.009,0.014-0.014C74.009,131.964,74.076,131.874,73.916,132.08z"/>
	<path fill="#9B59B6" d="M239.663,231.3c0.001,0.005,0.001,0.011,0.002,0.016C239.555,230.245,239.608,230.765,239.663,231.3z"/>
	<path fill="#9B59B6" d="M80.777,133.569C80.777,133.569,80.776,133.569,80.777,133.569
		C80.657,133.505,80.539,133.442,80.777,133.569z"/>
	<path fill="#9B59B6" d="M109.931,68.053c-0.002,0.031-0.002,0.055-0.004,0.085C109.925,68.309,109.925,68.416,109.931,68.053z"/>
	<path fill="#9B59B6" d="M134.859,101.282c-0.108,0.008-0.26,0.019-0.501,0.036c0.012-0.001,0.028-0.002,0.041-0.003
		C134.574,101.302,134.739,101.29,134.859,101.282C134.86,101.282,134.86,101.282,134.859,101.282z"/>
	<path fill="#9B59B6" d="M134.926,101.277C134.926,101.277,134.927,101.277,134.926,101.277
		C135.056,101.267,135.087,101.265,134.926,101.277z"/>
	<path fill="#9B59B6" d="M162.262,243.822c-0.003,0-0.005-0.001-0.008-0.001c0.004,0.002,0.016,0.007,0.022,0.01
		C162.39,243.881,162.489,243.924,162.262,243.822z"/>
	<path fill="#9B59B6" d="M110.303,178.751c0-0.001,0-0.002,0-0.002C110.32,178.596,110.336,178.446,110.303,178.751z"/>
	<path fill="#9B59B6" d="M239.665,231.316c0,0.005,0.001,0.013,0.002,0.018C239.722,231.869,239.775,232.386,239.665,231.316z"/>
	<path fill="#9B59B6" d="M162.262,243.822c-0.234-0.101-0.126-0.052-0.01-0.001c0.001,0,0.001,0,0.002,0
		C162.234,243.81,162.231,243.808,162.262,243.822z"/>
	<path fill="#9B59B6" d="M110.292,178.861c0.003-0.03,0.007-0.067,0.011-0.104c0-0.002,0-0.004,0.001-0.005
		C110.297,178.807,110.295,178.833,110.292,178.861z"/>
	<path fill="#9B59B6" d="M91.927,88.223C91.935,88.154,91.937,88.136,91.927,88.223L91.927,88.223z"/>
	<path fill="#9B59B6" d="M156,27.26c-23.584,0-45.647,6.498-64.507,17.793c0.076,0.673,0.16,1.462,0.244,2.29
		c0.093,0.172,0.185,0.378,0.267,0.661c-0.056-0.193-0.164-0.43-0.264-0.626c0.312,3.065,0.63,6.614,0.59,6.504
		c-0.06-0.16-0.124-0.627-0.183-1.15c0.013,0.194,0.025,0.398,0.035,0.613c0.245,0.977,0.425,1.88,0.413,2.433
		c-0.01-0.645-0.176-1.301-0.393-1.972c0.031,0.768,0.049,1.555,0.063,2.049c0.13,4.658-1.193,6.592-1.002,0.422
		c-0.073,2.31,0.069-2.31,0,0c0.044-1.499,0.232-3.007,0.427-3.94c-0.41-1.135-0.798-2.322-0.768-3.589
		c-0.004,0.243,0.44,1.63,0.872,3.153c0.027-0.098,0.053-0.19,0.079-0.26c0.072-0.193,0.13-0.102,0.178,0.16
		c-0.028-0.291-0.052-0.556-0.07-0.743c-0.126-1.238-0.302-2.631-0.462-4.073c-0.003-0.005-0.002-0.002,0,0
		c-0.067-0.606-0.133-1.219-0.188-1.836c-21.862,13.137-39.404,32.729-49.979,56.146c0.945,0.437,1.6,0.836,0.628,0.836
		c-0.351,0.013-0.657-0.039-0.943-0.114c-6.92,15.582-10.771,32.83-10.771,50.979c0,2.955,0.11,5.883,0.31,8.787
		c1.584,0.646,2.971,1.382,2.844,1.923c0-0.003-1.271-0.475-2.79-1.07c0.162,2.135,0.377,4.255,0.644,6.359
		c0.477,0.368,1.533,2.245,1.01,2.423c0.084-0.027-0.077,0.054,0,0c-0.283,0.19-0.526,0.009-0.717-0.326
		C40.339,231.964,92.701,278.736,156,278.736c31.913,0,61.043-11.894,83.214-31.484c0.208-0.544,0.568-1.823,0.597-1.431
		c-0.009-0.069-0.222,0.714-0.417,1.271c25.97-23.034,42.342-56.649,42.342-94.096C281.736,83.552,225.445,27.26,156,27.26z
		 M239.538,70.985c0-0.122-0.008-0.252-0.01-0.377c-0.027-0.682-0.101-1.89-0.14-2.553c-0.003-0.049-0.007-0.1-0.01-0.148
		c0.005,0.142,0.006,0.184-0.005-0.077c-0.001-0.017-0.001-0.033-0.002-0.051c-0.002-0.039-0.003-0.075-0.005-0.126
		c-0.015-0.429-0.014-0.424-0.008-0.28c-0.005-0.167-0.01-0.335-0.015-0.502c-0.001,0.184,0.011,0.393,0.019,0.596
		c0.005,0.116,0.01,0.263,0.015,0.378c0.003,0.061,0.007,0.132,0.012,0.211c0.051,0.821,0.122,1.709,0.14,2.553
		C239.534,70.764,239.538,70.9,239.538,70.985z M239.45,74.385c-0.004-0.126-0.002-0.064,0-0.004
		c-0.042-1.403,0.007-2.929-0.019-4.324c0.019,0.984,0.034,4.76,0.02,4.333C239.452,74.442,239.454,74.487,239.45,74.385z
		 M239.488,78.621c0.1,0.192,0.169,9.606,0.092,9.57c0.013,0.006,0.027,0.012,0,0c-0.027-0.012-0.014-0.006,0,0
		C238.898,87.866,239.577,78.859,239.488,78.621z M239.028,91.966c0.05-0.437,0.115-0.683,0.199-0.729
		c0.058-0.101,0.031-0.053,0.003-0.002c0.148-0.241,0.543,0.636,0.627,1.628c-0.002-0.025-0.05,0.038-0.121,0.114
		c0.011,0.17,0.005,0.468-0.032,0.976c0.038-0.499-0.035,0.506,0,0c-0.035,0.523-0.154,1.07-0.273,1.457
		c0.049,0.707,0.091,1.454,0.128,2.043c0.011-0.039,0.011-0.02,0.003,0.045c0.013,0.201,0.024,0.384,0.036,0.537
		c0.057,0.82,0.052,0.768,0.03,0.465c0.129,1.991,0.521,8.334,0.392,9.236c-0.011,0.092-0.098-0.574-0.214-1.566
		c-0.022,0.429-0.057,0.854-0.099,1.26c0.013,0.123,0.023,0.232,0.026,0.314c-0.003-0.091-0.014-0.198-0.027-0.305
		c-0.063,0.612-0.137,1.182-0.188,1.656c-0.069,0.622-0.457,3.937-0.457,1.243c0,1.312-0.008-1.282,0,0
		c-0.006-1.075,0.058-3.646,0.177-5.452c-0.056-0.353-0.091-0.68-0.081-0.941c-0.001,0.03,0.041,0.278,0.102,0.633
		c0.055-0.742,0.119-1.314,0.194-1.531c-0.213-1.933-0.411-3.805-0.446-4.159c-0.15-1.519-0.33-6.193,0.13-5.71
		c0.074,0.078,0.137,0.472,0.193,1.011c0.073-0.41,0.155-0.799,0.228-1.061C239.338,93.261,239.072,93.182,239.028,91.966z
		 M240.187,116.148c-0.008-0.522-1.358-4.19-1.489-4.712C238.875,112.134,240.187,114.659,240.187,116.148z M239.112,145.034
		c-0.238-0.33-0.268-3.668-0.218-4.981c0.226-5.94,1.198,2.335,1.109,4.053c0.008-0.141,0.015-0.278,0,0.007
		c-0.015,0.28-0.008,0.143,0,0.002C239.94,145.325,239.251,145.226,239.112,145.034z M239.243,174.971
		c0.062,0,0.115,0.107,0.169,0.315c-0.073-0.238,0.077,0.238,0,0c0.077,0.246,0.154,0.529,0.23,0.837
		C239.573,176.061,239.251,174.948,239.243,174.971z M239.604,180.213c-0.046-0.046-0.334-1.712-0.318-1.811
		C239.347,178.125,239.55,180.167,239.604,180.213z M238.99,172.04c-0.02-2.675,0.283-3.523,0.544-3.385
		c0.003-0.015,0.006-0.031,0.008-0.046c-0.42-0.55-0.281-5.592-0.126-5.213c-0.042-0.846-0.078-1.616-0.081-1.809
		c-0.007-0.377,0.114,1.95,0.11,1.83c-0.009-0.197-0.023-0.484-0.003-0.073c0.015,0.319,0.01,0.227,0.003,0.079
		c0.002,0.043,0.004,0.102,0.007,0.169c0.019,0.157,0.037,0.405,0.053,0.759c-0.006-0.16-0.007-0.202,0.01,0.205
		c0.016,0.417,0.013,0.369,0.006,0.202c0.021,0.652,0.079,2.581,0.096,3.459c0.085-0.41,0.162-0.672,0.216-0.629
		c-0.061-0.046,0.062,0.046,0,0c0.114,0.085,0.044,0.833-0.054,1.562c0.074,0.297,0.121,0.698,0.116,1.163
		C239.896,173.245,238.967,174.971,238.99,172.04z M239.784,149.502c0.023,0.358,0.041,0.715,0.05,1.05
		c-0.011-0.438,0.012,0.399,0,0c0-0.001-0.021-0.057-0.054-0.151c0.039,0.809-0.025,1.049-0.125,0.861
		c-0.042,0.564-0.082,1.083-0.115,1.516c0.038-0.1,0.078-0.016,0.118,0.337c0.045,0.4,0.003,1.339-0.069,2.354
		c0.016,0.149,0.015,0.397-0.019,0.777c-0.021,0.136-0.044,0.242-0.067,0.334c-0.093,1.103-0.197,2.102-0.236,2.398
		c-0.058-0.124-0.073-0.468-0.042-0.999c0.003-0.224,0.008-0.558,0.004-0.083c0.003-0.353,0.041-1.556,0.099-2.713
		c-0.297,2.292-0.677,1.198-0.221-2.867c-0.215,1.896,0.215-1.927,0,0c0.025-0.233,0.135-1.164,0.269-2.243
		c-0.005-0.027-0.005-0.029,0,0c0-0.004,0.001-0.008,0.001-0.011c-0.098-0.599-0.303-1.876-0.282-2.097
		c0.003-0.032,0.012-0.038,0.018-0.058c-0.08-0.521-0.099-1.007,0.016-1.331c0.179-0.508,0.374,0.27,0.515,1.407
		c0.164-1.226,0.31-2.191,0.34-2.021C240.014,146.126,239.909,147.757,239.784,149.502z M239.435,124.966
		c0.038,0.022,0.025,0.017,0.007,0.007c0.059,0.044,0.164,0.291,0.22,0.253c-0.073,0.054-0.418-0.284-0.437-0.184
		c0.064-0.107,0.128-0.127,0.196-0.081C239.405,124.953,239.397,124.948,239.435,124.966z M239.389,128.557
		c0.299-0.791,0.46-1.013,0.606,0.982c0.123,1.78-1.055,4.229-1.109,1.22c0.008,0.461-0.011-0.453,0,0
		C238.867,129.97,239.32,128.742,239.389,128.557z M222.03,190.025c0.301-0.303,0.16-0.16,0.009-0.008
		c0.282-0.279,1.083-0.862,1.334-1.166c-0.165,0.2-2.233,2.54-2.394,2.394C221.27,190.792,221.623,190.385,222.03,190.025z
		 M218.365,68.537c-0.096,0.05-2.153-1.585-2.153-1.807C216.228,66.806,218.461,68.495,218.365,68.537z M215.499,91.379
		c-0.307-0.484,1.742-1.523,1.896-1.159c0.2,0.353-0.222,0.752-0.411,0.974c-0.119,0.14-0.067,0.076-0.008,0.006
		C216.753,91.442,215.727,91.729,215.499,91.379z M217.187,68.187c0.437,1.869-1.804-0.883-2.026-1.297c0.154,0.292-0.161-0.292,0,0
		C214.509,65.686,216.865,66.806,217.187,68.187z M211.953,46.907c0.576-0.376,1.834-0.606,2.517-0.545
		C214.478,46.362,211.7,47.068,211.953,46.907C211.662,47.091,212.237,46.722,211.953,46.907z M191.678,61.304
		c-0.56-0.437-1.443-0.883-1.888-1.435C190.35,60.421,191.072,60.813,191.678,61.304z M185.857,81.779
		c0.411-0.253,2.406-0.936,2.774-0.292c-0.076,0.176-0.153,0.352-0.229,0.524c0.118-0.101,0.233-0.2-0.001,0.002
		c-0.606,0.518-1.389,1.332-2.134,1.631C186.183,83.678,185.335,82.101,185.857,81.779z M178.578,124.16
		C178.029,123.765,179.115,124.544,178.578,124.16c0.384,0.272,1.512,1.972,1.09,2.459
		C178.439,127.99,175.427,121.885,178.578,124.16z M161.851,51.143c0.352-0.057,0.617-0.092,0.741-0.092
		C162.493,51.063,162.222,51.097,161.851,51.143c-2.284,0.37-8.567,1.722-8.637,1.297C153.184,52.242,159.593,51.426,161.851,51.143
		z M135.026,36.803c2.16,0.065,6.101-0.698,7.862,0.411c-0.182-0.115-0.091-0.058,0,0c0.091,0.058,0.182,0.115,0,0
		c2.367,1.501-2.732,5.027-3.519,5.48c-2.755,1.573-4.792,0.986-6.623-1.332C130.468,38.465,131.619,36.708,135.026,36.803z
		 M140.318,166.894c0.215-0.199,0.042-3.768,1.04-3.676C142.654,163.337,140.559,166.664,140.318,166.894z M125.694,41.803
		c-0.015,0.069,1.419,1.58,1.454,2.097c0.001-0.029,0.002-0.051,0.004,0.013c-0.003,0.048-0.004,0.038-0.004,0.019
		C127.083,44.656,125.573,42.266,125.694,41.803z M128.304,44.451c-0.361,0.369-0.737,0.729-1.128,1.067
		c0.637-0.576-0.629,0.583,0,0c-0.576,0.53-2.709,1.934-3.538,1.665C123.139,47.037,127.854,43.661,128.304,44.451z M119.923,84.534
		c1.182-0.959,6.285-5.303,7.889-3.615c-0.472-0.495,0.483,0.491,0,0c0.967,0.982-1.22,5.579-1.899,6.431
		c-1.493,1.888-5.399,3.33-7.747,2.778C116.117,89.652,119.048,85.24,119.923,84.534z M109.59,40.921
		c-0.019-0.794,0.433-2.018,0.503-2.206c0.299-0.791,0.461-1.013,0.606,0.986C110.822,41.481,109.643,43.929,109.59,40.921
		C109.597,41.381,109.578,40.468,109.59,40.921z M109.597,50.21c0.226-5.929,1.196,2.317,1.11,4.045
		c0.008-0.138,0.014-0.265,0,0.014c-0.015,0.279-0.008,0.145-0.001,0.004c-0.063,1.207-0.752,1.112-0.89,0.92
		C109.578,54.865,109.547,51.527,109.597,50.21z M109.989,88.563c0.062-0.276,0.265,1.765,0.319,1.811
		C110.261,90.328,109.973,88.663,109.989,88.563z M109.947,85.132c0.061,0,0.115,0.108,0.169,0.311c-0.073-0.234,0.077,0.238,0,0
		c0.077,0.25,0.153,0.534,0.23,0.837C110.277,86.222,109.954,85.109,109.947,85.132z M109.693,82.201
		c-0.019-2.675,0.283-3.523,0.544-3.385c0.003-0.016,0.006-0.032,0.009-0.048c-0.42-0.546-0.282-5.589-0.127-5.211
		c-0.042-0.845-0.078-1.615-0.081-1.808c-0.007-0.386,0.12,2.068,0.11,1.815c-0.009-0.197-0.022-0.462-0.003-0.057
		c0.015,0.325,0.01,0.223,0.003,0.069c0.002,0.044,0.004,0.109,0.007,0.181c0.019,0.159,0.037,0.412,0.054,0.773
		c-0.007-0.175-0.009-0.233,0.009,0.19c0.016,0.428,0.013,0.365,0.006,0.188c0.02,0.638,0.079,2.591,0.096,3.473
		c0.085-0.41,0.162-0.673,0.216-0.63c-0.061-0.05,0.061,0.046,0,0c0.114,0.083,0.044,0.832-0.054,1.56
		c0.073,0.296,0.121,0.697,0.115,1.161C110.599,83.406,109.67,85.129,109.693,82.201z M110.487,59.661
		c0.023,0.357,0.041,0.713,0.05,1.048c-0.011-0.433,0.011,0.403,0,0c0-0.001-0.021-0.057-0.054-0.15
		c0.039,0.809-0.025,1.049-0.125,0.862c-0.042,0.565-0.082,1.085-0.115,1.518c0.038-0.1,0.078-0.016,0.118,0.337
		c0.045,0.401,0.003,1.339-0.069,2.355c0.016,0.149,0.014,0.397-0.019,0.776c-0.021,0.136-0.044,0.241-0.067,0.333
		c-0.093,1.103-0.197,2.102-0.236,2.399c-0.058-0.127-0.073-0.467-0.043-1c0.003-0.225,0.008-0.561,0.004-0.085
		c0.003-0.352,0.041-1.555,0.099-2.71c-0.297,2.291-0.677,1.198-0.222-2.869c-0.214,1.896,0.215-1.922,0,0
		c0.025-0.232,0.135-1.163,0.269-2.242c-0.005-0.027-0.004-0.025,0,0c0-0.003,0.001-0.006,0.001-0.01
		c-0.099-0.6-0.302-1.875-0.282-2.096c0.003-0.032,0.013-0.039,0.019-0.059c-0.08-0.522-0.099-1.009,0.016-1.334
		c0.179-0.508,0.374,0.271,0.515,1.409c0.164-1.226,0.31-2.191,0.341-2.023C110.718,56.283,110.613,57.915,110.487,59.661z
		 M107.349,100.949c0.11,0.066,0.133,0.132,0.083,0.198c0.009-0.018,0.016-0.029-0.002,0.01c-0.025,0.044-0.016,0.026-0.005,0.005
		c-0.043,0.062-0.297,0.169-0.26,0.226C107.115,101.314,107.452,100.972,107.349,100.949z M92.127,65.563
		c-0.015-0.123-0.683,2.471-0.737,1.642C91.463,67.482,92.089,65.041,92.127,65.563z M91.981,87.189
		c0.012,0.445-0.008,0.829-0.065,1.143c-0.119,1.151-0.242,2.341-0.38,3.362C91.674,90.681,91.689,86.89,91.981,87.189z
		 M73.024,65.741c-0.037,0-0.07,0,0.002-0.001c0.077,0,0.047,0.001,0.01,0.001c1.689-0.003,1.519,3.955,2.17,3.955
		C74.462,69.757,72.65,65.764,73.024,65.741z M32.613,143.829c0.445-0.05,1.35-2.114,2.241-2.325
		C34.186,141.669,33.81,143.679,32.613,143.829z M41.519,165.689c-0.491-1.293,2.605-2.943,2.751-3.783
		C44.136,162.681,41.469,165.551,41.519,165.689z M45.068,205.273C44.692,206.916,45.436,203.635,45.068,205.273
		c0.315-1.397,1.919-2.809,3.215-3.284c1.489-0.541,1.865,2.018,2.064,2.985C51.031,208.278,44.063,209.652,45.068,205.273z
		 M50.191,125.671c0.341-0.21,0.656-0.402-0.027,0.02c-0.689,0.422-0.364,0.221-0.02,0.009c-1.061,0.617-5.311,0.35-3.365-1.452
		C48.309,122.826,52.94,123.941,50.191,125.671z M52.178,101.329c0.046-0.046,1.712-0.334,1.811-0.318
		C54.266,101.072,52.228,101.279,52.178,101.329z M57.424,100.968c-0.004,0.054-0.103,0.111-0.284,0.162
		c0.044-0.014,0.067-0.021-0.03,0.011c-0.097,0.03-0.074,0.022-0.03,0.008c-0.242,0.074-0.51,0.148-0.806,0.214
		C56.334,101.294,57.443,100.98,57.424,100.968z M56.944,108.125c0.192-0.292,4.071,0.315,4.071,0.307
		C61.015,109.153,56.648,108.677,56.944,108.125z M66.821,176.687c0.322-0.192,1.404,1.251,1.677,1.289
		C68.256,177.942,66.74,176.76,66.821,176.687z M69.05,101.168c-0.323,0.015-0.225,0.01-0.075,0.003
		c-0.044,0.002-0.106,0.004-0.177,0.007c-0.186,0.022-0.492,0.043-0.961,0.063c0.052-0.002,0.089-0.004,0.127-0.005
		c0.192-0.008,0.303-0.013,0,0c-0.047,0.002-0.096,0.004-0.147,0.006c-0.118,0.005-0.197,0.008-0.244,0.01
		c-0.023,0.001-0.04,0.002-0.051,0.002c-0.012,0-0.012,0,0,0c0.009,0,0.025-0.001,0.051-0.002c0.058-0.002,0.149-0.006,0.244-0.01
		c0.008,0,0.012,0,0.02-0.001c-0.268,0.013-2.673,0.085-3.671,0.101c0.415,0.085,0.683,0.161,0.64,0.214
		c0.046-0.061-0.046,0.065,0,0c-0.085,0.116-0.84,0.047-1.572-0.051c-0.296,0.072-0.693,0.118-1.152,0.113
		c-2.932,0-4.659-0.921-1.727-0.898c-0.192-0.004,0.184-0.004,0,0c0.107-0.001,0.196,0.001,0.297,0.001
		c0.001,0,0.001-0.001,0.003-0.001c-0.001,0,0.002,0.001,0.001,0.001c2.433,0.004,3.22,0.29,3.08,0.539
		c0.015,0.003,0.03,0.005,0.044,0.008c0.522-0.416,5.532-0.283,5.225-0.129c0.843-0.041,1.61-0.076,1.802-0.078
		c0.378-0.004-1.962,0.115-1.83,0.11C69.175,101.162,69.462,101.148,69.05,101.168z M71.905,134.467
		c0.725-0.721,0.805-3.407,2.348-3.196c0.06,0.309-0.044,0.576-0.323,0.796c-0.087,0.113-0.187,0.243-0.014,0.014
		C73.294,132.897,72.627,133.741,71.905,134.467z M73.927,200.684c0.299-0.963,1.481-1.469,2.383-1.147
		C76.594,199.637,73.862,200.914,73.927,200.684z M77.845,238.526c-0.202-0.002-0.136-0.002-0.038-0.002
		c-0.543-0.011-1.811-0.183-2.172-0.589c-0.06-0.06,3.028,0.577,2.235,0.59C77.979,238.525,78.068,238.526,77.845,238.526z
		 M77.817,227.383c0.107-0.093,0.199-0.174-0.018,0.016c-0.223,0.195-0.116,0.101-0.004,0.003c-0.253,0.22-0.839,0.543-1.212,0.856
		c-0.152,0.157-0.271,0.286-0.296,0.331c0.052-0.105,0.161-0.217,0.296-0.331c0.601-0.62,1.923-1.849,1.99-1.699
		C78.378,226.878,78.123,227.155,77.817,227.383z M80.04,133.408c0.242-0.161,0.483-0.108,0.736,0.161c0.119,0.063,0.239,0.127,0,0
		c0.161,0.142,0.322,0.288,0.483,0.433C81.421,134.325,80.159,133.688,80.04,133.408z M86.432,101.709
		c-0.163,0.029-1.782-0.076-3.519-0.2c-0.365,0.024-0.729,0.042-1.07,0.05c0.437-0.011-0.403,0.011,0,0
		c0.001,0,0.057-0.021,0.151-0.054c-0.812,0.039-1.051-0.025-0.861-0.126c-0.574-0.043-1.103-0.083-1.541-0.116
		c0.125,0.04,0.057,0.082-0.313,0.124c-0.401,0.044-1.341,0-2.358-0.072c-0.15,0.016-0.397,0.014-0.774-0.02
		c-0.139-0.022-0.247-0.044-0.34-0.068c-1.102-0.094-2.099-0.199-2.396-0.239c0.134-0.061,0.499-0.073,1.086-0.039
		c0.224,0.004,0.265,0.005,0.226,0.005c0.51,0.014,1.536,0.051,2.522,0.102c-2.344-0.299-1.257-0.684,2.831-0.226
		c-1.895-0.211,1.923,0.211,0,0c0.233,0.026,1.161,0.136,2.238,0.27c0.032-0.006,0.036-0.006,0,0c0.003,0,0.005,0.001,0.008,0.001
		c0.594-0.099,1.88-0.306,2.105-0.283c0.033,0.004,0.04,0.013,0.06,0.02c0.52-0.08,1.005-0.099,1.329,0.015
		c0.508,0.179-0.269,0.375-1.405,0.517C85.638,101.534,86.602,101.678,86.432,101.709z M89.153,146.837
		c-0.157,0.311-0.457,1.174-0.771,1.339c0.253-0.112,0.599-2.372,0.967-2.774c0.164-0.153-0.155,1.302-0.191,1.417
		C89.197,146.742,89.23,146.677,89.153,146.837z M91.77,191.682c-0.073,0.008-0.146-0.046-0.218-0.161
		c-0.073-0.23,0.349-2.839,0.422-2.908C91.962,188.62,91.816,191.367,91.77,191.682z M92.196,166.726
		c-0.361-2.671-0.932-9.064-0.978-12.854c-0.031-2.418,0.645,2.839,0.645,2.847c0.201,1.753,0.397,3.741,0.431,6.115
		c-0.004-0.312-0.007-0.561,0.002,0.078c0.007,0.609,0.004,0.389,0,0.09C92.29,163.653,92.214,166.856,92.196,166.726z
		 M91.168,142.214c0.061-1.205,1.228,4.328,1.189,6.262C92.372,147.716,91.029,144.102,91.168,142.214z M88.343,101.733
		c0.114,0.006,0.184,0.01-0.061-0.002c-0.269-0.015-0.153-0.009-0.018-0.002c-1.19-0.072-1.093-0.758-0.902-0.895
		c0.33-0.238,3.668-0.268,4.98-0.215C98.221,100.847,90.167,101.795,88.343,101.733z M101.375,167.861
		c-1.377-1.363-3.317-4.103-4.387-6.537c-0.889-0.164-2.077-0.436-1.795-0.592c0.353-0.209,1.03-0.016,1.64,0.233
		c-0.329-0.805-0.554-1.568-0.615-2.221c-0.158-1.711,3.4,2.018,3.4,2.018c1.067,1.25,2.094,2.668,2.27,4.363
		c-0.022-0.231-0.041-0.434,0.005,0.034c0.043,0.462,0.022,0.253,0,0.02C101.899,165.5,101.472,167.959,101.375,167.861z
		 M101.635,100.611C101.175,100.619,102.088,100.604,101.635,100.611c0.79-0.015,2.018,0.43,2.202,0.503
		c0.791,0.299,1.013,0.461-0.982,0.602C101.075,101.843,98.623,100.665,101.635,100.611z M106.846,251.795
		c-0.199,0.399-2.832-1.312-3.024-1.604c0.18,0.28-0.2-0.269,0,0c-0.2-0.365-0.169-0.699,0.084-0.998
		C104.433,249.186,107.149,251.166,106.846,251.795z M108.385,105.523c-0.297,0.333-1.156-0.332-1.409-0.566
		c0.039,0.042,0.049,0.055-0.052-0.048c-0.126-0.137-0.063-0.073,0.002-0.005C106.777,104.702,108.695,105.178,108.385,105.523z
		 M110.583,257.144c-0.361-2.671-0.932-9.064-0.978-12.854c-0.031-2.417,0.644,2.84,0.644,2.847
		c0.201,1.753,0.397,3.741,0.431,6.115c-0.004-0.312-0.007-0.561,0.002,0.078c0.007,0.609,0.004,0.389,0,0.09
		C110.678,254.072,110.602,257.274,110.583,257.144z M109.555,232.632c0.061-1.205,1.228,4.328,1.189,6.262
		C110.76,238.135,109.417,234.52,109.555,232.632z M109.778,157.624c0.073,0.276,0.699-2.164,0.737-1.642
		C110.499,155.859,109.831,158.453,109.778,157.624z M110.369,177.608c0.011,0.444-0.008,0.827-0.065,1.141
		c0,0.003,0,0.005-0.001,0.008c-0.119,1.15-0.241,2.337-0.379,3.356C110.062,181.1,110.077,177.308,110.369,177.608z
		 M110.59,144.224c0.031,0.768,0.049,1.555,0.063,2.05c0.13,4.658-1.193,6.592-1.002,0.422c-0.073,2.31,0.069-2.31,0,0
		c0.044-1.498,0.232-3.007,0.427-3.939c-0.41-1.135-0.798-2.322-0.768-3.589c-0.004,0.243,0.44,1.63,0.872,3.153
		c0.027-0.098,0.053-0.19,0.079-0.26c0.073-0.194,0.131-0.101,0.178,0.165c-0.028-0.293-0.053-0.56-0.071-0.748
		c-0.126-1.238-0.302-2.631-0.462-4.073c-0.003-0.005-0.002-0.003,0,0c-0.142-1.276-0.271-2.589-0.336-3.874
		c0.043-0.487,0.296,1.703,0.554,4.232c0.092,0.172,0.185,0.378,0.267,0.661c-0.056-0.193-0.164-0.43-0.264-0.626
		c0.312,3.066,0.63,6.614,0.59,6.505c-0.06-0.16-0.125-0.63-0.184-1.155c0.013,0.195,0.025,0.401,0.036,0.617
		c0.245,0.978,0.425,1.881,0.413,2.434C110.972,145.552,110.806,144.895,110.59,144.224z M109.555,112.023
		c0.235,1.4,0.463,2.992,0.695,4.505c0.161,1.033,0.326,2.06,0.498,2.954c-0.172-0.884-0.336-1.901-0.498-2.954
		c-0.086-0.553-0.172-1.107-0.258-1.646C109.912,114.398,109.455,111.436,109.555,112.023
		C109.509,111.739,109.605,112.315,109.555,112.023z M110.353,114.84c-0.069-0.215-0.142-0.43-0.215-0.645
		c-0.039-0.123-0.038-0.12-0.024-0.081c-0.058-0.185-0.118-0.377-0.175-0.583C110.066,114.007,110.238,114.187,110.353,114.84z
		 M110.112,104.441c0.055,0.834,0.075,2.161,0.072,3.064c0,0.013,0,0.042,0,0.117c-0.001,0.116-0.001,0.135-0.001,0.113
		C110.165,109.274,110.086,104.059,110.112,104.441z M109.985,124.172c0.145-1.139,0.077-0.602,0.005-0.034
		c0.099-0.677,0.957-4.196,0.892-1.67c-0.069,2.725-0.506,5.598-0.752,7.505c-0.161,1.259-0.71,5.664-0.721,1.972
		C109.394,128.692,109.697,126.447,109.985,124.172z M109.179,103.604c0.176,0.031,1.934-5.069,1.934-3.031
		C111.182,102.726,109.325,103.628,109.179,103.604z M117.859,103.896c-0.043-0.011-0.025-0.008-0.003-0.003
		c-0.332-0.097,0.032-1.185,0.592-2.493c-0.776,0.28-1.577,0.512-2.2,0.512c0.254-0.004,1.25-0.324,2.267-0.667
		c0.726-1.671,1.725-3.627,2.022-4.353c0.039-0.12,0.073-0.221,0.093-0.279c0,0.039-0.039,0.145-0.093,0.279
		c-0.242,0.737-0.809,2.535-1.371,4.132c0.836-0.286,1.578-0.545,1.791-0.6c-0.318,0.081-1.024,0.4-1.833,0.721
		c-0.53,1.496-1.044,2.772-1.26,2.75C117.883,103.898,117.902,103.903,117.859,103.896z M119.778,165.075
		c-0.215-0.007,0.011-2.701,0.207-2.966c0.096-0.112,1.865,0.05,1.926,0.234C121.911,162.627,120.023,165.091,119.778,165.075z
		 M124.581,145.188c0.302,0.004,0.585,0.072,0.858,0.205c-0.081-0.035-0.135-0.059,0.036,0.013c0.173,0.076,0.112,0.05,0.028,0.014
		c0.397,0.177,0.783,0.367,1.162,0.581C126.308,145.959,124.623,145.172,124.581,145.188z M128.027,112.242
		c0.334-0.096,0.552-6.005,2.693-5.56c-0.472-0.1,0.468,0.092,0,0C131.093,106.758,128.94,111.977,128.027,112.242z M131.78,134.666
		c-0.157,0.1-1.492-2.713-1.665-2.912C130.414,132.107,132.122,134.428,131.78,134.666z M133.415,159.331
		c-0.63-0.137-2.026-3.521-1.563-3.535c-0.036-0.002-0.067-0.004,0.005-0.003c0.064,0.005,0.044,0.005,0.014,0.004
		C133.186,155.936,133.43,159.331,133.415,159.331z M131.738,175.551c-0.017,0.069,2.311,1.735,2.896,2.476
		c0.066,0.078,0.117,0.151,0.132,0.217c-0.015-0.057-0.065-0.133-0.132-0.217C134.028,177.319,131.548,176.177,131.738,175.551z
		 M134.878,101.284c-0.178,0.011-0.339,0.021-0.479,0.031c-0.597,0.043-1.233,0.089-0.041,0.003
		c-1.143,0.084-8.71,0.568-9.701,0.426c-0.092-0.011,0.571-0.097,1.56-0.213c-0.429-0.022-0.854-0.058-1.26-0.1
		c-0.12,0.013-0.228,0.022-0.308,0.025c0.088-0.003,0.191-0.015,0.293-0.026c-0.609-0.063-1.174-0.137-1.644-0.189
		c-0.625-0.069-3.937-0.453-1.247-0.46c-1.312,0.004,1.285-0.004,0,0c1.076-0.004,3.643,0.061,5.449,0.181
		c0.356-0.056,0.685-0.092,0.948-0.082c-0.031,0-0.279,0.043-0.633,0.104c0.743,0.055,1.314,0.12,1.53,0.195
		c1.932-0.212,3.804-0.41,4.156-0.444c1.523-0.153,6.193-0.334,5.714,0.123c-0.079,0.075-0.474,0.139-1.015,0.196
		c0.411,0.074,0.802,0.157,1.065,0.231c-0.132-0.219-0.053-0.485,1.163-0.534c0.437,0.054,0.683,0.119,0.725,0.2
		c0.103,0.06,0.055,0.034,0.003,0.005c0.236,0.156-0.637,0.545-1.626,0.632c0.025-0.003-0.037-0.051-0.112-0.122
		c-0.159,0.011-0.441,0.004-0.895-0.027c0.079,0.006,0.106,0.008-0.083-0.005c-0.227-0.017-0.149-0.012-0.04-0.004
		c-0.513-0.041-1.045-0.157-1.422-0.274c-0.706,0.049-1.453,0.09-2.04,0.126C134.982,101.293,134.955,101.293,134.878,101.284z
		 M139.466,230.414c0.115-0.061,1.5-0.629,1.5-0.644C140.981,229.9,138.533,230.898,139.466,230.414z M137.01,187.492
		c0.165-0.023,5.783-2.532,5.94-2.763C142.063,186.026,138.48,187.292,137.01,187.492z M143.076,113.727
		c0.18-0.13,0.361-0.253,0.545-0.38c-0.721,0.104,0.706-0.119,0,0c0.656-0.111,2.567,0.825,2.556,1.619
		C146.181,115.453,143.061,114.625,143.076,113.727z M146.883,218.665c-0.05,0.133-0.121,0.277-0.199,0.426
		c-0.442,0.922-1.149,1.767-1.482,2.675c0.329-0.904,1.067-1.887,1.482-2.675C146.752,218.949,146.831,218.811,146.883,218.665
		C147.044,218.247,146.745,219.056,146.883,218.665z M144.204,101.31C144.182,101.36,144.228,101.256,144.204,101.31
		c0.319-0.691,9.332-0.007,9.566-0.1C153.583,101.314,144.166,101.379,144.204,101.31z M157.239,234.275
		c-0.576-0.046-3.641-1.485-2.835-2.387C155.117,231.028,157.888,234.428,157.239,234.275z M158.007,101.172
		c-0.054,0.002-0.099,0.003,0.004,0c0.126-0.004,0.064-0.002,0.004,0c1.403-0.038,2.929,0.015,4.321-0.015
		C161.354,101.179,157.575,101.187,158.007,101.172z M159.783,194.852c0.445-0.438,1.842-0.062,2.341,0.077
		c0.207,0.33,0.28,0.683,0.222,1.067C162.209,196.417,159.595,195.028,159.783,194.852z M162.276,243.831
		c-0.008-0.004-0.015-0.007-0.024-0.01c-0.452-0.01-0.634-0.139-0.547-0.383c0.177,0.054,1.638,0.437,1.67,0.691
		C163.404,244.34,162.457,243.918,162.276,243.831z M164.741,101.095c-0.1,0.004-0.31,0.015-0.573,0.03
		c-0.761,0.048-1.565,0.107-2.337,0.126c-0.174,0.007-0.328,0.012-0.421,0.012c0.136,0,0.281-0.009,0.421-0.012
		c0.63-0.026,1.664-0.088,2.337-0.126c0.106-0.007,0.216-0.015,0.319-0.02c-0.184,0.007-0.116,0.004,0.038-0.002
		c0.054-0.003,0.104-0.004,0.157-0.006c0.325-0.013,0.704-0.028,0.11-0.003c0.253-0.011,0.506-0.022,0.732-0.021
		C165.263,101.079,165.002,101.087,164.741,101.095z M165.651,258.924c0.018-0.102,0.049-0.217,0.087-0.341
		c0.225-0.895,0.663-1.971,1.106-2.713c-0.239,0.718-0.857,1.912-1.106,2.713C165.709,258.697,165.671,258.818,165.651,258.924z
		 M159.803,78.579C159.807,78.794,159.795,78.352,159.803,78.579c-0.104-3.024,8.092-1.143,8.139,0.103
		C167.979,79.645,159.807,79.238,159.803,78.579z M178.371,216.796C178.562,216.44,178.182,217.153,178.371,216.796
		c-0.338,0.641-1.965,1.347-2.655,1.401C174.027,218.274,179.71,214.321,178.371,216.796z M178.675,272.518
		c-0.122-0.016-0.204-0.033-0.216-0.048C178.524,272.486,178.601,272.502,178.675,272.518c0.719,0.096,3.022,0.193,3.176,0.12
		C181.038,272.908,179.585,272.718,178.675,272.518z M179.113,224.964c-1-0.103-2.987-0.178-3.467-0.655
		C176.105,223.853,177.553,224.352,179.113,224.964c0.143,0.015,0.267,0.03,0.362,0.048c1.389,0.257,2.951,0.979,4.129,1.24
		C182.827,226.509,180.896,225.663,179.113,224.964z M183.662,101.321c-2.275-0.192,1.47-0.357,2.552-0.326
		c-1.27-0.038,1.281,0.031,0,0C187.841,101.037,185.281,101.456,183.662,101.321z M184.882,243.357
		c-0.004,0.207,0.203,2.682,0.226,2.69C184.809,245.993,184.871,243.66,184.882,243.357z M184.84,144.731
		c-0.545-1.412,3.296-2.21,4.137-0.672C190.112,146.158,185.116,145.307,184.84,144.731z M189.59,70.904
		c-2.924,1.244,1.899-4.973,2.011-2.555C191.643,69.293,190.377,70.574,189.59,70.904C189.882,70.781,189.299,71.027,189.59,70.904z
		 M191.732,119.049c-1.355-0.883,0.345-2.026,0.303-2.26C192.069,117.05,191.816,119.099,191.732,119.049z M199.49,200.174
		c0.1-0.349-0.499-2.866,0.295-2.897C199.997,197.284,199.567,199.917,199.49,200.174
		C199.536,200.024,199.444,200.327,199.49,200.174z M206.152,196.782c-0.587,0.537-1.474-0.138-1.205-0.863
		C205.177,195.301,206.715,196.264,206.152,196.782z M208.016,133.545c0.258,0.199,0.502,0.388-0.015-0.011
		c-0.495-0.382-0.284-0.219-0.037-0.029c-0.191-0.151-1.861-1.48-1.716-1.674c0.311-0.399,2.855,0.522,3.131,0.894
		C210.724,134.533,209.313,134.535,208.016,133.545z M209.041,101.07c-0.02,0.026-0.042,0.049-0.065,0.067
		c-0.361,0.265-1.381,0.564-1.75,0.787C206.862,101.777,208.055,101.409,209.041,101.07c0.145-0.188,0.249-0.568,0.925-0.659
		C210.611,100.498,209.905,100.773,209.041,101.07z M210.856,101.371c-0.591-0.072,1.667-0.327,1.995-0.364
		c-0.071,0.006-0.115,0.009,0.039-0.004c0.158-0.012,0.104-0.007,0.027-0.001c0.499-0.03,1.026-0.045,1.581-0.045
		C214.632,100.98,211.489,101.448,210.856,101.371z M214.774,174.645C213.657,175.988,215.898,173.279,214.774,174.645
		c0.38-0.461,4.24-4.796,4.631-4.512c0.33,0.246-2.51,5.126-2.793,5.633C215.092,178.498,212.011,177.968,214.774,174.645z
		 M225.759,214.859c-0.361,1.934-2.648,3.971-3.941,5.322c-0.856,0.894-3.741,4.017-3.81,1.396c-0.062-2.306,1.519-3.899,3.039-5.51
		c-1.55,1.642,1.55-1.646,0,0C221.447,215.641,226.116,213.04,225.759,214.859z M222.31,136.251
		C222.041,137.77,222.567,134.724,222.31,136.251c0.28-1.658,5.453-4.704,6.734-2.97
		C230.717,135.545,221.769,139.313,222.31,136.251z M230.84,100.604c0.035,0.031,3.572,1.097,3.899,1.128
		C232.908,101.563,231.12,100.88,230.84,100.604z M239.887,234.064c0.031,0.768,0.049,1.554,0.062,2.048
		c0.13,4.659-1.193,6.592-1.001,0.422c-0.073,2.31,0.069-2.31,0,0c0.044-1.499,0.231-3.007,0.427-3.939
		c-0.41-1.135-0.798-2.322-0.768-3.589c-0.004,0.242,0.441,1.63,0.873,3.153c0.027-0.097,0.053-0.19,0.079-0.26
		c0.072-0.194,0.131-0.102,0.178,0.163c-0.027-0.284-0.051-0.541-0.069-0.728c-0.001-0.012-0.002-0.023-0.003-0.034
		c-0.126-1.234-0.301-2.622-0.461-4.057c-0.003-0.004-0.001-0.002,0,0c-0.142-1.275-0.271-2.587-0.336-3.869
		c0.043-0.488,0.296,1.699,0.554,4.227c0.092,0.172,0.185,0.379,0.267,0.661c-0.056-0.193-0.164-0.43-0.264-0.626
		c0.312,3.065,0.63,6.614,0.59,6.505c-0.06-0.159-0.124-0.626-0.183-1.148c0.013,0.193,0.025,0.396,0.035,0.61
		c0.245,0.978,0.425,1.881,0.413,2.434C240.269,235.391,240.103,234.735,239.887,234.064z M238.852,201.862
		c0.228,1.357,0.448,2.892,0.673,4.361c0.169,1.081,0.34,2.162,0.521,3.099c-0.18-0.923-0.351-1.993-0.521-3.099
		c-0.079-0.504-0.157-1.008-0.235-1.498C239.209,204.241,238.752,201.279,238.852,201.862
		C238.805,201.578,238.901,202.154,238.852,201.862z M239.65,204.679c-0.069-0.215-0.142-0.43-0.215-0.644
		c-0.048-0.149-0.037-0.116-0.015-0.05c-0.061-0.194-0.124-0.397-0.185-0.61C239.362,203.85,239.535,204.026,239.65,204.679z
		 M239.408,194.28c0.056,0.834,0.075,2.162,0.073,3.069c0,0.017,0,0.049,0,0.116c-0.001,0.089-0.001,0.114-0.001,0.113
		C239.461,199.111,239.382,193.899,239.408,194.28z M239.281,214.01c0.144-1.128,0.079-0.608,0.007-0.045
		c0.105-0.7,0.955-4.172,0.891-1.658c-0.069,2.724-0.507,5.602-0.752,7.505c-0.161,1.259-0.71,5.664-0.721,1.972
		C238.69,218.531,238.994,216.29,239.281,214.01z M238.475,193.444c0.177,0.031,1.934-5.065,1.934-3.031
		C240.479,192.569,238.621,193.466,238.475,193.444z M241.177,100.888c0.284,0.004,0.748,0.053,1.247,0.12
		c0.069-0.086,0.412-0.14,1.101-0.089c1.466,0.118,2.76,0.547,1.193,0.514c0.002,0.009-0.013,0.015-0.065,0.016
		c-0.34,0.01-0.703-0.034-0.996-0.076c-0.003,0-0.006,0-0.01-0.001c-0.404-0.032-0.71-0.086-0.922-0.147
		C241.989,101.097,240.826,100.882,241.177,100.888z M247.789,191.598c-0.165,0.338-4.374-2.663-3.711-2.594
		c-0.123-0.015,0.138,0.008,0,0C245.344,189.092,248.517,189.775,247.789,191.598z M248.567,86.099
		C248.437,86.341,248.682,85.862,248.567,86.099c0.215-0.445,3.292-2.859,3.592-2.532c0.614,0.66-0.338,3.354-1.002,3.76
		C250.528,87.711,247.896,87.366,248.567,86.099z M249.45,155.237C249.976,155.498,248.92,154.98,249.45,155.237
		c-0.829-0.399,1.051-2.605,1.573-1.75C251.56,154.378,250.428,155.725,249.45,155.237z M257.521,125.888
		c-0.48,0.448-2.81,2.973-3.416,2.382c0.127,0.111,4.04-3.692,4.428-3.346c-0.307,0.338-0.633,0.648-0.982,0.936
		C257.85,125.593,257.669,125.755,257.521,125.888z M262.02,101.521c0.161-0.023-0.584-0.287-1.168-0.489
		c-0.297,0.092-1.064,0.204-1.804,0.291c0.156,0.178,0.048,0.339-0.287,0.437c0.158,0.058,0.243,0.096,0.205,0.099
		c-0.353,0.031-0.724,0.025-1.098-0.004c-0.031,0-0.059,0-0.081,0c-0.007,0-0.013,0-0.02,0c-0.114,0-0.085,0,0,0
		c0.006,0,0.012,0,0.02,0c0.024,0,0.052,0,0.08,0c-0.002,0-0.004,0-0.006-0.001c-4.608,0.006-12.604-0.992-5.706-1.327
		c0.576-0.028,1.099-0.039,1.597-0.042c0.029-0.017,0.074-0.029,0.148-0.031c0.065-0.002,0.169,0.011,0.289,0.03
		c2.353,0.015,3.8,0.287,4.473,0.588c0.552-0.114,1.198-0.2,1.764-0.188c-0.097-0.034-0.175-0.062-0.203-0.074
		c0.038,0.015,0.126,0.042,0.24,0.076c0.111,0.003,0.225,0.004,0.327,0.016c0.227,0.026,0.242,0.065,0.119,0.112
		C261.598,101.212,262.473,101.476,262.02,101.521z M263.294,204.341c-0.278-0.068,1.134-1.39,1.414-1.652
		c-0.359,0.322-0.689,0.616,0.033-0.033c0.531-0.474,0.486-0.433,0.282-0.25c0.759-0.665,2.515-2.122,3.145-1.788
		C268.037,200.554,264.407,204.613,263.294,204.341z M267.254,210.246c0.224-0.333,0.452-0.664,0.679-0.992
		c-0.066,0.094-0.082,0.118,0.088-0.128c0.179-0.258,0.156-0.224,0.083-0.118c0.299-0.428,0.615-0.854,0.907-1.286
		C268.448,208.577,267.861,209.422,267.254,210.246z M269.656,101.64c0.457-0.019-0.798-0.925-0.008-0.944
		C269.315,100.703,270.635,101.582,269.656,101.64z"/>
	<path fill="#9B59B6" d="M239.369,67.716c0.001,0.022,0.001,0.041,0.002,0.063c0.001,0.016,0.002,0.037,0.002,0.051
		c0.001,0.025,0.004,0.052,0.005,0.077c-0.001-0.019-0.001-0.04-0.002-0.062C239.373,67.794,239.371,67.753,239.369,67.716z"/>
	<path fill="#9B59B6" d="M239.442,163.345c0.001,0.015,0.002,0.04,0.003,0.072C239.445,163.406,239.444,163.384,239.442,163.345z"/>
	<path fill="#9B59B6" d="M257.521,125.888c0.009-0.008,0.022-0.021,0.029-0.028C257.288,126.095,257.392,126.003,257.521,125.888z"
		/>
	<path fill="#9B59B6" d="M239.228,157.896c-0.002,0.031-0.002,0.054-0.004,0.083C239.221,158.15,239.221,158.258,239.228,157.896z"
		/>
</g>
<path fill="#F5F5E6" d="M181.229,134.804c-3.653-6.093-5.583-13.062-5.583-20.164V94.061c0-1.086,0.879-1.965,1.965-1.965
	c3.254,0,5.894-2.64,5.894-5.894s-2.64-5.894-5.894-5.894h-43.222c-3.256,0-5.894,2.64-5.894,5.894s2.638,5.894,5.894,5.894
	c1.086,0,1.965,0.879,1.965,1.965v20.579c0,7.102-1.93,14.071-5.585,20.164l-32.203,53.67c-2.297,3.826-2.751,8.48-1.239,12.682
	c1.512,4.198,4.829,7.498,9.042,8.983c32.117,11.335,67.148,11.335,99.265,0c4.209-1.485,7.525-4.785,9.036-8.983
	c1.512-4.202,1.059-8.856-1.239-12.686L181.229,134.804z"/>
<path fill="#F1C40F" d="M203.323,194.537l-23.176-38.625c-4.981-2.118-6.7-6.842-14.328-6.842c-9.827,0-9.827,7.859-19.65,7.859
	c-6.139,0-8.442-3.073-11.703-5.376l-25.793,42.988c-0.476,0.794-0.57,1.75-0.255,2.621c0.315,0.875,0.996,1.554,1.871,1.861
	c14.721,5.196,30.101,7.832,45.712,7.832c15.61,0,30.989-2.636,45.712-7.832c0.871-0.307,1.554-0.986,1.865-1.857
	C203.895,196.291,203.799,195.331,203.323,194.537z M132.425,188.363c-4.34,0-7.858-3.519-7.858-7.859s3.519-7.858,7.858-7.858
	s7.858,3.519,7.858,7.858S136.764,188.363,132.425,188.363z M163.858,172.646c-4.34,0-7.858-3.519-7.858-7.858
	s3.519-7.858,7.858-7.858s7.859,3.519,7.859,7.858S168.198,172.646,163.858,172.646z M181.54,192.292
	c-3.254,0-5.894-2.64-5.894-5.894c0-3.254,2.64-5.894,5.894-5.894c3.254,0,5.894,2.64,5.894,5.894
	C187.434,189.652,184.794,192.292,181.54,192.292z"/>
<g>
	<path fill="none" d="M281.736,153c0,69.448-56.291,125.74-125.736,125.74S30.264,222.448,30.264,153
		C30.264,83.559,86.555,27.264,156,27.264S281.736,83.559,281.736,153z"/>
</g>
</svg>
