<?xml version="1.0" encoding="utf-8"?>
<!-- Generator: Adobe Illustrator 17.0.0, SVG Export Plug-In . SVG Version: 6.00 Build 0)  -->
<!DOCTYPE svg PUBLIC "-//W3C//DTD SVG 1.1//EN" "http://www.w3.org/Graphics/SVG/1.1/DTD/svg11.dtd">
<svg version="1.1" id="Слой_1" xmlns="http://www.w3.org/2000/svg" xmlns:xlink="http://www.w3.org/1999/xlink" x="0px" y="0px"
	 width="200px" height="200px" viewBox="0 0 200 200" enable-background="new 0 0 200 200" xml:space="preserve">
<g>
	<path fill="#273841" d="M37.094,72.325c0-1.572,1.287-2.859,2.859-2.859h27.164c1.572,0,2.859-1.287,2.859-2.859v-4.289
		c0-1.572,1.287-2.859,2.859-2.859h85.781c1.572,0,2.859,1.287,2.859,2.859v75.773c0,1.572-1.287,2.859-2.859,2.859H39.953
		c-1.572,0-2.859-1.287-2.859-2.859V72.325z"/>
	<path fill="#1F2C33" d="M158.617,59.458h-5.719c1.572,0,2.859,1.287,2.859,2.859v75.773c0,1.572-1.287,2.859-2.859,2.859h5.719
		c1.572,0,2.859-1.287,2.859-2.859V62.317C161.477,60.745,160.189,59.458,158.617,59.458z"/>
	<rect x="41.383" y="66.606" fill="#E06B5A" width="24.305" height="2.859"/>
	<rect x="44.242" y="60.888" fill="#CDCCCC" width="18.586" height="5.719"/>
	<path fill="#F5F6F6" d="M161.477,78.044V62.317c0-1.572-1.287-2.859-2.859-2.859H72.836c-1.572,0-2.859,1.287-2.859,2.859v4.289
		c0,1.572-1.287,2.859-2.859,2.859H39.953c-1.572,0-2.859,1.287-2.859,2.859v5.719H161.477z"/>
	<path fill="#E6E6E5" d="M158.617,59.458h-5.719c1.572,0,2.859,1.287,2.859,2.859v15.727h5.719V62.317
		C161.477,60.745,160.189,59.458,158.617,59.458z"/>
	<rect x="88.563" y="62.317" fill="#426B80" width="28.594" height="12.867"/>
	<rect x="91.422" y="65.177" fill="#C3E2F1" width="22.875" height="7.148"/>
	<rect x="124.305" y="62.317" fill="#CDCCCC" width="28.594" height="12.867"/>
	<rect x="127.164" y="65.177" fill="#E6E6E5" width="22.875" height="7.148"/>
	<rect x="127.164" y="68.036" fill="#F5F6F6" width="22.875" height="1.43"/>
	<circle fill="#242424" cx="98.57" cy="108.067" r="27.164"/>
	<path fill="#E6E6E5" d="M98.57,129.513c-11.826,0-21.445-9.62-21.445-21.445s9.62-21.445,21.445-21.445
		c11.826,0,21.445,9.62,21.445,21.445S110.396,129.513,98.57,129.513z"/>
	<path fill="#CDCCCC" d="M98.57,126.653c-10.248,0-18.586-8.338-18.586-18.586s8.338-18.586,18.586-18.586
		s18.586,8.338,18.586,18.586S108.818,126.653,98.57,126.653z"/>
	<path fill="#426B80" d="M98.57,118.075c-5.518,0-10.008-4.49-10.008-10.008c0-5.518,4.49-10.008,10.008-10.008
		c5.518,0,10.008,4.49,10.008,10.008C108.578,113.585,104.088,118.075,98.57,118.075z"/>
	<circle fill="#4E7F99" cx="94.281" cy="103.778" r="1.43"/>
	<circle fill="#4E7F99" cx="95.711" cy="109.497" r="2.859"/>
</g>
</svg>
