<?xml version="1.0" encoding="utf-8"?>
<!-- Generator: Adobe Illustrator 17.0.0, SVG Export Plug-In . SVG Version: 6.00 Build 0)  -->
<!DOCTYPE svg PUBLIC "-//W3C//DTD SVG 1.1//EN" "http://www.w3.org/Graphics/SVG/1.1/DTD/svg11.dtd">
<svg version="1.1" id="Слой_1" xmlns="http://www.w3.org/2000/svg" xmlns:xlink="http://www.w3.org/1999/xlink" x="0px" y="0px"
	 width="30px" height="42px" viewBox="0 0 30 42" enable-background="new 0 0 30 42" xml:space="preserve">
<path display="none" fill="#69D2E7" d="M14.951,2.285c7.937,0,12.868,5.028,12.868,13.122c0,6.798-8.255,18.042-12.868,23.538
	c-4.613-5.497-12.868-16.74-12.868-23.538C2.083,7.313,7.014,2.285,14.951,2.285"/>
<g display="none">
	<path display="inline" fill="#FFFFFF" d="M23.294,13.221h-5.138c0.063,0.237,0.12,0.507,0.172,0.719
		c0.208,0.242,0.336,0.492,0.379,0.757c0.123,0.765-0.491,1.462-0.517,1.493c-0.06,0.067-0.145,0.101-0.231,0.101
		c-0.052,0-0.107-0.015-0.154-0.043c-0.033-0.019-0.835-0.492-0.959-1.258c-0.053-0.324,0.021-0.686,0.216-1.048l-0.128-0.529
		c-0.015-0.064-0.032-0.192-0.047-0.192h-3.833c-0.016,0-0.032,0.124-0.047,0.187l-0.129,0.54c0.194,0.363,0.269,0.721,0.217,1.045
		c-0.123,0.766-0.926,1.237-0.96,1.256c-0.049,0.028-0.101,0.041-0.154,0.041c-0.085,0-0.17-0.036-0.23-0.103
		c-0.027-0.03-0.64-0.73-0.518-1.496c0.042-0.263,0.17-0.508,0.379-0.752l0.173-0.72h-5.14c-0.089,0-0.162,0.062-0.162,0.153
		c0,0,0.39,6.193,0.684,8.631c0.292,2.44,0.983,3.071,1.073,3.071h13.461c0.089,0,0.78-0.636,1.072-3.075
		c0.293-2.437,0.683-8.632,0.683-8.632C23.456,13.276,23.384,13.221,23.294,13.221z M16.852,19.622h0.39
		c0.071,0,0.129,0.047,0.129,0.118c0,0.073-0.058,0.119-0.129,0.119h-0.39c-0.072,0-0.129-0.048-0.129-0.119
		C16.723,19.668,16.78,19.622,16.852,19.622z M16.687,21.306c-0.051,0.05-0.133,0.05-0.184,0l-0.275-0.276
		c-0.051-0.051-0.051-0.132,0-0.183s0.133-0.051,0.184,0l0.275,0.276C16.737,21.173,16.738,21.255,16.687,21.306z M16.227,18.277
		l0.275-0.276c0.051-0.051,0.133-0.051,0.184,0s0.051,0.133,0,0.184l-0.275,0.276c-0.051,0.051-0.133,0.051-0.184,0
		C16.177,18.409,16.177,18.327,16.227,18.277z M14.864,17.447c0-0.072,0.047-0.13,0.119-0.13c0.072,0,0.119,0.058,0.119,0.13v0.39
		c0,0.072-0.047,0.129-0.119,0.129c-0.072,0-0.119-0.058-0.119-0.13V17.447z M15.034,18.226c0.789,0,1.428,0.639,1.428,1.427
		c0,0.789-0.639,1.429-1.428,1.429s-1.429-0.639-1.429-1.429C13.606,18.866,14.246,18.226,15.034,18.226z M15.101,21.471v0.39
		c0,0.071-0.047,0.129-0.119,0.129c-0.072,0-0.119-0.058-0.119-0.129v-0.39c0-0.072,0.047-0.129,0.119-0.129
		C15.055,21.342,15.101,21.399,15.101,21.471z M13.842,21.03l-0.276,0.276c-0.051,0.05-0.133,0.05-0.184,0
		c-0.051-0.051-0.051-0.133,0-0.184l0.275-0.275c0.051-0.051,0.133-0.051,0.184,0C13.891,20.898,13.891,20.98,13.842,21.03z
		 M13.382,18.001c0.051-0.051,0.133-0.051,0.184,0l0.276,0.276c0.051,0.051,0.051,0.132,0,0.184c-0.051,0.051-0.133,0.051-0.184,0
		l-0.275-0.275C13.332,18.134,13.332,18.052,13.382,18.001z M12.827,19.622h0.39c0.072,0,0.13,0.047,0.13,0.118
		c0,0.073-0.058,0.119-0.13,0.119h-0.39c-0.071,0-0.129-0.048-0.129-0.119C12.697,19.668,12.756,19.622,12.827,19.622z"/>
	<path display="inline" fill="#FFFFFF" d="M18.401,14.741c-0.043-0.267-0.195-0.491-0.356-0.664c-0.061-0.252-0.13-0.55-0.21-0.887
		c-0.39-1.668-0.982-4.187-1.578-5.667c-0.289-0.717-0.568-1.266-1.29-1.266c-0.685,0-1.035,0.64-1.287,1.267
		c-0.595,1.478-1.186,3.995-1.578,5.661c-0.079,0.339-0.15,0.638-0.211,0.891c-0.16,0.173-0.312,0.397-0.356,0.663
		c-0.102,0.629,0.443,1.24,0.443,1.24s0.709-0.409,0.809-1.038c0.058-0.363-0.097-0.715-0.239-0.953
		c0.049-0.202,0.099-0.419,0.156-0.662c0.387-1.648,0.97-4.138,1.548-5.573c0.313-0.775,0.536-0.88,0.714-0.88
		c0.272,0,0.413,0.126,0.716,0.88c0.578,1.436,1.164,3.928,1.55,5.577c0.056,0.242,0.107,0.458,0.154,0.658
		c-0.143,0.238-0.298,0.59-0.239,0.953c0.102,0.629,0.809,1.038,0.809,1.038S18.502,15.37,18.401,14.741z"/>
</g>
<path fill="#69D2E7" d="M14.973,0.32c-8.539,0-15.025,7.58-15.025,15.328C-0.052,21.828,14.973,42,14.973,42
	s15.024-20.172,15.024-26.351C29.996,7.901,23.509,0.32,14.973,0.32z M14.973,22.462c-3.806,0-6.888-3.083-6.888-6.886
	c0-3.806,3.082-6.888,6.888-6.888c3.804,0,6.887,3.082,6.887,6.888C21.86,19.378,18.776,22.462,14.973,22.462z"/>
</svg>
