<?xml version="1.0" encoding="utf-8"?>
<!-- Generator: Adobe Illustrator 17.0.0, SVG Export Plug-In . SVG Version: 6.00 Build 0)  -->
<!DOCTYPE svg PUBLIC "-//W3C//DTD SVG 1.1//EN" "http://www.w3.org/Graphics/SVG/1.1/DTD/svg11.dtd">
<svg version="1.1" xmlns="http://www.w3.org/2000/svg" xmlns:xlink="http://www.w3.org/1999/xlink" x="0px" y="0px" width="200px"
	 height="200px" viewBox="0 0 200 200" enable-background="new 0 0 200 200" xml:space="preserve">
<g id="Слой_1">
	<g>
		<path fill="#FFFFFF" d="M99.978,190.042c-49.626,0-90-40.374-90-90c0-49.626,40.374-90,90-90s90,40.374,90,90
			C189.978,149.668,149.604,190.042,99.978,190.042z"/>
		<path fill="#FFDC80" d="M99.978,20.042c44.112,0,80,35.888,80,80s-35.888,80-80,80s-80-35.888-80-80S55.865,20.042,99.978,20.042
			 M99.978,0.042c-55.228,0-100,44.772-100,100s44.772,100,100,100s100-44.772,100-100S155.206,0.042,99.978,0.042L99.978,0.042z"/>
	</g>
	<path fill="none" stroke="#565656" stroke-width="0.25" stroke-miterlimit="10" d="M94.536,129.934
		c0-0.324-0.281-0.591-0.632-0.591c-0.348,0-0.625,0.266-0.625,0.591v1.639c0,0.325,0.277,0.59,0.625,0.59
		C94.856,132.163,94.536,130.521,94.536,129.934 M93.904,115.422v-3.031c0-0.477-0.375-0.868-0.842-0.868
		c-0.464,0-0.846,0.392-0.846,0.868v3.031c0,0.478,0.382,0.867,0.846,0.867C93.529,116.289,93.904,115.9,93.904,115.422z
		 M93.999,123.095v-3.024c0-0.482-0.383-0.87-0.849-0.87c-0.471,0-0.849,0.388-0.849,0.87v3.024c0,0.481,0.378,0.876,0.849,0.876
		C93.615,123.971,93.999,123.576,93.999,123.095z M107.246,131.487v-1.639c0-0.321-0.283-0.583-0.625-0.583
		c-0.354,0-0.636,0.263-0.636,0.583v1.639c0,0.332,0.277,0.593,0.636,0.593C106.963,132.08,107.246,131.812,107.246,131.487z
		 M108.304,115.377v-3.028c0-0.478-0.376-0.868-0.84-0.868c-0.468,0-0.849,0.39-0.849,0.868v3.028c0,0.478,0.38,0.873,0.849,0.873
		C107.928,116.249,108.304,115.855,108.304,115.377z M108.395,123.056v-3.031c0-0.477-0.379-0.867-0.844-0.867
		c-0.471,0-0.851,0.39-0.851,0.867v3.031c0,0.478,0.38,0.867,0.851,0.867C108.017,123.924,108.395,123.534,108.395,123.056z
		 M152.854,101.691c0,0.795,0.652,1.441,1.447,1.441c0.793,0,1.437-0.646,1.437-1.441c0-0.388-0.153-0.745-0.421-1.016
		c-0.27-0.276-0.632-0.431-1.016-0.431C153.507,100.245,152.854,100.892,152.854,101.691z M162.787,105.18l-0.167-0.137l-0.16,0.137
		l-2.463,2.081h5.386L162.787,105.18z M146.951,105.043l-2.628,2.216h5.388L146.951,105.043z M157.515,106.729
		c-0.204-0.608-1.327-1.734-3.157-1.704c-1.874,0.02-2.815,1.611-2.853,1.679l-0.228,0.392l0.454-0.003l5.536-0.025h0.351
		L157.515,106.729z M157.975,109.716l0.123,21.221h-5.639l-0.126-21.215L157.975,109.716z M138.58,107.926l-26.54-0.157
		l-0.004-0.489l4.87-7.05l33.157,0.192l-0.39,0.318l0.45,0.293c0.016,0.008,1.518,1.004,1.495,2.516
		c-0.021,1.451-1.099,1.564-1.431,1.564c-0.785,0-1.195-0.322-1.195-0.966c0-0.246,0.098-0.364,0.163-0.42
		c0.236-0.222,0.697-0.24,0.854-0.229l0.68,0.055c0.003,0-0.308-0.614-0.308-0.614c-0.25-0.511-0.62-0.83-1.091-0.97
		c-0.863-0.249-1.731,0.277-1.771,0.297c-0.007,0-8.45,5.348-8.45,5.348L138.58,107.926z M139.234,109.443l2.298,0.013l0.109,21.736
		l-2.318-0.017L139.234,109.443z M134.116,109.414l4.6,0.028l0.079,21.733l-4.597-0.028L134.116,109.414z M128.74,109.385
		l4.85,0.025l0.089,21.734l-4.854-0.03L128.74,109.385z M124.316,109.358l3.904,0.023l0.083,21.731l-3.905-0.024L124.316,109.358z
		 M119.583,109.332l4.207,0.025l0.092,21.73l-4.216-0.025L119.583,109.332z M115.464,109.309l3.595,0.021l0.088,21.73l-3.597-0.02
		L115.464,109.309z M148.6,129.207c0,0.429,0.28,0.769,0.627,0.769c0.348,0,0.631-0.347,0.631-0.769v-2.533
		c0-0.436-0.276-0.772-0.631-0.772c-0.347,0-0.627,0.337-0.627,0.772V129.207z M125.958,129.2c0,0.436,0.279,0.777,0.629,0.777
		c0.352,0,0.632-0.341,0.632-0.777v-2.526c0-0.436-0.28-0.772-0.632-0.772c-0.351,0-0.629,0.337-0.629,0.772V129.2z
		 M125.958,122.965c0,0.426,0.279,0.764,0.629,0.764c0.352,0,0.632-0.338,0.632-0.764v-2.539c0-0.436-0.28-0.774-0.632-0.774
		c-0.351,0-0.629,0.338-0.629,0.774V122.965z M125.958,115.668c0,0.44,0.279,0.778,0.629,0.778c0.352,0,0.632-0.338,0.632-0.778
		v-2.533c0-0.429-0.28-0.765-0.632-0.765c-0.351,0-0.629,0.337-0.629,0.765V115.668z M130.514,129.248
		c0,0.426,0.28,0.778,0.627,0.778c0.351,0,0.627-0.352,0.627-0.778v-2.53c0-0.434-0.276-0.771-0.627-0.771
		c-0.352,0-0.627,0.337-0.627,0.771V129.248z M130.514,123.003c0,0.437,0.274,0.771,0.627,0.771c0.351,0,0.627-0.334,0.627-0.771
		v-2.533c0-0.434-0.276-0.771-0.627-0.771c-0.352,0-0.627,0.337-0.627,0.771V123.003z M130.514,115.72
		c0,0.423,0.28,0.765,0.627,0.765c0.351,0,0.627-0.342,0.627-0.765v-2.536c0-0.426-0.276-0.772-0.627-0.772
		c-0.352,0-0.627,0.347-0.627,0.772V115.72z M135.717,129.248c0,0.44,0.28,0.778,0.634,0.778c0.338,0,0.62-0.352,0.62-0.778v-2.53
		c0-0.434-0.266-0.771-0.62-0.771s-0.634,0.337-0.634,0.771V129.248z M135.717,123.003c0,0.437,0.28,0.771,0.634,0.771
		c0.338,0,0.62-0.349,0.62-0.771v-2.533c0-0.434-0.266-0.771-0.62-0.771s-0.634,0.337-0.634,0.771V123.003z M135.717,115.72
		c0,0.431,0.28,0.765,0.634,0.765c0.338,0,0.62-0.342,0.62-0.765v-2.536c0-0.426-0.281-0.772-0.62-0.772
		c-0.354,0-0.634,0.347-0.634,0.772V115.72z M139.88,129.248c0,0.426,0.287,0.778,0.631,0.778c0.356,0,0.631-0.338,0.631-0.778
		v-2.53c0-0.434-0.274-0.771-0.631-0.771c-0.344,0-0.631,0.344-0.631,0.771V129.248z M139.88,123.003
		c0,0.422,0.287,0.771,0.631,0.771c0.356,0,0.631-0.334,0.631-0.771v-2.533c0-0.434-0.274-0.771-0.631-0.771
		c-0.344,0-0.631,0.342-0.631,0.771V123.003z M139.88,115.72c0,0.423,0.287,0.765,0.631,0.765c0.356,0,0.631-0.334,0.631-0.765
		v-2.536c0-0.426-0.274-0.772-0.631-0.772c-0.344,0-0.631,0.347-0.631,0.772V115.72z M146.522,129.207
		c0,0.429,0.272,0.769,0.624,0.769c0.355,0,0.631-0.341,0.631-0.769v-2.533c0-0.436-0.276-0.772-0.631-0.772
		c-0.352,0-0.624,0.337-0.624,0.772V129.207z M148.6,122.965c0,0.423,0.281,0.764,0.627,0.764c0.348,0,0.631-0.341,0.631-0.764
		v-2.539c0-0.43-0.283-0.774-0.631-0.774c-0.347,0-0.627,0.344-0.627,0.774V122.965z M146.522,122.965
		c0,0.429,0.272,0.764,0.624,0.764c0.355,0,0.631-0.335,0.631-0.764v-2.539c0-0.43-0.276-0.774-0.631-0.774
		c-0.352,0-0.624,0.344-0.624,0.774V122.965z M148.6,115.675c0,0.427,0.281,0.771,0.627,0.771c0.348,0,0.631-0.344,0.631-0.771
		v-2.54c0-0.417-0.283-0.765-0.631-0.765c-0.347,0-0.627,0.338-0.627,0.765V115.675z M146.522,115.675
		c0,0.433,0.272,0.771,0.624,0.771c0.355,0,0.631-0.338,0.631-0.771v-2.54c0-0.427-0.276-0.765-0.631-0.765
		c-0.352,0-0.624,0.338-0.624,0.765V115.675z M155.804,129.292c0,0.436,0.27,0.772,0.628,0.772c0.347,0,0.631-0.337,0.631-0.772
		v-2.53c0-0.431-0.284-0.774-0.631-0.774c-0.358,0-0.628,0.342-0.628,0.774V129.292z M153.72,129.292
		c0,0.436,0.276,0.772,0.627,0.772c0.354,0,0.631-0.337,0.631-0.772v-2.53c0-0.431-0.277-0.774-0.631-0.774
		c-0.351,0-0.627,0.342-0.627,0.774V129.292z M155.804,123.043c0,0.443,0.27,0.778,0.628,0.778c0.347,0,0.631-0.335,0.631-0.778
		v-2.528c0-0.434-0.284-0.777-0.631-0.777c-0.358,0-0.628,0.342-0.628,0.777V123.043z M153.72,123.043
		c0,0.443,0.276,0.778,0.627,0.778c0.354,0,0.631-0.335,0.631-0.778v-2.528c0-0.434-0.277-0.777-0.631-0.777
		c-0.351,0-0.627,0.342-0.627,0.777V123.043z M155.804,115.759c0,0.43,0.27,0.774,0.628,0.774c0.347,0,0.631-0.344,0.631-0.774
		v-2.537c0-0.427-0.284-0.767-0.631-0.767c-0.358,0-0.628,0.339-0.628,0.767V115.759z M153.72,115.759
		c0,0.43,0.276,0.774,0.627,0.774c0.354,0,0.631-0.344,0.631-0.774v-2.537c0-0.427-0.277-0.767-0.631-0.767
		c-0.351,0-0.627,0.339-0.627,0.767V115.759z M162.047,129.292c0,0.436,0.283,0.772,0.628,0.772c0.354,0,0.629-0.337,0.629-0.772
		v-2.53c0-0.431-0.276-0.774-0.629-0.774c-0.345,0-0.628,0.342-0.628,0.774V129.292z M159.972,129.292
		c0,0.436,0.267,0.772,0.625,0.772c0.351,0,0.629-0.337,0.629-0.772v-2.53c0-0.431-0.279-0.774-0.629-0.774
		c-0.358,0-0.625,0.342-0.625,0.774V129.292z M162.047,123.043c0,0.43,0.286,0.778,0.628,0.778c0.354,0,0.629-0.335,0.629-0.778
		v-2.528c0-0.434-0.276-0.777-0.629-0.777c-0.342,0-0.628,0.349-0.628,0.777V123.043z M159.972,123.043
		c0,0.443,0.267,0.778,0.625,0.778c0.351,0,0.629-0.335,0.629-0.778v-2.528c0-0.434-0.279-0.777-0.629-0.777
		c-0.358,0-0.625,0.342-0.625,0.777V123.043z M162.047,115.759c0,0.43,0.283,0.774,0.628,0.774c0.354,0,0.629-0.344,0.629-0.774
		v-2.537c0-0.427-0.276-0.767-0.629-0.767c-0.345,0-0.628,0.339-0.628,0.767V115.759z M159.972,115.759
		c0,0.43,0.267,0.774,0.625,0.774c0.351,0,0.629-0.344,0.629-0.774v-2.537c0-0.427-0.279-0.767-0.629-0.767
		c-0.358,0-0.625,0.339-0.625,0.767V115.759z M116.591,129.119c0,0.434,0.272,0.771,0.625,0.771s0.632-0.337,0.632-0.771v-2.536
		c0-0.431-0.279-0.768-0.632-0.768s-0.625,0.337-0.625,0.768V129.119z M116.591,122.876c0,0.427,0.272,0.767,0.625,0.767
		s0.632-0.339,0.632-0.767v-2.533c0-0.436-0.279-0.781-0.632-0.781s-0.625,0.345-0.625,0.781V122.876z M116.591,115.583
		c0,0.433,0.272,0.775,0.625,0.775s0.632-0.342,0.632-0.775v-2.529c0-0.436-0.279-0.779-0.632-0.779s-0.625,0.344-0.625,0.779
		V115.583z M112.946,129.119c0,0.426,0.284,0.771,0.629,0.771c0.354,0,0.629-0.337,0.629-0.771v-2.536
		c0-0.431-0.276-0.768-0.629-0.768c-0.345,0-0.629,0.344-0.629,0.768V129.119z M112.946,122.876c0,0.427,0.279,0.767,0.629,0.767
		c0.354,0,0.629-0.339,0.629-0.767v-2.533c0-0.436-0.276-0.781-0.629-0.781c-0.351,0-0.629,0.345-0.629,0.781V122.876z
		 M112.946,115.583c0,0.427,0.284,0.775,0.629,0.775c0.354,0,0.629-0.342,0.629-0.775v-2.529c0-0.436-0.276-0.779-0.629-0.779
		c-0.345,0-0.629,0.348-0.629,0.779V115.583z M121.276,129.2c0,0.436,0.276,0.777,0.629,0.777c0.348,0,0.627-0.341,0.627-0.777
		v-2.526c0-0.436-0.279-0.772-0.627-0.772c-0.354,0-0.629,0.337-0.629,0.772V129.2z M121.276,122.965
		c0,0.426,0.276,0.764,0.629,0.764c0.348,0,0.627-0.338,0.627-0.764v-2.539c0-0.436-0.279-0.774-0.627-0.774
		c-0.354,0-0.629,0.338-0.629,0.774V122.965z M164.492,110.869c0-0.499,0.253-0.945,0.546-0.945h1.348
		c0.259,0,0.539,0.386,0.539,0.945c0,0.554-0.28,0.946-0.539,0.946h-1.348C164.777,111.815,164.492,111.435,164.492,110.869z
		 M164.492,113.276c0-0.501,0.253-0.943,0.546-0.943h1.348c0.259,0,0.539,0.388,0.539,0.943c0,0.557-0.28,0.945-0.539,0.945h-1.348
		C164.746,114.221,164.492,113.781,164.492,113.276z M164.499,115.551c0.044-0.441,0.276-0.792,0.539-0.792h1.348
		c0.259,0,0.539,0.383,0.539,0.948c0,0.553-0.28,0.938-0.539,0.938h-1.348c-0.262,0-0.491-0.352-0.537-0.781L164.499,115.551z
		 M164.509,117.89c0.059-0.405,0.281-0.727,0.529-0.727h1.348c0.259,0,0.539,0.392,0.539,0.948s-0.28,0.942-0.539,0.942h-1.348
		c-0.246,0-0.465-0.311-0.528-0.714L164.509,117.89z M164.519,120.548c0-0.557,0.296-0.943,0.553-0.943h1.337
		c0.264,0,0.554,0.386,0.554,0.943c0,0.557-0.29,0.941-0.554,0.941h-1.337C164.815,121.489,164.519,121.105,164.519,120.548z
		 M164.525,122.805c0.048-0.474,0.314-0.792,0.547-0.792h1.337c0.264,0,0.554,0.388,0.554,0.943c0,0.554-0.29,0.942-0.554,0.942
		h-1.337c-0.232,0-0.496-0.32-0.546-0.786L164.525,122.805z M164.573,130.261c0-0.56,0.277-0.942,0.526-0.942h1.313
		c0.255,0,0.533,0.383,0.533,0.942c0,0.554-0.279,0.945-0.533,0.945h-1.313C164.85,131.206,164.573,130.815,164.573,130.261z
		 M164.573,132.399c0-0.352,0.246-0.648,0.547-0.648h1.337c0.306,0,0.553,0.296,0.553,0.648c0,0.354-0.248,0.642-0.553,0.642h-1.337
		C164.819,133.042,164.573,132.753,164.573,132.399z M164.54,125.398c0-0.556,0.284-0.948,0.537-0.948h1.327
		c0.256,0,0.542,0.392,0.542,0.948c0,0.557-0.286,0.942-0.542,0.942h-1.328C164.825,126.34,164.54,125.954,164.54,125.398z
		 M164.543,127.672c0.038-0.484,0.303-0.809,0.535-0.809h1.327c0.256,0,0.542,0.386,0.542,0.939c0,0.559-0.286,0.942-0.542,0.942
		h-1.328c-0.232,0-0.494-0.325-0.535-0.812v-0.006v-0.255H164.543z M164.019,127.803c0,0.066,0,0.133,0.006,0.199l0.011,2.935
		h-4.897l-0.124-21.223l4.946-0.01l0.011,3.457v0.038v0.153v0.037l0.01,2.107c-0.008,0.066-0.01,0.139-0.01,0.208
		c0,0.076,0.003,0.147,0.011,0.216l0.006,1.909c-0.01,0.089-0.017,0.184-0.017,0.279c0,0.098,0.007,0.191,0.018,0.284l0.018,4.422
		l-0.004,0.14l0.004,0.146l0.017,4.513C164.019,127.675,164.019,127.739,164.019,127.803z M164.519,109.05
		c0-0.127,0.296-0.328,0.727-0.328h0.809c0.436,0,0.724,0.202,0.724,0.328c0,0.054-0.061,0.129-0.163,0.187
		c-0.146,0.092-0.347,0.137-0.56,0.137h-0.81C164.815,109.374,164.519,109.179,164.519,109.05z M142.625,110.869
		c0-0.559,0.293-0.945,0.549-0.945h1.349c0.212,0,0.443,0.26,0.519,0.662v0.549c-0.072,0.407-0.307,0.68-0.519,0.68h-1.349
		C142.918,111.815,142.625,111.423,142.625,110.869z M142.625,113.276c0-0.556,0.293-0.943,0.549-0.943h1.349
		c0.219,0,0.46,0.28,0.526,0.711l0.001,0.451c-0.061,0.433-0.307,0.726-0.528,0.726h-1.349
		C142.918,114.221,142.625,113.834,142.625,113.276z M142.625,115.706c0-0.563,0.293-0.948,0.549-0.948h1.349
		c0.232,0,0.484,0.304,0.536,0.771l0.001,0.334c-0.049,0.467-0.306,0.781-0.537,0.781h-1.349
		C142.918,116.644,142.625,116.259,142.625,115.706z M142.625,118.111c0-0.556,0.293-0.948,0.549-0.948h1.349
		c0.249,0,0.522,0.362,0.543,0.884l0.001,0.088v0.028l-0.001,0.004c-0.017,0.528-0.293,0.887-0.543,0.887h-1.349
		C142.918,119.053,142.625,118.667,142.625,118.111z M142.659,120.548c0-0.557,0.289-0.943,0.549-0.943h1.344
		c0.215,0,0.446,0.26,0.523,0.663l0.003,0.543c-0.075,0.412-0.31,0.678-0.526,0.678h-1.344
		C142.948,121.489,142.659,121.105,142.659,120.548z M142.659,122.957c0-0.556,0.289-0.943,0.549-0.943h1.344
		c0.222,0,0.465,0.28,0.533,0.71v0.451c-0.065,0.434-0.31,0.724-0.533,0.724h-1.344
		C142.948,123.899,142.659,123.511,142.659,122.957z M145.606,123.228c0.011-0.088,0.02-0.178,0.02-0.27
		c0-0.099-0.008-0.201-0.023-0.294l-0.006-1.792c0.018-0.103,0.028-0.208,0.028-0.322s-0.011-0.229-0.03-0.338l-0.007-2.025v-0.045
		l0.001-0.027l-0.001-0.038v-0.037l-0.01-2.151c0.007-0.061,0.011-0.117,0.011-0.177c0-0.066-0.004-0.136-0.014-0.198l-0.006-1.977
		c0.011-0.082,0.02-0.164,0.02-0.255c0-0.089-0.008-0.184-0.023-0.269l-0.006-1.825c0.014-0.1,0.028-0.205,0.028-0.314
		s-0.014-0.219-0.03-0.324l-0.003-0.81l5.737-0.011l0.123,21.212h-5.786L145.606,123.228z M142.712,130.261
		c0-0.56,0.276-0.942,0.528-0.942h1.313c0.252,0,0.533,0.383,0.533,0.942c0,0.554-0.281,0.945-0.533,0.945h-1.313
		C142.987,131.206,142.712,130.815,142.712,130.261z M142.712,132.399c0-0.352,0.248-0.648,0.549-0.648h1.337
		c0.122,0,0.231,0.044,0.322,0.124v0.099h0.093c0.045,0.064,0.079,0.13,0.102,0.207l0.001,0.423
		c-0.075,0.253-0.276,0.438-0.519,0.438h-1.337C142.959,133.042,142.712,132.753,142.712,132.399z M145.638,132.662
		c0.018-0.086,0.033-0.17,0.033-0.264c0-0.095-0.014-0.188-0.033-0.276l-0.001-0.147h18.402l0.006,1.28l-18.405-0.13
		L145.638,132.662z M142.675,125.398c0-0.556,0.29-0.948,0.54-0.948h1.325c0.289,0,0.546,0.443,0.546,0.948
		c0,0.499-0.257,0.942-0.546,0.942h-1.325C142.965,126.34,142.675,125.954,142.675,125.398z M142.675,127.803
		c0-0.553,0.29-0.939,0.54-0.939h1.325c0.289,0,0.546,0.438,0.546,0.939c0,0.506-0.257,0.942-0.546,0.942h-1.325
		C142.965,128.745,142.675,128.36,142.675,127.803z M142.659,109.05c0-0.127,0.289-0.328,0.726-0.328h0.805
		c0.437,0,0.73,0.202,0.73,0.328c0,0.054-0.066,0.132-0.164,0.187c-0.144,0.092-0.352,0.137-0.564,0.137h-0.805
		C142.948,109.374,142.659,109.179,142.659,109.05z M163.956,108.392l0.003,0.789l-18.403,0.034l-0.003-0.809
		C144.125,108.426,162.118,108.388,163.956,108.392z M121.276,115.668c0,0.44,0.276,0.778,0.629,0.778
		c0.348,0,0.627-0.338,0.627-0.778v-2.533c0-0.429-0.279-0.765-0.627-0.765c-0.354,0-0.629,0.337-0.629,0.765V115.668z
		 M123.586,106.541c0.1,0.033,0.205,0.052,0.313,0.052c0.11,0,0.218-0.021,0.318-0.052h2.096l-0.014-0.395l-0.034-1.893
		c-0.041-0.649-0.593-1.837-2.376-1.823c-1.805,0.016-2.352,1.46-2.388,2.222c0,0.021,0.011,1.506,0.011,1.506l0.003,0.38h2.071
		V106.541z M122.891,105.623c0,0.05,0.006,0.093,0.014,0.14l-0.62,0.016l-0.013-1.11c0.006-0.126,0.132-1.451,1.622-1.467
		c1.506-0.011,1.594,1.04,1.597,1.085c-0.003-0.02,0.021,1.478,0.021,1.478h-0.617c0.007-0.045,0.01-0.091,0.01-0.14v-1.208
		c0-0.532-0.454-0.967-1.008-0.967c-0.553,0-1.006,0.436-1.006,0.967v1.207H122.891z M137.119,106.541
		c0.096,0.033,0.207,0.052,0.315,0.052c0.112,0,0.214-0.021,0.311-0.052h2.098l-0.007-0.395l-0.045-1.893
		c-0.04-0.649-0.586-1.837-2.368-1.823c-1.803,0.016-2.358,1.46-2.396,2.216c0,0.027,0.021,1.512,0.021,1.512l0.006,0.38h2.065
		V106.541z M47.185,101.621c0-0.383-0.15-0.747-0.42-1.02c-0.274-0.273-0.636-0.421-1.02-0.421c-0.796,0-1.44,0.651-1.44,1.441
		c0,0.793,0.644,1.438,1.44,1.438C46.539,103.06,47.185,102.416,47.185,101.621z M39.338,107.201h0.709l-0.546-0.46l-2.081-1.765
		l-2.19,1.76l-0.571,0.465H39.338z M55.72,107.201l-2.627-2.225l-2.761,2.225H55.72z M48.768,107.027l-0.229-0.393
		c-0.04-0.068-0.982-1.651-2.854-1.679c-1.832-0.03-2.956,1.096-3.156,1.707l-0.11,0.338
		C44.535,107.002,46.651,107.027,48.768,107.027z M41.942,130.868l0.127-21.28l5.635,0.037l-0.123,21.242h-5.639V130.868z
		 M88.006,107.708l-26.535,0.16l-0.502-0.32l-8.446-5.338c-0.044-0.033-0.912-0.553-1.774-0.306
		c-0.479,0.147-0.84,0.471-1.093,0.967l-0.313,0.621l0.692-0.059c0.151-0.013,0.611,0.004,0.844,0.222
		c0.071,0.065,0.16,0.181,0.16,0.429c0,0.645-0.396,0.967-1.185,0.967c-0.33,0-1.41-0.112-1.43-1.563
		c-0.024-1.525,1.475-2.509,1.488-2.519l0.454-0.287l-0.402-0.325l33.188-0.195l4.854,7.066L88.006,107.708z M80.977,109.262
		l3.6-0.024l-0.081,21.738l-3.603,0.023L80.977,109.262z M76.248,109.289l4.208-0.024l-0.082,21.736l-4.207,0.027L76.248,109.289z
		 M71.828,109.315l3.902-0.023l-0.086,21.737l-3.905,0.024L71.828,109.315z M66.447,109.347l4.856-0.03l-0.081,21.737l-4.86,0.03
		L66.447,109.347z M61.323,109.381l4.601-0.03l-0.086,21.737l-4.601,0.027L61.323,109.381z M58.516,109.395l2.287-0.014
		l-0.082,21.736l-2.322,0.016L58.516,109.395z M51.441,129.143v-2.537c0-0.431-0.281-0.771-0.631-0.771
		c-0.355,0-0.629,0.339-0.629,0.771v2.537c0,0.427,0.286,0.775,0.629,0.775C51.159,129.919,51.441,129.575,51.441,129.143z
		 M74.082,129.139v-2.533c0-0.431-0.274-0.771-0.629-0.771c-0.351,0-0.625,0.339-0.625,0.771v2.533c0,0.431,0.276,0.775,0.625,0.775
		C73.808,129.914,74.082,129.571,74.082,129.139z M74.082,122.889v-2.53c0-0.431-0.274-0.769-0.629-0.769
		c-0.351,0-0.625,0.338-0.625,0.769v2.53c0,0.441,0.276,0.777,0.625,0.777C73.808,123.665,74.082,123.33,74.082,122.889z
		 M74.082,115.602v-2.528c0-0.434-0.274-0.775-0.629-0.775c-0.351,0-0.625,0.341-0.625,0.775v2.528c0,0.436,0.276,0.781,0.625,0.781
		C73.808,116.382,74.082,116.037,74.082,115.602z M69.523,129.183v-2.528c0-0.436-0.272-0.771-0.625-0.771
		c-0.355,0-0.631,0.335-0.631,0.771v2.528c0,0.427,0.283,0.774,0.631,0.774C69.245,129.955,69.523,129.609,69.523,129.183z
		 M69.523,122.935v-2.532c0-0.434-0.272-0.771-0.625-0.771c-0.355,0-0.631,0.337-0.631,0.771v2.53c0,0.438,0.276,0.777,0.631,0.777
		C69.245,123.711,69.523,123.36,69.523,122.935z M69.523,115.648v-2.533c0-0.434-0.272-0.768-0.625-0.768
		c-0.355,0-0.631,0.334-0.631,0.768v2.533c0,0.429,0.283,0.777,0.631,0.777C69.245,116.425,69.523,116.077,69.523,115.648z
		 M64.324,129.183v-2.528c0-0.436-0.276-0.771-0.632-0.771c-0.349,0-0.629,0.335-0.629,0.771v2.528c0,0.43,0.28,0.774,0.629,0.774
		C64.041,129.955,64.324,129.609,64.324,129.183z M64.324,122.935v-2.532c0-0.434-0.276-0.771-0.632-0.771
		c-0.349,0-0.629,0.337-0.629,0.771v2.53c0,0.438,0.28,0.777,0.629,0.777S64.324,123.36,64.324,122.935z M64.324,115.648v-2.533
		c0-0.434-0.276-0.768-0.632-0.768c-0.349,0-0.629,0.334-0.629,0.768v2.533c0,0.436,0.28,0.777,0.629,0.777
		S64.324,116.077,64.324,115.648z M60.159,129.183v-2.528c0-0.436-0.277-0.771-0.632-0.771c-0.352,0-0.628,0.335-0.628,0.771v2.528
		c0,0.427,0.283,0.774,0.628,0.774C59.873,129.955,60.159,129.609,60.159,129.183z M60.159,122.935v-2.532
		c0-0.434-0.277-0.771-0.632-0.771c-0.352,0-0.628,0.337-0.628,0.771v2.53c0,0.438,0.277,0.777,0.628,0.777
		C59.881,123.711,60.159,123.373,60.159,122.935z M60.159,115.648v-2.533c0-0.434-0.277-0.768-0.632-0.768
		c-0.352,0-0.628,0.334-0.628,0.768v2.533c0,0.429,0.283,0.777,0.628,0.777C59.873,116.425,60.159,116.077,60.159,115.648z
		 M53.518,129.143v-2.537c0-0.431-0.276-0.771-0.628-0.771c-0.351,0-0.622,0.339-0.622,0.771v2.537c0,0.431,0.272,0.775,0.622,0.775
		C53.243,129.919,53.518,129.575,53.518,129.143z M51.441,122.889v-2.53c0-0.431-0.281-0.769-0.631-0.769
		c-0.355,0-0.629,0.338-0.629,0.769v2.53c0,0.441,0.276,0.777,0.629,0.777C51.159,123.665,51.441,123.33,51.441,122.889z
		 M53.518,122.889v-2.53c0-0.431-0.276-0.769-0.628-0.769c-0.351,0-0.622,0.338-0.622,0.769v2.53c0,0.441,0.272,0.777,0.622,0.777
		C53.243,123.665,53.518,123.33,53.518,122.889z M51.441,115.61v-2.536c0-0.43-0.281-0.769-0.631-0.769
		c-0.355,0-0.629,0.339-0.629,0.769v2.536c0,0.424,0.286,0.772,0.629,0.772C51.159,116.382,51.441,116.037,51.441,115.61z
		 M53.518,115.61v-2.536c0-0.43-0.276-0.769-0.628-0.769c-0.351,0-0.622,0.339-0.622,0.769v2.536c0,0.427,0.272,0.772,0.622,0.772
		C53.243,116.382,53.518,116.037,53.518,115.61z M44.235,129.227v-2.533c0-0.429-0.272-0.771-0.624-0.771
		c-0.354,0-0.625,0.342-0.625,0.771v2.533c0,0.434,0.273,0.771,0.625,0.771C43.962,129.998,44.235,129.66,44.235,129.227z
		 M46.317,129.227v-2.533c0-0.429-0.274-0.771-0.627-0.771s-0.628,0.342-0.628,0.771v2.533c0,0.434,0.276,0.771,0.628,0.771
		C46.043,129.998,46.317,129.66,46.317,129.227z M44.235,122.982v-2.53c0-0.436-0.272-0.772-0.624-0.772
		c-0.354,0-0.625,0.337-0.625,0.772v2.53c0,0.431,0.273,0.771,0.625,0.771C43.962,123.753,44.235,123.412,44.235,122.982z
		 M46.317,122.982v-2.53c0-0.436-0.274-0.772-0.627-0.772s-0.628,0.337-0.628,0.772v2.53c0,0.431,0.276,0.771,0.628,0.771
		C46.043,123.753,46.317,123.412,46.317,122.982z M44.235,115.692v-2.528c0-0.437-0.272-0.774-0.624-0.774
		c-0.354,0-0.625,0.337-0.625,0.774v2.528c0,0.434,0.273,0.771,0.625,0.771c0.182,0,0.354-0.092,0.474-0.256
		C44.183,116.066,44.235,115.883,44.235,115.692z M46.317,115.692v-2.528c0-0.437-0.274-0.774-0.627-0.774s-0.628,0.337-0.628,0.774
		v2.528c0,0.434,0.276,0.771,0.628,0.771c0.182,0,0.356-0.092,0.471-0.256C46.262,116.066,46.317,115.883,46.317,115.692z
		 M37.99,129.227v-2.533c0-0.429-0.274-0.771-0.625-0.771c-0.354,0-0.629,0.342-0.629,0.771v2.533c0,0.434,0.276,0.771,0.629,0.771
		C37.717,129.998,37.99,129.66,37.99,129.227z M40.072,129.227v-2.533c0-0.426-0.281-0.771-0.628-0.771
		c-0.349,0-0.625,0.342-0.625,0.771v2.533c0,0.434,0.277,0.771,0.625,0.771C39.791,129.998,40.072,129.653,40.072,129.227z
		 M37.99,122.982v-2.53c0-0.436-0.274-0.772-0.625-0.772c-0.354,0-0.629,0.337-0.629,0.772v2.53c0,0.431,0.276,0.771,0.629,0.771
		C37.717,123.753,37.99,123.412,37.99,122.982z M40.072,122.982v-2.53c0-0.429-0.281-0.772-0.628-0.772
		c-0.349,0-0.625,0.337-0.625,0.772v2.53c0,0.431,0.277,0.771,0.625,0.771C39.791,123.753,40.072,123.406,40.072,122.982z
		 M37.99,115.692v-2.528c0-0.437-0.274-0.774-0.625-0.774c-0.354,0-0.629,0.337-0.629,0.774v2.528c0,0.434,0.276,0.771,0.629,0.771
		c0.181,0,0.351-0.092,0.468-0.256C37.935,116.066,37.99,115.883,37.99,115.692z M40.072,115.692v-2.528
		c0-0.429-0.281-0.774-0.628-0.774c-0.349,0-0.625,0.337-0.625,0.774v2.528c0,0.434,0.277,0.771,0.625,0.771
		c0.181,0,0.354-0.092,0.471-0.256C40.016,116.066,40.072,115.883,40.072,115.692z M83.453,129.049v-2.529
		c0-0.437-0.274-0.772-0.631-0.772c-0.352,0-0.627,0.335-0.627,0.772v2.529c0,0.438,0.276,0.778,0.627,0.778
		C83.178,129.827,83.453,129.486,83.453,129.049z M83.453,122.807v-2.532c0-0.433-0.274-0.778-0.631-0.778
		c-0.352,0-0.627,0.345-0.627,0.778v2.532c0,0.433,0.276,0.777,0.627,0.777C83.178,123.583,83.453,123.238,83.453,122.807z
		 M83.453,115.517v-2.53c0-0.433-0.274-0.775-0.631-0.775c-0.352,0-0.627,0.342-0.627,0.775v2.53c0,0.434,0.276,0.772,0.627,0.772
		C83.178,116.289,83.453,115.951,83.453,115.517z M87.096,129.049v-2.529c0-0.437-0.276-0.772-0.631-0.772
		c-0.351,0-0.628,0.335-0.628,0.772v2.529c0,0.438,0.277,0.778,0.628,0.778C86.819,129.827,87.096,129.486,87.096,129.049z
		 M87.096,122.807v-2.532c0-0.433-0.276-0.778-0.631-0.778c-0.351,0-0.628,0.345-0.628,0.778v2.532c0,0.433,0.277,0.777,0.628,0.777
		C86.819,123.583,87.096,123.238,87.096,122.807z M87.096,115.517v-2.53c0-0.433-0.276-0.775-0.631-0.775
		c-0.351,0-0.628,0.342-0.628,0.775v2.53c0,0.434,0.277,0.772,0.628,0.772C86.819,116.289,87.096,115.951,87.096,115.517z
		 M78.767,129.139v-2.533c0-0.431-0.276-0.771-0.629-0.771c-0.348,0-0.627,0.339-0.627,0.771v2.533c0,0.431,0.279,0.775,0.627,0.775
		C78.491,129.914,78.767,129.571,78.767,129.139z M78.767,122.889v-2.53c0-0.431-0.276-0.769-0.629-0.769
		c-0.348,0-0.627,0.338-0.627,0.769v2.53c0,0.441,0.279,0.777,0.627,0.777C78.491,123.665,78.767,123.33,78.767,122.889z
		 M35.553,110.88c-0.027,0.516-0.303,0.864-0.553,0.864h-1.342c-0.257,0-0.546-0.383-0.546-0.939c0-0.56,0.289-0.945,0.546-0.945H35
		c0.253,0,0.535,0.359,0.553,0.891C35.553,110.752,35.553,110.88,35.553,110.88z M35.545,113.387
		c-0.052,0.46-0.311,0.771-0.543,0.771h-1.344c-0.724,0-0.724-1.89,0-1.89H35c0.235,0,0.494,0.308,0.546,0.777L35.545,113.387z
		 M35.536,115.872c-0.069,0.426-0.314,0.709-0.535,0.709h-1.344c-0.257,0-0.546-0.388-0.546-0.946c0-0.554,0.289-0.941,0.546-0.941
		H35c0.225,0,0.472,0.281,0.537,0.71L35.536,115.872z M35.528,118.333c-0.079,0.393-0.314,0.653-0.528,0.653h-1.342
		c-0.257,0-0.546-0.388-0.546-0.941c0-0.557,0.289-0.943,0.546-0.943H35c0.214,0,0.45,0.257,0.529,0.658L35.528,118.333z
		 M35.521,120.554c-0.024,0.475-0.273,0.876-0.55,0.876h-1.342c-0.262,0-0.552-0.388-0.552-0.942c0-0.56,0.29-0.951,0.552-0.951
		h1.342c0.276,0,0.526,0.406,0.55,0.878V120.554z M35.509,123.047c-0.047,0.437-0.28,0.788-0.539,0.788h-1.342
		c-0.262,0-0.552-0.388-0.552-0.945c0-0.553,0.29-0.938,0.552-0.938h1.342c0.262,0,0.496,0.355,0.54,0.784L35.509,123.047z
		 M35.474,130.193c0,0.266-0.074,0.525-0.192,0.706c-0.059,0.091-0.18,0.24-0.344,0.24h-1.314c-0.249,0-0.53-0.389-0.53-0.946
		c0-0.552,0.281-0.945,0.53-0.945h1.313c0.117,0,0.245,0.089,0.344,0.238C35.4,129.674,35.474,129.934,35.474,130.193z
		 M35.474,132.334c0,0.177-0.065,0.342-0.174,0.465c-0.103,0.113-0.24,0.177-0.383,0.177h-1.339c-0.301,0-0.549-0.289-0.549-0.642
		c0-0.352,0.248-0.644,0.549-0.644h1.339c0.143,0,0.28,0.061,0.383,0.174C35.409,131.988,35.474,132.158,35.474,132.334z
		 M35.502,125.408c-0.023,0.512-0.296,0.864-0.539,0.864h-1.325c-0.259,0-0.545-0.386-0.545-0.941c0-0.557,0.286-0.945,0.545-0.945
		h1.325c0.24,0,0.515,0.352,0.539,0.866V125.408z M36.023,127.735c0-0.066,0-0.134-0.007-0.202l0.007-2.089v-0.037v-0.154l0.01-2.14
		c0.006-0.075,0.008-0.147,0.008-0.223c0-0.074-0.003-0.144-0.008-0.214l0.006-2.064l0.003-0.124v-0.119l0.006-1.987
		c0.018-0.106,0.025-0.218,0.025-0.335c0-0.112-0.007-0.221-0.024-0.325l0.006-1.805c0.011-0.091,0.017-0.182,0.017-0.279
		c0-0.092-0.004-0.182-0.016-0.267l0.007-1.938c0.007-0.071,0.008-0.14,0.008-0.215c0-0.068-0.001-0.14-0.008-0.204l0.007-2.095
		l0.001-0.034v-0.153l0.006-1.181l4.95,0.034l-0.126,21.287h-4.895l0.01-2.918C36.023,127.88,36.023,127.811,36.023,127.735z
		 M35.494,127.911c-0.052,0.465-0.306,0.769-0.53,0.769h-1.325c-0.259,0-0.545-0.379-0.545-0.946c0-0.554,0.286-0.939,0.545-0.939
		h1.325c0.165,0,0.291,0.144,0.348,0.233c0.095,0.147,0.163,0.332,0.184,0.537L35.494,127.911z M35.521,108.984
		c0,0.052-0.061,0.13-0.163,0.19c-0.143,0.089-0.349,0.136-0.564,0.136h-0.805c-0.437,0-0.726-0.195-0.726-0.324
		c0-0.129,0.289-0.322,0.726-0.322h0.805c0.216,0,0.421,0.044,0.564,0.129C35.458,108.848,35.521,108.923,35.521,108.984z
		 M57.413,110.805c0,0.557-0.291,0.939-0.547,0.939h-1.345c-0.221,0-0.461-0.281-0.528-0.716v-0.467
		c0.071-0.429,0.308-0.702,0.528-0.702h1.345C57.122,109.861,57.413,110.245,57.413,110.805z M57.413,113.213
		c0,0.556-0.291,0.943-0.547,0.943h-1.345c-0.229,0-0.482-0.31-0.535-0.767l0.001-0.376c0.058-0.451,0.308-0.747,0.533-0.747h1.345
		C57.122,112.268,57.413,112.653,57.413,113.213z M57.413,115.634c0,0.559-0.291,0.946-0.547,0.946h-1.345
		c-0.24,0-0.511-0.344-0.543-0.846v-0.207c0.034-0.499,0.303-0.836,0.543-0.836h1.345C57.122,114.694,57.413,115.081,57.413,115.634
		z M57.413,118.046c0,0.553-0.291,0.941-0.547,0.941h-1.345c-0.256,0-0.547-0.388-0.547-0.941c0-0.557,0.291-0.943,0.547-0.943
		h1.345C57.122,117.102,57.413,117.489,57.413,118.046z M57.381,120.487c0,0.554-0.29,0.942-0.545,0.942h-1.347
		c-0.248,0-0.468-0.318-0.529-0.723v-0.455c0.064-0.4,0.281-0.714,0.528-0.714h1.347C57.091,119.537,57.381,119.928,57.381,120.487z
		 M54.436,122.654c-0.008,0.076-0.014,0.154-0.014,0.235c0,0.076,0.004,0.146,0.011,0.216l-0.027,7.761h-5.784l0.123-21.235
		l5.731,0.038l-0.003,0.835c-0.014,0.095-0.02,0.197-0.02,0.3c0,0.091,0.006,0.182,0.018,0.272l-0.006,1.908
		c-0.008,0.075-0.013,0.15-0.013,0.228c0,0.071,0.006,0.14,0.011,0.208l-0.006,2.061l-0.001,0.034l-0.004,0.117l0.004,0.107
		l-0.016,4.444c-0.013,0.098-0.023,0.198-0.023,0.3c0,0.096,0.008,0.187,0.02,0.276L54.436,122.654z M57.381,122.889
		c0,0.504-0.259,0.945-0.545,0.945h-1.347c-0.264,0-0.492-0.348-0.537-0.788l0.003-0.32v-0.023c0.054-0.419,0.279-0.752,0.535-0.752
		h1.347C57.122,121.951,57.381,122.394,57.381,122.889z M57.332,130.193c0,0.556-0.279,0.946-0.529,0.946h-1.315
		c-0.127,0-0.26-0.098-0.364-0.267v-0.004h-0.003c-0.1-0.167-0.168-0.399-0.168-0.673c0-0.552,0.281-0.945,0.535-0.945h1.315
		C57.054,129.248,57.332,129.643,57.332,130.193z M54.405,132.057c-0.023,0.089-0.034,0.184-0.034,0.277s0.013,0.182,0.033,0.266
		l-0.001,0.46l-18.403,0.127l0.004-1.281h18.403v0.151H54.405z M57.332,132.334c0,0.354-0.245,0.642-0.552,0.642H55.44
		c-0.243,0-0.448-0.19-0.521-0.448l0.001-0.392c0.023-0.089,0.064-0.165,0.113-0.229h0.091v-0.096
		c0.089-0.075,0.197-0.119,0.314-0.119h1.341C57.088,131.691,57.332,131.982,57.332,132.334z M57.365,125.332
		c0,0.554-0.286,0.941-0.539,0.941h-1.328c-0.256,0-0.543-0.386-0.543-0.941c0-0.557,0.287-0.945,0.543-0.945h1.328
		C57.079,124.387,57.365,124.774,57.365,125.332z M57.365,127.735c0,0.567-0.286,0.946-0.539,0.946h-1.328
		c-0.256,0-0.543-0.379-0.543-0.946c0-0.554,0.287-0.939,0.543-0.939h1.328c0.167,0,0.29,0.144,0.347,0.233
		C57.297,127.213,57.365,127.473,57.365,127.735z M54.484,108.279v0.87l-18.403-0.124l0.003-0.7L54.484,108.279z M57.381,108.984
		c0,0.13-0.29,0.324-0.721,0.324h-0.808c-0.437,0-0.726-0.195-0.726-0.324s0.289-0.322,0.726-0.322h0.808
		C57.091,108.662,57.381,108.855,57.381,108.984z M78.767,115.602v-2.528c0-0.434-0.276-0.775-0.629-0.775
		c-0.348,0-0.627,0.341-0.627,0.775v2.528c0,0.436,0.279,0.781,0.627,0.781C78.491,116.382,78.767,116.037,78.767,115.602z
		 M75.859,106.477c0.091,0.024,0.182,0.041,0.283,0.041s0.199-0.018,0.291-0.041h2.092l0.001-0.383l0.021-1.481
		c-0.041-0.786-0.59-2.232-2.392-2.248c-1.786-0.02-2.335,1.168-2.375,1.803c0,0.02-0.042,1.911-0.042,1.911l-0.008,0.396h2.129
		V106.477z M77.151,105.562v-1.214c0-0.533-0.453-0.966-1.008-0.966c-0.554,0-1.004,0.433-1.004,0.966v1.214
		c0,0.047,0.006,0.091,0.013,0.134h-0.629l0.031-1.494c0.007-0.088,0.133-1.081,1.594-1.066c1.526,0.014,1.621,1.426,1.621,1.485
		l-0.011,1.072l-0.615,0.003C77.146,105.654,77.151,105.61,77.151,105.562z M62.324,106.477c0.091,0.024,0.184,0.041,0.284,0.041
		c0.1,0,0.201-0.018,0.291-0.041h2.091l0.021-1.864c-0.04-0.786-0.591-2.232-2.39-2.248c-1.788-0.02-2.337,1.174-2.376,1.809
		l-0.051,2.303C60.194,106.477,62.324,106.477,62.324,106.477z M63.617,105.562v-1.214c0-0.533-0.45-0.966-1.007-0.966
		c-0.554,0-1.003,0.433-1.003,0.966v1.214c0,0.047,0.004,0.091,0.011,0.134l-0.624,0.004l0.027-1.498
		c0.006-0.093,0.133-1.081,1.593-1.066c1.529,0.014,1.62,1.426,1.621,1.485l-0.011,1.075h-0.617
		C63.614,105.654,63.617,105.61,63.617,105.562z M89.695,97.374l-0.023-1.963h2.976l-0.058-0.003
		c0.168,0.023,4.112,0.587,7.438,0.457c3.303-0.127,6.777-0.518,6.812-0.522l-0.064,0.004l3.105,0.109l0.018,1.857L89.695,97.374z
		 M99.928,67.18c0,0.18-0.144,0.321-0.331,0.321c-0.171,0-0.317-0.144-0.317-0.321s0.146-0.321,0.317-0.321
		C99.785,66.859,99.928,67.001,99.928,67.18z M103.463,85.061l0.232-1.474l2.825,1.331l0.013,1.673l-2.949-1.47L103.463,85.061z
		 M98.019,98.182c-1.088,0.624-1.818,1.726-1.818,2.979v3.457h-0.337v-6.43L98.019,98.182z M103.945,104.641v-3.481
		c0-1.263-0.728-2.368-1.83-2.99l2.429-0.008v6.482L103.945,104.641z M96.989,85.162l-0.233-1.482
		c1.301,0.175,4.072,0.443,6.102-0.119l-0.265,1.661C100.424,85.53,98.003,85.292,96.989,85.162z M95.915,83.678l0.235,1.494
		l-3.136,1.679l-0.01-1.972L95.915,83.678z M102.447,104.637v-2.83c0-1.546-0.992-2.805-2.211-2.805
		c-1.218,0-2.211,1.26-2.211,2.805v2.818l-0.986-0.003v-3.461c0-1.482,1.362-2.69,3.034-2.69c1.676,0,3.035,1.208,3.035,2.69v3.479
		L102.447,104.637z M94.173,104.612v-2.86c0-1.678-0.7-2.945-1.627-2.945c-0.918,0-1.617,1.267-1.617,2.945v2.853l-1.187-0.004
		l-0.044-6.395l5.331-0.014v6.424L94.173,104.612z M109.028,104.658v-2.967c0-1.68-0.693-2.949-1.615-2.949
		c-0.926,0-1.622,1.267-1.622,2.949v2.956h-0.41v-6.488l4.523-0.014l0.042,6.515L109.028,104.658z M101.275,94.978v-6.611
		c0-0.969-0.546-1.727-1.236-1.727c-0.686,0-1.232,0.758-1.232,1.727v6.69c-0.57-0.003-1.15-0.024-1.709-0.054l-0.055-8.999
		c1.112,0.14,3.395,0.344,5.536,0.057l-0.054,8.837L101.275,94.978z M95.473,94.899v-5.207c0-0.554-0.093-1.488-0.707-1.488
		c-0.62,0-0.71,0.934-0.71,1.488v5.066c-0.414-0.047-0.757-0.092-0.99-0.122l-0.047-6.846l3.187-1.706l0.061,8.87L95.473,94.899z
		 M105.772,94.623v-5.191c0-0.557-0.095-1.488-0.71-1.488c-0.204,0-0.474,0.106-0.612,0.62c-0.065,0.236-0.102,0.545-0.102,0.868
		v5.33c-0.313,0.028-0.644,0.05-0.99,0.078l0.058-8.867l3.126,1.557l0.089,7.004L105.772,94.623z M103.375,116.999h-0.914
		l-0.058-5.636c0-1.373-0.997-2.495-2.212-2.495c-1.221,0-2.211,1.122-2.211,2.495l-0.028,5.636h-0.859v-5.457
		c0-1.066,0.334-2.069,0.943-2.82c0.588-0.73,1.373-1.132,2.199-1.132c1.731,0,3.139,1.771,3.139,3.952
		C103.375,111.542,103.375,116.999,103.375,116.999z M111.498,106.691H88.581l-0.477-0.692l1.303-0.567l20.897,0.062l1.672,0.508
		L111.498,106.691z M95.306,116.999l0.023-9.472h3.091c-0.318,0.211-0.612,0.484-0.873,0.806c-0.697,0.857-1.078,1.996-1.078,3.209
		v5.457H95.306z M105.061,119.63l-0.003,0.835H95.3l0.001-0.835H105.061z M105.065,117.832l-0.003,0.959h-9.76l0.001-0.959H105.065z
		 M105.092,107.527l-0.027,9.472h-1.069v-5.457c0-1.73-0.786-3.238-1.949-4.016C102.047,107.527,105.092,107.527,105.092,107.527z
		 M102.76,132.89l-0.918-0.006l-0.038-2.789c0-0.803-0.731-1.465-1.624-1.465c-0.891,0-1.621,0.662-1.621,1.472l-0.02,2.761
		l-0.83-0.006v-2.737c0-1.095,1.136-1.994,2.529-1.994c1.39,0,2.523,0.901,2.523,1.994v2.769H102.76z M94.447,125.655
		c-1.461,0.24-2.4,0.967-2.96,1.6l0.044-19.728h2.97L94.447,125.655z M108.772,127.18c-0.545-0.642-1.454-1.369-2.866-1.581
		l-0.028,0.187l0.048-18.259h2.911L108.772,127.18z M105.043,125.637c-0.096-0.018-0.201-0.03-0.307-0.033
		c-0.252,0-0.494,0.055-0.707,0.156v-2.567c0-0.745-0.447-1.424-1.171-1.9h2.199L105.043,125.637z M105.631,127.791
		c-0.004,0.406-0.416,0.728-0.921,0.728c-0.511-0.008-0.914-0.341-0.914-0.743c0,0.007,0.014-0.922,0.014-0.922
		c0-0.211,0.109-0.362,0.194-0.457c0.182-0.168,0.443-0.272,0.728-0.266c0.505,0,0.911,0.332,0.911,0.737L105.631,127.791z
		 M96.501,125.745c-0.242-0.167-0.55-0.266-0.88-0.27c-0.115,0-0.226,0.013-0.335,0.034l0.011-4.214h2.386
		c-0.727,0.475-1.181,1.153-1.181,1.9v2.55H96.501z M96.516,127.665c0,0.214-0.11,0.355-0.202,0.454
		c-0.177,0.174-0.437,0.27-0.719,0.266c-0.505,0-0.914-0.327-0.909-0.738c0,0.007,0.008-0.925,0.008-0.925
		c0.004-0.255,0.177-0.481,0.429-0.611l0.161,0.003v-0.065c0.103-0.033,0.215-0.05,0.334-0.05c0.499,0.008,0.914,0.341,0.912,0.738
		C96.531,126.73,96.516,127.665,96.516,127.665z M105.383,132.909v-4.02c0.454-0.211,0.764-0.621,0.769-1.095l0.006-0.926
		c0.003-0.276-0.096-0.537-0.277-0.745c1.672,0.266,2.533,1.352,2.888,1.945l-0.017,4.863L105.383,132.909z M95.15,128.838v4.004
		l-3.678-0.024l0.011-4.703c0.359-0.56,1.208-1.569,2.825-1.905c-0.081,0.154-0.129,0.328-0.13,0.506l-0.014,0.928
		C94.157,128.203,94.574,128.674,95.15,128.838z M100.867,77.467v5.566c-0.736,0.049-1.492,0.034-2.177-0.006v-5.465
		C99.157,77.645,99.972,77.718,100.867,77.467z M100.867,75.382v1.431c-0.922,0.298-1.788,0.185-2.177,0.107v-1.443
		C99.157,75.561,99.972,75.634,100.867,75.382z M100.828,71.406c-1.11,0.523-2.382,0.014-2.397,0.007l-0.047-0.02l-0.035-1.482
		c-0.013-0.545,0.648-1.29,0.986-1.61c0.086,0.021,0.174,0.03,0.265,0.03c0.089,0,0.175-0.007,0.257-0.027
		c0.334,0.313,1.024,1.069,1.007,1.605L100.828,71.406z M103.249,78.306l-0.033,4.248l-0.041,0.016
		c-0.492,0.201-1.069,0.332-1.68,0.406v-5.342L103.249,78.306z M103.266,76.23l-0.013,1.41l-1.76-0.678v-1.414L103.266,76.23z
		 M100.836,72.08l0.354-0.144c0.016,0.01,1.856,0.915,2.095,3.115l-0.007-0.035l-0.004,0.549l-1.781-0.685
		C101.449,73.613,101.021,72.51,100.836,72.08z M99.338,72.254c0.27,0.025,0.566,0.025,0.877-0.018
		c0.123,0.263,0.566,1.297,0.645,2.495c-0.917,0.298-1.772,0.191-2.161,0.112C98.753,73.627,99.202,72.556,99.338,72.254z
		 M96.475,75.664l0.006-0.707c0,0.007,0.177-1.75,1.744-2.826l0.133-0.072l0.341,0.089c-0.201,0.477-0.59,1.535-0.629,2.74
		L96.475,75.664z M96.456,77.753l0.013-1.396l1.595-0.771v1.386L96.456,77.753z M96.416,82.786l0.035-4.338l1.614-0.781v5.313
		C97.328,82.917,96.73,82.835,96.416,82.786z M109.282,131.043h2.098l0.008,1.902l-2.113-0.013L109.282,131.043z M109.289,128.961
		h2.081l0.007,1.455h-2.092L109.289,128.961z M109.297,126.877h2.061l0.008,1.455h-2.075v-0.003l0.16-0.065
		c-0.008-0.023-0.059-0.147-0.158-0.332L109.297,126.877z M109.304,124.794h2.044l0.007,1.46h-2.057L109.304,124.794z
		 M109.31,122.715h2.03l0.008,1.455h-2.042L109.31,122.715z M109.318,120.633h2.011l0.007,1.455h-2.025L109.318,120.633z
		 M109.324,118.549h1.993l0.008,1.455h-2.006L109.324,118.549z M109.33,116.463h1.975l0.008,1.458h-1.987L109.33,116.463z
		 M109.335,114.384h1.96l0.008,1.455h-1.972L109.335,114.384z M109.345,112.299h1.942l0.007,1.455h-1.955L109.345,112.299z
		 M111.272,109.593h-1.918l0.007-2.066h1.902L111.272,109.593z M109.351,110.216h1.925l0.008,1.458h-1.938L109.351,110.216z
		 M91.006,109.633H88.77l0.01-2.106h2.232L91.006,109.633z M91.002,111.72H88.76l0.006-1.465h2.239L91.002,111.72z M90.997,113.8
		H88.75l0.007-1.457h2.242L90.997,113.8z M90.993,115.882h-2.252l0.006-1.458h2.25L90.993,115.882z M90.987,117.961H88.73
		l0.006-1.457h2.255L90.987,117.961z M90.982,120.049H88.72l0.007-1.463h2.26L90.982,120.049z M90.976,122.128H88.71l0.006-1.457
		h2.263L90.976,122.128z M90.972,124.211h-2.27l0.007-1.458h2.266L90.972,124.211z M88.666,131.08h2.287l-0.004,1.737l-2.291-0.016
		L88.666,131.08z M88.678,129.002h2.283l-0.003,1.454h-2.289L88.678,129.002z M90.965,126.292H88.69l0.006-1.458h2.272
		L90.965,126.292z M88.686,126.917h2.279l-0.001,1.047c-0.112,0.188-0.167,0.315-0.175,0.338l0.174,0.074v0.001H88.68
		L88.686,126.917z M102.035,127.978h1.257c0.091,0.485,0.506,0.881,1.05,1.007v3.915l-0.955-0.007v-2.772
		C103.388,129.238,102.854,128.45,102.035,127.978z M96.997,127.978h1.443c-0.818,0.472-1.355,1.26-1.355,2.144v2.733l-0.891-0.004
		v-4.052c0.187-0.071,0.354-0.174,0.491-0.308C96.833,128.339,96.942,128.16,96.997,127.978z M103.407,125.829h-1.102l-0.042-2.666
		c0-0.815-0.829-1.458-1.885-1.458c-1.05,0-1.871,0.644-1.871,1.467l-0.025,2.658h-1.358v-2.636c0-0.887,0.931-1.648,2.202-1.9
		h1.884c1.272,0.252,2.201,1.013,2.201,1.9v2.636H103.407z M97.02,126.459h6.339c-0.045,0.124-0.076,0.256-0.076,0.389l-0.006,0.501
		h-6.233l0.007-0.612C97.051,126.644,97.041,126.547,97.02,126.459z M40.672,102.743c-0.062-0.04-0.132-0.072-0.204-0.092
		c-0.533-0.156-1.153,0.212-1.153,0.212l-7.42,4.67l27.525-0.075l-7.304-4.594c-0.003-0.001-0.622-0.361-1.151-0.214
		c-0.072,0.021-0.14,0.052-0.204,0.092c0.216,0.061,0.453,0.167,0.645,0.342c0.273,0.245,0.413,0.59,0.413,0.999
		c0,1.075-0.752,1.744-1.963,1.744c-1.003,0-2.182-0.612-2.205-2.331c-0.023-1.388,0.888-2.39,1.438-2.867l-3.092-2.552
		l-3.621,2.573c0.55,0.498,1.423,1.492,1.402,2.846c-0.024,1.719-1.204,2.331-2.207,2.331c-1.209,0-1.962-0.67-1.962-1.744
		c0-0.409,0.141-0.754,0.41-0.999C40.215,102.91,40.45,102.804,40.672,102.743z M167.84,108.36l0.064,25.697
		c-26.416-0.19-52.836-0.315-79.252-0.481v0.02h-0.379l-56.136,0.396l0.085-25.659h-1.693l-1.371,0.016l9.75-6.146
		c0.038-0.027,0.907-0.546,1.769-0.298c0.472,0.137,0.84,0.464,1.095,0.967l0.31,0.621l-0.692-0.059
		c-0.144-0.013-0.61,0-0.844,0.222c-0.069,0.065-0.163,0.174-0.163,0.429c0,0.645,0.402,0.967,1.19,0.967
		c0.423,0,1.413-0.15,1.434-1.563c0.016-1.327-0.976-2.202-1.98-2.83l4.75-3.388l0.24-0.173l0.232,0.192l2.782,2.294l34.515-0.199
		l4.099,5.901l1.274-0.545l-0.074-9.745l-0.003-0.419h3.386l-0.066-9.992v-0.281l0.264-0.106l3.365-1.369l0.064-7.904
		c0.01-0.085,0.205-1.973,1.905-3.231l-0.04-1.771c-0.02-0.76,0.673-1.569,1.048-1.949c-0.197-0.207-0.321-0.488-0.321-0.796
		c0-0.638,0.519-1.151,1.15-1.151c0.642,0,1.164,0.515,1.164,1.151c0,0.315-0.126,0.598-0.331,0.808
		c0.385,0.386,1.078,1.185,1.061,1.939l-0.037,1.441c0.511,0.289,2.209,1.407,2.446,3.62l0.007,0.017v0.018l-0.065,7.716
		l3.256,1.535l0.238,0.112l0.003,0.26l0.126,9.895l2.859,0.105l0.395,0.014v0.399l0.064,9.704l1.69,0.521l4.023-5.833l34.511,0.198
		l3.017-2.481l4.987,3.549l-0.478,0.318c-0.014,0.008-1.523,0.997-1.501,2.522c0.027,1.446,1.1,1.56,1.437,1.56
		c0.191,0,0.542-0.025,0.809-0.187c0.257-0.151,0.373-0.405,0.373-0.779c0-0.246-0.089-0.364-0.154-0.427
		c-0.238-0.215-0.692-0.233-0.85-0.222l-0.686,0.059l0.308-0.617c0.256-0.511,0.624-0.836,1.095-0.97
		c0.861-0.248,1.73,0.277,1.772,0.297l9.661,6.092h-2.956V108.36z M157.666,100.715c-0.552,0.494-1.429,1.485-1.403,2.85
		c0.021,1.713,1.201,2.322,2.207,2.322c0.325,0,0.799-0.047,1.208-0.298c0.341-0.205,0.75-0.622,0.75-1.44
		c0-0.405-0.137-0.751-0.409-1.001c-0.188-0.173-0.417-0.276-0.641-0.338c0.059-0.037,0.127-0.068,0.198-0.089
		c0.533-0.156,1.144,0.209,1.153,0.209l7.092,4.472l-27.19,0.144l7.297-4.617c0,0,0.618-0.366,1.156-0.209
		c0.068,0.017,0.133,0.048,0.195,0.086c-0.221,0.062-0.451,0.165-0.645,0.344c-0.272,0.25-0.416,0.594-0.416,0.999
		c0,1.074,0.757,1.737,1.969,1.737c1,0,2.178-0.61,2.202-2.322c0.023-1.378-0.893-2.388-1.436-2.87l3.107-2.552L157.666,100.715z
		 M112.361,109.29L112.361,109.29h-0.314l0.126,23.591l29.478,0.218l-0.007-1.386l-29.441-0.171l0.003-0.521l2.819,0.013
		l-0.082-21.727L112.361,109.29z M112.044,108.774h0.034v-0.01l29.45,0.174l-0.003-0.604l-0.43-0.001v0.127l-29.055-0.165
		L112.044,108.774z M87.999,109.21h-0.035v0.011l-2.867,0.016l-0.083,21.738l2.82-0.017v0.516l-29.436,0.174l-0.008,1.386
		l29.508-0.212L87.999,109.21z M87.959,108.706h0.042l0.001-0.477l-29.064,0.17l0-0.132l-0.417,0.001l-0.003,0.605l29.441-0.175
		v0.007H87.959z M135.821,105.766l-0.016-1.098c0.004-0.126,0.137-1.451,1.621-1.467c1.455-0.007,1.584,0.976,1.595,1.085
		c0-0.008,0.023,0.83,0.034,1.478h-0.627c0.006-0.045,0.011-0.091,0.011-0.14v-1.208c0-0.532-0.451-0.967-1.006-0.967
		c-0.556,0-1.011,0.436-1.011,0.967l0.01,1.348L135.821,105.766z"/>
</g>
<g id="Слой_2">
	<circle fill="none" cx="100" cy="100.042" r="84"/>
	<text transform="matrix(-0.0983 -0.9952 0.9952 -0.0983 16.9551 113.9102)"><tspan x="0" y="0" fill="#FFFFFF" font-family="'PTSans-Regular'" font-size="14">М</tspan><tspan x="12.192" y="0.18" fill="#FFFFFF" font-family="'PTSans-Regular'" font-size="14" rotate="7">Е</tspan><tspan x="20.774" y="1.244" fill="#FFFFFF" font-family="'PTSans-Regular'" font-size="14" rotate="13.483">Д</tspan><tspan x="30.959" y="3.79" fill="#FFFFFF" font-family="'PTSans-Regular'" font-size="14" rotate="20.269">А</tspan><tspan x="39.677" y="7.061" fill="#FFFFFF" font-family="'PTSans-Regular'" font-size="14" rotate="26.853">Л</tspan><tspan x="48.439" y="11.6" fill="#FFFFFF" font-family="'PTSans-Regular'" font-size="14" rotate="33.284">Ь</tspan><tspan x="55.879" y="16.645" fill="#FFFFFF" font-family="'PTSans-Regular'" font-size="14" rotate="38.046"> </tspan><tspan x="59.793" y="19.663" fill="#FFFFFF" font-family="'PTSans-Regular'" font-size="14" rotate="42.796">Р</tspan><tspan x="66.34" y="25.744" fill="#FFFFFF" font-family="'PTSans-Regular'" font-size="14" rotate="49.445">О</tspan><tspan x="73.223" y="33.961" fill="#FFFFFF" font-family="'PTSans-Regular'" font-size="14" rotate="56.172">С</tspan><tspan x="78.252" y="41.577" fill="#FFFFFF" font-family="'PTSans-Regular'" font-size="14" rotate="62.373">С</tspan><tspan x="82.469" y="49.679" fill="#FFFFFF" font-family="'PTSans-Regular'" font-size="14" rotate="69.128">И</tspan><tspan x="86.19" y="59.632" fill="#FFFFFF" font-family="'PTSans-Regular'" font-size="14" rotate="76.414">Й</tspan><tspan x="88.583" y="70.013" fill="#FFFFFF" font-family="'PTSans-Regular'" font-size="14" rotate="83.201">С</tspan><tspan x="89.616" y="79.103" fill="#FFFFFF" font-family="'PTSans-Regular'" font-size="14" rotate="89.638">К</tspan><tspan x="89.647" y="88.753" fill="#FFFFFF" font-family="'PTSans-Regular'" font-size="14" rotate="96.569">О</tspan><tspan x="88.363" y="99.37" fill="#FFFFFF" font-family="'PTSans-Regular'" font-size="14" rotate="103.697">Й</tspan><tspan x="85.647" y="109.717" fill="#FFFFFF" font-family="'PTSans-Regular'" font-size="14" rotate="109.042"> </tspan><tspan x="84.079" y="114.397" fill="#FFFFFF" font-family="'PTSans-Regular'" font-size="14" rotate="113.96">А</tspan><tspan x="80.247" y="122.887" fill="#FFFFFF" font-family="'PTSans-Regular'" font-size="14" rotate="120.473">К</tspan><tspan x="75.274" y="131.191" fill="#FFFFFF" font-family="'PTSans-Regular'" font-size="14" rotate="126.967">А</tspan><tspan x="69.629" y="138.634" fill="#FFFFFF" font-family="'PTSans-Regular'" font-size="14" rotate="133.717">Д</tspan><tspan x="62.302" y="146.13" fill="#FFFFFF" font-family="'PTSans-Regular'" font-size="14" rotate="140.191">Е</tspan><tspan x="55.701" y="151.685" fill="#FFFFFF" font-family="'PTSans-Regular'" font-size="14" rotate="147.242">М</tspan><tspan x="45.414" y="158.155" fill="#FFFFFF" font-family="'PTSans-Regular'" font-size="14" rotate="154.984">И</tspan><tspan x="35.75" y="162.588" fill="#FFFFFF" font-family="'PTSans-Regular'" font-size="14" rotate="162.253">И</tspan><tspan x="25.479" y="165.674" fill="#FFFFFF" font-family="'PTSans-Regular'" font-size="14" rotate="167.631"> </tspan><tspan x="20.688" y="166.804" fill="#FFFFFF" font-family="'PTSans-Regular'" font-size="14" rotate="172.956">Н</tspan><tspan x="10.233" y="167.992" fill="#FFFFFF" font-family="'PTSans-Regular'" font-size="14" rotate="179.729">А</tspan><tspan x="0.923" y="168.012" fill="#FFFFFF" font-family="'PTSans-Regular'" font-size="14" rotate="-173.431">У</tspan><tspan x="-7.955" y="167.011" fill="#FFFFFF" font-family="'PTSans-Regular'" font-size="14" rotate="-167.86">К</tspan><tspan x="-17.418" y="164.816" fill="#FFFFFF" font-family="'PTSans-Regular'" font-size="14" rotate="-162.863"> </tspan></text>
	<polygon fill="#FFFFFF" points="58.649,174.758 60.468,178.444 64.536,179.035 61.593,181.904 62.287,185.955 58.649,184.042 
		55.012,185.955 55.706,181.904 52.763,179.035 56.831,178.444 	"/>
	<polygon fill="#FFFFFF" points="100.316,184.179 102.135,187.865 106.202,188.456 103.259,191.325 103.954,195.376 
		100.316,193.463 96.678,195.376 97.373,191.325 94.43,188.456 98.497,187.865 	"/>
	<polygon fill="#FFFFFF" points="141.181,174.758 143,178.444 147.067,179.035 144.124,181.904 144.819,185.955 141.181,184.042 
		137.543,185.955 138.238,181.904 135.295,179.035 139.362,178.444 	"/>
</g>
</svg>
