<?xml version="1.0" encoding="utf-8"?>
<!-- Generator: Adobe Illustrator 17.0.0, SVG Export Plug-In . SVG Version: 6.00 Build 0)  -->
<svg version="1.2" baseProfile="tiny" id="Слой_1"
	 xmlns="http://www.w3.org/2000/svg" xmlns:xlink="http://www.w3.org/1999/xlink" x="0px" y="0px" width="200px" height="200px"
	 viewBox="0 0 200 200" xml:space="preserve">
<g>
	<circle fill="#C85C5C" cx="100" cy="100" r="83"/>
</g>
<image width="433" height="390" xlink:href="B4BBE8EC.png"  transform="matrix(0.24 0 0 0.24 48.125 63.6875)">
</image>
<g>
	<path fill="#E1E0D1" d="M151.875,141.5c0,5.73-4.645,10.375-10.375,10.375h-83c-5.73,0-10.375-4.645-10.375-10.375V68.875
		c0-5.73,4.645-10.375,10.375-10.375h83c5.73,0,10.375,4.645,10.375,10.375V141.5z"/>
</g>
<image width="433" height="390" xlink:href="B4BBE8ED.png"  transform="matrix(0.24 0 0 0.24 48.125 53.3125)">
</image>
<g>
	<path fill="#E1E0D1" d="M151.875,131.125c0,5.73-4.645,10.375-10.375,10.375h-83c-5.73,0-10.375-4.645-10.375-10.375V58.5
		c0-5.73,4.645-10.375,10.375-10.375h83c5.73,0,10.375,4.645,10.375,10.375V131.125z"/>
</g>
<g>
	<rect x="58.5" y="79.25" fill="#505D73" width="31.125" height="31.125"/>
</g>
<g>
	<rect x="110.375" y="87.031" fill="#505D73" width="31.125" height="2.594"/>
</g>
<g>
	<rect x="110.375" y="81.844" fill="#505D73" width="31.125" height="2.594"/>
</g>
<g>
	<rect x="100" y="79.25" fill="#505D73" width="7.781" height="10.375"/>
</g>
<g>
	<rect x="100" y="94.813" fill="#505D73" width="41.5" height="2.594"/>
</g>
<g>
	<rect x="100" y="100" fill="#505D73" width="41.5" height="2.594"/>
</g>
<g>
	<rect x="100" y="105.188" fill="#505D73" width="41.5" height="2.594"/>
</g>
<g>
	<rect x="100" y="110.375" fill="#505D73" width="41.5" height="2.594"/>
</g>
<g>
	<rect x="110.051" y="118.156" fill="#505D73" width="31.449" height="2.594"/>
</g>
<g>
	<rect x="58.5" y="118.156" fill="#505D73" width="31.125" height="2.594"/>
</g>
<g>
	<rect x="58.5" y="123.344" fill="#505D73" width="31.125" height="2.594"/>
</g>
<g>
	<rect x="58.5" y="128.531" fill="#505D73" width="31.125" height="2.594"/>
</g>
<g>
	<rect x="58.5" y="133.719" fill="#505D73" width="31.125" height="2.594"/>
</g>
<g>
	<rect x="100" y="123.344" fill="#505D73" width="41.5" height="2.594"/>
</g>
<g>
	<rect x="100" y="128.531" fill="#505D73" width="41.5" height="2.594"/>
</g>
<g>
	<rect x="100" y="133.719" fill="#505D73" width="41.5" height="2.594"/>
</g>
<g>
	<circle fill="#E1E0D1" cx="79.25" cy="89.625" r="5.188"/>
</g>
<g>
	<rect x="58.5" y="58.5" fill="#505D73" width="83" height="10.375"/>
</g>
<g>
	<g>
		<path fill="#E1E0D1" d="M87.031,107.781v-6.261l-2.037-2.025c-1.263-1.255-3.31-1.255-4.572,0l-2.189,2.176L73.233,96.7
			c-2.532-2.517-6.638-2.517-9.17,0l-2.969,2.951v8.13H87.031z"/>
	</g>
</g>
</svg>
