<svg xmlns="http://www.w3.org/2000/svg" xmlns:xlink="http://www.w3.org/1999/xlink" version="1.1" x="0px" y="0px" viewBox="0 0 100 125" enable-background="new 0 0 100 100" xml:space="preserve"><rect x="48.542" y="31.794" width="2.873" height="0.958"/><rect x="48.542" y="30.699" width="2.873" height="0.959"/><rect x="77.062" y="31.794" width="2.874" height="0.958"/><rect x="77.062" y="30.699" width="2.874" height="0.959"/><rect x="20.027" y="31.794" width="2.872" height="0.958"/><rect x="20.027" y="30.699" width="2.872" height="0.959"/><rect x="48.542" y="29.602" width="2.873" height="0.958"/><rect x="48.542" y="28.506" width="2.873" height="0.958"/><rect x="48.542" y="27.41" width="2.873" height="0.958"/><path d="M56.625,56.459l7.483-29.585h15.827l-15.471-6.538l-1.68-17.627l-7.145,17.474l-11.33-0.017L37.178,2.709l-1.691,17.672  l-15.459,6.492h15.827l7.483,29.585c-0.843,1.917-6.477,15.182-12.382,41.061l-0.153,0.673h4.446l14.732-29.595l14.727,29.595h4.452  l-0.153-0.673C63.102,71.641,57.468,58.376,56.625,56.459z M59.465,67.115h-8.429l4.933-9.406  C56.591,59.202,57.841,62.319,59.465,67.115z M55.742,55.299l-4.559-5.194h5.877L55.742,55.299z M51.568,49.011l3.021-3.176  l2.144,3.176H51.568z M57.536,48.243l-2.178-3.223l4.095-4.309L57.536,48.243z M60.409,36.94l-1.651-4.598l2.318,1.998L60.409,36.94  z M61.376,33.153l-3.371-2.911l-1.21-3.368h1.352l4.045,3.079L61.376,33.153z M57.151,25.778l3.274-4.089l2.313,4.089H57.151z   M62.485,28.799l-2.528-1.925h3.015L62.485,28.799z M74.533,25.778h-4.095l-0.306-1.856L74.533,25.778z M69.335,25.778h-3.598  l3.287-1.882L69.335,25.778z M68.204,23.104l-4.322,2.472l-2.438-4.314h2.398L68.204,23.104z M62.111,7.235l0.577,6.003l-2.07-2.346  L62.111,7.235z M60.154,12.023l2.71,3.073l0.486,5.071h-0.622l-3.773-5.201L60.154,12.023z M58.469,16.158l2.907,4.009h-4.547  L58.469,16.158z M55.199,21.261h4.163l-3.252,4.067l-2.139-4.067H55.199z M55.109,25.778H51.03l2.042-3.886L55.109,25.778z   M50.674,21.261h1.494l-1.494,2.842V21.261z M49.283,21.261v2.842l-1.487-2.842H49.283z M48.927,25.778h-4.076l2.039-3.886  L48.927,25.778z M44.761,21.261h1.225l-2.136,4.067l-3.252-4.067H44.761z M42.806,25.778H37.22l2.313-4.089L42.806,25.778z   M43.128,20.167h-4.542l2.908-4.009L43.128,20.167z M37.846,7.235l1.496,3.657l-2.068,2.346L37.846,7.235z M37.093,15.096  l2.709-3.073l1.205,2.943l-3.773,5.201h-0.628L37.093,15.096z M29.521,25.778h-4.09l4.394-1.856L29.521,25.778z M30.628,25.778  l0.311-1.882l3.284,1.882H30.628z M31.759,23.104l4.361-1.843h2.398l-2.443,4.314L31.759,23.104z M36.986,26.874h3.021l-2.531,1.925  L36.986,26.874z M37.769,29.953l4.042-3.079h1.357l-1.21,3.368l-3.374,2.911L37.769,29.953z M38.886,34.34l2.313-1.998l-1.652,4.598  L38.886,34.34z M44.331,26.874h1.451h3.501h1.392h2.398h2.558l4.242,11.802l-9.198,9.685h-1.392l-9.194-9.685L44.331,26.874z   M48.395,49.011h-5.17l2.149-3.176L48.395,49.011z M40.51,40.711l4.089,4.309l-2.172,3.223L40.51,40.711z M42.896,50.105h5.883  l-4.559,5.194L42.896,50.105z M43.994,57.709l4.933,9.406h-8.431C42.122,62.319,43.366,59.202,43.994,57.709z M34.573,97.095h-2.396  c0.187-0.82,0.373-1.617,0.56-2.409h3.035L34.573,97.095z M36.318,93.588h-3.315c0.147-0.622,0.297-1.238,0.441-1.85h3.795  L36.318,93.588z M37.783,90.646h-4.067c0.181-0.729,0.362-1.448,0.543-2.155h4.599L37.783,90.646z M39.401,87.395h-4.864  c0.342-1.324,0.679-2.603,1.012-3.836h5.761L39.401,87.395z M41.856,82.462h-6.01c0.388-1.408,0.767-2.767,1.137-4.056h6.893  L41.856,82.462z M44.421,77.309H37.3c0.421-1.448,0.834-2.812,1.233-4.106h7.933L44.421,77.309z M47.012,72.104h-8.137  c0.436-1.392,0.854-2.687,1.256-3.892h8.818L47.012,72.104z M49.283,65.441l-4.432-8.451l0.305-1.097l4.126-4.708h1.392l4.129,4.708  l0.306,1.097l-4.435,8.451H49.283z M51.014,68.213h8.818c0.396,1.205,0.82,2.5,1.25,3.892h-8.134L51.014,68.213z M53.497,73.202  h7.931c0.401,1.295,0.809,2.658,1.232,4.106h-7.121L53.497,73.202z M56.082,78.406h6.896c0.367,1.289,0.752,2.647,1.137,4.056  h-6.013L56.082,78.406z M58.65,83.559h5.764c0.328,1.233,0.667,2.512,1.007,3.836h-4.859L58.65,83.559z M61.104,88.491h4.594  c0.187,0.707,0.361,1.426,0.543,2.155H62.18L61.104,88.491z M62.723,91.738h3.79c0.146,0.611,0.3,1.228,0.446,1.85h-3.314  L62.723,91.738z M65.387,97.095l-1.199-2.409h3.032c0.187,0.792,0.373,1.589,0.565,2.409H65.387z"/><rect x="77.062" y="29.602" width="2.874" height="0.958"/><rect x="77.062" y="28.506" width="2.874" height="0.958"/><rect x="77.062" y="27.41" width="2.874" height="0.958"/><rect x="20.027" y="29.602" width="2.872" height="0.958"/><rect x="20.027" y="28.506" width="2.872" height="0.958"/><rect x="20.027" y="27.41" width="2.872" height="0.958"/><text x="0" y="115" fill="#000000" font-size="5px" font-weight="bold" font-family="'Helvetica Neue', Helvetica, Arial-Unicode, Arial, Sans-serif">Created by Justin Blake</text><text x="0" y="120" fill="#000000" font-size="5px" font-weight="bold" font-family="'Helvetica Neue', Helvetica, Arial-Unicode, Arial, Sans-serif">from the Noun Project</text></svg>