<?xml version="1.0" encoding="utf-8"?>
<!-- Generator: Adobe Illustrator 17.0.0, SVG Export Plug-In . SVG Version: 6.00 Build 0)  -->
<!DOCTYPE svg PUBLIC "-//W3C//DTD SVG 1.1//EN" "http://www.w3.org/Graphics/SVG/1.1/DTD/svg11.dtd">
<svg version="1.1" id="Слой_2" xmlns="http://www.w3.org/2000/svg" xmlns:xlink="http://www.w3.org/1999/xlink" x="0px" y="0px"
	 width="160px" height="160px" viewBox="0 0 160 160" enable-background="new 0 0 160 160" xml:space="preserve">
<line fill="none" stroke="#2980B9" stroke-width="7" stroke-miterlimit="10" x1="3.878" y1="36.17" x2="3.878" y2="112.248"/>
<g>
	<path fill="#2C3E50" d="M41.776,64.318V57.8c0-1.755,0.035-3.319,0.104-4.432l-5.892,10.949h-1.025V52.43h0.817v6.535
		c0,1.686-0.052,3.406-0.104,4.432l5.909-10.967h1.008v11.888H41.776z"/>
	<path fill="#2C3E50" d="M47.335,59.956v4.362h-0.8v-9.072h0.8v4.015h4.762v-4.015h0.8v9.072h-0.8v-4.362H47.335z"/>
	<path fill="#2C3E50" d="M62.503,55.958l-0.417,0.556c-0.574-0.486-1.182-0.747-2.034-0.747c-1.738,0-2.972,1.355-2.972,4.067
		c0,2.676,1.216,3.962,2.955,3.962c0.869,0,1.512-0.295,2.12-0.817l0.417,0.556c-0.678,0.608-1.53,0.974-2.538,0.974
		c-2.294,0-3.806-1.721-3.806-4.675c0-2.92,1.495-4.762,3.789-4.762C61.008,55.072,61.756,55.333,62.503,55.958z"/>
	<path fill="#2C3E50" d="M68.489,55.958v8.36h-0.8v-8.36h-3.163v-0.712h7.126l-0.104,0.712H68.489z"/>
	<path fill="#2C3E50" d="M79.909,64.318v-6.152c0-0.852,0.052-1.512,0.087-1.981l-4.779,8.134h-0.938v-9.072h0.799v5.77
		c0,0.834-0.034,1.651-0.069,2.346l4.745-8.116h0.956v9.072H79.909z"/>
	<path fill="#2C3E50" d="M87.314,55.958v8.36h-0.8v-8.36h-3.163v-0.712h7.126l-0.104,0.712H87.314z"/>
	<path fill="#2C3E50" d="M96.543,64.353c-0.678,1.981-1.408,2.972-3.511,3.458l-0.104-0.625c1.825-0.487,2.242-1.217,2.851-2.868
		h-0.296l-3.18-9.072h0.868l2.868,8.481l2.78-8.481h0.869L96.543,64.353z"/>
	<path fill="#2C3E50" d="M105.494,55.958v8.36h-0.8v-8.36h-3.163v-0.712h7.126l-0.104,0.712H105.494z"/>
	<path fill="#2C3E50" d="M35.676,70.844v8.377h-0.8v-9.072h6.309v9.072h-0.799v-8.377H35.676z"/>
	<path fill="#2C3E50" d="M51.949,74.633c0,2.902-1.182,4.779-3.407,4.779c-1.182,0-2.103-0.591-2.659-1.321v4.519l-0.8,0.14V70.148
		h0.695l0.052,1.373c0.66-0.921,1.616-1.547,2.833-1.547C50.836,69.975,51.949,71.678,51.949,74.633z M51.097,74.633
		c0-2.659-0.869-3.98-2.538-3.98c-1.216,0-1.999,0.678-2.676,1.599v4.988c0.591,0.887,1.442,1.46,2.537,1.46
		C50.159,78.699,51.097,77.309,51.097,74.633z"/>
	<path fill="#2C3E50" d="M60.973,79.221v-6.152c0-0.852,0.052-1.512,0.087-1.981l-4.78,8.134h-0.938v-9.072h0.8v5.771
		c0,0.834-0.035,1.65-0.07,2.346l4.745-8.116h0.956v9.072H60.973z"/>
	<path fill="#2C3E50" d="M71.928,79.221H70.99l-3.094-4.501h-1.425v4.501h-0.8v-9.072h0.8v3.928h1.442l2.659-3.928h0.887
		l-2.886,4.206L71.928,79.221z"/>
	<path fill="#2C3E50" d="M81.214,79.221h-0.798v-8.412h-3.771l-0.261,3.51c-0.296,3.685-0.435,4.502-2.033,5.04l-0.227-0.66
		c1.112-0.382,1.182-1.008,1.46-4.449l0.33-4.102h5.3V79.221z"/>
	<path fill="#2C3E50" d="M90.642,77.257c0,1.077,0.261,1.391,0.765,1.581l-0.191,0.574c-0.747-0.191-1.182-0.608-1.269-1.6
		c-0.66,1.061-1.616,1.6-2.868,1.6c-1.737,0-2.78-1.095-2.78-2.712c0-1.877,1.442-2.919,3.685-2.919h1.859v-0.938
		c0-1.478-0.591-2.173-2.173-2.173c-0.765,0-1.581,0.191-2.468,0.539l-0.226-0.644c0.974-0.382,1.842-0.591,2.764-0.591
		c2.016,0,2.902,0.991,2.902,2.815V77.257z M89.842,77.014v-2.59h-1.738c-1.859,0-2.954,0.73-2.954,2.26
		c0,1.303,0.765,2.051,2.033,2.051C88.417,78.734,89.269,78.108,89.842,77.014z"/>
	<path fill="#2C3E50" d="M101.987,81.706h-0.626l-0.208-2.485h-6.674l-0.209,2.485h-0.625v-3.181h0.556
		c0.817-0.573,1.304-1.077,1.564-4.831l0.243-3.546h5.145v8.377h0.834V81.706z M96.773,70.844l-0.191,2.746
		c-0.243,3.615-0.695,4.38-1.581,4.936h5.335v-7.682H96.773z"/>
	<path fill="#2C3E50" d="M105.99,74.858v4.362h-0.799v-9.072h0.799v4.015h4.763v-4.015h0.799v9.072h-0.799v-4.362H105.99z"/>
	<path fill="#2C3E50" d="M122.409,74.649c0,2.973-1.442,4.763-3.771,4.763c-2.347,0-3.755-1.79-3.755-4.71
		c0-2.955,1.46-4.728,3.771-4.728C121.002,69.975,122.409,71.66,122.409,74.649z M115.719,74.702c0,2.606,1.095,4.015,2.92,4.015
		c1.807,0,2.937-1.391,2.937-4.067c0-2.624-1.077-3.979-2.92-3.979C116.865,70.67,115.719,72.025,115.719,74.702z"/>
	<path fill="#2C3E50" d="M131.373,79.221v-6.152c0-0.852,0.052-1.512,0.087-1.981l-4.779,8.134h-0.938v-9.072h0.799v5.771
		c0,0.834-0.034,1.65-0.069,2.346l4.745-8.116h0.956v9.072H131.373z M126.819,66.342l0.557-0.122
		c0.226,0.625,0.765,0.904,1.581,0.904c0.817,0,1.355-0.278,1.582-0.904l0.556,0.122c-0.156,0.904-1.008,1.477-2.138,1.477
		C127.81,67.819,126.976,67.246,126.819,66.342z"/>
	<path fill="#2C3E50" d="M42.314,94.124l-0.469-5.648c-0.087-0.974-0.122-1.755-0.156-2.572l-2.694,7.057H38.23l-2.659-7.057
		c-0.018,0.747-0.052,1.599-0.139,2.572l-0.452,5.648h-0.782l0.799-9.072h1.008l2.607,7.091l2.676-7.091h1.025l0.8,9.072H42.314z"/>
	<path fill="#2C3E50" d="M52.879,89.936h-6.152c0.122,2.572,1.338,3.667,2.972,3.667c1.025,0,1.686-0.313,2.468-0.921l0.4,0.521
		c-0.834,0.695-1.703,1.112-2.902,1.112c-2.329,0-3.771-1.738-3.771-4.658s1.39-4.779,3.563-4.779c2.312,0,3.459,1.721,3.459,4.345
		C52.915,89.501,52.897,89.762,52.879,89.936z M52.132,88.962c0-2.033-0.834-3.406-2.642-3.406c-1.495,0-2.677,1.112-2.764,3.736
		h5.405V88.962z"/>
	<path fill="#2C3E50" d="M61.233,94.124l-2.764-4.345l-2.746,4.345h-0.921L58,89.292l-2.781-4.24h0.938l2.347,3.736l2.346-3.736
		h0.921l-2.798,4.206l3.215,4.866H61.233z"/>
	<path fill="#2C3E50" d="M70.35,92.16c0,1.077,0.261,1.391,0.765,1.581l-0.191,0.574c-0.747-0.191-1.182-0.608-1.269-1.6
		c-0.66,1.061-1.616,1.6-2.868,1.6c-1.738,0-2.781-1.095-2.781-2.712c0-1.877,1.442-2.919,3.685-2.919h1.859v-0.938
		c0-1.478-0.591-2.173-2.173-2.173c-0.764,0-1.581,0.191-2.468,0.539l-0.226-0.644c0.973-0.382,1.842-0.591,2.764-0.591
		c2.016,0,2.902,0.99,2.902,2.815V92.16z M69.55,91.917v-2.59h-1.738c-1.859,0-2.954,0.73-2.954,2.26
		c0,1.303,0.765,2.051,2.033,2.051C68.125,93.638,68.977,93.012,69.55,91.917z"/>
	<path fill="#2C3E50" d="M75.076,89.762v4.362h-0.799v-9.072h0.799v4.015h4.763v-4.015h0.798v9.072h-0.798v-4.362H75.076z"/>
	<path fill="#2C3E50" d="M90.167,94.124v-6.152c0-0.852,0.052-1.512,0.087-1.981l-4.779,8.134h-0.938v-9.072h0.799v5.771
		c0,0.834-0.034,1.65-0.069,2.346l4.745-8.116h0.955v9.072H90.167z"/>
	<path fill="#2C3E50" d="M101.122,94.124h-0.939l-3.093-4.501h-1.426v4.501h-0.799v-9.072h0.799v3.928h1.442l2.659-3.928h0.887
		l-2.885,4.206L101.122,94.124z"/>
	<path fill="#2C3E50" d="M109.508,94.124v-6.152c0-0.852,0.052-1.512,0.087-1.981l-4.779,8.134h-0.938v-9.072h0.799v5.771
		c0,0.834-0.034,1.65-0.069,2.346l4.745-8.116h0.956v9.072H109.508z"/>
</g>
</svg>
