<?xml version="1.0" encoding="utf-8"?>
<!-- Generator: Adobe Illustrator 16.0.0, SVG Export Plug-In . SVG Version: 6.00 Build 0)  -->
<!DOCTYPE svg PUBLIC "-//W3C//DTD SVG 1.1//EN" "http://www.w3.org/Graphics/SVG/1.1/DTD/svg11.dtd">
<svg version="1.1" id="Layer_1" xmlns="http://www.w3.org/2000/svg" xmlns:xlink="http://www.w3.org/1999/xlink" x="0px" y="0px"
	 width="300px" height="200px" viewBox="0 0 300 200" enable-background="new 0 0 300 200" xml:space="preserve">
<rect fill="#27AE60" width="300" height="200"/>
<path fill="#F1C40F" d="M159.372,108.972l10.622-41.999h22.468L170.5,57.692l-2.385-25.023l-10.143,24.806l-16.084-0.024
	l-10.123-24.782l-2.4,25.087l-21.945,9.216h22.468l10.623,41.998c-1.197,2.722-9.194,21.552-17.577,58.289l-0.217,0.956h6.312
	l20.913-42.013l20.907,42.013h6.319l-0.217-0.956C168.566,130.523,160.568,111.692,159.372,108.972z M163.403,124.099h-11.966
	l7.003-13.353C159.324,112.865,161.099,117.29,163.403,124.099z M158.118,107.324l-6.472-7.373h8.343L158.118,107.324z
	 M152.193,98.398l4.288-4.508l3.043,4.508H152.193z M160.665,97.308l-3.092-4.575l5.813-6.117L160.665,97.308z M164.743,81.263
	l-2.344-6.527l3.291,2.836L164.743,81.263z M166.116,75.887l-4.785-4.132l-1.718-4.781h1.919l5.742,4.371L166.116,75.887z
	 M160.118,65.417l4.647-5.805l3.284,5.805H160.118z M167.69,69.706l-3.589-2.732h4.28L167.69,69.706z M184.794,65.417h-5.813
	l-0.435-2.635L184.794,65.417z M177.415,65.417h-5.108l4.667-2.671L177.415,65.417z M175.81,61.621l-6.136,3.509l-3.461-6.124h3.404
	L175.81,61.621z M167.16,39.094l0.818,8.522l-2.938-3.331L167.16,39.094z M164.381,45.891l3.848,4.363l0.69,7.198h-0.884
	l-5.355-7.383L164.381,45.891z M161.989,51.761l4.127,5.691h-6.454L161.989,51.761z M157.348,59.005h5.91l-4.617,5.773l-3.036-5.773
	H157.348z M157.22,65.417h-5.79l2.898-5.517L157.22,65.417z M150.924,59.005h2.121l-2.121,4.034V59.005z M148.949,59.005v4.034
	l-2.111-4.034H148.949z M148.444,65.417h-5.786l2.895-5.517L148.444,65.417z M142.53,59.005h1.739l-3.032,5.773l-4.617-5.773H142.53
	z M139.754,65.417h-7.93l3.284-5.805L139.754,65.417z M140.212,57.452h-6.448l4.128-5.691L140.212,57.452z M132.714,39.094
	l2.124,5.191l-2.936,3.331L132.714,39.094z M131.645,50.253l3.846-4.363l1.71,4.178l-5.356,7.383h-0.892L131.645,50.253z
	 M120.896,65.417h-5.806l6.238-2.635L120.896,65.417z M122.467,65.417l0.441-2.671l4.662,2.671H122.467z M124.073,61.621l6.19-2.616
	h3.404l-3.468,6.124L124.073,61.621z M131.493,66.973h4.289l-3.593,2.732L131.493,66.973z M132.604,71.344l5.738-4.371h1.926
	l-1.718,4.781l-4.79,4.132L132.604,71.344z M134.19,77.572l3.284-2.836l-2.345,6.527L134.19,77.572z M141.919,66.973h2.06h4.97
	h1.977h3.404h3.631l6.021,16.754l-13.057,13.749h-1.977l-13.052-13.749L141.919,66.973z M147.688,98.398h-7.339l3.051-4.508
	L147.688,98.398z M136.495,86.616l5.805,6.117l-3.083,4.575L136.495,86.616z M139.882,99.951h8.352l-6.472,7.373L139.882,99.951z
	 M141.441,110.746l7.003,13.353h-11.968C138.784,117.29,140.549,112.865,141.441,110.746z M128.067,166.657h-3.401
	c0.266-1.164,0.529-2.296,0.795-3.42h4.308L128.067,166.657z M130.544,161.679h-4.706c0.209-0.883,0.422-1.758,0.626-2.626h5.387
	L130.544,161.679z M132.624,157.503h-5.773c0.257-1.035,0.514-2.056,0.771-3.06h6.529L132.624,157.503z M134.921,152.888h-6.905
	c0.485-1.88,0.964-3.695,1.437-5.446h8.178L134.921,152.888z M138.406,145.885h-8.531c0.551-1.999,1.089-3.929,1.614-5.758h9.785
	L138.406,145.885z M142.047,138.569h-10.109c0.598-2.055,1.184-3.991,1.75-5.828h11.261L142.047,138.569z M145.726,131.181h-11.551
	c0.619-1.977,1.212-3.814,1.783-5.525h12.518L145.726,131.181z M148.949,121.722l-6.292-11.996l0.433-1.558l5.857-6.684h1.976
	l5.861,6.684l0.435,1.558l-6.296,11.996H148.949z M151.406,125.657h12.519c0.562,1.711,1.163,3.549,1.774,5.525h-11.547
	L151.406,125.657z M154.932,132.739h11.259c0.569,1.839,1.148,3.773,1.748,5.829H157.83L154.932,132.739z M158.602,140.127h9.789
	c0.521,1.829,1.067,3.757,1.614,5.758h-8.536L158.602,140.127z M162.246,147.441h8.183c0.466,1.751,0.947,3.566,1.43,5.446h-6.897
	L162.246,147.441z M165.73,154.443h6.521c0.266,1.004,0.512,2.024,0.771,3.06h-5.765L165.73,154.443z M168.028,159.053h5.381
	c0.207,0.867,0.426,1.743,0.633,2.626h-4.705L168.028,159.053z M171.811,166.657l-1.702-3.42h4.304
	c0.266,1.124,0.529,2.256,0.803,3.42H171.811z"/>
</svg>
