<?xml version="1.0" encoding="utf-8"?>
<!-- Generator: Adobe Illustrator 16.0.0, SVG Export Plug-In . SVG Version: 6.00 Build 0)  -->
<svg version="1.2" baseProfile="tiny" xmlns="http://www.w3.org/2000/svg" xmlns:xlink="http://www.w3.org/1999/xlink" x="0px"
	 y="0px" width="566.929px" height="566.929px" viewBox="0 0 566.929 566.929" xml:space="preserve">
<g id="Layer_1" display="none">
	
		<image display="inline" opacity="0.4" width="9921" height="7016" xlink:href="4D2F83BF.jpg"  transform="matrix(0.0684 0 0 0.0684 -57.5322 42.1079)">
	</image>
</g>
<g id="Layer_2">
	<path d="M131.857,398.565h-0.538c0-35.207,6.896-69.359,20.495-101.512c13.135-31.054,31.939-58.943,55.889-82.894
		c23.951-23.95,51.84-42.754,82.894-55.889c32.152-13.599,66.305-20.495,101.512-20.495h47.485v0.538h-47.485
		C248.605,138.313,131.857,255.063,131.857,398.565z"/>
	<g>
		<image width="2229" height="2220" xlink:href="4D2F83BD.png"  transform="matrix(0.24 0 0 0.24 8.3867 14.8433)">
		</image>
		<path d="M490.398,547.703H322.539v-61.601H8.118v-87.537c0-51.838,10.153-102.127,30.176-149.467
			c19.34-45.726,47.027-86.791,82.292-122.056s76.33-62.952,122.056-82.292c47.34-20.023,97.629-30.176,149.467-30.176h126.038
			v316.347h25.348v162.724l-0.077,0.078L490.398,547.703z M323.078,547.165h167.096l52.782-53.741V331.459h-25.348V15.112h-125.5
			c-211.437,0-383.453,172.017-383.453,383.453v87h314.422V547.165z M486.546,534.015H334.73v-56.896H18.385v-78.553
			c0-50.452,9.881-99.396,29.369-145.471c18.823-44.502,45.77-84.47,80.091-118.793c34.323-34.321,74.291-61.269,118.793-80.091
			c46.074-19.489,95.018-29.369,145.47-29.369h115.771V338.62h20.854v153.208L486.546,534.015z M335.269,533.477h151.055
			l41.872-41.871V339.16h-20.854V25.379H392.108c-205.775,0-373.186,167.411-373.186,373.187v78.015h316.346V533.477z"/>
	</g>
	<g>
		<image width="1319" height="328" xlink:href="4D2F83C3.png"  transform="matrix(0.24 0 0 0.24 18.6533 398.3574)">
		</image>
		<path d="M335.269,477.118H18.385v-78.82h0.269l316.615-0.209V477.118z M18.922,476.58H334.73v-77.953l-315.808,0.209V476.58z"/>
	</g>
	<path d="M486.546,534.015H334.73V398.247l0.077-0.077l58.472-59.55h135.454v153.208L486.546,534.015z M335.269,533.477h151.055
		l41.872-41.871V339.16H393.504l-58.235,59.309V533.477z"/>
	<rect x="439.324" y="247.13" width="0.537" height="91.759"/>
	<g>
		<rect x="392.108" y="138.044" fill="#F29C1F" width="47.485" height="109.086"/>
		<path d="M439.861,247.399h-48.021V137.776h48.021V247.399z M392.379,246.861h46.945V138.313h-46.945V246.861z"/>
	</g>
	<g>
		<rect x="439.594" y="25.11" fill="#C03A2B" width="29.517" height="49.409"/>
		<path d="M469.379,74.788h-30.055V24.841h30.055V74.788z M439.861,74.25h28.979V25.379h-28.979V74.25z"/>
	</g>
	<g>
		<rect x="460.769" y="74.519" fill="#7F8C8D" width="46.842" height="102.026"/>
		<path d="M507.879,176.814h-47.38V74.25h47.38V176.814z M461.037,176.276h46.304V74.788h-46.304V176.276z"/>
	</g>
	<g>
		<path fill="#24AE5F" d="M196.094,184.072c0,0-14.29,13.429-23.77,24.427c-9.48,10.997-22.351,29.391-22.351,29.391l-67.438-48.277
			c0,0,19.697-28.308,27.921-36.292c6.615-8.298,32.59-33.035,32.59-33.035L196.094,184.072z"/>
		<path d="M150.037,238.267l-0.221-0.158l-67.654-48.431l0.152-0.218c0.197-0.283,19.806-28.421,27.954-36.331
			c6.528-8.192,32.332-32.789,32.592-33.037l0.208-0.198l0.185,0.221l53.209,63.979l-0.184,0.173
			c-0.143,0.135-14.389,13.546-23.751,24.406c-9.362,10.861-22.205,29.187-22.334,29.371L150.037,238.267z M82.907,189.55
			l67.001,47.963c1.499-2.13,13.392-18.959,22.21-29.19c8.802-10.209,21.902-22.662,23.606-24.272l-52.702-63.369
			c-2.478,2.365-26.143,25.011-32.358,32.808C102.913,161.021,84.76,186.897,82.907,189.55z"/>
	</g>
	<g>
		<polygon fill="#7F8C8D" points="39.968,273.902 118.778,299.757 109.507,330.729 27.319,318.215 		"/>
		<path d="M109.697,331.031l-0.231-0.035l-82.489-12.562l0.083-0.293l12.726-44.582l79.325,26.022l-0.076,0.252L109.697,331.031z
			 M27.662,317.996l81.654,12.432l9.129-30.497L40.15,274.245L27.662,317.996z"/>
	</g>
	<rect x="212.944" y="198.92" transform="matrix(0.7072 0.707 -0.707 0.7072 205.015 -95.0154)" width="8.54" height="2.152"/>
	<rect x="197.684" y="183.272" transform="matrix(0.7071 0.7071 -0.7071 0.7071 189.4936 -88.8079)" width="8.539" height="2.152"/>
	<rect x="165.46" y="254.41" transform="matrix(0.8301 0.5576 -0.5576 0.8301 171.2799 -51.2366)" width="8.539" height="2.152"/>
	<rect x="147.47" y="241.996" transform="matrix(0.8302 0.5575 -0.5575 0.8302 161.2933 -43.3156)" width="8.54" height="2.152"/>
	<g>
		<polygon fill="#3B97D3" points="260.032,48.69 286.878,127.571 256.277,141.638 219.752,67.176 		"/>
		<path d="M256.152,141.993l-0.116-0.236L219.39,67.047l40.801-18.726l0.096,0.283l26.923,79.111L256.152,141.993z M220.116,67.305
			l36.289,73.979l30.139-13.856l-26.669-78.369L220.116,67.305z"/>
	</g>
	<path d="M392.379,175.103h-37.172l-0.083-0.083c-0.531-0.543-0.558-13.122-0.072-34.511l0.005-0.216l0.213-0.042
		c10.988-2.129,36.579-2.471,36.836-2.474l0.273-0.003V175.103z M355.517,174.564h36.324v-36.247
		c-2.771,0.043-25.821,0.454-36.257,2.42C354.946,169.042,355.376,173.784,355.517,174.564z"/>
	<path d="M240.353,268.686l-43.365-43.34l20.926-20.926l43.353,43.353L240.353,268.686z M197.748,225.346l42.604,42.579
		l20.153-20.153l-42.592-42.592L197.748,225.346z"/>
	<g>
		<image width="198" height="383" xlink:href="4D2F83C5.png"  transform="matrix(0.24 0 0 0.24 392.1084 247.1304)">
		</image>
		<path d="M439.861,339.16h-48.021v-92.299h48.021V339.16z M392.379,338.62h46.945v-91.221h-46.945V338.62z"/>
	</g>
	<g>
		<image width="196" height="677" xlink:href="4D2F83C7.png"  transform="matrix(0.24 0 0 0.24 460.7686 176.5454)">
		</image>
		<path d="M507.879,339.16h-47.38V176.276h47.38V339.16z M461.037,338.62h46.304V176.814h-46.304V338.62z"/>
	</g>
	<g>
		<path d="M371.063,155.567l1.539,4.281h0.107l1.094-5.975h1.123l-1.51,7.7h-1.369l-1.479-4.25h-0.045l-1.542,4.25h-1.37l-1.617-7.7
			h1.187l1.246,6.006h0.093l1.495-4.312H371.063z"/>
		<path d="M381.934,155.059c-0.236-0.083-0.489-0.151-0.762-0.208c-0.273-0.056-0.542-0.085-0.81-0.085
			c-1.006,0-1.756,0.237-2.248,0.711c-0.493,0.473-0.739,1.224-0.739,2.253c0,0.453,0.071,0.857,0.216,1.212
			c0.144,0.356,0.35,0.656,0.615,0.903c0.269,0.247,0.589,0.438,0.964,0.572c0.375,0.133,0.787,0.201,1.239,0.201
			c0.481,0,0.952-0.083,1.408-0.25c0.457-0.167,0.839-0.387,1.147-0.659l0.539,0.894c-0.143,0.123-0.322,0.251-0.539,0.385
			c-0.214,0.133-0.465,0.26-0.746,0.377c-0.282,0.118-0.595,0.213-0.94,0.285c-0.343,0.071-0.715,0.108-1.115,0.108
			c-0.667,0-1.257-0.096-1.763-0.285c-0.509-0.189-0.934-0.462-1.271-0.816s-0.596-0.78-0.77-1.278
			c-0.175-0.498-0.263-1.05-0.263-1.656c0-0.647,0.091-1.222,0.27-1.725c0.18-0.503,0.44-0.924,0.777-1.263
			c0.341-0.339,0.75-0.597,1.232-0.778c0.483-0.179,1.022-0.269,1.618-0.269c0.76,0,1.377,0.066,1.855,0.2
			c0.477,0.133,0.879,0.282,1.209,0.447l-0.017,0.046v2.14h-1.108V155.059z"/>
	</g>
	<g>
		<path d="M224.08,234.451l1.541,4.281h0.108l1.092-5.975h1.125l-1.51,7.7h-1.371l-1.478-4.25h-0.047l-1.54,4.25h-1.371l-1.617-7.7
			h1.186l1.248,6.006h0.092l1.494-4.312H224.08z"/>
		<path d="M234.953,233.943c-0.236-0.083-0.491-0.151-0.762-0.208c-0.272-0.057-0.542-0.085-0.809-0.085
			c-1.006,0-1.756,0.237-2.249,0.711c-0.493,0.473-0.739,1.225-0.739,2.254c0,0.453,0.071,0.857,0.215,1.212
			c0.144,0.356,0.35,0.657,0.617,0.903c0.267,0.247,0.587,0.437,0.962,0.572c0.375,0.133,0.787,0.2,1.24,0.2
			c0.482,0,0.952-0.083,1.409-0.25c0.457-0.167,0.839-0.386,1.147-0.659l0.539,0.894c-0.144,0.123-0.323,0.251-0.539,0.385
			c-0.216,0.133-0.465,0.26-0.747,0.377c-0.283,0.118-0.596,0.213-0.939,0.285c-0.344,0.072-0.716,0.108-1.116,0.108
			c-0.668,0-1.255-0.094-1.764-0.285c-0.509-0.189-0.932-0.462-1.271-0.816c-0.338-0.354-0.595-0.78-0.77-1.278
			c-0.174-0.498-0.262-1.05-0.262-1.656c0-0.647,0.09-1.222,0.27-1.725c0.179-0.502,0.439-0.923,0.778-1.262
			c0.339-0.339,0.749-0.597,1.231-0.778c0.483-0.179,1.022-0.27,1.617-0.27c0.76,0,1.379,0.068,1.856,0.201
			c0.477,0.134,0.88,0.282,1.21,0.447l-0.017,0.046v2.141h-1.108V233.943z"/>
	</g>
	<rect x="392.108" y="129.703" width="2.151" height="8.341"/>
	<rect x="392.108" y="107.94" width="2.151" height="8.341"/>
	<rect x="437.535" y="129.703" width="2.151" height="8.341"/>
	<rect x="437.535" y="107.94" width="2.151" height="8.341"/>
	<g>
		<path d="M522.719,526.062c0.193-0.009,0.39-0.022,0.584-0.038c0.195-0.016,0.406-0.028,0.633-0.038
			c0.226-0.011,0.47-0.02,0.73-0.03c0.263-0.012,0.556-0.017,0.887-0.017c1.107,0,1.908,0.156,2.4,0.469
			c0.494,0.315,0.74,0.784,0.74,1.41c0,0.36-0.119,0.716-0.354,1.071c-0.236,0.354-0.622,0.608-1.155,0.762v0.063
			c0.678,0.112,1.155,0.319,1.433,0.623c0.276,0.303,0.415,0.715,0.415,1.238c0,0.803-0.325,1.382-0.977,1.742
			c-0.652,0.359-1.601,0.539-2.843,0.539c-0.492,0-0.934-0.014-1.323-0.04c-0.391-0.025-0.78-0.053-1.17-0.085V526.062z
			 M525.736,529.295c0.205,0,0.411-0.031,0.615-0.099c0.206-0.067,0.393-0.154,0.563-0.263c0.169-0.107,0.305-0.236,0.407-0.386
			c0.103-0.147,0.154-0.305,0.154-0.47c0-0.419-0.152-0.713-0.455-0.876c-0.303-0.164-0.809-0.246-1.517-0.246
			c-0.391,0-0.7,0.005-0.932,0.015c-0.23,0.011-0.454,0.021-0.671,0.03v2.294H525.736z M523.902,532.777
			c0.237,0.02,0.475,0.035,0.711,0.045c0.239,0.012,0.507,0.017,0.805,0.017c0.805,0,1.404-0.102,1.803-0.301
			c0.396-0.2,0.594-0.548,0.594-1.04c0-0.193-0.038-0.37-0.115-0.523c-0.077-0.154-0.206-0.288-0.386-0.4
			c-0.183-0.113-0.416-0.201-0.704-0.261c-0.288-0.062-0.65-0.094-1.083-0.094h-1.624V532.777z"/>
		<path d="M533.408,529.805l-2.973-3.757h1.54l2.218,2.895l2.279-2.895h1.386l-2.973,3.694l3.156,4.006h-1.478l-2.449-3.159
			l-2.495,3.159h-1.4L533.408,529.805z"/>
		<path d="M538.942,529.896c0-1.241,0.323-2.225,0.972-2.949c0.645-0.724,1.569-1.086,2.771-1.086c0.647,0,1.205,0.106,1.671,0.315
			c0.468,0.211,0.855,0.497,1.163,0.856c0.308,0.358,0.536,0.784,0.685,1.276c0.149,0.494,0.225,1.023,0.225,1.587
			c0,0.616-0.083,1.172-0.247,1.671c-0.163,0.499-0.405,0.922-0.725,1.271c-0.318,0.349-0.71,0.618-1.177,0.808
			c-0.468,0.19-0.998,0.285-1.595,0.285c-0.636,0-1.192-0.105-1.663-0.315c-0.472-0.211-0.862-0.496-1.17-0.854
			c-0.309-0.359-0.537-0.787-0.686-1.279C539.017,530.989,538.942,530.461,538.942,529.896z M540.222,529.896
			c0,0.36,0.042,0.719,0.13,1.078s0.227,0.683,0.422,0.971c0.194,0.288,0.448,0.52,0.76,0.693c0.313,0.174,0.693,0.261,1.145,0.261
			c0.819,0,1.436-0.254,1.849-0.764c0.416-0.506,0.622-1.253,0.622-2.239c0-0.37-0.042-0.73-0.129-1.085
			c-0.089-0.355-0.231-0.676-0.431-0.964c-0.2-0.285-0.456-0.518-0.768-0.692c-0.313-0.174-0.693-0.261-1.144-0.261
			c-0.82,0-1.434,0.25-1.843,0.754C540.425,528.151,540.222,528.9,540.222,529.896z"/>
		<path d="M555.748,535.596H554.7v-1.848h-6.19v1.848h-1.047v-2.896h0.862c0.093-0.113,0.216-0.314,0.37-0.608
			c0.153-0.292,0.303-0.702,0.447-1.231c0.143-0.528,0.271-1.187,0.384-1.971c0.113-0.786,0.18-1.733,0.2-2.841h4.836v6.651h1.186
			V535.596z M553.347,532.715v-5.637h-2.542c-0.02,0.442-0.058,0.919-0.114,1.433c-0.056,0.514-0.135,1.022-0.235,1.532
			c-0.103,0.509-0.226,0.993-0.373,1.455c-0.146,0.462-0.315,0.867-0.51,1.217H553.347z"/>
	</g>
	<rect x="181.251" y="194.457" transform="matrix(0.7868 0.6173 -0.6173 0.7868 159.5799 -72.475)" width="6.868" height="0.538"/>
	<rect x="269.278" y="133.605" transform="matrix(0.4358 0.9 -0.9 0.4358 274.3567 -169.9206)" width="6.867" height="0.539"/>
	<rect x="111.975" y="310.26" transform="matrix(0.9815 0.1917 -0.1917 0.9815 61.6724 -16.3652)" width="6.867" height="0.538"/>
	<rect x="415.582" y="134.611" width="0.538" height="6.868"/>
	<rect x="457.335" y="89.33" width="6.866" height="0.538"/>
	<rect x="465.312" y="71.085" width="0.538" height="6.867"/>
	<g>
		<path fill="#FFFFFF" d="M120.973,176.584h-3.464l-0.822,2.505h-1.072l3.021-9.038h1.265l3.047,9.038h-1.123L120.973,176.584z
			 M117.842,175.655h2.834l-1.33-4.248h-0.155L117.842,175.655z"/>
		<path fill="#FFFFFF" d="M126.094,176.17h-0.71v2.918h-0.994v-6.456h0.994v2.763h0.71l2.543-2.763h1.214l-2.854,3.06l2.351,2.53
			h0.839v0.865h-1.33L126.094,176.17z"/>
		<path fill="#FFFFFF" d="M131.252,172.633h6.417v2.415h-0.878v-1.537h-1.82v4.712h1.563v0.865h-4.197v-0.865h1.614v-4.712h-1.821
			v1.537h-0.878V172.633z"/>
		<path fill="#FFFFFF" d="M138.981,175.861c0-1.041,0.271-1.866,0.813-2.473c0.542-0.606,1.317-0.91,2.324-0.91
			c0.542,0,1.009,0.088,1.401,0.265c0.392,0.176,0.716,0.415,0.975,0.716c0.258,0.302,0.45,0.659,0.574,1.072
			c0.125,0.413,0.188,0.857,0.188,1.33c0,0.517-0.069,0.984-0.206,1.401c-0.138,0.418-0.34,0.772-0.607,1.065
			c-0.267,0.292-0.596,0.518-0.988,0.678c-0.391,0.159-0.837,0.239-1.336,0.239c-0.534,0-0.999-0.089-1.394-0.265
			c-0.396-0.177-0.724-0.415-0.981-0.717c-0.259-0.301-0.45-0.658-0.575-1.072C139.043,176.777,138.981,176.335,138.981,175.861z
			 M140.053,175.861c0,0.302,0.036,0.603,0.109,0.904c0.073,0.302,0.19,0.573,0.354,0.813c0.163,0.24,0.375,0.435,0.637,0.581
			c0.261,0.146,0.582,0.219,0.959,0.219c0.686,0,1.203-0.212,1.55-0.639c0.348-0.426,0.521-1.052,0.521-1.878
			c0-0.31-0.037-0.613-0.11-0.911c-0.073-0.296-0.193-0.565-0.36-0.807c-0.168-0.241-0.382-0.435-0.644-0.581
			c-0.262-0.146-0.582-0.219-0.958-0.219c-0.687,0-1.202,0.211-1.545,0.633S140.053,175.026,140.053,175.861z"/>
		<path fill="#FFFFFF" d="M147.18,172.646c0.164-0.009,0.328-0.019,0.491-0.033c0.164-0.012,0.34-0.023,0.53-0.032
			c0.189-0.008,0.394-0.017,0.613-0.025c0.22-0.01,0.467-0.014,0.743-0.014c0.93,0,1.602,0.132,2.014,0.395
			c0.413,0.263,0.621,0.656,0.621,1.181c0,0.301-0.1,0.6-0.298,0.897c-0.198,0.297-0.521,0.51-0.969,0.64v0.051
			c0.568,0.095,0.969,0.269,1.202,0.523c0.232,0.253,0.348,0.601,0.348,1.04c0,0.672-0.273,1.157-0.819,1.458
			c-0.547,0.302-1.341,0.452-2.383,0.452c-0.413,0-0.783-0.011-1.11-0.032c-0.327-0.021-0.654-0.045-0.981-0.072V172.646z
			 M149.711,175.357c0.172,0,0.344-0.028,0.516-0.083c0.173-0.057,0.33-0.13,0.472-0.22c0.141-0.09,0.255-0.198,0.341-0.322
			c0.087-0.126,0.13-0.257,0.13-0.395c0-0.353-0.127-0.598-0.381-0.735c-0.254-0.138-0.678-0.206-1.272-0.206
			c-0.327,0-0.588,0.004-0.781,0.013c-0.194,0.008-0.381,0.017-0.562,0.026v1.923H149.711z M148.174,178.275
			c0.2,0.018,0.398,0.03,0.597,0.038c0.198,0.01,0.423,0.014,0.675,0.014c0.673,0,1.177-0.084,1.509-0.252
			c0.333-0.167,0.499-0.458,0.499-0.872c0-0.163-0.033-0.31-0.097-0.439c-0.065-0.129-0.173-0.24-0.325-0.336
			c-0.151-0.094-0.348-0.167-0.589-0.219c-0.243-0.052-0.544-0.078-0.908-0.078h-1.361V178.275z"/>
		<path fill="#FFFFFF" d="M155.03,175.099c0.207-0.035,0.406-0.058,0.596-0.071c0.19-0.013,0.371-0.019,0.544-0.019
			c0.44,0,0.81,0.049,1.108,0.149c0.298,0.098,0.538,0.234,0.72,0.406c0.181,0.172,0.309,0.376,0.382,0.613
			c0.073,0.238,0.11,0.489,0.11,0.756c0,0.784-0.217,1.352-0.652,1.705c-0.435,0.353-1.138,0.529-2.111,0.529
			c-0.551,0-1.123-0.026-1.717-0.078v-6.456h1.021V175.099z M155.03,178.185c0.319,0.051,0.626,0.077,0.921,0.077
			c0.545,0,0.926-0.105,1.142-0.316c0.217-0.211,0.324-0.511,0.324-0.898c0-0.344-0.105-0.628-0.317-0.852
			c-0.212-0.224-0.582-0.336-1.11-0.336c-0.147,0-0.307,0.004-0.48,0.014c-0.173,0.008-0.333,0.033-0.48,0.077V178.185z
			 M159.51,172.633h1.021v6.456h-1.021V172.633z"/>
		<path fill="#FFFFFF" d="M166.867,175.035l0.039-0.853h-0.039l-3.603,4.907h-0.93v-6.456h1.02v4.17l-0.038,0.813h0.05l3.578-4.983
			h0.942v6.456h-1.02V175.035z M164.014,170.025c0.085,0.396,0.234,0.672,0.446,0.827c0.21,0.154,0.454,0.232,0.729,0.232
			c0.275,0,0.521-0.082,0.736-0.245c0.215-0.164,0.362-0.431,0.44-0.801l0.774,0.245c-0.077,0.5-0.299,0.882-0.665,1.149
			c-0.366,0.267-0.803,0.4-1.311,0.4c-0.232,0-0.463-0.03-0.691-0.091c-0.228-0.059-0.432-0.15-0.613-0.271
			c-0.181-0.12-0.336-0.275-0.465-0.465c-0.129-0.189-0.216-0.413-0.258-0.671L164.014,170.025z"/>
		<path fill="#FFFFFF" d="M116.79,188.733l-0.013-0.039c0.146-0.085,0.303-0.169,0.471-0.251c0.168-0.083,0.357-0.155,0.568-0.22
			c0.21-0.065,0.449-0.118,0.716-0.161c0.266-0.044,0.572-0.065,0.917-0.065c0.354,0,0.68,0.037,0.981,0.11
			c0.301,0.074,0.564,0.178,0.788,0.316c0.224,0.139,0.398,0.308,0.523,0.51c0.125,0.203,0.187,0.433,0.187,0.691
			c0,0.138-0.027,0.283-0.084,0.433c-0.056,0.151-0.139,0.295-0.251,0.432c-0.112,0.138-0.246,0.263-0.401,0.375
			s-0.332,0.198-0.53,0.259v0.051c0.569,0.095,0.966,0.275,1.195,0.542c0.228,0.267,0.342,0.62,0.342,1.059
			c0,0.276-0.064,0.53-0.194,0.762c-0.128,0.233-0.32,0.435-0.574,0.607c-0.253,0.172-0.568,0.308-0.942,0.407
			c-0.375,0.099-0.813,0.148-1.312,0.148c-0.369,0-0.705-0.035-1.007-0.103c-0.301-0.069-0.566-0.155-0.794-0.259
			c-0.228-0.104-0.422-0.215-0.581-0.336c-0.159-0.12-0.282-0.232-0.368-0.336l0.518-0.813c0.095,0.104,0.212,0.213,0.35,0.33
			c0.138,0.116,0.308,0.221,0.512,0.316c0.203,0.094,0.436,0.173,0.699,0.238s0.568,0.098,0.913,0.098
			c0.242,0,0.468-0.024,0.68-0.072c0.211-0.046,0.397-0.116,0.556-0.207c0.16-0.09,0.288-0.206,0.382-0.348
			c0.095-0.142,0.143-0.308,0.143-0.498c0-0.326-0.149-0.576-0.448-0.748c-0.298-0.172-0.789-0.258-1.472-0.258h-0.74v-0.839h0.917
			c0.172,0,0.344-0.028,0.517-0.084c0.171-0.056,0.326-0.129,0.464-0.219c0.137-0.09,0.249-0.198,0.335-0.323
			c0.086-0.125,0.129-0.256,0.129-0.394c0-0.172-0.043-0.321-0.129-0.445c-0.086-0.126-0.205-0.226-0.355-0.304
			c-0.151-0.077-0.327-0.136-0.529-0.175s-0.415-0.057-0.639-0.057c-0.344,0-0.645,0.031-0.904,0.096
			c-0.258,0.065-0.477,0.145-0.658,0.239v1.071h-0.878V188.733z"/>
		<path fill="#FFFFFF" d="M124.215,188.629c0.37-0.214,0.788-0.369,1.252-0.464c0.465-0.094,0.921-0.142,1.369-0.142
			c0.439,0,0.799,0.069,1.078,0.207c0.279,0.138,0.499,0.316,0.658,0.536c0.16,0.219,0.267,0.469,0.323,0.749
			c0.055,0.28,0.084,0.561,0.084,0.846c0,0.326-0.009,0.675-0.026,1.045c-0.017,0.371-0.03,0.741-0.039,1.11
			c0,0.43,0.026,0.839,0.077,1.227h0.866v0.839h-1.706l-0.115-0.968h-0.064c-0.052,0.077-0.13,0.177-0.233,0.297
			c-0.104,0.121-0.24,0.239-0.408,0.355c-0.169,0.116-0.374,0.218-0.615,0.303c-0.242,0.086-0.526,0.129-0.855,0.129
			c-0.638,0-1.144-0.163-1.514-0.491c-0.372-0.326-0.558-0.774-0.558-1.342c0-0.438,0.098-0.805,0.292-1.097
			c0.194-0.292,0.472-0.517,0.835-0.672c0.362-0.154,0.8-0.244,1.314-0.271c0.514-0.026,1.091,0.009,1.729,0.104
			c0.043-0.396,0.049-0.725,0.02-0.988c-0.03-0.263-0.1-0.472-0.208-0.627c-0.107-0.155-0.259-0.265-0.453-0.329
			c-0.195-0.065-0.435-0.097-0.719-0.097c-0.389,0-0.76,0.055-1.114,0.161c-0.354,0.108-0.669,0.218-0.946,0.33L124.215,188.629z
			 M126.125,193.834c0.242,0,0.465-0.039,0.672-0.117c0.207-0.077,0.387-0.176,0.542-0.297c0.155-0.12,0.283-0.252,0.387-0.394
			c0.104-0.143,0.181-0.278,0.232-0.407v-0.904c-0.447-0.077-0.86-0.116-1.239-0.116c-0.379,0-0.707,0.041-0.982,0.122
			c-0.275,0.083-0.491,0.21-0.646,0.381c-0.155,0.173-0.232,0.397-0.232,0.672c0,0.284,0.097,0.532,0.291,0.742
			C125.345,193.728,125.669,193.834,126.125,193.834z"/>
		<path fill="#FFFFFF" d="M136.068,189.004h-2.221c-0.034,0.784-0.078,1.518-0.129,2.202c-0.051,0.685-0.149,1.28-0.291,1.788
			c-0.141,0.508-0.344,0.908-0.606,1.201c-0.263,0.293-0.619,0.439-1.065,0.439c-0.173,0-0.297-0.009-0.375-0.026
			c-0.078-0.017-0.173-0.047-0.285-0.09l0.169-0.956c0.163,0.043,0.316,0.064,0.458,0.064s0.269-0.051,0.381-0.155
			s0.212-0.269,0.304-0.497c0.09-0.228,0.167-0.55,0.232-0.968c0.064-0.417,0.118-0.942,0.161-1.575
			c0.043-0.633,0.078-1.401,0.104-2.305h4.182v6.456h-1.02V189.004z"/>
	</g>
	<g>
		<path d="M282.059,65.481h6.199v2.362h-0.957v-1.407h-2.931v7.127h2.027v0.956h-4.338v-0.956h1.24v-7.127h-1.24V65.481z"/>
		<path d="M288.832,71.292c0-1.042,0.272-1.866,0.814-2.473s1.316-0.911,2.323-0.911c0.542,0,1.011,0.088,1.401,0.265
			c0.393,0.177,0.717,0.416,0.975,0.717c0.259,0.301,0.449,0.658,0.574,1.071c0.126,0.414,0.188,0.856,0.188,1.33
			c0,0.516-0.068,0.983-0.205,1.4c-0.139,0.418-0.342,0.773-0.607,1.065c-0.269,0.293-0.597,0.519-0.988,0.678
			s-0.837,0.239-1.337,0.239c-0.534,0-0.999-0.088-1.394-0.265c-0.396-0.176-0.723-0.415-0.982-0.716
			c-0.258-0.301-0.45-0.659-0.573-1.071C288.895,72.208,288.832,71.765,288.832,71.292z M289.904,71.292
			c0,0.302,0.037,0.603,0.11,0.903c0.073,0.302,0.189,0.573,0.353,0.814c0.165,0.241,0.375,0.434,0.638,0.581
			c0.261,0.146,0.581,0.219,0.959,0.219c0.686,0,1.203-0.213,1.552-0.639c0.347-0.426,0.52-1.053,0.52-1.878
			c0-0.31-0.036-0.613-0.108-0.911c-0.073-0.297-0.194-0.566-0.36-0.807c-0.168-0.24-0.383-0.435-0.644-0.581
			c-0.263-0.146-0.582-0.219-0.959-0.219c-0.687,0-1.2,0.21-1.545,0.632C290.077,69.828,289.904,70.457,289.904,71.292z"/>
		<path d="M301.01,68.941h-2.221c-0.035,0.784-0.077,1.518-0.13,2.202c-0.052,0.685-0.149,1.28-0.29,1.789
			c-0.144,0.508-0.344,0.908-0.607,1.201c-0.262,0.293-0.618,0.439-1.065,0.439c-0.172,0-0.297-0.009-0.374-0.026
			c-0.078-0.018-0.172-0.047-0.283-0.09l0.168-0.956c0.163,0.043,0.315,0.064,0.458,0.064c0.142,0,0.268-0.051,0.381-0.155
			c0.111-0.103,0.213-0.269,0.304-0.497c0.09-0.228,0.167-0.55,0.232-0.968c0.064-0.417,0.117-0.943,0.161-1.575
			c0.044-0.633,0.077-1.401,0.103-2.306h4.184v6.456h-1.02V68.941z"/>
		<path d="M306.995,73.525h0.489l1.602-5.462h1.046l-1.794,5.798c-0.096,0.301-0.192,0.644-0.291,1.026s-0.238,0.742-0.42,1.078
			c-0.181,0.335-0.425,0.619-0.734,0.852c-0.311,0.232-0.717,0.349-1.214,0.349c-0.113,0-0.231-0.013-0.356-0.039
			c-0.124-0.026-0.247-0.058-0.367-0.097c-0.121-0.039-0.233-0.084-0.336-0.136c-0.103-0.051-0.18-0.103-0.232-0.155l0.362-0.929
			c0.05,0.042,0.122,0.085,0.212,0.128c0.092,0.044,0.19,0.081,0.296,0.11c0.108,0.03,0.214,0.057,0.317,0.078
			c0.104,0.021,0.19,0.032,0.259,0.032c0.646,0,1.085-0.546,1.316-1.64h-0.864l-2.713-6.456h1.161L306.995,73.525z"/>
		<path d="M312.316,69.238c0.326-0.43,0.686-0.731,1.078-0.904c0.392-0.171,0.878-0.257,1.465-0.257c0.887,0,1.564,0.267,2.04,0.8
			c0.474,0.534,0.71,1.291,0.71,2.272c0,1.136-0.277,2.008-0.827,2.614c-0.551,0.607-1.32,0.911-2.311,0.911
			c-2.092,0-3.137-1.355-3.137-4.067c0-0.74,0.039-1.373,0.121-1.898c0.083-0.525,0.2-0.968,0.356-1.331
			c0.154-0.361,0.344-0.649,0.567-0.864c0.223-0.215,0.479-0.385,0.761-0.511c0.285-0.125,0.594-0.212,0.932-0.265
			c0.335-0.051,0.697-0.094,1.084-0.128c0.498-0.035,0.881-0.082,1.149-0.143c0.266-0.059,0.484-0.163,0.658-0.31l0.155,0.904
			c-0.096,0.077-0.198,0.142-0.311,0.193c-0.112,0.052-0.25,0.095-0.413,0.129c-0.164,0.035-0.356,0.065-0.574,0.091
			c-0.22,0.025-0.481,0.047-0.782,0.064c-0.421,0.026-0.795,0.069-1.122,0.129c-0.329,0.059-0.604,0.182-0.833,0.366
			c-0.228,0.185-0.41,0.45-0.542,0.796c-0.135,0.347-0.222,0.816-0.266,1.407H312.316z M312.406,71.304
			c0,0.318,0.04,0.629,0.123,0.929c0.082,0.302,0.205,0.568,0.373,0.801c0.17,0.232,0.38,0.419,0.64,0.562
			c0.258,0.142,0.568,0.213,0.93,0.213c0.688,0,1.206-0.224,1.55-0.672c0.344-0.447,0.516-1.084,0.516-1.911
			c0-0.318-0.037-0.615-0.111-0.891c-0.07-0.275-0.182-0.517-0.328-0.723c-0.146-0.207-0.336-0.37-0.573-0.491
			c-0.236-0.12-0.515-0.181-0.833-0.181c-0.802,0-1.381,0.2-1.743,0.601C312.586,69.942,312.406,70.53,312.406,71.304z"/>
		<path d="M318.979,71.292c0-1.042,0.27-1.866,0.813-2.473c0.542-0.607,1.317-0.911,2.324-0.911c0.542,0,1.009,0.088,1.4,0.265
			c0.391,0.177,0.718,0.416,0.976,0.717c0.257,0.301,0.45,0.658,0.575,1.071c0.123,0.414,0.186,0.856,0.186,1.33
			c0,0.516-0.069,0.983-0.206,1.4c-0.138,0.418-0.34,0.773-0.607,1.065c-0.267,0.293-0.595,0.519-0.988,0.678
			c-0.391,0.159-0.835,0.239-1.335,0.239c-0.534,0-0.998-0.088-1.394-0.265c-0.397-0.176-0.725-0.415-0.981-0.716
			c-0.259-0.301-0.451-0.659-0.576-1.071C319.042,72.208,318.979,71.765,318.979,71.292z M320.05,71.292
			c0,0.302,0.036,0.603,0.108,0.903c0.074,0.302,0.192,0.573,0.356,0.814c0.161,0.241,0.374,0.434,0.636,0.581
			c0.262,0.146,0.582,0.219,0.959,0.219c0.688,0,1.205-0.213,1.551-0.639c0.349-0.426,0.521-1.053,0.521-1.878
			c0-0.31-0.036-0.613-0.108-0.911c-0.074-0.297-0.194-0.566-0.36-0.807c-0.168-0.24-0.382-0.435-0.645-0.581
			c-0.262-0.146-0.58-0.219-0.959-0.219c-0.686,0-1.201,0.21-1.544,0.632C320.222,69.828,320.05,70.457,320.05,71.292z"/>
		<path d="M331.462,70.465l0.039-0.852h-0.039l-3.603,4.906h-0.93v-6.456h1.021v4.17l-0.038,0.814h0.051l3.577-4.984h0.942v6.456
			h-1.021V70.465z M328.609,65.456c0.086,0.395,0.234,0.672,0.445,0.827c0.211,0.154,0.454,0.232,0.729,0.232
			c0.276,0,0.521-0.082,0.736-0.246c0.216-0.163,0.362-0.43,0.439-0.801l0.775,0.246c-0.078,0.5-0.3,0.882-0.666,1.149
			c-0.367,0.267-0.802,0.4-1.31,0.4c-0.233,0-0.463-0.03-0.691-0.09c-0.228-0.06-0.434-0.15-0.613-0.271
			c-0.181-0.12-0.336-0.275-0.465-0.465c-0.13-0.189-0.216-0.413-0.26-0.671L328.609,65.456z"/>
		<path d="M282.537,84.164l-0.013-0.039c0.146-0.086,0.304-0.17,0.471-0.252c0.169-0.081,0.358-0.155,0.569-0.22
			c0.21-0.064,0.449-0.118,0.716-0.161c0.267-0.043,0.572-0.065,0.917-0.065c0.352,0,0.681,0.037,0.981,0.11
			c0.302,0.074,0.563,0.179,0.787,0.317c0.225,0.138,0.398,0.308,0.523,0.51c0.124,0.202,0.187,0.432,0.187,0.691
			c0,0.138-0.027,0.282-0.084,0.432c-0.057,0.151-0.14,0.295-0.251,0.433c-0.113,0.137-0.245,0.263-0.399,0.374
			c-0.156,0.112-0.333,0.199-0.53,0.259v0.052c0.567,0.094,0.965,0.275,1.193,0.542c0.229,0.267,0.343,0.62,0.343,1.059
			c0,0.276-0.064,0.529-0.194,0.761c-0.127,0.233-0.32,0.436-0.573,0.607c-0.256,0.172-0.569,0.308-0.943,0.407
			c-0.375,0.099-0.811,0.148-1.311,0.148c-0.37,0-0.706-0.034-1.007-0.104c-0.301-0.069-0.566-0.155-0.794-0.259
			c-0.228-0.103-0.421-0.214-0.581-0.335s-0.282-0.232-0.368-0.335l0.518-0.813c0.095,0.102,0.212,0.212,0.35,0.329
			c0.138,0.116,0.308,0.222,0.511,0.316c0.203,0.095,0.436,0.174,0.699,0.239c0.263,0.064,0.568,0.097,0.913,0.097
			c0.242,0,0.468-0.023,0.68-0.072c0.212-0.046,0.396-0.116,0.558-0.206c0.16-0.09,0.286-0.206,0.382-0.348
			c0.095-0.143,0.141-0.308,0.141-0.498c0-0.327-0.148-0.576-0.445-0.749c-0.299-0.171-0.791-0.258-1.474-0.258h-0.739v-0.84h0.917
			c0.171,0,0.343-0.027,0.515-0.084c0.173-0.055,0.328-0.128,0.464-0.218c0.139-0.091,0.251-0.199,0.337-0.323
			s0.128-0.256,0.128-0.394c0-0.173-0.042-0.321-0.128-0.446s-0.205-0.226-0.355-0.304c-0.15-0.077-0.326-0.135-0.529-0.174
			c-0.201-0.038-0.415-0.058-0.639-0.058c-0.345,0-0.645,0.032-0.903,0.097c-0.258,0.064-0.478,0.144-0.659,0.239V85.7h-0.878
			V84.164z"/>
		<path d="M289.962,84.06c0.37-0.215,0.787-0.37,1.253-0.464c0.466-0.095,0.922-0.143,1.368-0.143c0.439,0,0.8,0.07,1.079,0.208
			c0.278,0.137,0.498,0.316,0.658,0.536c0.159,0.218,0.268,0.469,0.322,0.748c0.056,0.281,0.084,0.562,0.084,0.846
			c0,0.327-0.009,0.676-0.025,1.046c-0.017,0.37-0.03,0.741-0.038,1.111c0,0.43,0.025,0.839,0.077,1.227h0.864v0.839H293.9
			l-0.116-0.968h-0.065c-0.05,0.077-0.128,0.176-0.232,0.296c-0.104,0.121-0.24,0.24-0.408,0.356
			c-0.167,0.116-0.373,0.217-0.614,0.302c-0.241,0.087-0.527,0.13-0.854,0.13c-0.641,0-1.144-0.163-1.516-0.491
			s-0.557-0.774-0.557-1.343c0-0.439,0.097-0.804,0.29-1.098c0.195-0.292,0.474-0.516,0.836-0.671s0.802-0.246,1.313-0.272
			c0.515-0.025,1.092,0.009,1.729,0.104c0.044-0.395,0.051-0.725,0.02-0.988c-0.029-0.263-0.099-0.471-0.206-0.626
			c-0.109-0.155-0.261-0.265-0.453-0.33c-0.196-0.064-0.436-0.096-0.721-0.096c-0.389,0-0.76,0.054-1.113,0.161
			c-0.354,0.108-0.669,0.218-0.946,0.33L289.962,84.06z M291.873,89.264c0.241,0,0.465-0.039,0.672-0.117
			c0.207-0.077,0.388-0.175,0.542-0.297c0.155-0.12,0.284-0.251,0.388-0.393c0.103-0.143,0.18-0.278,0.231-0.408v-0.903
			c-0.447-0.077-0.859-0.116-1.238-0.116s-0.706,0.041-0.981,0.122c-0.276,0.082-0.49,0.209-0.646,0.381
			c-0.154,0.172-0.231,0.396-0.231,0.672c0,0.284,0.096,0.531,0.289,0.742C291.093,89.158,291.417,89.264,291.873,89.264z"/>
		<path d="M301.815,84.435h-2.221c-0.033,0.783-0.077,1.518-0.13,2.201c-0.05,0.685-0.146,1.281-0.288,1.789
			c-0.143,0.508-0.346,0.908-0.607,1.201c-0.264,0.292-0.617,0.438-1.065,0.438c-0.172,0-0.297-0.008-0.374-0.026
			c-0.078-0.017-0.172-0.047-0.285-0.09l0.168-0.956c0.165,0.043,0.317,0.065,0.458,0.065c0.143,0,0.27-0.052,0.381-0.155
			c0.113-0.104,0.213-0.269,0.304-0.497c0.091-0.228,0.169-0.551,0.232-0.969c0.065-0.417,0.118-0.942,0.163-1.575
			c0.041-0.632,0.077-1.4,0.103-2.304h4.184v6.456h-1.021V84.435z"/>
	</g>
	<g>
		<path d="M347.198,106.481c0.134-0.123,0.286-0.241,0.457-0.354s0.345-0.218,0.517-0.317c0.186-0.104,0.384-0.193,0.598-0.266
			c0.214-0.071,0.425-0.103,0.637-0.096c0.213,0.008,0.418,0.069,0.611,0.183c0.195,0.114,0.367,0.302,0.516,0.564
			c0.146,0.258,0.223,0.504,0.229,0.733c0.009,0.231-0.034,0.444-0.125,0.642s-0.222,0.377-0.393,0.538
			c-0.17,0.16-0.36,0.299-0.569,0.418c-0.021,0.011-0.054,0.03-0.102,0.056c-0.045,0.027-0.095,0.053-0.146,0.079
			c-0.051,0.028-0.103,0.051-0.153,0.075c-0.05,0.024-0.089,0.04-0.11,0.046l0.911,1.611l-0.504,0.285L347.198,106.481z
			 M348.432,106.24c-0.104,0.06-0.204,0.119-0.301,0.177c-0.095,0.061-0.166,0.113-0.212,0.162l0.993,1.757
			c0.023-0.003,0.061-0.016,0.105-0.04c0.046-0.022,0.093-0.047,0.144-0.073s0.097-0.052,0.142-0.076
			c0.043-0.025,0.077-0.045,0.097-0.056c0.139-0.078,0.269-0.167,0.388-0.271c0.122-0.103,0.217-0.22,0.288-0.35
			c0.071-0.132,0.104-0.277,0.1-0.441c-0.004-0.163-0.061-0.342-0.17-0.536c-0.093-0.166-0.203-0.286-0.328-0.361
			c-0.127-0.076-0.26-0.117-0.401-0.125c-0.14-0.009-0.283,0.01-0.429,0.055C348.7,106.107,348.563,106.166,348.432,106.24z"/>
		<path d="M355.558,106.793c-0.035,0.106-0.087,0.216-0.153,0.328c-0.068,0.113-0.148,0.223-0.244,0.329
			c-0.094,0.106-0.197,0.207-0.313,0.3c-0.114,0.095-0.237,0.179-0.363,0.252c-0.245,0.136-0.479,0.22-0.708,0.25
			c-0.227,0.03-0.442,0.012-0.647-0.057c-0.204-0.068-0.393-0.181-0.568-0.338c-0.173-0.157-0.329-0.357-0.466-0.6
			c-0.145-0.254-0.236-0.501-0.276-0.738c-0.043-0.238-0.034-0.461,0.024-0.67s0.16-0.401,0.312-0.58
			c0.149-0.177,0.343-0.333,0.577-0.465c0.17-0.095,0.349-0.168,0.54-0.218c0.19-0.048,0.384-0.048,0.581,0.003
			c0.197,0.052,0.389,0.167,0.582,0.342c0.189,0.178,0.373,0.444,0.547,0.799l-2.338,1.323c0.203,0.363,0.455,0.579,0.752,0.649
			c0.297,0.069,0.607,0.012,0.937-0.173c0.108-0.061,0.207-0.135,0.301-0.222c0.092-0.087,0.177-0.176,0.252-0.266
			c0.076-0.092,0.139-0.181,0.188-0.267c0.05-0.088,0.084-0.16,0.105-0.219L355.558,106.793z M352.972,105.193
			c-0.135,0.075-0.251,0.16-0.354,0.256c-0.103,0.095-0.181,0.203-0.234,0.32s-0.078,0.247-0.076,0.386
			c0.002,0.141,0.041,0.293,0.113,0.461l1.878-1.062c-0.171-0.255-0.374-0.414-0.608-0.477
			C353.456,105.017,353.216,105.055,352.972,105.193z"/>
		<path d="M356.772,106.611l-0.229-0.406l0.387-0.219l-1.25-2.211l-0.388,0.22l-0.233-0.412l2.447-1.383l0.643,1.132l-0.413,0.234
			l-0.407-0.721l-1.169,0.661l1.249,2.211l0.921-0.521l0.23,0.406L356.772,106.611z"/>
		<path d="M361.311,101.535l-0.208-0.409l-0.018,0.01l-0.389,3.257l-0.438,0.247l-1.712-3.03l0.479-0.271l1.107,1.958l0.197,0.391
			l0.022-0.013l0.358-3.289l0.441-0.25l1.712,3.029l-0.479,0.271L361.311,101.535z"/>
		<path d="M364.688,98.755c-0.11,0.02-0.227,0.049-0.346,0.087c-0.119,0.039-0.231,0.087-0.337,0.146
			c-0.396,0.224-0.639,0.484-0.727,0.779c-0.088,0.297-0.02,0.647,0.211,1.052c0.1,0.178,0.217,0.322,0.354,0.429
			c0.136,0.107,0.283,0.181,0.444,0.219c0.159,0.038,0.327,0.042,0.506,0.01c0.177-0.031,0.354-0.097,0.53-0.196
			c0.191-0.108,0.356-0.246,0.499-0.412c0.144-0.168,0.244-0.338,0.306-0.513l0.41,0.23c-0.028,0.081-0.07,0.171-0.124,0.271
			c-0.058,0.1-0.127,0.205-0.211,0.314c-0.086,0.11-0.188,0.217-0.307,0.321c-0.12,0.105-0.258,0.203-0.415,0.291
			c-0.264,0.148-0.516,0.242-0.757,0.279c-0.242,0.039-0.47,0.026-0.683-0.038c-0.211-0.064-0.408-0.174-0.588-0.332
			c-0.178-0.157-0.335-0.356-0.47-0.593c-0.145-0.255-0.236-0.501-0.278-0.738c-0.04-0.238-0.032-0.461,0.026-0.67
			c0.057-0.209,0.161-0.402,0.312-0.58c0.149-0.178,0.341-0.333,0.575-0.465c0.3-0.169,0.557-0.28,0.775-0.334
			c0.218-0.053,0.409-0.084,0.575-0.093l0.004,0.021l0.475,0.842l-0.436,0.247L364.688,98.755z"/>
		<path d="M365.752,97.539l3.014-1.703l0.639,1.133l-0.41,0.233l-0.409-0.721l-0.854,0.484l1.249,2.211l0.734-0.415l0.229,0.405
			l-1.969,1.115l-0.23-0.407l0.758-0.427l-1.25-2.212l-0.854,0.483l0.407,0.72l-0.411,0.233L365.752,97.539z"/>
		<path d="M370.479,96.266c-0.02-0.037-0.049-0.084-0.083-0.141c-0.036-0.058-0.072-0.116-0.113-0.178
			c-0.038-0.059-0.079-0.119-0.119-0.175c-0.04-0.057-0.076-0.106-0.11-0.146l-0.404,0.23l-0.224-0.394l0.807-0.455l0.3,0.39
			l0.031-0.019c0.027-0.203,0.099-0.399,0.214-0.588c0.113-0.189,0.293-0.354,0.534-0.491c0.434-0.243,0.826-0.309,1.177-0.194
			c0.354,0.115,0.683,0.443,0.989,0.984c0.145,0.255,0.235,0.505,0.276,0.75c0.041,0.247,0.032,0.48-0.024,0.699
			c-0.058,0.218-0.163,0.422-0.314,0.608c-0.15,0.186-0.341,0.347-0.575,0.478c-0.085,0.047-0.162,0.087-0.231,0.119
			c-0.07,0.032-0.136,0.058-0.197,0.079c-0.059,0.021-0.119,0.038-0.182,0.053c-0.063,0.013-0.13,0.024-0.205,0.035l0.721,1.272
			l-0.466,0.264L370.479,96.266z M371.484,94.793c-0.119,0.068-0.223,0.155-0.305,0.261c-0.081,0.104-0.144,0.216-0.184,0.336
			c-0.043,0.119-0.065,0.238-0.067,0.355s0.015,0.225,0.054,0.32l0.778,1.377c0.123,0.012,0.25,0.002,0.381-0.026
			c0.13-0.029,0.284-0.094,0.468-0.196c0.322-0.183,0.521-0.436,0.597-0.756c0.074-0.322-0.003-0.685-0.233-1.093
			c-0.194-0.342-0.412-0.568-0.653-0.679C372.079,94.581,371.8,94.614,371.484,94.793z"/>
		<path d="M373.784,93.309c0.118-0.199,0.274-0.382,0.466-0.551c0.193-0.167,0.395-0.31,0.604-0.43
			c0.206-0.116,0.394-0.179,0.563-0.188c0.167-0.011,0.316,0.016,0.45,0.077c0.133,0.06,0.25,0.147,0.35,0.265
			c0.099,0.117,0.188,0.242,0.264,0.375c0.088,0.154,0.176,0.32,0.267,0.497c0.089,0.179,0.18,0.357,0.276,0.532
			c0.113,0.203,0.234,0.387,0.359,0.556l0.407-0.229l0.223,0.394l-0.801,0.452l-0.311-0.424l-0.029,0.017
			c-0.005,0.051-0.015,0.116-0.033,0.202c-0.015,0.084-0.047,0.175-0.096,0.274c-0.048,0.099-0.119,0.201-0.209,0.306
			c-0.091,0.104-0.212,0.2-0.366,0.287c-0.299,0.17-0.58,0.227-0.843,0.172c-0.26-0.056-0.466-0.216-0.616-0.483
			c-0.115-0.206-0.168-0.404-0.155-0.592c0.013-0.188,0.085-0.368,0.215-0.537c0.13-0.168,0.311-0.328,0.545-0.475
			c0.234-0.149,0.516-0.286,0.839-0.411c-0.084-0.197-0.169-0.353-0.252-0.468c-0.084-0.116-0.172-0.194-0.264-0.238
			c-0.092-0.044-0.192-0.056-0.3-0.034c-0.109,0.02-0.229,0.069-0.363,0.145c-0.184,0.102-0.344,0.227-0.479,0.371
			c-0.138,0.146-0.259,0.281-0.356,0.405L373.784,93.309z M376.063,95.245c0.113-0.064,0.208-0.142,0.285-0.233
			c0.076-0.092,0.135-0.186,0.175-0.283c0.042-0.097,0.067-0.194,0.077-0.288c0.011-0.094,0.012-0.178,0.001-0.252l-0.239-0.424
			c-0.229,0.082-0.435,0.174-0.611,0.274c-0.178,0.101-0.321,0.208-0.43,0.318c-0.107,0.11-0.175,0.229-0.2,0.35
			c-0.029,0.123-0.004,0.248,0.068,0.376c0.076,0.133,0.187,0.224,0.333,0.272S375.848,95.366,376.063,95.245z"/>
		<path d="M382.326,93.127l-0.411,0.232l-0.413-0.727l-2.587,1.463l-1.712-3.03l0.467-0.263l1.479,2.617l1.558-0.88l-1.479-2.618
			l0.479-0.271l1.479,2.618l0.496-0.28L382.326,93.127z"/>
		<path d="M383.721,88.869l-0.206-0.411l-0.02,0.01l-0.39,3.258l-0.435,0.246l-1.713-3.029l0.477-0.271l1.107,1.957l0.198,0.392
			l0.024-0.013l0.356-3.288l0.441-0.25l1.714,3.03l-0.48,0.271L383.721,88.869z"/>
		<path d="M387.615,87.619l-0.72,0.408l-0.096,1.612l-0.605,0.342l-0.229-0.406l0.314-0.178l0.086-1.135
			c-0.089,0.023-0.181,0.032-0.282,0.027c-0.098-0.005-0.196-0.027-0.295-0.065s-0.191-0.093-0.279-0.168
			c-0.088-0.077-0.165-0.173-0.231-0.291c-0.104-0.182-0.155-0.359-0.156-0.531c-0.001-0.173,0.038-0.338,0.119-0.497
			c0.081-0.157,0.201-0.306,0.356-0.445c0.155-0.138,0.34-0.269,0.556-0.39c0.152-0.086,0.305-0.157,0.454-0.213
			c0.149-0.056,0.303-0.111,0.459-0.167l1.697,3.005l-0.479,0.271L387.615,87.619z M387.412,87.255l-0.611-1.079
			c-0.067,0.011-0.143,0.031-0.228,0.058c-0.086,0.027-0.156,0.056-0.213,0.088c-0.304,0.173-0.51,0.351-0.615,0.536
			c-0.108,0.186-0.103,0.381,0.014,0.588c0.094,0.166,0.214,0.267,0.363,0.303c0.147,0.038,0.297,0.03,0.449-0.018L387.412,87.255z"
			/>
	</g>
	<g>
		<path fill="#FFFFFF" d="M42.232,307.004h-0.994v4.183h-1.072v-9.037h1.072v4.028h0.968l2.905-4.028h1.24l-3.189,4.299l3.589,4.738
			h-1.355L42.232,307.004z"/>
		<path fill="#FFFFFF" d="M47.191,307.959c0-1.041,0.271-1.865,0.813-2.472s1.318-0.911,2.325-0.911
			c0.542,0,1.009,0.088,1.401,0.265c0.392,0.178,0.716,0.417,0.975,0.718c0.258,0.303,0.45,0.657,0.574,1.071
			c0.125,0.413,0.188,0.857,0.188,1.329c0,0.518-0.069,0.984-0.206,1.4c-0.139,0.418-0.34,0.774-0.607,1.065
			c-0.267,0.294-0.596,0.519-0.988,0.678c-0.391,0.16-0.837,0.239-1.336,0.239c-0.534,0-0.999-0.088-1.394-0.264
			c-0.396-0.176-0.724-0.415-0.981-0.716c-0.259-0.302-0.451-0.659-0.575-1.071C47.253,308.876,47.191,308.432,47.191,307.959z
			 M48.263,307.959c0,0.302,0.037,0.604,0.109,0.904c0.073,0.302,0.191,0.571,0.354,0.814c0.163,0.241,0.375,0.434,0.637,0.58
			c0.262,0.146,0.581,0.219,0.959,0.219c0.686,0,1.203-0.212,1.551-0.638c0.348-0.428,0.521-1.054,0.521-1.88
			c0-0.31-0.037-0.613-0.11-0.91s-0.193-0.565-0.359-0.806c-0.168-0.243-0.382-0.436-0.644-0.583
			c-0.262-0.145-0.581-0.219-0.958-0.219c-0.687,0-1.202,0.211-1.544,0.633C48.435,306.497,48.263,307.125,48.263,307.959z"/>
		<path fill="#FFFFFF" d="M56.688,302.149h1.989v2.543c0.155-0.025,0.292-0.042,0.412-0.051c0.122-0.008,0.238-0.012,0.35-0.012
			c0.783,0,1.363,0.247,1.742,0.74c0.379,0.497,0.569,1.315,0.569,2.459c0,1.087-0.2,1.942-0.601,2.57
			c-0.4,0.628-0.988,0.942-1.762,0.942c-0.077,0-0.191-0.006-0.342-0.02c-0.151-0.013-0.273-0.035-0.367-0.07v2.518h-0.981v-2.53
			c-0.147,0.052-0.3,0.081-0.458,0.09c-0.159,0.008-0.303,0.013-0.432,0.013c-0.723,0-1.269-0.273-1.634-0.825
			c-0.366-0.552-0.548-1.403-0.548-2.558c0-1.1,0.207-1.932,0.62-2.49c0.413-0.561,1.024-0.839,1.833-0.839
			c0.241,0,0.447,0.017,0.62,0.05v-1.666h-1.007V302.149z M57.059,310.489c0.104,0,0.208-0.004,0.312-0.013
			c0.104-0.008,0.217-0.024,0.338-0.052v-4.894c-0.104-0.016-0.201-0.029-0.292-0.037c-0.091-0.009-0.202-0.014-0.331-0.014
			c-0.468,0-0.826,0.199-1.072,0.602c-0.248,0.399-0.371,1.025-0.371,1.877c0,0.362,0.026,0.698,0.078,1.007
			c0.053,0.311,0.134,0.581,0.248,0.808c0.112,0.229,0.256,0.405,0.435,0.529C56.581,310.427,56.798,310.489,57.059,310.489z
			 M59.249,305.48c-0.104,0-0.197,0.003-0.28,0.007c-0.082,0.005-0.184,0.024-0.305,0.059v4.906
			c0.087,0.017,0.184,0.027,0.293,0.031c0.108,0.004,0.227,0.006,0.357,0.006c0.493,0,0.854-0.227,1.078-0.685
			c0.225-0.456,0.338-1.113,0.338-1.976c0-0.359-0.021-0.688-0.064-0.979c-0.044-0.292-0.123-0.54-0.234-0.743
			c-0.112-0.202-0.264-0.356-0.455-0.464C59.786,305.534,59.543,305.48,59.249,305.48z"/>
		<path fill="#FFFFFF" d="M68.962,310.375c-0.155,0.138-0.338,0.266-0.549,0.387c-0.211,0.12-0.441,0.225-0.691,0.311
			c-0.249,0.086-0.509,0.152-0.78,0.198c-0.271,0.048-0.544,0.071-0.82,0.071c-0.516,0-0.973-0.079-1.368-0.239
			c-0.396-0.159-0.728-0.387-0.994-0.684c-0.267-0.298-0.47-0.651-0.607-1.065c-0.139-0.412-0.208-0.877-0.208-1.395
			c0-0.542,0.076-1.023,0.226-1.445c0.151-0.422,0.369-0.775,0.652-1.06c0.285-0.282,0.629-0.5,1.033-0.65
			c0.404-0.151,0.857-0.228,1.356-0.228c0.361,0,0.719,0.049,1.072,0.144c0.352,0.094,0.664,0.272,0.936,0.536
			c0.271,0.262,0.48,0.623,0.627,1.084c0.146,0.46,0.197,1.057,0.154,1.787h-4.984c0,0.775,0.208,1.354,0.625,1.736
			c0.417,0.384,0.972,0.577,1.667,0.577c0.231,0,0.461-0.03,0.688-0.085c0.228-0.057,0.445-0.124,0.65-0.2
			c0.207-0.078,0.39-0.163,0.548-0.26c0.159-0.095,0.281-0.181,0.367-0.257L68.962,310.375z M66.244,305.43
			c-0.284,0-0.552,0.028-0.804,0.09c-0.254,0.061-0.477,0.16-0.67,0.303c-0.193,0.143-0.352,0.327-0.476,0.554
			c-0.125,0.229-0.205,0.512-0.239,0.847h4.002c-0.042-0.567-0.226-1.009-0.546-1.323C67.188,305.586,66.766,305.43,66.244,305.43z"
			/>
		<path fill="#FFFFFF" d="M70.913,306.99h4.416v0.957h-4.416V306.99z"/>
		<path fill="#FFFFFF" d="M78.218,305.906c0.327-0.43,0.686-0.73,1.078-0.904c0.392-0.172,0.88-0.258,1.466-0.258
			c0.886,0,1.567,0.268,2.04,0.802s0.71,1.29,0.71,2.271c0,1.136-0.276,2.009-0.827,2.614s-1.321,0.91-2.311,0.91
			c-2.092,0-3.139-1.354-3.139-4.067c0-0.739,0.041-1.372,0.124-1.898c0.082-0.524,0.2-0.966,0.355-1.329
			c0.155-0.362,0.344-0.65,0.568-0.863c0.224-0.216,0.478-0.386,0.762-0.511c0.284-0.125,0.594-0.213,0.93-0.267
			c0.336-0.05,0.697-0.094,1.084-0.126c0.5-0.037,0.883-0.082,1.15-0.144c0.266-0.061,0.485-0.164,0.658-0.31l0.155,0.904
			c-0.096,0.077-0.198,0.142-0.31,0.192c-0.112,0.053-0.25,0.095-0.413,0.129c-0.164,0.035-0.355,0.065-0.575,0.09
			c-0.22,0.026-0.48,0.05-0.781,0.065c-0.422,0.024-0.796,0.07-1.123,0.129c-0.328,0.06-0.605,0.183-0.833,0.365
			c-0.228,0.186-0.409,0.45-0.542,0.798c-0.134,0.347-0.222,0.816-0.265,1.406H78.218z M78.309,307.972
			c0,0.319,0.041,0.63,0.123,0.931c0.082,0.301,0.206,0.568,0.374,0.801c0.168,0.231,0.381,0.418,0.639,0.562
			c0.259,0.141,0.568,0.212,0.931,0.212c0.688,0,1.204-0.224,1.549-0.672c0.344-0.446,0.517-1.084,0.517-1.911
			c0-0.316-0.037-0.614-0.11-0.89s-0.183-0.516-0.33-0.724c-0.146-0.206-0.338-0.37-0.574-0.489
			c-0.237-0.121-0.514-0.182-0.833-0.182c-0.801,0-1.381,0.2-1.743,0.601C78.489,306.609,78.309,307.197,78.309,307.972z"/>
		<path fill="#FFFFFF" d="M85.346,306.99c0-0.078-0.002-0.178-0.006-0.301c-0.005-0.126-0.012-0.256-0.02-0.39
			c-0.008-0.132-0.019-0.264-0.032-0.394c-0.013-0.127-0.028-0.24-0.045-0.336h-0.866v-0.838h1.717l0.129,0.903h0.064
			c0.233-0.301,0.528-0.554,0.886-0.755c0.356-0.203,0.793-0.305,1.31-0.305c0.921,0,1.614,0.254,2.079,0.764
			c0.465,0.506,0.697,1.337,0.697,2.489c0,0.544-0.08,1.032-0.239,1.468c-0.159,0.434-0.385,0.802-0.677,1.103
			c-0.293,0.303-0.646,0.533-1.059,0.697s-0.87,0.245-1.369,0.245c-0.181,0-0.342-0.006-0.485-0.02
			c-0.141-0.013-0.271-0.029-0.387-0.052c-0.116-0.021-0.23-0.049-0.342-0.084c-0.112-0.032-0.232-0.077-0.361-0.128v2.711h-0.995
			V306.99z M88.316,305.531c-0.258,0-0.502,0.049-0.73,0.142c-0.228,0.094-0.43,0.22-0.606,0.374
			c-0.177,0.154-0.321,0.325-0.433,0.516c-0.112,0.188-0.181,0.378-0.206,0.566v2.937c0.189,0.127,0.401,0.229,0.639,0.303
			c0.237,0.074,0.549,0.108,0.936,0.108c0.688,0,1.239-0.225,1.652-0.676c0.413-0.451,0.62-1.109,0.62-1.977
			c0-0.729-0.144-1.295-0.432-1.693C89.467,305.732,88.987,305.531,88.316,305.531z"/>
		<path fill="#FFFFFF" d="M98.607,310.375c-0.155,0.138-0.338,0.266-0.549,0.387c-0.21,0.12-0.441,0.225-0.691,0.311
			c-0.249,0.086-0.509,0.152-0.78,0.198c-0.271,0.048-0.544,0.071-0.82,0.071c-0.517,0-0.973-0.079-1.368-0.239
			c-0.397-0.159-0.728-0.387-0.994-0.684c-0.267-0.298-0.47-0.651-0.607-1.065c-0.139-0.412-0.208-0.877-0.208-1.395
			c0-0.542,0.076-1.023,0.226-1.445c0.151-0.422,0.369-0.775,0.652-1.06c0.285-0.282,0.629-0.5,1.033-0.65
			c0.404-0.151,0.857-0.228,1.356-0.228c0.361,0,0.719,0.049,1.072,0.144c0.352,0.094,0.664,0.272,0.936,0.536
			c0.272,0.262,0.48,0.623,0.627,1.084c0.146,0.46,0.197,1.057,0.154,1.787h-4.984c0,0.775,0.208,1.354,0.625,1.736
			c0.417,0.384,0.972,0.577,1.667,0.577c0.232,0,0.462-0.03,0.689-0.085c0.228-0.057,0.445-0.124,0.651-0.2
			c0.207-0.078,0.389-0.163,0.547-0.26c0.159-0.095,0.281-0.181,0.367-0.257L98.607,310.375z M95.889,305.43
			c-0.284,0-0.552,0.028-0.804,0.09c-0.253,0.061-0.477,0.16-0.67,0.303c-0.193,0.143-0.352,0.327-0.476,0.554
			c-0.125,0.229-0.205,0.512-0.239,0.847h4.002c-0.042-0.567-0.225-1.009-0.546-1.323C96.834,305.586,96.411,305.43,95.889,305.43z"
			/>
		<path fill="#FFFFFF" d="M104.966,307.133l0.039-0.853h-0.039l-3.603,4.906h-0.929v-6.454h1.019v4.17l-0.038,0.813h0.051
			l3.577-4.982h0.943v6.454h-1.021V307.133z M102.113,302.124c0.085,0.396,0.234,0.672,0.445,0.826
			c0.211,0.156,0.454,0.233,0.729,0.233c0.276,0,0.521-0.082,0.737-0.247c0.214-0.164,0.361-0.43,0.439-0.8l0.774,0.245
			c-0.078,0.5-0.299,0.884-0.665,1.148c-0.367,0.269-0.803,0.4-1.311,0.4c-0.232,0-0.463-0.029-0.691-0.091
			c-0.228-0.06-0.433-0.149-0.613-0.27c-0.181-0.121-0.336-0.276-0.466-0.464c-0.129-0.19-0.215-0.415-0.257-0.673L102.113,302.124z
			"/>
		<path fill="#FFFFFF" d="M109.889,308.27h-0.71v2.917h-0.994v-6.454h0.994v2.763h0.71l2.543-2.763h1.214l-2.854,3.06l2.35,2.529
			h0.839v0.865h-1.329L109.889,308.27z"/>
	</g>
	<g>
		<path fill="#FFFFFF" d="M478.756,94.64c0-0.574,0.073-1.138,0.216-1.691c0.145-0.555,0.413-1.047,0.813-1.476
			c0.397-0.43,0.96-0.779,1.691-1.046c0.728-0.267,1.681-0.401,2.854-0.401c1.056,0,1.955,0.124,2.698,0.372
			c0.742,0.247,1.346,0.579,1.808,0.997c0.463,0.417,0.8,0.906,1.007,1.466c0.209,0.56,0.313,1.154,0.313,1.779h1.409v1.642h-1.409
			c0,0.561-0.081,1.115-0.243,1.662c-0.163,0.548-0.456,1.043-0.879,1.486c-0.426,0.443-0.997,0.802-1.722,1.076
			c-0.723,0.274-1.65,0.41-2.785,0.41c-1.109,0-2.035-0.133-2.778-0.4c-0.741-0.267-1.334-0.619-1.778-1.056
			c-0.443-0.437-0.756-0.932-0.938-1.486c-0.184-0.553-0.275-1.117-0.275-1.691h-1.659V94.64H478.756z M484.339,91.649
			c-0.779,0-1.438,0.061-1.97,0.186c-0.534,0.124-0.966,0.31-1.298,0.557c-0.331,0.248-0.571,0.563-0.722,0.949
			c-0.149,0.384-0.225,0.831-0.225,1.339h8.662c0-0.444-0.067-0.85-0.205-1.222c-0.137-0.372-0.377-0.691-0.723-0.958
			c-0.344-0.267-0.802-0.477-1.375-0.625C485.912,91.724,485.198,91.649,484.339,91.649z M484.535,99.293
			c0.753,0,1.399-0.072,1.939-0.215c0.539-0.144,0.979-0.349,1.316-0.616c0.339-0.268,0.589-0.589,0.752-0.967
			c0.162-0.378,0.244-0.802,0.244-1.271h-8.662c0,0.47,0.069,0.896,0.206,1.281c0.137,0.384,0.374,0.707,0.711,0.967
			c0.339,0.261,0.79,0.463,1.356,0.606C482.963,99.221,483.677,99.293,484.535,99.293z"/>
		<path fill="#FFFFFF" d="M478.991,107.51v0.743l8.271,2.424v1.583l-8.777-2.717c-0.456-0.144-0.975-0.29-1.556-0.439
			c-0.579-0.15-1.123-0.362-1.632-0.636c-0.51-0.274-0.938-0.646-1.291-1.114c-0.352-0.469-0.527-1.083-0.527-1.838
			c0-0.17,0.019-0.349,0.059-0.538c0.039-0.189,0.088-0.375,0.146-0.558c0.06-0.183,0.127-0.352,0.206-0.508
			s0.156-0.274,0.235-0.353l1.406,0.548c-0.065,0.078-0.131,0.186-0.195,0.322c-0.064,0.138-0.12,0.288-0.167,0.45
			c-0.044,0.163-0.084,0.323-0.116,0.479c-0.033,0.156-0.05,0.286-0.05,0.391c0,0.977,0.829,1.642,2.484,1.994v-1.31l9.774-4.106
			v1.759L478.991,107.51z"/>
		<path fill="#FFFFFF" d="M483.841,115.29c0.116,0,0.27-0.004,0.46-0.01c0.188-0.007,0.384-0.016,0.586-0.029
			c0.201-0.013,0.4-0.029,0.595-0.049c0.196-0.019,0.365-0.042,0.51-0.068v-1.31h1.271v2.6l-1.368,0.195v0.098
			c0.456,0.352,0.838,0.799,1.145,1.339c0.306,0.541,0.459,1.202,0.459,1.985c0,1.394-0.384,2.444-1.153,3.147
			c-0.77,0.705-2.027,1.056-3.774,1.056c-0.822,0-1.561-0.121-2.219-0.362c-0.659-0.241-1.216-0.583-1.672-1.025
			c-0.456-0.444-0.808-0.978-1.057-1.604c-0.246-0.626-0.369-1.317-0.369-2.073c0-0.273,0.009-0.518,0.028-0.732
			c0.019-0.215,0.045-0.411,0.078-0.587c0.031-0.176,0.075-0.349,0.128-0.518c0.05-0.169,0.116-0.352,0.194-0.547h-4.105v-1.505
			H483.841z M486.051,119.786c0-0.391-0.072-0.76-0.215-1.105c-0.144-0.345-0.333-0.652-0.564-0.919
			c-0.236-0.267-0.496-0.484-0.782-0.654c-0.286-0.169-0.571-0.273-0.857-0.313h-4.446c-0.195,0.287-0.349,0.609-0.458,0.967
			c-0.111,0.359-0.166,0.832-0.166,1.417c0,1.043,0.341,1.877,1.024,2.503c0.682,0.625,1.68,0.938,2.993,0.938
			c1.104,0,1.96-0.218,2.564-0.655C485.748,121.529,486.051,120.803,486.051,119.786z"/>
		<path fill="#FFFFFF" d="M477.487,126.39h9.774v1.447h-8.406v2.62h8.406v1.446h-8.406v2.621h8.406v1.447h-9.774V126.39z"/>
		<path fill="#FFFFFF" d="M478.719,147.388c-0.209-0.234-0.404-0.512-0.588-0.831c-0.182-0.319-0.338-0.667-0.469-1.045
			c-0.131-0.378-0.231-0.773-0.303-1.183c-0.071-0.411-0.106-0.825-0.106-1.242c0-0.781,0.12-1.473,0.36-2.072
			c0.24-0.6,0.587-1.102,1.036-1.505c0.45-0.404,0.988-0.71,1.613-0.919c0.626-0.209,1.329-0.313,2.112-0.313
			c0.819,0,1.551,0.113,2.188,0.342c0.639,0.228,1.174,0.558,1.604,0.987c0.431,0.43,0.759,0.952,0.986,1.564
			c0.229,0.612,0.344,1.297,0.344,2.053c0,0.547-0.071,1.087-0.216,1.622c-0.143,0.535-0.415,1.007-0.812,1.417
			c-0.397,0.411-0.945,0.726-1.642,0.949c-0.697,0.221-1.601,0.299-2.709,0.234v-7.546c-1.173,0-2.05,0.315-2.629,0.947
			c-0.581,0.63-0.871,1.471-0.871,2.524c0,0.351,0.043,0.699,0.128,1.043c0.085,0.344,0.186,0.673,0.304,0.984
			c0.117,0.312,0.246,0.588,0.391,0.829c0.143,0.241,0.273,0.426,0.391,0.556L478.719,147.388z M486.207,143.271
			c0-0.428-0.047-0.835-0.138-1.218c-0.091-0.383-0.244-0.722-0.46-1.013c-0.215-0.292-0.494-0.533-0.84-0.721
			c-0.347-0.188-0.772-0.308-1.282-0.361v6.061c0.86-0.065,1.529-0.341,2.005-0.829
			C485.969,144.704,486.207,144.063,486.207,143.271z"/>
		<path fill="#FFFFFF" d="M487.262,149.532v9.717h-3.655v-1.33h2.325v-2.756h-7.135v2.366h-1.31v-6.354h1.31v2.444h7.135v-2.756
			h-2.325v-1.33H487.262z"/>
	</g>
	<g>
		<path d="M323.003,200.28c0-1.497,0.265-2.65,0.792-3.459c0.528-0.809,1.344-1.214,2.442-1.214c0.601,0,1.109,0.112,1.527,0.336
			c0.415,0.224,0.754,0.54,1.011,0.949c0.259,0.408,0.443,0.899,0.554,1.472c0.112,0.572,0.169,1.211,0.169,1.917
			c0,1.499-0.265,2.652-0.794,3.461c-0.528,0.809-1.35,1.214-2.467,1.214c-0.594,0-1.095-0.112-1.508-0.336
			c-0.412-0.224-0.748-0.54-1.005-0.949c-0.257-0.409-0.443-0.899-0.554-1.472C323.059,201.626,323.003,200.986,323.003,200.28z
			 M324.126,200.28c0,0.5,0.033,0.974,0.099,1.421c0.063,0.447,0.178,0.841,0.342,1.181c0.163,0.339,0.38,0.611,0.646,0.813
			c0.269,0.202,0.609,0.303,1.024,0.303c0.743,0,1.284-0.301,1.624-0.904c0.343-0.603,0.513-1.541,0.513-2.815
			c0-0.489-0.033-0.961-0.096-1.414c-0.065-0.451-0.182-0.847-0.345-1.188c-0.164-0.34-0.384-0.611-0.662-0.813
			c-0.273-0.202-0.62-0.303-1.034-0.303c-0.734,0-1.271,0.303-1.605,0.91C324.295,198.079,324.126,199.015,324.126,200.28z"/>
		<path d="M331.532,200.604c0-0.078-0.002-0.179-0.007-0.304c-0.004-0.124-0.011-0.254-0.02-0.387
			c-0.008-0.134-0.019-0.265-0.033-0.395c-0.013-0.128-0.026-0.24-0.043-0.335h-0.865v-0.839h1.716l0.13,0.903h0.064
			c0.233-0.3,0.525-0.552,0.884-0.754c0.357-0.203,0.794-0.304,1.311-0.304c0.921,0,1.614,0.254,2.079,0.762
			c0.465,0.507,0.698,1.338,0.698,2.491c0,0.542-0.079,1.031-0.241,1.466c-0.159,0.435-0.385,0.803-0.676,1.104
			c-0.294,0.302-0.647,0.534-1.059,0.697c-0.415,0.164-0.871,0.246-1.369,0.246c-0.182,0-0.343-0.006-0.483-0.02
			c-0.143-0.013-0.272-0.03-0.389-0.051c-0.115-0.022-0.231-0.05-0.342-0.084c-0.112-0.034-0.233-0.077-0.362-0.13v2.711h-0.993
			V200.604z M334.502,199.145c-0.258,0-0.502,0.047-0.729,0.141c-0.229,0.095-0.432,0.219-0.607,0.374
			c-0.178,0.154-0.322,0.327-0.434,0.516c-0.112,0.189-0.18,0.378-0.207,0.566v2.936c0.19,0.129,0.402,0.23,0.641,0.303
			c0.237,0.073,0.548,0.109,0.936,0.109c0.688,0,1.238-0.225,1.652-0.676c0.413-0.45,0.621-1.11,0.621-1.976
			c0-0.729-0.146-1.294-0.434-1.694C335.653,199.344,335.173,199.145,334.502,199.145z"/>
		<path d="M339.222,198.847c0.37-0.215,0.787-0.37,1.252-0.464c0.464-0.095,0.92-0.143,1.368-0.143c0.439,0,0.8,0.07,1.078,0.207
			c0.279,0.138,0.501,0.317,0.66,0.536c0.158,0.219,0.265,0.47,0.321,0.749s0.084,0.562,0.084,0.846
			c0,0.327-0.009,0.676-0.024,1.046c-0.017,0.37-0.031,0.74-0.04,1.11c0,0.43,0.027,0.839,0.076,1.227h0.867v0.839h-1.706
			l-0.114-0.969h-0.065c-0.053,0.077-0.131,0.177-0.232,0.297c-0.104,0.121-0.24,0.239-0.407,0.355
			c-0.17,0.116-0.374,0.218-0.616,0.303c-0.243,0.087-0.526,0.13-0.856,0.13c-0.638,0-1.144-0.163-1.514-0.491
			c-0.371-0.327-0.559-0.774-0.559-1.342c0-0.439,0.1-0.805,0.293-1.098c0.194-0.292,0.473-0.516,0.835-0.672
			c0.363-0.154,0.801-0.244,1.314-0.271c0.515-0.025,1.091,0.01,1.73,0.104c0.041-0.395,0.049-0.725,0.019-0.988
			c-0.029-0.263-0.099-0.471-0.208-0.626c-0.107-0.155-0.259-0.265-0.453-0.33c-0.194-0.064-0.434-0.096-0.719-0.096
			c-0.389,0-0.76,0.054-1.115,0.161c-0.353,0.108-0.667,0.218-0.945,0.33L339.222,198.847z M341.132,204.051
			c0.241,0,0.466-0.039,0.673-0.117c0.205-0.077,0.387-0.176,0.542-0.297c0.155-0.12,0.282-0.251,0.387-0.394
			c0.103-0.143,0.18-0.277,0.233-0.407v-0.903c-0.448-0.077-0.861-0.116-1.239-0.116c-0.379,0-0.708,0.041-0.982,0.122
			c-0.275,0.082-0.491,0.208-0.646,0.381c-0.156,0.172-0.233,0.396-0.233,0.671c0,0.285,0.098,0.532,0.291,0.743
			C340.353,203.945,340.676,204.051,341.132,204.051z"/>
		<path d="M350.868,201.934h-3.46v2.866h-0.993v-6.456h0.993v2.685h3.46v-2.685h1.021v6.456h-1.021V201.934z"/>
		<path d="M355.614,201.907l-1.381,2.893h-1.11l1.652-3.306l-1.484-3.15h1.125l1.174,2.789h0.813v-2.789h1.019v2.789h0.697
			l1.368-2.789h1.06l-1.523,2.995l1.703,3.46h-1.148l-1.381-2.893h-0.775v2.893h-1.019v-2.893H355.614z"/>
		<path d="M367.503,203.986c-0.155,0.138-0.338,0.267-0.55,0.388c-0.211,0.121-0.441,0.223-0.689,0.31
			c-0.25,0.086-0.512,0.153-0.781,0.2c-0.272,0.047-0.546,0.071-0.82,0.071c-0.518,0-0.974-0.08-1.368-0.239
			c-0.397-0.16-0.729-0.388-0.994-0.684c-0.268-0.297-0.471-0.652-0.607-1.065c-0.139-0.413-0.208-0.878-0.208-1.395
			c0-0.542,0.076-1.024,0.227-1.446c0.151-0.421,0.368-0.774,0.652-1.058c0.283-0.284,0.628-0.501,1.033-0.652
			c0.404-0.15,0.855-0.226,1.355-0.226c0.362,0,0.718,0.047,1.071,0.141c0.354,0.096,0.665,0.275,0.937,0.536
			c0.271,0.263,0.481,0.625,0.625,1.085c0.146,0.46,0.199,1.056,0.157,1.788h-4.985c0,0.774,0.208,1.354,0.625,1.736
			s0.971,0.575,1.666,0.575c0.232,0,0.463-0.028,0.689-0.084c0.229-0.057,0.445-0.123,0.651-0.2
			c0.208-0.078,0.389-0.164,0.547-0.259c0.159-0.095,0.282-0.181,0.368-0.258L367.503,203.986z M364.782,199.041
			c-0.282,0-0.55,0.031-0.804,0.09c-0.251,0.061-0.475,0.162-0.668,0.304c-0.192,0.142-0.353,0.328-0.477,0.555
			c-0.125,0.229-0.205,0.51-0.237,0.846h4.001c-0.042-0.568-0.226-1.009-0.547-1.324
			C365.729,199.198,365.307,199.041,364.782,199.041z"/>
		<path d="M369.555,198.357c0.163-0.009,0.326-0.019,0.49-0.033c0.164-0.012,0.342-0.023,0.529-0.032
			c0.19-0.008,0.394-0.017,0.614-0.025c0.219-0.009,0.466-0.014,0.742-0.014c0.93,0,1.602,0.132,2.014,0.395
			c0.414,0.263,0.62,0.656,0.62,1.181c0,0.301-0.1,0.6-0.296,0.896c-0.198,0.298-0.521,0.51-0.97,0.64v0.051
			c0.568,0.096,0.97,0.269,1.202,0.523c0.231,0.255,0.347,0.601,0.347,1.04c0,0.672-0.271,1.158-0.818,1.459
			c-0.549,0.301-1.341,0.452-2.383,0.452c-0.413,0-0.783-0.011-1.109-0.032c-0.328-0.021-0.656-0.045-0.982-0.071V198.357z
			 M372.086,201.068c0.172,0,0.345-0.028,0.517-0.084c0.172-0.057,0.328-0.13,0.472-0.22c0.141-0.09,0.254-0.198,0.34-0.322
			c0.087-0.125,0.13-0.257,0.13-0.395c0-0.353-0.128-0.598-0.38-0.736c-0.254-0.138-0.68-0.206-1.273-0.206
			c-0.326,0-0.586,0.004-0.78,0.013c-0.192,0.008-0.38,0.018-0.562,0.026v1.924H372.086z M370.549,203.986
			c0.197,0.018,0.398,0.03,0.597,0.038c0.198,0.01,0.423,0.014,0.675,0.014c0.673,0,1.177-0.084,1.509-0.252
			c0.334-0.167,0.499-0.458,0.499-0.872c0-0.163-0.032-0.31-0.096-0.438c-0.065-0.128-0.174-0.241-0.325-0.336
			c-0.151-0.094-0.348-0.167-0.589-0.22c-0.243-0.051-0.545-0.078-0.908-0.078h-1.361V203.986z"/>
		<path d="M377.405,200.81c0.207-0.034,0.406-0.058,0.597-0.071c0.189-0.013,0.37-0.019,0.545-0.019
			c0.438,0,0.808,0.049,1.106,0.148c0.299,0.099,0.538,0.234,0.72,0.406c0.182,0.173,0.31,0.377,0.383,0.614
			c0.071,0.237,0.11,0.488,0.11,0.755c0,0.784-0.219,1.352-0.653,1.705c-0.434,0.353-1.137,0.529-2.11,0.529
			c-0.55,0-1.123-0.026-1.718-0.077v-6.456h1.021V200.81z M377.405,203.896c0.32,0.051,0.628,0.077,0.923,0.077
			c0.544,0,0.925-0.105,1.141-0.316c0.217-0.211,0.325-0.511,0.325-0.898c0-0.344-0.106-0.628-0.317-0.852
			c-0.213-0.224-0.583-0.336-1.111-0.336c-0.147,0-0.308,0.004-0.479,0.014c-0.174,0.008-0.333,0.034-0.48,0.078V203.896z
			 M381.885,198.344h1.021v6.456h-1.021V198.344z"/>
		<path d="M389.243,200.746l0.037-0.853h-0.037l-3.604,4.907h-0.93v-6.456h1.021v4.17l-0.04,0.813h0.053l3.577-4.983h0.941v6.456
			h-1.019V200.746z M386.388,195.735c0.086,0.396,0.234,0.672,0.446,0.827c0.211,0.155,0.454,0.232,0.73,0.232
			c0.273,0,0.52-0.082,0.733-0.245c0.216-0.164,0.362-0.43,0.44-0.801l0.774,0.245c-0.077,0.5-0.299,0.882-0.665,1.149
			c-0.365,0.267-0.802,0.401-1.311,0.401c-0.232,0-0.463-0.03-0.691-0.091c-0.228-0.06-0.432-0.15-0.613-0.271
			c-0.18-0.121-0.334-0.275-0.464-0.465s-0.216-0.413-0.258-0.671L386.388,195.735z"/>
		<path d="M323.767,214.444l-0.016-0.039c0.146-0.085,0.304-0.169,0.474-0.251c0.167-0.082,0.355-0.155,0.566-0.22
			c0.212-0.065,0.45-0.118,0.716-0.161c0.268-0.043,0.573-0.065,0.916-0.065c0.354,0,0.682,0.037,0.981,0.11
			c0.302,0.074,0.565,0.178,0.789,0.316c0.223,0.139,0.398,0.308,0.522,0.51c0.125,0.203,0.188,0.433,0.188,0.691
			c0,0.137-0.028,0.282-0.083,0.432c-0.058,0.151-0.141,0.295-0.254,0.432c-0.11,0.139-0.244,0.263-0.398,0.375
			c-0.156,0.112-0.332,0.198-0.53,0.259v0.051c0.568,0.095,0.967,0.275,1.194,0.542c0.229,0.267,0.342,0.621,0.342,1.059
			c0,0.275-0.064,0.529-0.192,0.762c-0.13,0.232-0.321,0.435-0.575,0.607c-0.254,0.172-0.568,0.308-0.942,0.407
			c-0.374,0.099-0.812,0.148-1.311,0.148c-0.37,0-0.705-0.034-1.007-0.102c-0.301-0.069-0.566-0.155-0.795-0.259
			c-0.228-0.104-0.421-0.215-0.579-0.336c-0.159-0.12-0.283-0.232-0.368-0.336l0.518-0.813c0.094,0.103,0.211,0.213,0.348,0.33
			c0.139,0.116,0.309,0.221,0.514,0.316c0.201,0.094,0.436,0.174,0.698,0.238c0.262,0.065,0.566,0.098,0.913,0.098
			c0.241,0,0.467-0.024,0.679-0.071c0.213-0.047,0.396-0.116,0.557-0.207c0.159-0.09,0.288-0.206,0.382-0.348
			c0.095-0.142,0.143-0.308,0.143-0.498c0-0.326-0.149-0.576-0.448-0.748c-0.298-0.172-0.788-0.258-1.472-0.258h-0.74v-0.84h0.917
			c0.171,0,0.345-0.028,0.517-0.083c0.172-0.056,0.326-0.129,0.465-0.219c0.138-0.09,0.249-0.198,0.335-0.323
			c0.088-0.125,0.129-0.256,0.129-0.395c0-0.171-0.041-0.32-0.129-0.445c-0.086-0.125-0.203-0.226-0.354-0.304
			c-0.151-0.077-0.329-0.136-0.529-0.175c-0.203-0.038-0.418-0.057-0.64-0.057c-0.345,0-0.646,0.031-0.903,0.096
			c-0.259,0.065-0.479,0.145-0.659,0.239v1.072h-0.876V214.444z"/>
		<path d="M331.19,214.341c0.37-0.215,0.787-0.371,1.252-0.465c0.464-0.094,0.92-0.142,1.368-0.142c0.439,0,0.797,0.068,1.077,0.207
			c0.28,0.138,0.501,0.316,0.661,0.536c0.158,0.219,0.265,0.469,0.321,0.749c0.057,0.28,0.083,0.561,0.083,0.846
			c0,0.326-0.008,0.675-0.024,1.045c-0.016,0.371-0.031,0.742-0.04,1.111c0,0.431,0.028,0.839,0.077,1.227h0.867v0.839h-1.707
			l-0.113-0.968h-0.065c-0.053,0.077-0.131,0.177-0.233,0.297c-0.103,0.121-0.239,0.239-0.407,0.355
			c-0.169,0.116-0.374,0.218-0.617,0.303c-0.241,0.086-0.524,0.129-0.854,0.129c-0.639,0-1.144-0.163-1.516-0.49
			c-0.369-0.327-0.557-0.775-0.557-1.344c0-0.438,0.098-0.804,0.293-1.097c0.194-0.292,0.472-0.517,0.835-0.672
			c0.363-0.154,0.8-0.245,1.314-0.271c0.514-0.026,1.09,0.009,1.729,0.104c0.041-0.396,0.048-0.725,0.019-0.988
			c-0.028-0.263-0.098-0.471-0.207-0.626c-0.107-0.155-0.259-0.265-0.453-0.329c-0.194-0.065-0.434-0.097-0.719-0.097
			c-0.389,0-0.76,0.055-1.116,0.161c-0.352,0.108-0.666,0.218-0.944,0.33L331.19,214.341z M333.101,219.544
			c0.241,0,0.465-0.039,0.673-0.116c0.204-0.078,0.387-0.177,0.542-0.297c0.155-0.12,0.282-0.252,0.387-0.393
			c0.102-0.143,0.18-0.279,0.232-0.408v-0.904c-0.447-0.077-0.862-0.116-1.239-0.116c-0.378,0-0.707,0.041-0.981,0.123
			c-0.276,0.083-0.492,0.209-0.646,0.381c-0.155,0.173-0.232,0.396-0.232,0.672c0,0.284,0.096,0.532,0.291,0.742
			C332.32,219.439,332.645,219.544,333.101,219.544z"/>
		<path d="M343.044,214.715h-2.221c-0.036,0.784-0.078,1.518-0.13,2.202c-0.052,0.685-0.148,1.28-0.291,1.789
			c-0.141,0.508-0.343,0.909-0.606,1.201c-0.263,0.293-0.618,0.439-1.066,0.439c-0.171,0-0.295-0.009-0.372-0.026
			c-0.078-0.017-0.174-0.047-0.285-0.09l0.168-0.956c0.163,0.043,0.316,0.064,0.458,0.064c0.144,0,0.27-0.051,0.382-0.155
			c0.111-0.103,0.213-0.269,0.304-0.497c0.09-0.228,0.167-0.55,0.231-0.968s0.12-0.943,0.161-1.575
			c0.045-0.633,0.077-1.402,0.103-2.306h4.184v6.456h-1.019V214.715z"/>
	</g>
	<g>
		<path d="M476.002,32.172h6.198v2.363h-0.954v-1.407h-2.932v7.126h2.027v0.956h-4.34v-0.956h1.24v-7.126h-1.24V32.172z"/>
		<path d="M484.195,37.014c0-0.078-0.002-0.178-0.006-0.304c-0.004-0.125-0.011-0.253-0.019-0.387
			c-0.008-0.133-0.019-0.265-0.03-0.394c-0.015-0.128-0.031-0.24-0.048-0.336h-0.864v-0.839h1.718l0.129,0.904h0.065
			c0.231-0.301,0.527-0.553,0.883-0.755c0.357-0.202,0.795-0.304,1.312-0.304c0.92,0,1.613,0.255,2.079,0.762
			c0.465,0.508,0.696,1.339,0.696,2.492c0,0.543-0.08,1.031-0.238,1.466c-0.159,0.434-0.386,0.803-0.679,1.104
			c-0.292,0.302-0.646,0.534-1.059,0.697c-0.411,0.163-0.868,0.245-1.368,0.245c-0.181,0-0.342-0.006-0.484-0.019
			c-0.142-0.014-0.271-0.031-0.388-0.052c-0.116-0.021-0.229-0.049-0.342-0.083c-0.112-0.034-0.232-0.077-0.361-0.129v2.711h-0.996
			V37.014z M487.166,35.555c-0.258,0-0.5,0.047-0.729,0.142c-0.227,0.094-0.43,0.22-0.606,0.374s-0.319,0.326-0.432,0.515
			s-0.181,0.378-0.207,0.567v2.936c0.189,0.128,0.402,0.229,0.639,0.303s0.55,0.109,0.937,0.109c0.688,0,1.239-0.226,1.653-0.676
			c0.412-0.451,0.618-1.11,0.618-1.977c0-0.73-0.143-1.295-0.433-1.693C488.316,35.754,487.838,35.555,487.166,35.555z"/>
		<path d="M491.887,35.257c0.37-0.214,0.786-0.369,1.252-0.464c0.467-0.094,0.923-0.142,1.368-0.142c0.44,0,0.8,0.068,1.08,0.207
			c0.278,0.138,0.497,0.316,0.656,0.536c0.16,0.22,0.269,0.469,0.323,0.749c0.056,0.28,0.084,0.561,0.084,0.846
			c0,0.327-0.009,0.675-0.025,1.045c-0.018,0.371-0.029,0.741-0.038,1.11c0,0.43,0.024,0.839,0.078,1.227h0.864v0.839h-1.705
			l-0.116-0.968h-0.065c-0.05,0.078-0.127,0.177-0.232,0.297c-0.104,0.121-0.24,0.239-0.408,0.355
			c-0.168,0.116-0.373,0.218-0.614,0.303s-0.526,0.128-0.854,0.128c-0.64,0-1.144-0.163-1.515-0.491
			c-0.372-0.326-0.557-0.774-0.557-1.343c0-0.438,0.096-0.804,0.289-1.097c0.195-0.292,0.473-0.517,0.836-0.672
			c0.363-0.154,0.802-0.244,1.313-0.271c0.515-0.026,1.092,0.009,1.729,0.104c0.045-0.396,0.052-0.725,0.02-0.988
			c-0.029-0.263-0.099-0.472-0.205-0.627c-0.109-0.155-0.261-0.265-0.454-0.329c-0.195-0.065-0.435-0.097-0.721-0.097
			c-0.388,0-0.761,0.055-1.112,0.161c-0.355,0.108-0.671,0.218-0.946,0.33L491.887,35.257z M493.798,40.462
			c0.24,0,0.464-0.039,0.671-0.117c0.208-0.077,0.389-0.176,0.543-0.297s0.284-0.252,0.387-0.394
			c0.103-0.143,0.181-0.278,0.231-0.407v-0.904c-0.447-0.077-0.858-0.116-1.238-0.116c-0.379,0-0.706,0.041-0.981,0.122
			c-0.276,0.083-0.49,0.209-0.646,0.381c-0.155,0.173-0.232,0.397-0.232,0.672c0,0.284,0.098,0.532,0.29,0.742
			C493.017,40.356,493.342,40.462,493.798,40.462z"/>
		<path d="M503.534,38.343h-3.461v2.867h-0.994v-6.456h0.994v2.686h3.461v-2.686h1.021v6.456h-1.021V38.343z"/>
		<path d="M506.738,35.257c0.37-0.214,0.789-0.369,1.254-0.464c0.465-0.094,0.922-0.142,1.369-0.142
			c0.438,0,0.798,0.068,1.078,0.207s0.498,0.316,0.658,0.536s0.266,0.469,0.323,0.749c0.054,0.28,0.084,0.561,0.084,0.846
			c0,0.327-0.009,0.675-0.025,1.045c-0.02,0.371-0.032,0.741-0.04,1.11c0,0.43,0.024,0.839,0.078,1.227h0.863v0.839h-1.704
			l-0.115-0.968h-0.065c-0.051,0.078-0.128,0.177-0.231,0.297c-0.105,0.121-0.241,0.239-0.41,0.355
			c-0.168,0.116-0.373,0.218-0.614,0.303c-0.242,0.085-0.527,0.128-0.854,0.128c-0.638,0-1.145-0.163-1.516-0.491
			c-0.372-0.326-0.556-0.774-0.556-1.343c0-0.438,0.096-0.804,0.291-1.097c0.193-0.292,0.472-0.517,0.836-0.672
			c0.36-0.154,0.799-0.244,1.313-0.271c0.515-0.026,1.089,0.009,1.729,0.104c0.043-0.396,0.049-0.725,0.02-0.988
			c-0.032-0.263-0.102-0.472-0.208-0.627c-0.107-0.155-0.259-0.265-0.454-0.329c-0.193-0.065-0.435-0.097-0.718-0.097
			c-0.389,0-0.761,0.055-1.114,0.161c-0.355,0.108-0.671,0.218-0.945,0.33L506.738,35.257z M508.65,40.462
			c0.242,0,0.466-0.039,0.67-0.117c0.209-0.077,0.389-0.176,0.543-0.297s0.284-0.252,0.389-0.394
			c0.104-0.143,0.182-0.278,0.232-0.407v-0.904c-0.448-0.077-0.861-0.116-1.24-0.116c-0.38,0-0.706,0.041-0.982,0.122
			c-0.273,0.083-0.489,0.209-0.645,0.381c-0.154,0.173-0.231,0.397-0.231,0.672c0,0.284,0.097,0.532,0.29,0.742
			C507.868,40.356,508.195,40.462,508.65,40.462z"/>
		<path d="M513.268,34.754h6.416v2.414h-0.879v-1.537h-1.818v4.713h1.563v0.865h-4.197v-0.865h1.614v-4.713h-1.819v1.537h-0.879
			V34.754z"/>
		<path d="M520.996,37.982c0-1.041,0.272-1.866,0.814-2.473s1.316-0.911,2.323-0.911c0.542,0,1.009,0.089,1.4,0.265
			c0.394,0.177,0.717,0.416,0.975,0.717c0.259,0.302,0.449,0.658,0.575,1.072c0.124,0.413,0.188,0.855,0.188,1.33
			c0,0.516-0.069,0.984-0.206,1.4c-0.138,0.418-0.341,0.774-0.607,1.065c-0.268,0.293-0.596,0.519-0.987,0.678
			s-0.838,0.239-1.337,0.239c-0.533,0-0.999-0.088-1.395-0.265c-0.395-0.176-0.724-0.415-0.981-0.716s-0.45-0.659-0.573-1.072
			C521.058,38.899,520.996,38.456,520.996,37.982z M522.068,37.982c0,0.302,0.037,0.603,0.11,0.903
			c0.071,0.302,0.189,0.573,0.352,0.814c0.164,0.241,0.377,0.435,0.638,0.581c0.263,0.146,0.581,0.219,0.96,0.219
			c0.685,0,1.202-0.213,1.55-0.639c0.348-0.426,0.521-1.053,0.521-1.878c0-0.31-0.036-0.613-0.109-0.911
			c-0.072-0.297-0.193-0.566-0.36-0.807c-0.167-0.24-0.382-0.435-0.643-0.581c-0.264-0.146-0.583-0.219-0.959-0.219
			c-0.688,0-1.203,0.21-1.544,0.632C522.238,36.519,522.068,37.147,522.068,37.982z"/>
		<path d="M529.193,34.768c0.166-0.01,0.33-0.02,0.492-0.033c0.163-0.013,0.339-0.024,0.529-0.032
			c0.188-0.008,0.395-0.018,0.613-0.026c0.221-0.008,0.467-0.013,0.742-0.013c0.931,0,1.602,0.131,2.015,0.394
			c0.412,0.263,0.619,0.656,0.619,1.181c0,0.302-0.098,0.601-0.297,0.898c-0.198,0.297-0.521,0.51-0.969,0.639v0.052
			c0.568,0.095,0.969,0.269,1.2,0.522c0.233,0.254,0.35,0.601,0.35,1.041c0,0.671-0.273,1.158-0.819,1.458
			c-0.547,0.302-1.342,0.452-2.383,0.452c-0.413,0-0.782-0.012-1.11-0.032c-0.327-0.022-0.652-0.045-0.982-0.071V34.768z
			 M531.725,37.479c0.173,0,0.345-0.028,0.517-0.085c0.174-0.056,0.331-0.129,0.472-0.219c0.142-0.091,0.256-0.199,0.342-0.323
			c0.086-0.125,0.13-0.257,0.13-0.394c0-0.353-0.128-0.599-0.381-0.736c-0.255-0.138-0.677-0.207-1.272-0.207
			c-0.326,0-0.588,0.004-0.78,0.014c-0.195,0.008-0.381,0.017-0.563,0.025v1.925H531.725z M530.188,40.397
			c0.2,0.017,0.399,0.03,0.598,0.038c0.198,0.009,0.423,0.013,0.675,0.013c0.673,0,1.177-0.083,1.509-0.251
			c0.333-0.168,0.499-0.458,0.499-0.872c0-0.163-0.032-0.31-0.097-0.44c-0.065-0.128-0.173-0.24-0.324-0.335
			s-0.348-0.168-0.59-0.219c-0.242-0.052-0.544-0.078-0.907-0.078h-1.362V40.397z"/>
		<path d="M537.044,37.221c0.208-0.034,0.408-0.059,0.597-0.071c0.191-0.013,0.372-0.02,0.544-0.02c0.441,0,0.811,0.05,1.108,0.148
			c0.297,0.099,0.538,0.234,0.72,0.407c0.18,0.173,0.309,0.376,0.382,0.613c0.073,0.237,0.109,0.489,0.109,0.756
			c0,0.783-0.216,1.351-0.65,1.704c-0.436,0.354-1.14,0.529-2.113,0.529c-0.55,0-1.12-0.025-1.716-0.077v-6.456h1.02V37.221z
			 M537.044,40.307c0.32,0.051,0.627,0.078,0.922,0.078c0.545,0,0.927-0.105,1.142-0.317c0.217-0.21,0.324-0.51,0.324-0.896
			c0-0.344-0.105-0.629-0.316-0.852c-0.211-0.224-0.581-0.336-1.109-0.336c-0.147,0-0.309,0.004-0.48,0.013
			c-0.175,0.008-0.334,0.034-0.481,0.077V40.307z M541.524,34.754h1.021v6.456h-1.021V34.754z"/>
		<path d="M548.881,37.156l0.041-0.852h-0.04l-3.603,4.906h-0.929v-6.456h1.019v4.17l-0.037,0.814h0.05l3.577-4.984h0.943v6.456
			h-1.021V37.156z M546.028,32.146c0.085,0.396,0.234,0.672,0.446,0.827c0.21,0.155,0.454,0.232,0.729,0.232
			c0.275,0,0.521-0.082,0.736-0.246c0.215-0.163,0.362-0.43,0.439-0.801l0.773,0.246c-0.076,0.5-0.298,0.882-0.664,1.149
			s-0.803,0.4-1.312,0.4c-0.23,0-0.462-0.029-0.69-0.09c-0.228-0.06-0.432-0.15-0.612-0.271c-0.182-0.12-0.337-0.275-0.465-0.464
			c-0.13-0.189-0.216-0.414-0.259-0.672L546.028,32.146z"/>
		<path d="M476.48,50.855l-0.013-0.039c0.146-0.086,0.304-0.17,0.472-0.252c0.169-0.081,0.357-0.155,0.568-0.22
			c0.211-0.064,0.449-0.118,0.716-0.161c0.268-0.043,0.573-0.065,0.916-0.065c0.354,0,0.681,0.037,0.981,0.11
			c0.302,0.074,0.564,0.179,0.788,0.317s0.399,0.308,0.523,0.51c0.124,0.202,0.188,0.432,0.188,0.691
			c0,0.138-0.028,0.282-0.084,0.432c-0.057,0.151-0.14,0.295-0.253,0.433c-0.11,0.137-0.244,0.263-0.399,0.375
			c-0.155,0.111-0.331,0.198-0.529,0.258v0.052c0.568,0.094,0.966,0.275,1.194,0.542c0.229,0.267,0.342,0.62,0.342,1.059
			c0,0.276-0.065,0.529-0.192,0.762c-0.13,0.232-0.322,0.435-0.576,0.606c-0.253,0.173-0.567,0.308-0.941,0.407
			c-0.374,0.099-0.812,0.148-1.312,0.148c-0.369,0-0.705-0.034-1.007-0.104c-0.3-0.069-0.565-0.155-0.794-0.258
			c-0.228-0.103-0.421-0.214-0.579-0.335c-0.161-0.121-0.283-0.232-0.368-0.336l0.516-0.813c0.096,0.102,0.212,0.212,0.35,0.329
			c0.139,0.116,0.309,0.222,0.513,0.316c0.201,0.095,0.435,0.174,0.699,0.239c0.262,0.064,0.566,0.097,0.913,0.097
			c0.241,0,0.467-0.023,0.679-0.071c0.213-0.047,0.396-0.116,0.557-0.207c0.159-0.09,0.288-0.206,0.382-0.348
			c0.095-0.143,0.143-0.308,0.143-0.498c0-0.327-0.149-0.576-0.448-0.749c-0.299-0.171-0.788-0.257-1.472-0.257h-0.74v-0.84h0.916
			c0.172,0,0.346-0.028,0.518-0.084c0.172-0.056,0.326-0.128,0.465-0.219c0.138-0.091,0.249-0.199,0.335-0.323
			c0.087-0.125,0.129-0.256,0.129-0.394c0-0.173-0.042-0.321-0.129-0.446c-0.086-0.125-0.203-0.226-0.354-0.304
			c-0.151-0.077-0.329-0.135-0.53-0.174c-0.202-0.038-0.417-0.058-0.64-0.058c-0.344,0-0.645,0.032-0.902,0.097
			c-0.26,0.064-0.479,0.144-0.659,0.239v1.072h-0.879V50.855z"/>
		<path d="M483.907,50.751c0.368-0.215,0.787-0.37,1.251-0.464c0.465-0.095,0.921-0.143,1.369-0.143c0.439,0,0.797,0.07,1.077,0.208
			c0.28,0.137,0.501,0.316,0.661,0.536c0.158,0.218,0.265,0.469,0.32,0.748c0.058,0.281,0.084,0.562,0.084,0.846
			c0,0.327-0.008,0.676-0.024,1.046c-0.019,0.37-0.031,0.741-0.04,1.111c0,0.43,0.027,0.839,0.077,1.227h0.866v0.839h-1.706
			l-0.113-0.968h-0.065c-0.053,0.077-0.131,0.176-0.233,0.296c-0.105,0.121-0.239,0.24-0.409,0.356
			c-0.167,0.116-0.373,0.217-0.615,0.303c-0.241,0.086-0.525,0.129-0.854,0.129c-0.639,0-1.144-0.163-1.516-0.491
			c-0.369-0.327-0.557-0.774-0.557-1.343c0-0.439,0.098-0.804,0.292-1.098c0.192-0.292,0.473-0.516,0.836-0.671
			s0.8-0.246,1.314-0.271c0.514-0.026,1.09,0.009,1.729,0.103c0.041-0.395,0.048-0.725,0.019-0.988
			c-0.028-0.263-0.098-0.471-0.207-0.626c-0.107-0.155-0.259-0.265-0.453-0.33c-0.194-0.064-0.434-0.096-0.719-0.096
			c-0.389,0-0.76,0.054-1.116,0.161c-0.352,0.108-0.667,0.218-0.944,0.33L483.907,50.751z M485.817,55.955
			c0.241,0,0.465-0.039,0.673-0.117c0.204-0.077,0.386-0.175,0.542-0.297c0.155-0.12,0.282-0.251,0.387-0.393
			c0.102-0.143,0.18-0.278,0.232-0.407v-0.904c-0.447-0.077-0.862-0.116-1.241-0.116c-0.377,0-0.705,0.041-0.979,0.122
			c-0.276,0.082-0.492,0.209-0.646,0.381c-0.155,0.171-0.233,0.396-0.233,0.671c0,0.284,0.097,0.531,0.292,0.742
			C485.036,55.849,485.361,55.955,485.817,55.955z"/>
		<path d="M495.761,51.126h-2.221c-0.036,0.783-0.078,1.518-0.13,2.201c-0.053,0.685-0.148,1.281-0.292,1.789
			c-0.141,0.509-0.342,0.908-0.606,1.201c-0.262,0.292-0.617,0.438-1.065,0.438c-0.172,0-0.296-0.008-0.372-0.025
			c-0.08-0.018-0.174-0.048-0.285-0.091l0.168-0.956c0.163,0.043,0.316,0.065,0.458,0.065c0.143,0,0.268-0.052,0.381-0.155
			c0.112-0.104,0.214-0.269,0.304-0.497c0.091-0.228,0.168-0.551,0.232-0.969c0.064-0.417,0.119-0.942,0.161-1.575
			c0.045-0.632,0.077-1.4,0.103-2.304h4.184v6.456h-1.019V51.126z"/>
	</g>
	<path d="M101.812,398.565h-0.538c0-35.41,6.291-70.01,18.7-102.835c11.988-31.711,29.326-60.885,51.532-86.708
		c44.764-52.053,106.519-86.697,173.918-97.568v-2.991l-1.081-26.644h48.035v25.911h46.945V74.25h21.713v264.64h-0.538V74.788
		h-20.638v33.481h-48.021V82.358h-46.937l1.059,26.095v3.46l-0.227,0.037C204.397,134.632,101.812,255.171,101.812,398.565z"/>
</g>
<g id="Layer_3">
	<g>
		<path fill="#7F8C8D" d="M493.264,503.924c-22.617-20.085-45.953-48.694-47.561-108.611l1.613-0.044
			c1.59,59.302,24.662,87.593,47.02,107.448L493.264,503.924z"/>
		<g>
			<polygon fill="#7F8C8D" points="446.459,383.892 453.165,399.888 446.57,396.137 440.045,400.008 			"/>
		</g>
	</g>
	<g>
		<path fill="#7F8C8D" d="M447.227,368.31l-1.616-0.038l0.378-15.167c2.672-107.394,5.434-218.444,2.422-225.226
			c-1.964-4.42-9.784-4.611-16.363-4.287l-0.08-1.612c7.544-0.373,15.57-0.041,17.918,5.243
			c3.161,7.113,0.517,113.396-2.283,225.922L447.227,368.31z"/>
		<g>
			<polygon fill="#7F8C8D" points="420.637,123.516 436.265,115.99 432.861,122.77 437.061,129.087 			"/>
		</g>
	</g>
	<g>
		
			<rect x="351.728" y="84.55" transform="matrix(0.1507 0.9886 -0.9886 0.1507 427.4307 -238.5252)" fill="#7F8C8D" width="1.614" height="89.899"/>
		<g>
			<polygon fill="#7F8C8D" points="296.843,138.044 311.72,129.125 308.949,136.188 313.71,142.093 			"/>
		</g>
	</g>
	<g>
		
			<rect x="236.741" y="144.511" transform="matrix(0.5857 0.8105 -0.8105 0.5857 238.8772 -120.7386)" fill="#7F8C8D" width="1.614" height="57.591"/>
		<g>
			<polygon fill="#7F8C8D" points="204.973,196.847 214.145,182.123 214.899,189.673 221.83,192.758 			"/>
		</g>
	</g>
	<g>
	</g>
	<g>
	</g>
	<g>
	</g>
	<g>
	</g>
	<g>
	</g>
	<g>
	</g>
</g>
</svg>
