<?xml version="1.0" encoding="utf-8"?>
<!-- Generator: Adobe Illustrator 17.0.0, SVG Export Plug-In . SVG Version: 6.00 Build 0)  -->
<!DOCTYPE svg PUBLIC "-//W3C//DTD SVG 1.1//EN" "http://www.w3.org/Graphics/SVG/1.1/DTD/svg11.dtd">
<svg version="1.1" id="Слой_1" xmlns="http://www.w3.org/2000/svg" xmlns:xlink="http://www.w3.org/1999/xlink" x="0px" y="0px"
	 width="300px" height="300px" viewBox="0 0 300 300" enable-background="new 0 0 300 300" xml:space="preserve">
<g>
	<path fill="#FFFFFF" d="M101.425,181.384c0.033-0.312,0.015-0.147-0.004,0.038"/>
	<path fill="#FFFFFF" d="M101.425,181.384c-0.002,0.012-0.002,0.027-0.004,0.038"/>
	<path fill="#FFFFFF" d="M100.938,39.925c0.001-0.015,0.001-0.026,0.002-0.041c0-0.011,0-0.023,0-0.034"/>
	<path fill="#FFFFFF" d="M100.938,39.925c-0.002,0.191-0.002,0.286,0.005-0.147c-0.002,0.026-0.002,0.049-0.003,0.072"/>
	<path fill="#FFFFFF" d="M172.669,82.375c-0.066-0.009-0.146-0.013-0.207-0.023"/>
	<path fill="#FFFFFF" d="M172.669,82.375c-0.006-0.001-0.052-0.006-0.207-0.023"/>
	<path fill="#FFFFFF" d="M63.639,123.61C63.485,123.528,63.334,123.449,63.639,123.61"/>
	<path fill="#FFFFFF" d="M101.42,181.427c0,0.001-0.001,0.003-0.001,0.004c-0.004,0.04-0.008,0.077-0.011,0.111
		c0-0.004,0.001-0.009,0.001-0.012"/>
	<path fill="#FFFFFF" d="M101.42,181.427c0,0.002-0.001,0.003-0.001,0.005c-0.003,0.032-0.007,0.065-0.01,0.098"/>
	<path fill="#FFFFFF" d="M167.922,264.699c0.146,0.064,0.275,0.12-0.015-0.011c-0.299-0.129-0.161-0.066-0.013-0.001
		c0.001,0,0.001,0,0.002,0C167.901,264.689,167.915,264.695,167.922,264.699"/>
	<path fill="#FFFFFF" d="M54.859,121.706c0.008-0.005,0.012-0.012,0.018-0.018C54.978,121.556,55.065,121.441,54.859,121.706"/>
	<path fill="#FFFFFF" d="M240.338,153.259c0.067-0.023,0.13-0.052,0.198-0.075c0.015-0.402,0.035-0.818,0.055-1.234
		C240.508,152.596,240.418,153.029,240.338,153.259z"/>
	<path fill="#FFFFFF" d="M289.835,113.747c-0.336,0.302-0.202,0.182-0.036,0.033"/>
	<path fill="#FFFFFF" d="M289.835,113.747c-0.009,0.008-0.026,0.023-0.036,0.033"/>
	<path fill="#FFFFFF" d="M296.005,81.576c-3.752-0.029-1.542,1.15,2.209,1.15c0.588,0.006,1.096-0.052,1.475-0.144
		c0.936,0.125,1.903,0.214,2.012,0.065"/>
	<path fill="#FFFFFF" d="M301.7,82.646c0.056-0.068-0.286-0.165-0.819-0.274c1.148-0.018,3.733-0.094,4.497-0.122"/>
	<path fill="#FFFFFF" d="M188.782,111.572c-4.031-2.912-0.176,4.9,1.394,3.147C190.717,114.095,189.273,111.92,188.782,111.572"/>
	<path fill="#FFFFFF" d="M164.759,53.247C164.749,52.958,164.764,53.522,164.759,53.247"/>
	<path fill="#FFFFFF" d="M196.796,137.893c0.354,0.737,6.746,1.826,5.293-0.859C201.014,135.065,196.099,136.086,196.796,137.893z"
		/>
	<path fill="#FFFFFF" d="M188.782,111.572C189.47,112.061,188.08,111.065,188.782,111.572"/>
	<path fill="#FFFFFF" d="M164.759,53.247c0.005,0.844,10.463,1.365,10.414,0.132C175.113,51.784,164.626,49.377,164.759,53.247"/>
	<path fill="#FFFFFF" d="M199.497,81.674c-1.065,0.074,2.259,0.923,2.096,0.948C202.266,82.579,199.143,81.773,199.497,81.674z"/>
	<path fill="#FFFFFF" d="M123.009,10.941c0.501-0.431,0.982-0.893,1.444-1.365c-0.574-1.012-6.608,3.31-5.971,3.495
		C119.541,13.416,122.272,11.619,123.009,10.941"/>
	<path fill="#FFFFFF" d="M168.014,203.49c0.074-0.491-0.021-0.943-0.284-1.365c-0.638-0.178-2.426-0.659-2.995-0.098
		C164.493,202.253,167.837,204.03,168.014,203.49z"/>
	<path fill="#FFFFFF" d="M123.009,10.941C122.203,11.687,123.823,10.205,123.009,10.941"/>
	<path fill="#FFFFFF" d="M123.824,56.242C124.444,56.87,123.221,55.609,123.824,56.242"/>
	<path fill="#FFFFFF" d="M122.979,8.889c-0.003-0.082-0.004-0.054-0.005-0.017c-0.046-0.662-1.88-2.595-1.861-2.683
		c-0.155,0.592,1.778,3.65,1.861,2.724C122.974,8.937,122.975,8.95,122.979,8.889z"/>
	<path fill="#FFFFFF" d="M240.028,120.698C240.013,120.119,240.039,121.288,240.028,120.698"/>
	<path fill="#FFFFFF" d="M239.787,95.973c0.168,0.662,1.895,5.356,1.906,6.029C241.692,100.097,240.013,96.862,239.787,95.973z"/>
	<path fill="#FFFFFF" d="M213.479,81.517C216.435,81.605,210.519,81.424,213.479,81.517"/>
	<path fill="#FFFFFF" d="M241.018,113.619c-0.072,0.047-0.206-0.27-0.281-0.325c0.024,0.011,0.042,0.019-0.008-0.009
		c-0.049-0.023-0.038-0.017-0.021-0.005c-0.086-0.059-0.169-0.033-0.251,0.104C240.484,113.256,240.925,113.688,241.018,113.619z"/>
	<path fill="#FFFFFF" d="M240.028,120.698c0.068,3.85,1.576,0.718,1.418-1.562c-0.187-2.557-0.393-2.273-0.776-1.261
		C240.582,118.116,240.003,119.683,240.028,120.698"/>
	<path fill="#FFFFFF" d="M224.189,121.387c-0.184,0.247,1.935,1.936,2.193,2.14c-0.315-0.243-0.581-0.448,0.05,0.04
		c0.661,0.509,0.349,0.269,0.022,0.015c1.659,1.266,3.463,1.262,1.742-1.051C227.841,122.055,224.587,120.877,224.189,121.387z"/>
	<path fill="#FFFFFF" d="M205.545,31.142c-0.775-0.629-1.698-1.129-2.416-1.837C203.698,30.013,204.827,30.582,205.545,31.142z"/>
	<path fill="#FFFFFF" d="M214.119,83.214C214.025,83.219,214.192,83.219,214.119,83.214"/>
	<path fill="#FFFFFF" d="M201.647,56.967c-0.472-0.825-3.025,0.05-3.55,0.373c-0.668,0.413,0.417,2.431,0.524,2.385
		c0.953-0.382,1.954-1.423,2.73-2.086c0.301-0.258,0.152-0.132,0.001-0.003C201.451,57.417,201.55,57.192,201.647,56.967z"/>
	<path fill="#FFFFFF" d="M214.119,83.214c0.701,0.018,1.848-0.208,3.09-0.519c0.281-0.013,0.549-0.029,0.802-0.046
		c-0.669,0.074-1.267,0.156-1.471,0.233c-0.137,0.051,4.407-0.356,8.33-0.756c-0.252,0.127-0.556,0.265-0.803,0.334
		c0.368-0.101,0.634-0.22,0.856-0.339c3.231-0.33,6.024-0.655,5.4-0.712c-3.502,0.176-7.184,0.721-10.169,1.026
		c-0.244,0.026-0.591,0.058-0.973,0.095c0.352-0.061,0.48-0.137,0.226-0.231c-0.091-0.033-0.21-0.068-0.336-0.102
		c1.952-0.552,3.729-1.123,4.038-1.115c-1.622-0.038-3.141,0.459-4.593,0.983c-1.192-0.248-3.118-0.486-5.035-0.546"/>
	<path fill="#FFFFFF" d="M213.479,81.517c-7.895-0.245-5.42,1.449,0.541,1.279c0.629-0.015,1.631-0.038,2.608-0.077
		c-0.853,0.274-1.689,0.483-2.509,0.495"/>
	<path fill="#FFFFFF" d="M77.406,70.029c0.176-1.306,0.334-2.828,0.486-4.301c0.073-0.403,0.099-0.894,0.083-1.463
		C77.602,63.881,77.583,68.732,77.406,70.029z"/>
	<path fill="#FFFFFF" d="M74.605,138.752c-0.471,0.515-0.912,3.407-1.237,3.55c0.403-0.211,0.787-1.316,0.987-1.714
		c0.1-0.205,0.056-0.123,0.005-0.023C74.407,140.42,74.815,138.557,74.605,138.752z"/>
	<path fill="#FFFFFF" d="M101.019,111.546c0.092-0.728,0.179-1.417-0.006,0.041c-0.368,2.912-0.756,5.785-0.737,9.947
		c0.015,4.723,0.717-0.913,0.923-2.525c0.313-2.44,0.873-6.117,0.962-9.603C102.244,106.171,101.144,110.684,101.019,111.546z"/>
	<path fill="#FFFFFF" d="M114.513,76.679c0.069-0.171,0.119-0.307,0.119-0.357C114.606,76.396,114.563,76.525,114.513,76.679"/>
	<path fill="#FFFFFF" d="M101.179,62.029C101.277,62.333,101.085,61.73,101.179,62.029"/>
	<path fill="#FFFFFF" d="M47.926,180.432c-0.349-0.049-1.734-1.895-2.146-1.65C45.678,178.877,47.616,180.389,47.926,180.432z"/>
	<path fill="#FFFFFF" d="M54.859,121.706c-0.221,0.293-0.093,0.127,0.018-0.018c0.358-0.283,0.491-0.624,0.414-1.019
		c-1.973-0.27-2.077,3.167-3.004,4.09C53.209,123.831,54.063,122.751,54.859,121.706"/>
	<path fill="#FFFFFF" d="M57.923,208.021c-1.154-0.412-2.665,0.235-3.049,1.468C54.79,209.785,58.286,208.149,57.923,208.021z"/>
	<path fill="#FFFFFF" d="M56.51,41.88c-0.833,0-0.615-5.065-2.777-5.061c0.047,0,0.087-0.001-0.013-0.001
		c-0.092,0.001-0.05,0.001-0.003,0.001C53.24,36.85,55.558,41.958,56.51,41.88z"/>
	<path fill="#FFFFFF" d="M240.317,138.964c0.176,0.245,1.058,0.367,1.138-1.178c-0.009,0.18-0.018,0.352,0.001-0.005
		c0.018-0.357,0.01-0.194,0-0.018c0.111-2.213-1.131-12.764-1.42-5.177C239.973,134.27,240.013,138.541,240.317,138.964z"/>
	<path fill="#FFFFFF" d="M78.162,36.591c-0.05-0.668-0.849,2.456-0.943,2.101C77.289,39.753,78.143,36.434,78.162,36.591z"/>
	<path fill="#FFFFFF" d="M101.936,22.127c0.113-2.205-1.131-12.77-1.42-5.18c-0.064,1.683-0.024,5.956,0.281,6.379
		c0.176,0.244,1.056,0.366,1.138-1.175c0-0.004,0-0.004,0-0.009C101.955,21.781,101.946,21.948,101.936,22.127z"/>
	<path fill="#FFFFFF" d="M101.717,52.185c-0.069-0.055-0.168,0.281-0.276,0.806c-0.02-1.129-0.097-3.631-0.123-4.446
		c0.009,0.228,0.013,0.31-0.008-0.239c-0.022-0.547-0.019-0.463-0.01-0.233c-0.022-0.467-0.045-0.793-0.069-0.998
		c-0.004-0.092-0.006-0.175-0.009-0.231c0.008,0.175,0.013,0.276,0,0.001c-0.003,0.004-0.15-2.809-0.141-2.339
		c0.004,0.247,0.05,1.232,0.104,2.314c-0.198-0.485-0.376,5.97,0.162,6.668c-0.004,0.019-0.008,0.041-0.012,0.061
		c-0.334-0.176-0.721,0.908-0.698,4.33c-0.029,3.747,1.159,1.542,1.159-2.214c0.006-0.593-0.054-1.106-0.148-1.485
		C101.773,53.249,101.863,52.291,101.717,52.185"/>
	<path fill="#FFFFFF" d="M101.717,52.185C101.795,52.244,101.639,52.121,101.717,52.185"/>
	<path fill="#FFFFFF" d="M100.507,5.06C100.492,4.48,100.516,5.649,100.507,5.06"/>
	<path fill="#FFFFFF" d="M100.507,5.06c0.068,3.849,1.576,0.717,1.42-1.562c-0.187-2.557-0.393-2.273-0.776-1.261
		C101.062,2.477,100.483,4.043,100.507,5.06"/>
	<path fill="#FFFFFF" d="M100.938,39.925c0-0.014,0-0.023,0-0.038c0.001-0.013,0.001-0.025,0.002-0.037"/>
	<path fill="#FFFFFF" d="M101.72,30.38c-0.011-0.427-0.035-0.884-0.064-1.34c0.16-2.233,0.295-4.322,0.257-4.534
		c-0.04-0.215-0.226,1.021-0.436,2.589c-0.18-1.455-0.43-2.454-0.659-1.803c-0.147,0.416-0.123,1.038-0.021,1.706
		c-0.008,0.026-0.02,0.035-0.024,0.075c-0.026,0.283,0.234,1.915,0.361,2.682c0,0.005-0.001,0.009-0.001,0.013
		c-0.15,1.203-0.276,2.261-0.328,2.71"/>
	<path fill="#FFFFFF" d="M101.72,30.38c0-0.001-0.027-0.073-0.069-0.192c0.05,1.035-0.032,1.342-0.16,1.102
		c-0.054,0.723-0.105,1.388-0.147,1.943c0.049-0.128,0.1-0.02,0.151,0.431c0.058,0.513,0.004,1.714-0.088,3.013
		c0.02,0.191,0.018,0.508-0.024,0.992c-0.027,0.174-0.056,0.31-0.086,0.426c-0.119,1.412-0.252,2.69-0.302,3.069
		c-0.073-0.159-0.093-0.583-0.057-1.239"/>
	<path fill="#FFFFFF" d="M100.787,32.636c-0.582,5.205-0.096,6.603,0.284,3.672c-0.074,1.478-0.123,3.017-0.127,3.468
		c0.005-0.585-0.001-0.211-0.005,0.074"/>
	<path fill="#FFFFFF" d="M142.742,41.659c-2.051-2.161-8.583,3.397-10.094,4.625c-1.12,0.903-4.871,6.549-2.248,7.158
		c3.004,0.707,8.002-1.138,9.913-3.554C141.18,48.798,143.978,42.916,142.742,41.659"/>
	<path fill="#FFFFFF" d="M100.805,32.477c0.227-2.03-0.285,2.521-0.018,0.159"/>
	<path fill="#FFFFFF" d="M101.72,30.38C101.734,30.895,101.706,29.824,101.72,30.38"/>
	<path fill="#FFFFFF" d="M255.067,82.145C255.538,81.989,254.595,82.299,255.067,82.145"/>
	<path fill="#FFFFFF" d="M263.367,82.199c-0.072,0-0.088,0,0.105,0.001c0.283,0.003,0.157,0.001,0.02,0
		c1.16,0.004,2.952-0.024,4.05-0.093C268.039,82.077,261.265,82.181,263.367,82.199z"/>
	<path fill="#FFFFFF" d="M278.34,62.869C278.488,62.565,278.173,63.179,278.34,62.869"/>
	<path fill="#FFFFFF" d="M287.86,81.949c-0.127-0.02-2.259,0.349-2.317,0.407C285.606,82.293,288.214,82.027,287.86,81.949z"/>
	<path fill="#FFFFFF" d="M38.352,91.445c0,0.01-4.965-0.766-5.21-0.393C32.764,91.76,38.352,92.369,38.352,91.445z"/>
	<path fill="#FFFFFF" d="M20.135,111.684c-2.49,2.306,2.948,2.647,4.306,1.858c-0.44,0.271-0.857,0.528,0.026-0.012
		c0.875-0.541,0.471-0.294,0.035-0.026C28.018,111.29,22.093,109.864,20.135,111.684z"/>
	<path fill="#FFFFFF" d="M44.135,82.425c-0.078-0.093-3.426-0.633-3.711-0.54c-0.157,0.093-0.225,0.187-0.206,0.28
		C40.619,82.224,44.136,82.411,44.135,82.425z"/>
	<path fill="#FFFFFF" d="M279.469,151.337c1.252,0.623,2.701-1.1,2.013-2.239C280.814,148.004,278.409,150.827,279.469,151.337"/>
	<path fill="#FFFFFF" d="M268.613,80.908c-0.029,0.197,1.124,2.573,3.879,2.475C275.1,83.383,268.579,81.144,268.613,80.908z"/>
	<path fill="#FFFFFF" d="M279.469,151.337C278.791,151.007,280.142,151.671,279.469,151.337"/>
	<path fill="#FFFFFF" d="M278.34,62.869c-0.858,1.62,2.509,2.063,3.315,1.571c0.849-0.52,2.067-3.967,1.281-4.811
		C282.552,59.211,278.615,62.3,278.34,62.869"/>
	<path fill="#FFFFFF" d="M17.947,215.362c-1.287,5.603,7.63,3.844,6.755-0.382c-0.255-1.238-0.735-4.512-2.641-3.82
		C20.402,211.768,18.35,213.574,17.947,215.362"/>
	<path fill="#FFFFFF" d="M305.379,82.251c-0.055,0.002-0.105,0.005-0.142,0.006c0.043-0.002,0.117-0.005,0.207-0.009"/>
	<path fill="#FFFFFF" d="M301.7,82.646C301.641,82.729,301.759,82.568,301.7,82.646"/>
	<path fill="#FFFFFF" d="M305.569,82.243c0.004,0,0.006,0,0.01,0c-0.023,0.001-0.088,0.003-0.136,0.005"/>
	<path fill="#FFFFFF" d="M296.005,81.576C296.241,81.571,295.76,81.571,296.005,81.576"/>
	<path fill="#FFFFFF" d="M4.876,133.763c-1.14,0.271-2.298,2.912-2.867,2.976C3.54,136.548,4.021,133.974,4.876,133.763z"/>
	<path fill="#FFFFFF" d="M16.925,159.871c-0.188,1.074-4.149,3.186-3.521,4.841C13.34,164.534,16.754,160.862,16.925,159.871z"/>
	<path fill="#FFFFFF" d="M17.947,215.362C18.417,213.266,17.465,217.464,17.947,215.362"/>
	<path fill="#FFFFFF" d="M1.586,172.041C1.487,172.11,1.694,172.007,1.586,172.041"/>
	<path fill="#FFFFFF" d="M77.057,24.709C77.145,21.753,76.964,27.664,77.057,24.709"/>
	<path fill="#FFFFFF" d="M241.077,73.601C241.032,74.249,241.127,72.962,241.077,73.601"/>
	<path fill="#FFFFFF" d="M236.027,69.626c0.292,0.448,1.605,0.079,1.889-0.228c-0.075,0.09-0.142,0.171,0.01-0.008
		c0.24-0.285,0.781-0.795,0.526-1.247C238.256,67.677,235.634,69.007,236.027,69.626z"/>
	<path fill="#FFFFFF" d="M235.594,38.291c0.285,0.529,3.152,4.05,2.592,1.659C237.774,38.182,234.759,36.749,235.594,38.291"/>
	<path fill="#FFFFFF" d="M239.695,40.396c0.123-0.054-2.736-2.214-2.755-2.312C236.94,38.368,239.572,40.46,239.695,40.396z"/>
	<path fill="#FFFFFF" d="M240.646,40.047c0.001,0.035,0.001,0.063,0.003,0.097c0,0.005,0,0.011,0,0.017
		c0.001,0.033,0.005,0.07,0.006,0.104c-0.001-0.022-0.001-0.043-0.002-0.068C240.651,40.136,240.649,40.09,240.646,40.047z"/>
	<path fill="#FFFFFF" d="M235.594,38.291C235.388,37.917,235.791,38.664,235.594,38.291"/>
	<path fill="#FFFFFF" d="M240.253,94.567C240.243,92.922,240.253,96.246,240.253,94.567"/>
	<path fill="#FFFFFF" d="M240.849,43.73c0.004,0.16,0.014,0.326,0.014,0.482C240.863,44.104,240.857,43.93,240.849,43.73"/>
	<path fill="#FFFFFF" d="M231.489,12.719C231.852,12.484,231.116,12.954,231.489,12.719"/>
	<path fill="#FFFFFF" d="M241.077,73.601c0.047-0.652,0.055-1.035,0.041-1.251c0.091-0.097,0.152-0.179,0.155-0.148
		c-0.107-1.266-0.613-2.392-0.802-2.079c0.036-0.065,0.07-0.125-0.004,0.003c-0.109,0.059-0.192,0.368-0.256,0.932
		c0.056,1.558,0.396,1.658,0.677,1.487c-0.093,0.336-0.2,0.834-0.293,1.359c-0.072-0.691-0.153-1.194-0.247-1.294
		c-0.59-0.618-0.359,5.361-0.168,7.306c0.02,0.216,0.091,0.89,0.187,1.788c-2.308-0.278-4.767-0.509-8.014-0.501
		c-4.723,0.02,0.908,0.723,2.528,0.934c1.507,0.194,3.49,0.478,5.611,0.688c0.082,0.749,0.171,1.573,0.263,2.413
		c-0.095,0.279-0.178,1.01-0.248,1.961c-0.079-0.453-0.133-0.771-0.132-0.81c-0.013,0.334,0.032,0.751,0.104,1.203
		c-0.152,2.311-0.234,5.6-0.226,6.975"/>
	<path fill="#FFFFFF" d="M240.253,94.567c0,3.447,0.496-0.795,0.585-1.596c0.066-0.605,0.161-1.331,0.242-2.114
		c0.015,0.137,0.029,0.274,0.033,0.39c-0.004-0.105-0.017-0.246-0.033-0.403c0.054-0.521,0.099-1.063,0.127-1.613
		c0.15,1.271,0.261,2.123,0.275,2.005c0.115-0.81-0.096-5.017-0.289-8.351c1.088,0.097,2.198,0.173,3.293,0.201
		c3.265,0.089-1.371-1.034-2.168-1.141c-0.08-0.01-0.156-0.02-0.234-0.03c-0.319-0.04-0.637-0.081-0.957-0.121
		c-0.06-1.004-0.114-1.854-0.151-2.42c0.031,0.428,0.04,0.54-0.036-0.55c-0.015-0.196-0.029-0.43-0.046-0.687
		c0.01-0.084,0.01-0.109-0.004-0.059c-0.047-0.753-0.101-1.709-0.164-2.613c0.152-0.496,0.306-1.196,0.35-1.866"/>
	<path fill="#FFFFFF" d="M231.489,12.719c-0.324,0.206,3.231-0.697,3.222-0.697C233.836,11.943,232.226,12.238,231.489,12.719"/>
	<path fill="#FFFFFF" d="M255.067,82.145c-0.275,0.09-0.555,0.178-0.826,0.27c0.835-0.151,1.061-0.367,1.67-0.529
		C255.612,81.969,255.332,82.057,255.067,82.145"/>
	<path fill="#FFFFFF" d="M244.741,127.043c-0.692,3.917,10.758-0.904,8.616-3.801C251.718,121.023,245.099,124.921,244.741,127.043"
		/>
	<path fill="#FFFFFF" d="M244.741,127.043C245.07,125.089,244.397,128.987,244.741,127.043"/>
	<path fill="#FFFFFF" d="M240.521,12.335c0.01-0.35,0.015-0.592-0.006,0.138c-0.017,0.662-0.011,0.508-0.004,0.207
		c-0.013,1.585,0.189,5.842,0.425,3.053C241.108,13.717,240.601,10.578,240.521,12.335z"/>
	<path fill="#FFFFFF" d="M257.933,81.378c0.12-0.028-3.176,0.481-3.75,0.572c-1.139,0.184-2.334,0.366-3.482,0.553
		c2.289-0.37,4.857-0.723,7.067-1.095c-0.046,0.008-0.054,0.009,0.077-0.013C257.947,81.375,257.957,81.374,257.933,81.378z"/>
	<path fill="#FFFFFF" d="M57.06,257.155c0.46,0.519,2.082,0.74,2.778,0.755c-0.124,0-0.208,0,0.05,0.003
		c0.284,0,0.17-0.001,0.033-0.003C60.934,257.893,56.982,257.077,57.06,257.155z"/>
	<path fill="#FFFFFF" d="M240.668,40.422c-0.005-0.083-0.01-0.16-0.01-0.226c-0.005-0.134-0.011-0.302-0.018-0.445
		c-0.012-0.275-0.027-0.555-0.026-0.803c0.006,0.219,0.013,0.436,0.019,0.654c-0.008-0.193-0.01-0.21,0.01,0.349
		c0.003,0.079,0.005,0.137,0.008,0.194c0,0.006,0,0.011,0,0.017c0.015,0.352,0.013,0.295,0.006,0.104
		C240.66,40.315,240.664,40.37,240.668,40.422"/>
	<path fill="#FFFFFF" d="M240.849,43.73c-0.023-1.094-0.116-2.247-0.182-3.309"/>
	<path fill="#FFFFFF" d="M240.668,40.422c0.049,0.838,0.146,2.42,0.182,3.309"/>
	<path fill="#FFFFFF" d="M240.725,43.023c0.035,1.783-0.029,3.726,0.024,5.519c-0.003-0.072-0.005-0.133,0,0.015
		c0.004,0.129,0.003,0.081,0.001,0.015C240.769,48.998,240.75,44.267,240.725,43.023z"/>
	<path fill="#FFFFFF" d="M240.916,66.223C240.848,66.193,240.985,66.257,240.916,66.223"/>
	<path fill="#FFFFFF" d="M240.916,66.223c0.098,0.05,0.01-12-0.118-12.241C240.912,54.286,240.042,65.816,240.916,66.223"/>
	<path fill="#FFFFFF" d="M205.614,105.031c0.107,0.064,0.432-2.558,0.387-2.892C206.055,102.439,203.881,103.902,205.614,105.031z"
		/>
	<path fill="#FFFFFF" d="M189.468,240.558c2.282,0.894,4.752,1.977,5.746,1.647c-1.508-0.334-3.505-1.256-5.283-1.586
		C189.809,240.597,189.652,240.577,189.468,240.558"/>
	<path fill="#FFFFFF" d="M189.468,240.558c-1.996-0.783-3.85-1.422-4.437-0.838C185.645,240.331,188.189,240.425,189.468,240.558"/>
	<path fill="#FFFFFF" d="M188.517,230.107c1.714-3.167-5.558,1.89-3.398,1.792C186.003,231.831,188.085,230.927,188.517,230.107"/>
	<path fill="#FFFFFF" d="M180.386,262.061c0.035,0.275,0.889,0.578,1.38,0.844c0.066,0.033,0.09,0.046,0.1,0.05
		c0.202,0.104,0.407,0.212,0.627,0.313C183.519,263.268,180.396,261.972,180.386,262.061z"/>
	<path fill="#FFFFFF" d="M188.906,301.407c-0.093-0.02-0.192-0.041-0.276-0.061C188.647,301.364,188.75,301.386,188.906,301.407"/>
	<path fill="#FFFFFF" d="M188.517,230.107C188.277,230.563,188.763,229.65,188.517,230.107"/>
	<path fill="#FFFFFF" d="M148.226,232.498C148.05,232.999,148.432,231.963,148.226,232.498L148.226,232.498z"/>
	<path fill="#FFFFFF" d="M196.948,263.475c1.787-0.069,6.707-0.275,6.364-0.619c-0.309-0.31-2.756-0.881-5.228-0.994
		c0.485,0.017,0.865,0.028-0.124-0.008c-0.945-0.031-0.63-0.019-0.174-0.002C191.417,261.671,192.736,263.65,196.948,263.475z"/>
	<path fill="#FFFFFF" d="M188.906,301.407c1.164,0.257,3.025,0.5,4.064,0.153C192.774,301.653,189.826,301.529,188.906,301.407"/>
	<path fill="#FFFFFF" d="M215.542,208.837C215.483,209.033,215.601,208.645,215.542,208.837"/>
	<path fill="#FFFFFF" d="M197.138,267.536c-0.029-0.01-0.294-3.177-0.289-3.442C196.835,264.482,196.756,267.467,197.138,267.536z"
		/>
	<path fill="#FFFFFF" d="M161.478,252.471c0.83,0.197-2.715-4.154-3.628-3.054C156.819,250.571,160.742,252.412,161.478,252.471z"/>
	<path fill="#FFFFFF" d="M160.157,261.943c0.33,0.246,3.294,1.325,4.993,1.444c-0.437-0.029-1.385-0.687-1.679-0.796
		c-0.486-0.178-0.962-0.364-1.615-0.541C161.586,261.983,160.202,261.962,160.157,261.943z"/>
	<path fill="#FFFFFF" d="M167.381,18.14c-2.89,0.362-11.091,1.406-11.052,1.659C156.418,20.344,164.457,18.613,167.381,18.14"/>
	<path fill="#FFFFFF" d="M167.922,264.699c0.228,0.11,1.445,0.652,1.408,0.381c-0.04-0.324-1.909-0.815-2.136-0.884
		c-0.112,0.312,0.122,0.477,0.7,0.49C167.904,264.691,167.911,264.695,167.922,264.699"/>
	<path fill="#FFFFFF" d="M167.381,18.14c0.475-0.059,0.82-0.102,0.948-0.118C168.17,18.023,167.832,18.067,167.381,18.14"/>
	<path fill="#FFFFFF" d="M176.199,262.424c-0.756,0.049-5.715,0.6-2.347,0.491C176.346,262.837,178.369,262.267,176.199,262.424"/>
	<path fill="#FFFFFF" d="M172.354,283.576c0.317-1.026,1.109-2.553,1.415-3.471C173.202,281.055,172.642,282.431,172.354,283.576z"
		/>
	<path fill="#FFFFFF" d="M176.199,262.424C176.724,262.384,175.668,262.464,176.199,262.424"/>
	<path fill="#FFFFFF" d="M172.462,82.352c-0.634-0.063,0.234,0.027,0.207,0.023"/>
	<path fill="#FFFFFF" d="M172.669,82.375c0.361,0.047,0.774,0.073,1.251,0.06c0.382-0.379-4.463-0.398-5.764-0.574
		c1.306,0.176,2.829,0.344,4.306,0.491"/>
	<path fill="#FFFFFF" d="M205.448,40.156c-0.143-3.092-6.31,4.857-2.575,3.271c0.002-0.001,0.003-0.001,0.005-0.002
		C203.883,43.001,205.501,41.363,205.448,40.156z"/>
	<path fill="#FFFFFF" d="M289.835,113.747c0.448-0.368,0.865-0.766,1.257-1.198c-0.495-0.441-5.503,4.424-5.666,4.282
		c0.776,0.757,3.761-2.481,4.373-3.05"/>
	<path fill="#FFFFFF" d="M289.835,113.747c0.382-0.341,0.153-0.136-0.036,0.033"/>
	<path fill="#FFFFFF" d="M291.81,82.128c-0.054,0.017-0.079,0.026,0.042-0.012c0.123-0.04,0.096-0.032,0.042-0.015
		c0.229-0.065,0.356-0.137,0.361-0.205c0.024,0.014-1.395,0.417-1.473,0.505C291.159,82.316,291.501,82.223,291.81,82.128z"/>
	<path fill="#FFFFFF" d="M241.242,146.021C241.256,146.536,241.228,145.466,241.242,146.021"/>
	<path fill="#FFFFFF" d="M248.564,181.427c-0.326,2.911-0.316,4.621-0.179,5.062c-6.794,2.463-12.115,7.991-14.271,14.931
		c-0.932-0.147-1.871-0.251-2.833-0.251c-9.873,0-17.877,8.012-17.877,17.882c0,9.684,7.703,17.549,17.315,17.849
		c0.013,0.769,0.95,1.343,1.603,0.746c0.229-0.211,0.171-0.476-0.001-0.718h16.641c0.024,1.645,0.067,3.607,0.081,2.413
		c0,0.028,0,0.004,0.001-0.145c0-0.096,0-0.133,0-0.15c0.001-0.615-0.006-1.37-0.023-2.119h31.413
		c7.405,0,13.409-6.006,13.412-13.409c0-7.4-6.005-13.404-13.41-13.404c-0.334,0-0.659,0.026-0.982,0.05
		c0.043-0.614,0.088-1.217,0.088-1.842c0-12.834-10.405-23.233-23.239-23.233c-2.488,0-4.879,0.4-7.126,1.124
		c0.023-0.345,0.024-0.593,0.008-0.748c0.092-1.299,0.146-2.5,0.088-3.013c-0.051-0.451-0.102-0.559-0.151-0.431
		c0.042-0.555,0.093-1.22,0.147-1.943c0.128,0.239,0.21-0.068,0.16-1.102c0.042,0.119,0.069,0.191,0.069,0.192"/>
	<path fill="#FFFFFF" d="M241.242,146.021c-0.012-0.427-0.035-0.884-0.064-1.34c0.16-2.234,0.295-4.322,0.256-4.531
		c-0.04-0.215-0.226,1.021-0.436,2.589c-0.18-1.455-0.43-2.454-0.659-1.803c-0.147,0.416-0.123,1.038-0.021,1.706
		c-0.008,0.026-0.02,0.035-0.024,0.075c-0.026,0.283,0.234,1.915,0.361,2.682c0,0.005-0.001,0.009-0.001,0.013
		c-0.15,1.204-0.276,2.261-0.328,2.71"/>
	<path fill="#FFFFFF" d="M302.251,221.725c0.776-1.055,1.527-2.136,2.248-3.229c-0.375,0.555-0.78,1.101-1.164,1.651
		c0.095-0.138,0.128-0.187-0.104,0.146c-0.219,0.316-0.197,0.285-0.111,0.162C302.83,220.874,302.538,221.299,302.251,221.725z"/>
	<path fill="#FFFFFF" d="M297.184,214.169c1.423,0.349,6.068-4.846,6.235-4.764c-0.804-0.427-3.05,1.435-4.022,2.287
		c0.26-0.233,0.316-0.285-0.362,0.321c-0.922,0.83-0.503,0.455-0.043,0.043C298.632,212.394,296.829,214.082,297.184,214.169z"/>
	<path fill="#FFFFFF" d="M305.721,82.237C306.147,82.219,305.985,82.226,305.721,82.237L305.721,82.237z"/>
	<path fill="#FFFFFF" d="M240.326,148.121c0.227-2.03-0.285,2.521-0.018,0.159"/>
	<path fill="#FFFFFF" d="M240.871,217.433c0.208,1.353,0.419,2.658,0.639,3.792C241.289,220.076,241.078,218.759,240.871,217.433"/>
	<path fill="#FFFFFF" d="M59.873,243.632C60.057,243.472,59.987,243.533,59.873,243.632L59.873,243.632z"/>
	<path fill="#FFFFFF" d="M240.106,256.046c-0.246,7.895,1.448,5.421,1.281-0.54c-0.018-0.633-0.041-1.641-0.081-2.623
		c0.278,0.86,0.49,1.7,0.503,2.525c0.017-0.707-0.215-1.863-0.528-3.114c-0.014-0.276-0.029-0.54-0.046-0.789
		c0.075,0.671,0.159,1.273,0.235,1.477c0.051,0.139-0.356-4.401-0.755-8.323c0.128,0.252,0.266,0.555,0.338,0.802
		c-0.106-0.361-0.224-0.625-0.343-0.845c-0.33-3.237-0.654-6.038-0.709-5.415c0.083,1.643,0.248,3.324,0.43,4.957
		c0.205,1.844,0.43,3.628,0.591,5.212c0.024,0.242,0.055,0.582,0.091,0.957c-0.06-0.339-0.136-0.458-0.228-0.21
		c-0.033,0.09-0.066,0.207-0.101,0.333c-0.553-1.949-1.122-3.724-1.117-4.035c-0.038,1.62,0.459,3.14,0.984,4.593
		C240.403,252.199,240.163,254.129,240.106,256.046"/>
	<path fill="#FFFFFF" d="M243.125,229.175C245.108,227.068,241.141,231.276,243.125,229.175"/>
	<path fill="#FFFFFF" d="M241.005,215.284c-0.147-0.835-0.368-1.065-0.531-1.674c0.073,0.262,0.15,0.508,0.225,0.746
		c-0.018-0.05-0.019-0.054,0.031,0.104C240.824,214.734,240.917,215.009,241.005,215.284z"/>
	<path fill="#FFFFFF" d="M240.269,270.03c0.068,1.06,0.922-2.259,0.943-2.101C241.163,267.261,240.362,270.383,240.269,270.03z"/>
	<path fill="#FFFFFF" d="M215.542,208.837c0.099-0.329,0.648-3.697,0.379-3.706C214.904,205.169,215.67,208.391,215.542,208.837"/>
	<path fill="#FFFFFF" d="M239.984,211.68c-0.128-0.752,0.457,3.039,0.559,3.658c0.109,0.686,0.219,1.391,0.329,2.095"/>
	<path fill="#FFFFFF" d="M240.871,217.433c-0.297-1.932-0.587-3.965-0.888-5.753"/>
	<path fill="#FFFFFF" d="M239.984,211.68C240.047,212.052,239.925,211.317,239.984,211.68"/>
	<path fill="#FFFFFF" d="M243.125,229.175c-0.683,0.724-1.37,1.446-1.977,2.205c0.244-1.961,0.478-4.182,0.533-6.333
		c0.082-3.233-1.015,1.27-1.142,2.136c0.093-0.728,0.179-1.413-0.006,0.043c-0.242,1.906-0.489,3.802-0.627,6.048
		c-0.437,0.89-0.7,1.858-0.67,2.952c0.02,0.771,0.238,1.141,0.564,1.258c0.029,2.473,0.283,1.518,0.526,0.005
		c1.204-0.298,3.062-2.294,3.787-3.051c1.655-1.729,4.581-4.336,5.043-6.81C249.611,225.301,243.637,228.63,243.125,229.175"/>
	<path fill="#FFFFFF" d="M240.106,256.046C240.195,253.09,240.013,259.001,240.106,256.046"/>
	<path fill="#FFFFFF" d="M100.526,265.287c0.059,4.851,0.79,13.031,1.252,16.448c0.023,0.166,0.122-3.947,0.128-4.769
		c0.005,0.385,0.009,0.67,0-0.111c-0.011-0.82-0.008-0.497-0.002-0.097c-0.043-3.039-0.295-5.584-0.553-7.827
		C101.351,268.921,100.487,262.194,100.526,265.287z"/>
	<path fill="#FFFFFF" d="M101.984,258.384c0.05-2.475-1.444-9.555-1.522-8.014C100.286,252.786,102.004,257.412,101.984,258.384z"/>
	<path fill="#FFFFFF" d="M93.127,272.838c0.246,0.373,3.614,2.563,3.869,2.053c0.389-0.806-3.087-3.339-3.76-3.33
		C92.91,271.944,92.871,272.371,93.127,272.838"/>
	<path fill="#FFFFFF" d="M93.127,272.838C92.871,272.494,93.357,273.196,93.127,272.838"/>
	<path fill="#FFFFFF" d="M101.425,181.384c0.069-0.396,0.092-0.871,0.079-1.422c-0.374-0.384-0.393,4.468-0.57,5.765
		c0.174-1.276,0.327-2.757,0.476-4.197"/>
	<path fill="#FFFFFF" d="M101.69,152.29c-0.049-0.668-0.849,2.454-0.943,2.101C100.816,155.451,101.67,152.133,101.69,152.29z"/>
	<path fill="#FFFFFF" d="M101.42,181.424c0,0,0,0.001,0,0.001c0.002-0.021,0.002-0.023,0.004-0.041"/>
	<path fill="#FFFFFF" d="M84.381,159.126c1.37,3.113,3.851,6.621,5.613,8.364c0.125,0.125,0.67-3.017,0.662-3.43
		c0.028,0.297,0.055,0.564,0-0.027c-0.059-0.599-0.036-0.34-0.008-0.045c-0.225-2.17-1.54-3.983-2.904-5.583
		c0,0-4.552-4.772-4.35-2.582c0.079,0.836,0.367,1.811,0.788,2.842c-0.78-0.318-1.647-0.565-2.099-0.298
		C81.724,158.568,83.243,158.916,84.381,159.126z"/>
	<path fill="#FFFFFF" d="M101.42,181.424c-0.006,0.055-0.008,0.077-0.011,0.106"/>
	<path fill="#FFFFFF" d="M100.585,140.407C100.674,137.452,100.492,143.363,100.585,140.407"/>
	<path fill="#FFFFFF" d="M63.639,123.61c-0.325-0.344-0.633-0.412-0.943-0.206c0.151,0.358,1.766,1.174,1.563,0.761
		c-0.207-0.186-0.412-0.372-0.617-0.553C63.641,123.611,63.64,123.611,63.639,123.61"/>
	<path fill="#FFFFFF" d="M58.272,244.771c0.477-0.4,1.228-0.815,1.551-1.096c-0.143,0.125-0.283,0.247,0.004-0.003
		c0.012-0.011,0.014-0.012,0.025-0.022c0.391-0.291,0.718-0.646,0.968-1.054C60.733,242.405,59.042,243.977,58.272,244.771"/>
	<path fill="#FFFFFF" d="M58.272,244.771c-0.173,0.146-0.312,0.289-0.379,0.423C57.926,245.137,58.078,244.972,58.272,244.771"/>
	<path fill="#FFFFFF" d="M72.58,262.621c0.047,0.142,0.045,0.127,0.027,0.07c0.082,0.194,0.38,0.647,1.706,0.656
		c1.821,0.01,3.402-0.166,3.339-0.403c-0.069-0.285-0.304-0.628-1.429-0.873c-1.62-0.352-3.659,0.393-3.64,0.546
		C72.551,262.517,72.518,262.42,72.58,262.621z"/>
	<path fill="#FFFFFF" d="M78.456,142.685c0.05-2.475-1.444-9.555-1.522-8.012C76.757,137.089,78.475,141.713,78.456,142.685z"/>
	<path fill="#FFFFFF" d="M85.099,262.886c0.349-0.137-0.088-0.344-0.844-0.451C82.669,262.227,84.569,263.102,85.099,262.886z"/>
	<path fill="#FFFFFF" d="M77.705,197.971c0.059-0.403,0.244-3.919,0.26-3.928c-0.093,0.088-0.633,3.427-0.54,3.722
		C77.519,197.913,77.612,197.982,77.705,197.971z"/>
	<path fill="#FFFFFF" d="M78.25,166.037c0.023,0.168,0.12-3.931,0.127-4.764c0.005,0.382,0.009,0.664,0-0.115
		c-0.012-0.819-0.008-0.499-0.003-0.1c-0.043-3.039-0.294-5.583-0.551-7.826c0-0.01-0.865-6.737-0.825-3.644
		C77.057,154.44,77.789,162.62,78.25,166.037z"/>
	<path fill="#FFFFFF" d="M100.585,140.407c-0.246,7.896,1.448,5.421,1.281-0.54c-0.018-0.633-0.041-1.641-0.081-2.623
		c0.278,0.858,0.49,1.7,0.503,2.526c0.017-0.707-0.215-1.863-0.528-3.114c-0.014-0.276-0.029-0.54-0.046-0.789
		c0.075,0.671,0.159,1.273,0.235,1.477c0.051,0.139-0.356-4.401-0.755-8.323c0.128,0.252,0.266,0.555,0.338,0.802
		c-0.106-0.361-0.224-0.625-0.343-0.845c-0.33-3.236-0.654-6.038-0.709-5.415c0.083,1.643,0.248,3.324,0.43,4.957
		c0.205,1.844,0.43,3.628,0.591,5.212c0.024,0.24,0.055,0.581,0.091,0.955c-0.06-0.339-0.136-0.458-0.228-0.21
		c-0.033,0.089-0.067,0.207-0.101,0.332c-0.553-1.949-1.122-3.724-1.116-4.035c-0.038,1.62,0.459,3.14,0.983,4.593
		C100.882,136.56,100.642,138.49,100.585,140.407"/>
	<path fill="#FFFFFF" d="M140.655,246.707c0,0.02-1.773,0.747-1.92,0.825C137.542,248.151,140.674,246.875,140.655,246.707z"/>
	<path fill="#FFFFFF" d="M127.546,89.206c-2.739-0.57-3.02,6.992-3.447,7.115C125.267,95.982,128.022,89.304,127.546,89.206"/>
	<path fill="#FFFFFF" d="M126.77,121.288c0.221,0.256,1.93,3.855,2.131,3.727C129.338,124.71,127.154,121.739,126.77,121.288z"/>
	<path fill="#FFFFFF" d="M135.593,192.609c1.88-0.254,6.466-1.875,7.601-3.535C142.993,189.368,135.804,192.58,135.593,192.609z"/>
	<path fill="#FFFFFF" d="M127.546,89.206C128.145,89.324,126.943,89.078,127.546,89.206"/>
	<path fill="#FFFFFF" d="M128.999,152.048c-0.092-0.001-0.052,0.001-0.006,0.004c-0.592,0.019,1.193,4.348,2,4.524
		c0.019,0-0.293-4.345-1.976-4.522C129.055,152.054,129.081,152.054,128.999,152.048z"/>
	<path fill="#FFFFFF" d="M141.155,161.549c-1.276-0.118-1.055,4.449-1.33,4.704C140.135,165.959,142.815,161.701,141.155,161.549z"
		/>
	<path fill="#FFFFFF" d="M132.552,180.498c-0.748-0.948-3.727-3.08-3.705-3.168C128.604,178.13,131.778,179.592,132.552,180.498z"/>
	<path fill="#FFFFFF" d="M138.614,7.33c1.008-0.581,7.533-5.093,4.503-7.012c-2.255-1.42-7.298-0.443-10.061-0.526
		c-4.361-0.123-5.833,2.126-2.917,5.833C132.48,8.589,135.088,9.341,138.614,7.33z"/>
	<path fill="#FFFFFF" d="M144.053,97.735c-0.235,0.161-0.467,0.318-0.697,0.486c-0.02,1.148,3.972,2.209,3.967,1.586
		C147.337,98.791,144.893,97.593,144.053,97.735"/>
	<path fill="#FFFFFF" d="M116.273,160.43c-0.078-0.235-2.342-0.443-2.464-0.299c-0.251,0.338-0.54,3.784-0.265,3.795
		C113.857,163.945,116.273,160.793,116.273,160.43z"/>
	<path fill="#FFFFFF" d="M113.155,262.993c0.491-0.127,1.954-0.51,1.311-0.648C114.009,262.227,113.032,263.033,113.155,262.993z"/>
	<path fill="#FFFFFF" d="M119.916,263.671c3.357-0.176,5.173-2.159,1.863-2.013c0.032-0.003,0.061-0.005-0.002,0
		c-0.01,0.001-0.007,0-0.013,0.001C119.266,261.812,121.132,263.612,119.916,263.671z"/>
	<path fill="#FFFFFF" d="M144.053,97.735C144.956,97.583,143.13,97.868,144.053,97.735"/>
	<path fill="#FFFFFF" d="M146.076,236.466c0.425-1.161,1.33-2.242,1.895-3.422C147.442,234.051,146.497,235.31,146.076,236.466z"/>
	<path fill="#FFFFFF" d="M119.69,138.478c0.054-0.02,2.21,0.987,2.667,1.041c-0.485-0.274-0.98-0.517-1.487-0.743
		c0.107,0.046,0.187,0.079-0.036-0.018c-0.219-0.092-0.148-0.061-0.045-0.017C120.439,138.57,120.076,138.483,119.69,138.478z"/>
	<path fill="#FFFFFF" d="M100.787,32.636c0.007-0.064,0.012-0.104,0.018-0.159"/>
	<line fill="#FFFFFF" x1="101.42" y1="181.427" x2="101.42" y2="181.422"/>
	<line fill="#FFFFFF" x1="101.42" y1="181.424" x2="101.42" y2="181.422"/>
	<line fill="#FFFFFF" x1="101.42" y1="181.427" x2="101.42" y2="181.424"/>
	<path fill="#FFFFFF" d="M240.308,148.279c0.007-0.064,0.012-0.104,0.018-0.159"/>
	<path fill="#FFFFFF" d="M305.379,82.251c0.059-0.003,0.124-0.005,0.19-0.008"/>
	<path fill="#FFFFFF" d="M305.379,82.251c0.028-0.001,0.042-0.002,0.065-0.002"/>
	<path fill="#FFFFFF" d="M305.569,82.243c-0.051,0.002-0.086,0.004-0.126,0.005"/>
	<path fill="#FFFFFF" d="M81.12,32.264c-6.794,2.463-12.115,7.991-14.271,14.931c-0.932-0.147-1.871-0.251-2.833-0.251
		c-9.873,0-17.877,8.012-17.877,17.882c0,9.684,7.703,17.549,17.315,17.849c0.013,0.769,0.95,1.343,1.603,0.746
		c0.229-0.211,0.171-0.476-0.001-0.718h16.641c0.024,1.645,0.067,3.607,0.081,2.413c0,0.028,0,0.004,0.001-0.145
		c0-0.096,0-0.133,0-0.15c0.001-0.615-0.006-1.37-0.023-2.119h31.413c7.405,0,13.409-6.006,13.412-13.409
		c0-7.4-6.005-13.404-13.41-13.404c-0.334,0-0.659,0.026-0.982,0.05c0.043-0.614,0.088-1.217,0.088-1.842
		c0-12.834-10.405-23.233-23.239-23.233c-2.488,0-4.879,0.4-7.126,1.124L81.12,32.264z"/>
</g>
<polygon fill="#2C3E50" points="102.201,217.331 81.874,197.003 93.486,173.769 125.435,205.713 "/>
<path fill="#2C3E50" d="M90.579,170.862l-28.331-8.092c-2.573-0.732-4.561-2.774-5.229-5.361c-0.673-2.582,0.073-5.332,1.964-7.222
	l25.557-25.551c1.935-1.935,4.773-2.672,7.404-1.92l24.064,6.879c2.568,0.732,4.557,2.774,5.229,5.356
	c0.668,2.587-0.078,5.337-1.968,7.227L90.579,170.862z"/>
<path fill="#2C3E50" d="M128.342,208.625l8.097,28.336c0.732,2.568,2.774,4.557,5.356,5.229c2.587,0.668,5.337-0.078,7.227-1.968
	l25.546-25.552c1.935-1.935,2.672-4.773,1.92-7.405l-10.399-36.392L128.342,208.625z"/>
<path fill="#2C3E50" d="M213.656,86.831c-0.327,0-0.655-0.125-0.904-0.375c-0.5-0.499-0.5-1.308,0-1.808l17.598-17.602
	c0.5-0.5,1.308-0.5,1.808,0c0.5,0.499,0.5,1.308,0,1.808L214.56,86.456C214.311,86.706,213.984,86.831,213.656,86.831z"/>
<path fill="#2C3E50" d="M220.526,78.678c-16.031-1.001-32.204,1.046-47.617,6.079l41.538,41.534
	C219.475,110.877,221.523,94.709,220.526,78.678z"/>
<path fill="#E64C3C" d="M172.91,84.757c-18.418,6.01-35.744,16.296-50.386,30.933c-15.81,15.815-26.543,34.762-32.282,54.834
	l38.44,38.446c20.076-5.749,39.019-16.478,54.834-32.293c14.641-14.642,24.924-31.964,30.933-50.386L172.91,84.757z"/>
<path fill="#F0C419" d="M153.024,120.044c7.217-7.218,18.923-7.218,26.136,0c7.218,7.213,7.218,18.918,0,26.136
	c-7.217,7.218-18.918,7.218-26.136,0C145.807,138.962,145.807,127.258,153.024,120.044z"/>
<path fill="#D25627" d="M89.597,228.49c-7.051,5.608-26.873,19.07-31.684,14.259c-4.822-4.822,8.489-24.422,14.243-31.694
	L89.597,228.49z"/>
</svg>
