<?xml version="1.0" encoding="utf-8"?>
<!-- Generator: Adobe Illustrator 17.0.0, SVG Export Plug-In . SVG Version: 6.00 Build 0)  -->
<svg version="1.2" baseProfile="tiny" id="Слой_1"
	 xmlns="http://www.w3.org/2000/svg" xmlns:xlink="http://www.w3.org/1999/xlink" x="0px" y="0px" width="100px" height="100px"
	 viewBox="0 0 100 100" xml:space="preserve">
<g>
	<circle fill="none" stroke="#FFFFFF" stroke-miterlimit="10" cx="30.113" cy="90.716" r="8.261"/>
	<circle fill="none" stroke="#FFFFFF" stroke-miterlimit="10" cx="30.113" cy="90.716" r="2.301"/>
	
		<line fill="none" stroke="#FFFFFF" stroke-linecap="round" stroke-miterlimit="10" x1="30.157" y1="99.858" x2="30.15" y2="98.52"/>
	
		<line fill="none" stroke="#FFFFFF" stroke-linecap="round" stroke-miterlimit="10" x1="30.075" y1="82.912" x2="30.068" y2="81.573"/>
	
		<line fill="none" stroke="#FFFFFF" stroke-linecap="round" stroke-miterlimit="10" x1="24.621" y1="96.261" x2="23.68" y2="97.211"/>
	
		<line fill="none" stroke="#FFFFFF" stroke-linecap="round" stroke-miterlimit="10" x1="36.545" y1="84.221" x2="35.604" y2="85.171"/>
	
		<line fill="none" stroke="#FFFFFF" stroke-linecap="round" stroke-miterlimit="10" x1="22.308" y1="90.753" x2="20.97" y2="90.76"/>
	
		<line fill="none" stroke="#FFFFFF" stroke-linecap="round" stroke-miterlimit="10" x1="39.255" y1="90.671" x2="37.917" y2="90.678"/>
	
		<line fill="none" stroke="#FFFFFF" stroke-linecap="round" stroke-miterlimit="10" x1="24.568" y1="85.224" x2="23.617" y2="84.283"/>
	
		<line fill="none" stroke="#FFFFFF" stroke-linecap="round" stroke-miterlimit="10" x1="36.608" y1="97.148" x2="35.657" y2="96.207"/>
	<circle fill="none" stroke="#FFFFFF" stroke-miterlimit="10" cx="57.23" cy="90.716" r="8.261"/>
	<circle fill="none" stroke="#FFFFFF" stroke-miterlimit="10" cx="57.23" cy="90.716" r="2.301"/>
	
		<line fill="none" stroke="#FFFFFF" stroke-linecap="round" stroke-miterlimit="10" x1="57.275" y1="99.858" x2="57.268" y2="98.52"/>
	
		<line fill="none" stroke="#FFFFFF" stroke-linecap="round" stroke-miterlimit="10" x1="57.193" y1="82.912" x2="57.186" y2="81.573"/>
	
		<line fill="none" stroke="#FFFFFF" stroke-linecap="round" stroke-miterlimit="10" x1="51.739" y1="96.261" x2="50.798" y2="97.211"/>
	
		<line fill="none" stroke="#FFFFFF" stroke-linecap="round" stroke-miterlimit="10" x1="63.663" y1="84.221" x2="62.722" y2="85.171"/>
	
		<line fill="none" stroke="#FFFFFF" stroke-linecap="round" stroke-miterlimit="10" x1="49.426" y1="90.753" x2="48.088" y2="90.76"/>
	
		<line fill="none" stroke="#FFFFFF" stroke-linecap="round" stroke-miterlimit="10" x1="66.373" y1="90.671" x2="65.035" y2="90.678"/>
	
		<line fill="none" stroke="#FFFFFF" stroke-linecap="round" stroke-miterlimit="10" x1="51.686" y1="85.224" x2="50.735" y2="84.283"/>
	
		<line fill="none" stroke="#FFFFFF" stroke-linecap="round" stroke-miterlimit="10" x1="63.725" y1="97.148" x2="62.775" y2="96.207"/>
	<circle fill="none" stroke="#FFFFFF" stroke-miterlimit="10" cx="84.348" cy="90.716" r="8.261"/>
	<circle fill="none" stroke="#FFFFFF" stroke-miterlimit="10" cx="84.348" cy="90.716" r="2.301"/>
	
		<line fill="none" stroke="#FFFFFF" stroke-linecap="round" stroke-miterlimit="10" x1="84.392" y1="99.858" x2="84.386" y2="98.52"/>
	
		<line fill="none" stroke="#FFFFFF" stroke-linecap="round" stroke-miterlimit="10" x1="84.31" y1="82.912" x2="84.304" y2="81.573"/>
	
		<line fill="none" stroke="#FFFFFF" stroke-linecap="round" stroke-miterlimit="10" x1="78.857" y1="96.261" x2="77.916" y2="97.211"/>
	
		<line fill="none" stroke="#FFFFFF" stroke-linecap="round" stroke-miterlimit="10" x1="90.78" y1="84.221" x2="89.839" y2="85.171"/>
	
		<line fill="none" stroke="#FFFFFF" stroke-linecap="round" stroke-miterlimit="10" x1="76.544" y1="90.753" x2="75.206" y2="90.76"/>
	
		<line fill="none" stroke="#FFFFFF" stroke-linecap="round" stroke-miterlimit="10" x1="93.491" y1="90.671" x2="92.152" y2="90.678"/>
	
		<line fill="none" stroke="#FFFFFF" stroke-linecap="round" stroke-miterlimit="10" x1="78.803" y1="85.224" x2="77.853" y2="84.283"/>
	
		<line fill="none" stroke="#FFFFFF" stroke-linecap="round" stroke-miterlimit="10" x1="90.843" y1="97.148" x2="89.893" y2="96.207"/>
	<line fill="none" stroke="#FFFFFF" stroke-miterlimit="10" x1="68.837" y1="76.505" x2="59.245" y2="70.678"/>
	<polyline fill="none" stroke="#FFFFFF" stroke-miterlimit="10" points="72.745,78.563 72.95,78.688 72.954,78.691 80.616,83.344 	
		"/>
	<line fill="none" stroke="#FFFFFF" stroke-miterlimit="10" x1="55.12" y1="70.678" x2="32.782" y2="82.673"/>
	<polyline fill="none" stroke="#FFFFFF" stroke-linejoin="round" stroke-miterlimit="10" points="34.061,71.464 20.729,79.56 
		8.584,67.415 	"/>
	<polyline fill="none" stroke="#FFFFFF" stroke-miterlimit="10" points="60.984,83.356 68.381,78.863 68.669,78.688 68.874,78.563 	
		"/>
	<circle fill="none" stroke="#FFFFFF" stroke-miterlimit="10" cx="70.659" cy="78.536" r="2.301"/>
	<circle fill="none" stroke="#FFFFFF" stroke-miterlimit="10" cx="57.182" cy="70.129" r="2.301"/>
	<circle fill="none" stroke="#FFFFFF" stroke-miterlimit="10" cx="36.123" cy="70.443" r="2.301"/>
	<circle fill="none" stroke="#FFFFFF" stroke-miterlimit="10" cx="39.58" cy="43.056" r="2.301"/>
	<path fill="none" stroke="#FFFFFF" stroke-miterlimit="10" d="M35.58,64.755c0.014-3.05,2.487-5.528,5.544-5.542
		c3.079-0.014,5.582,2.466,5.601,5.542"/>
	<polyline fill="none" stroke="#FFFFFF" stroke-linejoin="round" stroke-miterlimit="10" points="68.669,78.688 68.362,78.688 
		30.162,78.688 30.162,64.756 84.3,64.756 84.3,78.688 72.954,78.688 72.95,78.688 	"/>
	<polyline fill="none" stroke="#FFFFFF" stroke-linejoin="round" stroke-miterlimit="10" points="67.88,64.755 67.88,60.74 
		77.085,60.74 77.085,64.755 	"/>
	<polyline fill="none" stroke="#FFFFFF" stroke-linejoin="round" stroke-miterlimit="10" points="84.296,78.724 84.299,78.722 
		99.97,64.628 92.188,57.631 84.299,64.728 	"/>
	<polyline fill="none" stroke="#FFFFFF" stroke-linejoin="round" stroke-miterlimit="10" points="97.299,61.802 97.063,62.014 
		84.299,73.493 	"/>
	<polyline fill="none" stroke="#FFFFFF" stroke-linejoin="round" stroke-miterlimit="10" points="95.097,59.821 94.862,60.033 
		84.299,69.533 	"/>
	<line fill="none" stroke="#FFFFFF" stroke-miterlimit="10" x1="39.818" y1="59.375" x2="39.818" y2="48.716"/>
	<line fill="none" stroke="#FFFFFF" stroke-miterlimit="10" x1="42.484" y1="59.375" x2="42.484" y2="48.716"/>
	
		<rect x="33.844" y="37.716" fill="none" stroke="#FFFFFF" stroke-linejoin="round" stroke-miterlimit="10" width="14.615" height="11.001"/>
	<line fill="none" stroke="#FFFFFF" stroke-miterlimit="10" x1="45.471" y1="37.559" x2="45.471" y2="48.402"/>
	<path fill="none" stroke="#FFFFFF" stroke-linecap="round" stroke-miterlimit="10" d="M4.808,59.107l3.723,3.723
		c1.32,1.32,1.32,3.459,0,4.778l0,0c-1.32,1.32-3.459,1.32-4.778,0L0.03,63.885"/>
	
		<line fill="none" stroke="#FFFFFF" stroke-linecap="round" stroke-miterlimit="10" x1="72.973" y1="68.874" x2="80.045" y2="68.874"/>
	
		<line fill="none" stroke="#FFFFFF" stroke-linecap="round" stroke-miterlimit="10" x1="72.973" y1="71.546" x2="80.045" y2="71.546"/>
</g>
<g>
</g>
<g>
</g>
<g>
</g>
<g>
</g>
<g>
</g>
<g>
</g>
</svg>
