<?xml version="1.0" encoding="iso-8859-1"?>
<!-- Generator: Adobe Illustrator 16.0.0, SVG Export Plug-In . SVG Version: 6.00 Build 0)  -->
<!DOCTYPE svg PUBLIC "-//W3C//DTD SVG 1.1 Tiny//EN" "http://www.w3.org/Graphics/SVG/1.1/DTD/svg11-tiny.dtd">
<svg version="1.1" baseProfile="tiny" id="Layer_1" xmlns="http://www.w3.org/2000/svg" xmlns:xlink="http://www.w3.org/1999/xlink"
	 x="0px" y="0px" width="300px" height="200px" viewBox="0 0 300 200" xml:space="preserve">
<rect fill="#E0505F" width="300" height="200"/>
<g>
	<g>
		<rect x="105.555" y="54.801" fill="#FAE157" width="51.656" height="90.398"/>
	</g>
	<g>
		<rect x="157.211" y="54.801" fill="#F79135" width="38.742" height="71.027"/>
	</g>
	<g>
		<polygon fill="#FFFFFF" points="99.098,48.344 202.41,48.344 195.953,54.801 105.555,54.801 		"/>
	</g>
	<g>
		<polygon fill="#FFFFFF" points="99.098,151.656 157.211,151.656 157.211,145.199 105.555,145.199 		"/>
	</g>
	<g>
		<rect x="157.211" y="125.828" fill="#D0D3D4" width="38.742" height="25.828"/>
	</g>
	<g>
		<path fill="#FFFFFF" d="M189.496,125.828h-25.828v-20.985c0-7.132,5.782-12.914,12.914-12.914s12.914,5.782,12.914,12.914V125.828
			z"/>
	</g>
	<g>
		<path fill="#47C6E4" d="M168.511,104.843c0-4.458,3.613-8.071,8.071-8.071s8.071,3.613,8.071,8.071H168.511z"/>
	</g>
	<g>
		<rect x="168.511" y="108.071" fill="#E2E4E5" width="16.143" height="17.757"/>
	</g>
	<g>
		<rect x="157.211" y="145.199" fill="#F1F1F1" width="38.742" height="3.229"/>
	</g>
	<g>
		<rect x="157.211" y="138.742" fill="#F1F1F1" width="38.742" height="3.229"/>
	</g>
	<g>
		<rect x="157.211" y="132.285" fill="#F1F1F1" width="38.742" height="3.229"/>
	</g>
	<g>
		<rect x="157.211" y="125.828" fill="#F1F1F1" width="38.742" height="3.229"/>
	</g>
	<g>
		<path fill="#47C6E4" d="M176.582,80.629c-4.45,0-8.071-3.621-8.071-8.071s3.621-8.071,8.071-8.071s8.071,3.621,8.071,8.071
			S181.032,80.629,176.582,80.629z"/>
	</g>
	<g>
		<path fill="#FFFFFF" d="M176.582,64.486c4.45,0,8.071,3.621,8.071,8.071s-3.621,8.071-8.071,8.071s-8.071-3.621-8.071-8.071
			S172.132,64.486,176.582,64.486 M176.582,61.258c-6.241,0-11.3,5.059-11.3,11.3s5.059,11.3,11.3,11.3s11.3-5.059,11.3-11.3
			S182.823,61.258,176.582,61.258L176.582,61.258z"/>
	</g>
	<g>
		<path fill="#47C6E4" d="M128.154,137.128h-16.143v-24.214c0-4.458,3.613-8.071,8.071-8.071s8.071,3.613,8.071,8.071V137.128z"/>
	</g>
	<g>
		<rect x="112.012" y="125.828" fill="#47C6E4" width="16.143" height="11.3"/>
	</g>
	<g>
		<path fill="#47C6E4" d="M150.754,137.128h-16.143v-24.214c0-4.458,3.613-8.071,8.071-8.071s8.071,3.613,8.071,8.071V137.128z"/>
	</g>
	<g>
		<rect x="134.611" y="125.828" fill="#47C6E4" width="16.143" height="11.3"/>
	</g>
	<g>
		<path fill="#47C6E4" d="M150.754,93.543h-16.143V69.329c0-4.458,3.613-8.071,8.071-8.071s8.071,3.613,8.071,8.071V93.543z"/>
	</g>
	<g>
		<rect x="134.611" y="82.243" fill="#47C6E4" width="16.143" height="11.3"/>
	</g>
	<g>
		<path fill="#78D0E8" d="M150.754,71.507v-2.178c0-4.457-3.613-8.071-8.071-8.071s-8.071,3.615-8.071,8.071V87.65L150.754,71.507z"
			/>
	</g>
	<g>
		<polygon fill="#78D0E8" points="140.02,82.243 134.611,82.243 134.611,87.65 		"/>
	</g>
	<g>
		<path fill="#78D0E8" d="M128.154,115.093v-2.179c0-4.457-3.613-8.071-8.071-8.071s-8.071,3.614-8.071,8.071v18.321
			L128.154,115.093z"/>
	</g>
	<g>
		<polygon fill="#78D0E8" points="117.42,125.828 112.012,125.828 112.012,131.235 		"/>
	</g>
	<g>
		<path fill="#78D0E8" d="M150.754,115.093v-2.179c0-4.457-3.613-8.071-8.071-8.071s-8.071,3.614-8.071,8.071v18.321
			L150.754,115.093z"/>
	</g>
	<g>
		<polygon fill="#78D0E8" points="140.02,125.828 134.611,125.828 134.611,131.235 		"/>
	</g>
	<g>
		<rect x="134.611" y="79.015" fill="#FFFFFF" width="16.143" height="3.229"/>
	</g>
	<g>
		<rect x="112.012" y="122.6" fill="#FFFFFF" width="16.143" height="3.229"/>
	</g>
	<g>
		<rect x="134.611" y="122.6" fill="#FFFFFF" width="16.143" height="3.229"/>
	</g>
	<g>
		<polygon fill="#FFFFFF" points="99.098,93.543 157.211,93.543 157.211,100 105.555,100 		"/>
	</g>
	<g>
		<path fill="#47C6E4" d="M128.154,93.543h-16.143V69.329c0-4.458,3.613-8.071,8.071-8.071s8.071,3.613,8.071,8.071V93.543z"/>
	</g>
	<g>
		<rect x="112.012" y="82.243" fill="#47C6E4" width="16.143" height="11.3"/>
	</g>
	<g>
		<path fill="#78D0E8" d="M128.154,71.507v-2.178c0-4.457-3.613-8.071-8.071-8.071s-8.071,3.615-8.071,8.071V87.65L128.154,71.507z"
			/>
	</g>
	<g>
		<rect x="112.012" y="79.015" fill="#FFFFFF" width="16.143" height="3.229"/>
	</g>
	<g>
		<path fill="#FFFFFF" d="M195.953,151.656h6.457v-35.514c0-1.783-1.445-3.229-3.229-3.229s-3.229,1.445-3.229,3.229V151.656z"/>
	</g>
</g>
<g>
</g>
<g>
</g>
<g>
</g>
<g>
</g>
<g>
</g>
<g>
</g>
</svg>
