<?xml version="1.0" encoding="utf-8"?>
<!-- Generator: Adobe Illustrator 17.0.0, SVG Export Plug-In . SVG Version: 6.00 Build 0)  -->
<svg version="1.2" baseProfile="tiny" xmlns="http://www.w3.org/2000/svg" xmlns:xlink="http://www.w3.org/1999/xlink" x="0px"
	 y="0px" width="141.732px" height="62.362px" viewBox="0 0 141.732 62.362" xml:space="preserve">
<path fill="#ED1C24" d="M19.283,4.116h-2.833c-2.781,0-5.14,2.118-5.14,6.229c0,2.467,1.142,4.285,3.179,5.183l-3.799,6.876
	c-0.125,0.225,0,0.399,0.197,0.399h1.764c0.149,0,0.249-0.049,0.298-0.174l3.453-6.751h1.242v6.751c0,0.075,0.075,0.174,0.174,0.174
	h1.54c0.149,0,0.199-0.074,0.199-0.199V4.365C19.557,4.192,19.458,4.116,19.283,4.116z M17.644,14.283H16.6
	c-1.639,0-3.228-1.197-3.228-4.186c0-3.115,1.489-4.386,3.004-4.386h1.267V14.283z"/>
<path d="M28.62,10.312h-1.541c-0.124,0-0.198,0.1-0.198,0.174v4.759h-2.857v-4.759c0-0.125-0.048-0.174-0.173-0.174H22.31
	c-0.123,0-0.197,0.075-0.197,0.174v12.109c0,0.123,0.049,0.198,0.173,0.198h1.566c0.1,0,0.173-0.075,0.173-0.198v-5.78h2.857v5.78
	c0,0.123,0.074,0.198,0.198,0.198h1.541c0.124,0,0.173-0.099,0.173-0.198V10.485C28.793,10.386,28.719,10.312,28.62,10.312z"/>
<path d="M63.781,21.997l-0.201-0.848c-0.024-0.075-0.049-0.098-0.123-0.098c-0.124,0-0.795,0.272-1.764,0.272
	c-1.887,0-2.807-1.818-2.807-4.709c0-2.541,0.771-5.057,2.061-5.057c0.35,0,0.772,0.099,1.441,0.722
	c0.075,0.076,0.125,0.101,0.198,0.101c0.075,0,0.149-0.051,0.223-0.175l0.672-1.096c0.048-0.076,0.074-0.151,0.074-0.226
	c0-0.098-0.1-0.173-0.248-0.247c-1.019-0.523-1.714-0.623-2.31-0.623c-2.336,0-4.148,2.791-4.148,7.15
	c0,3.763,1.738,5.931,4.222,5.931c1.044,0,2.161-0.498,2.609-0.823C63.781,22.195,63.805,22.096,63.781,21.997z"/>
<path d="M52.985,15.941l2.981-5.456c0.048-0.074,0.024-0.174-0.075-0.174h-1.465c-0.422,0-0.571,0.15-0.719,0.473l-2.236,4.658
	c-0.124,0.276-0.249,0.45-0.372,0.524v-5.481c0-0.099-0.05-0.174-0.149-0.174h-1.615c-0.075,0-0.149,0.075-0.149,0.174V22.62
	c0,0.074,0.05,0.173,0.149,0.173h1.615c0.099,0,0.149-0.075,0.149-0.173v-6.253c0.073,0.049,0.124,0.123,0.173,0.224l2.831,5.829
	c0.15,0.298,0.374,0.373,0.697,0.373h1.589c0.1,0,0.125-0.099,0.074-0.173L52.985,15.941z"/>
<path d="M38.754,21.224h-0.299c-0.373,0-0.473-0.149-0.473-0.448v-10.29c0-0.125-0.05-0.174-0.149-0.174h-4.968
	c-0.124,0-0.197,0.075-0.197,0.174v0.898c0,3.014-0.175,6.901-1.764,9.84h-0.547c-0.149,0-0.199,0.075-0.199,0.2c0,0,0,2.99,0,3.638
	c0,0.125,0.1,0.173,0.175,0.173h1.192c0.272,0,0.372-0.198,0.372-0.374v-2.068h5.315v2.269c0,0.099,0.075,0.173,0.174,0.173h1.267
	c0.149,0,0.298-0.123,0.298-0.374v-3.438C38.952,21.298,38.877,21.224,38.754,21.224z M36.071,21.224H32.47
	c1.267-2.168,1.763-4.609,1.936-7.599c0.05-0.647,0.075-1.321,0.075-1.744h1.591V21.224z"/>
<path d="M43.819,10.012c-2.681,0-3.874,3.389-3.874,7.076c0,3.762,1.689,6.005,4.173,6.005c1.217,0,2.285-0.474,2.831-0.823
	c0.099-0.049,0.124-0.124,0.099-0.225L46.85,21.2c-0.023-0.1-0.075-0.148-0.198-0.148c-0.099,0-0.82,0.272-1.837,0.272
	c-1.914,0-2.807-1.668-2.807-3.861c0-0.299,0-0.589,0-0.589s0.968,0.116,1.54,0.116h3.626v-1.047
	C47.173,12.081,45.807,10.012,43.819,10.012z M43.547,15.419c-0.572,0-1.466,0.099-1.466,0.099s0-0.373,0.051-0.771
	c0.222-2.118,0.744-3.189,1.614-3.189c0.794,0,1.291,1.096,1.416,3.014c0.025,0.399,0.025,0.848,0.025,0.848H43.547z"/>
<path d="M56.512,53.942h4.097c3.75,0,6.881-2.165,6.881-7.313c0-4.979-3.082-6.751-7.1-6.751c-0.501,0-1.033,0-1.033,0v-7.651
	c0-0.114-0.115-0.267-0.266-0.267h-2.797c-0.23,0-0.308,0.114-0.308,0.304v21.293C55.987,53.827,56.14,53.942,56.512,53.942z
	 M59.358,42.554h0.956c2.514,0,3.964,1.716,3.964,4.115c0,2.972-1.49,4.647-3.815,4.647h-1.105V42.554z"/>
<path d="M51.684,31.947h-2.714c-0.219,0-0.349,0.176-0.349,0.307v8.386h-5.035v-8.386c0-0.219-0.085-0.307-0.304-0.307h-2.716
	c-0.216,0-0.348,0.132-0.348,0.307v21.339c0,0.22,0.086,0.351,0.304,0.351h2.76c0.175,0,0.304-0.131,0.304-0.351V43.408h5.035
	v10.185c0,0.22,0.13,0.351,0.349,0.351h2.714c0.218,0,0.306-0.176,0.306-0.351V32.254C51.99,32.079,51.858,31.947,51.684,31.947z"/>
<g>
	<path d="M22.233,51.178h-0.527c-0.657,0-0.832-0.264-0.832-0.791V32.254c0-0.219-0.088-0.307-0.262-0.307h-8.754
		c-0.219,0-0.35,0.132-0.35,0.307v1.581c0,5.312-0.306,12.162-3.107,17.343H7.438c-0.263,0-0.351,0.133-0.351,0.352
		c0,0,0,5.27,0,6.411c0,0.221,0.176,0.305,0.307,0.305h2.102c0.48,0,0.655-0.348,0.655-0.658v-3.643h9.368v3.997
		c0,0.174,0.129,0.305,0.305,0.305h2.232c0.263,0,0.526-0.217,0.526-0.658v-6.058C22.582,51.311,22.45,51.178,22.233,51.178z
		 M17.504,51.178h-6.347c2.234-3.819,3.109-8.123,3.415-13.391c0.087-1.142,0.131-2.328,0.131-3.073h2.801V51.178z"/>
	<path d="M31.145,31.422c-4.726,0-6.827,5.971-6.827,12.467c0,6.63,2.975,10.582,7.352,10.582c2.144,0,4.027-0.835,4.989-1.448
		c0.174-0.089,0.219-0.22,0.174-0.395l-0.349-1.494c-0.044-0.175-0.13-0.263-0.35-0.263c-0.174,0-1.444,0.482-3.238,0.482
		c-3.371,0-4.946-2.939-4.946-6.806c0-0.527,0-1.038,0-1.038s1.707,0.205,2.713,0.205h6.389v-1.846
		C37.052,35.066,34.646,31.422,31.145,31.422z M30.663,40.948c-1.007,0-2.582,0.175-2.582,0.175s0-0.658,0.087-1.362
		c0.393-3.729,1.313-5.617,2.844-5.617c1.401,0,2.277,1.931,2.495,5.311c0.043,0.702,0.043,1.494,0.043,1.494H30.663z"/>
</g>
<path d="M79.857,31.947h-9.186c-0.218,0-0.349,0.132-0.349,0.307v21.339c0,0.22,0.087,0.351,0.305,0.351h2.759
	c0.177,0,0.304-0.131,0.304-0.351v-18.86h6.167c0.131,0,0.306-0.082,0.306-0.307c0-0.224,0-2.172,0-2.172
	C80.163,32.079,80.032,31.947,79.857,31.947z"/>
<path d="M93.473,31.947h-2.506c-0.151,0-0.262,0.085-0.314,0.181c-0.02,0.035-5.134,14.011-5.134,14.011l-0.337,1.118V32.254
	c0-0.219-0.087-0.307-0.304-0.307h-2.575c-0.215,0-0.297,0.153-0.297,0.307v21.114c0,0.444,0.087,0.575,0.306,0.575h2.566
	c0.122,0,0.224-0.065,0.271-0.182c0.017-0.038,5.257-14.118,5.257-14.118l0.21-0.729v14.679c0,0.22,0.132,0.351,0.351,0.351h2.506
	c0.22,0,0.307-0.176,0.307-0.575c0,0,0-21.115,0-21.231C93.779,32.019,93.648,31.947,93.473,31.947z"/>
<path fill="#F47B20" d="M132.044,31.885h-1.765v11.004c0,1.972-0.845,3.112-3.347,3.688L110.938,51.1c0,0-1.362,0.368-1.362-0.867
	c0-1.028,1.218-1.154,1.406-1.338l-0.074,0.028l14.596-5.801c1.194-0.67,2.174-2.209,2.174-3.424V22.348
	c0-2.741-2.67-1.802-3.252-1.455c-0.638,0.377-16.908,9.493-16.908,9.493c-1.194,0.67-2.171,2.213-2.171,3.429V51.1
	c0,1.213,1.732,2.83,2.85,2.838v0.001h23.849c1.431,0.004,2.602-0.989,2.602-2.205v-17.64
	C134.645,32.878,133.475,31.885,132.044,31.885z M120.511,30.564c1.124-0.748,2.194-0.505,2.389,0.541
	c0.192,1.049-0.457,2.381-1.584,3.129c-1.122,0.747-2.194,0.507-2.388-0.542C118.736,32.646,119.384,31.313,120.511,30.564z"/>
</svg>
