<?xml version="1.0" encoding="utf-8"?>
<!-- Generator: Adobe Illustrator 16.0.0, SVG Export Plug-In . SVG Version: 6.00 Build 0)  -->
<!DOCTYPE svg PUBLIC "-//W3C//DTD SVG 1.1//EN" "http://www.w3.org/Graphics/SVG/1.1/DTD/svg11.dtd">
<svg version="1.1" id="Layer_1" xmlns="http://www.w3.org/2000/svg" xmlns:xlink="http://www.w3.org/1999/xlink" x="0px" y="0px"
	 width="100px" height="100px" viewBox="0 0 100 100" enable-background="new 0 0 100 100" xml:space="preserve">
<path d="M17.667,76.976c0,0.456-0.375,0.83-0.831,0.83H9.665c-0.457,0-0.83-0.374-0.83-0.83V24.544c0-0.457,0.374-0.83,0.83-0.83
	h7.171c0.457,0,0.831,0.374,0.831,0.83V76.976z"/>
<path d="M60.719,76.976c0,0.456-0.374,0.83-0.829,0.83h-7.171c-0.459,0-0.831-0.374-0.831-0.83V24.544
	c0-0.457,0.372-0.83,0.831-0.83h7.171c0.455,0,0.829,0.374,0.829,0.83V76.976z"/>
<path d="M91.629,76.976c0,0.456-0.373,0.83-0.83,0.83h-7.172c-0.459,0-0.83-0.374-0.83-0.83V24.544c0-0.457,0.371-0.83,0.83-0.83
	h7.172c0.457,0,0.83,0.374,0.83,0.83V76.976z"/>
<path d="M78.384,76.976c0,0.456-0.375,0.83-0.831,0.83H63.757c-0.456,0-0.829-0.374-0.829-0.83V24.544
	c0-0.457,0.373-0.83,0.829-0.83h13.796c0.455,0,0.83,0.374,0.83,0.83L78.384,76.976L78.384,76.976z"/>
<path d="M36.664,76.127c0.062,0.453-0.256,0.875-0.709,0.935l-7.104,0.981c-0.453,0.063-0.874-0.257-0.936-0.708l-7.171-51.941
	c-0.064-0.453,0.257-0.874,0.709-0.936l7.104-0.98c0.452-0.062,0.874,0.257,0.936,0.709L36.664,76.127z"/>
<path d="M47.66,77.113c-0.017,0.456-0.403,0.814-0.858,0.8l-7.168-0.25c-0.455-0.017-0.816-0.401-0.801-0.858l1.825-52.399
	c0.017-0.456,0.401-0.816,0.858-0.801l7.168,0.25c0.456,0.016,0.816,0.402,0.801,0.858L47.66,77.113z"/>
</svg>
