<?xml version="1.0" encoding="utf-8"?>
<!-- Generator: Adobe Illustrator 17.0.0, SVG Export Plug-In . SVG Version: 6.00 Build 0)  -->
<!DOCTYPE svg PUBLIC "-//W3C//DTD SVG 1.1//EN" "http://www.w3.org/Graphics/SVG/1.1/DTD/svg11.dtd">
<svg version="1.1" id="Your_Icon" xmlns="http://www.w3.org/2000/svg" xmlns:xlink="http://www.w3.org/1999/xlink" x="0px" y="0px"
	 width="100px" height="100px" viewBox="0 0 100 100" enable-background="new 0 0 100 100" xml:space="preserve">
<g>
	<path fill="#2C3E50" d="M25.266,39.394h41.271V17.578H25.266V39.394z M27.121,19.423h37.561v18.125H27.121V19.423z"/>
	<rect x="59.979" y="44.019" fill="#2C3E50" width="5.632" height="3.329"/>
	<rect x="26.193" y="44.019" fill="#2C3E50" width="31.534" height="3.329"/>
	<path fill="#2C3E50" d="M84.172,80.038V20.426l-0.168-5.116c-0.164-8.238-4.232-9.127-5.973-9.127
		c-0.293,0-0.545,0.024-0.748,0.054c-0.045-0.016-0.093-0.004-0.141-0.016c-0.09-0.021-0.174-0.055-0.271-0.055h-61.94
		c-0.687,0-1.243,0.553-1.243,1.237v73.231c0,0.683,0.556,1.235,1.243,1.235h0.512v2.094v2.588c0,0.342,0.277,0.62,0.621,0.62h0.116
		v2.338c0,0.686,0.556,1.238,1.241,1.238H45.42l2.122,4.312c0.109,0.218,0.328,0.348,0.559,0.348c0.085,0,0.168-0.017,0.251-0.054
		l10.561-4.605h17.906c0.077,0.007,0.19,0.014,0.367,0.014c0.797,0,2.833-0.188,4.52-1.933
		C83.496,86.982,84.323,84.008,84.172,80.038z M73.787,83.582l-0.767-1.711h3.369c0.435,0.438,1.23,1.404,1.339,2.708
		c0.04,0.443-0.035,0.895-0.16,1.354h-7.614l3.517-1.534c0.151-0.063,0.271-0.188,0.329-0.344
		C73.86,83.903,73.855,83.732,73.787,83.582z M16.175,8.641H75.63v70.756H16.175V8.641z M16.687,85.933v-1.351h25.695l0.667,1.351
		H16.687z M41.053,81.871c0.003,0.008,0.003,0.017,0.005,0.022l0.715,1.451H16.687V81.87L41.053,81.871L41.053,81.871z
		 M18.666,88.274v-1.102h24.992l0.543,1.102H18.666z M42.505,82.021l0.562-0.15h28.591l0.74,1.647L48.397,93.984L42.505,82.021z
		 M64.584,88.274l2.53-1.102h9.926c-0.182,0.322-0.405,0.647-0.665,0.974l-0.745,0.13H64.584V88.274z M79.917,87.114
		c-0.046,0.046-0.092,0.09-0.134,0.133c0.367-0.966,0.509-1.938,0.423-2.915c-0.188-2.075-1.395-3.556-2.089-4.244V8.659
		c2.11,0.06,3.318,2.435,3.402,6.715l0.166,5.091v59.621C81.811,83.358,81.197,85.789,79.917,87.114z"/>
</g>
</svg>
