<?xml version="1.0" encoding="utf-8"?>
<!-- Generator: Adobe Illustrator 17.0.0, SVG Export Plug-In . SVG Version: 6.00 Build 0)  -->
<!DOCTYPE svg PUBLIC "-//W3C//DTD SVG 1.1//EN" "http://www.w3.org/Graphics/SVG/1.1/DTD/svg11.dtd">
<svg version="1.1" id="Слой_1" xmlns:sketch="http://www.bohemiancoding.com/sketch/ns"
	 xmlns="http://www.w3.org/2000/svg" xmlns:xlink="http://www.w3.org/1999/xlink" x="0px" y="0px" width="69px" height="69px"
	 viewBox="-3.5 0 69 69" enable-background="new -3.5 0 69 69" xml:space="preserve">
<title>Group</title>
<desc>Created with Sketch.</desc>
<g id="Page-1" sketch:type="MSPage">
	<g id="Group" transform="translate(-1.000000, -3.000000)" sketch:type="MSLayerGroup">
		<g id="IDEA" sketch:type="MSShapeGroup">
			<path fill="#2C3E50" d="M37.684,68.621H23.426c-2.785,0-5.051-2.271-5.051-5.061c0-0.773,0.179-1.537,0.516-2.226
				c-0.336-0.689-0.516-1.452-0.516-2.225c0-1.494,0.665-2.903,1.78-3.855v-1.634c-5.032-3.537-8.011-9.243-8.011-15.427
				c0-10.396,8.458-18.855,18.855-18.855c10.397,0,18.855,8.458,18.855,18.855c0,6.527-3.388,12.585-8.9,16.017v1.045
				c1.115,0.952,1.78,2.361,1.78,3.854c0,0.773-0.18,1.537-0.516,2.226c0.336,0.689,0.516,1.452,0.516,2.225
				C42.734,66.351,40.469,68.621,37.684,68.621z M31,22.339c-8.743,0-15.855,7.112-15.855,15.855c0,5.435,2.736,10.43,7.319,13.363
				L23.155,52v4.889l-0.75,0.434c-0.636,0.367-1.031,1.053-1.031,1.788c0,0.473,0.156,0.919,0.452,1.289l0.748,0.937l-0.749,0.936
				c-0.295,0.369-0.451,0.814-0.451,1.289c0,1.136,0.92,2.061,2.051,2.061h14.258c1.131,0,2.051-0.925,2.051-2.061
				c0-0.473-0.156-0.919-0.451-1.289l-0.748-0.937l0.748-0.936c0.295-0.369,0.451-0.814,0.451-1.289c0-0.735-0.395-1.419-1.03-1.786
				l-0.75-0.433v-4.416l0.768-0.43c5.017-2.804,8.133-8.111,8.133-13.852C46.854,29.452,39.742,22.339,31,22.339z"/>
			
				<g id="Rectangle-4" transform="translate(32.026168, 14.000685) rotate(3.000000) translate(-32.026168, -14.000685) translate(1.026168, 2.000685)">
				<path fill="#2C3E50" d="M29.724,7.246c0-0.983,0.79-1.779,1.78-1.779c0.983,0,1.78,0.79,1.78,1.779v5.341
					c0,0.983-0.79,1.779-1.78,1.779c-0.983,0-1.78-0.79-1.78-1.779C29.724,12.587,29.724,7.246,29.724,7.246z M44.214,9.934
					c0.461-0.868,1.534-1.201,2.408-0.736c0.868,0.461,1.201,1.533,0.736,2.407l-2.507,4.716c-0.461,0.868-1.534,1.201-2.408,0.736
					c-0.868-0.461-1.201-1.533-0.736-2.407L44.214,9.934z M55.743,19.036c0.805-0.564,1.911-0.374,2.479,0.437
					c0.564,0.805,0.374,1.911-0.437,2.479l-4.375,3.064c-0.805,0.564-1.911,0.374-2.479-0.437c-0.564-0.805-0.374-1.911,0.437-2.479
					L55.743,19.036z M5.222,21.953c-0.805-0.564-1.004-1.668-0.437-2.479c0.564-0.805,1.668-1.005,2.479-0.437l4.375,3.064
					c0.805,0.564,1.004,1.668,0.437,2.479c-0.564,0.805-1.668,1.005-2.479,0.437L5.222,21.953z M15.649,11.606
					c-0.461-0.868-0.138-1.943,0.736-2.407c0.868-0.461,1.943-0.138,2.408,0.736l2.507,4.716c0.461,0.868,0.138,1.943-0.736,2.407
					c-0.868,0.461-1.943,0.138-2.408-0.736L15.649,11.606z"/>
			</g>
		</g>
		<path fill="#2C3E50" d="M32.855,56.921l-2.999-0.072l0.325-13.613c-0.852,0.149-1.701,0.163-2.491-0.033
			c-1.366-0.336-2.417-1.238-3.04-2.606c-0.76-1.67-0.229-3.653-0.083-4.127c0.268-1.143,1.279-3.045,3.488-3.322
			c1.779-0.219,2.922,0.409,3.567,0.979c1.633,1.441,1.68,3.806,1.68,4.07l-0.015,0.611c0.826-0.476,1.557-0.973,2.043-1.351
			l1.842,2.368c-0.308,0.24-1.937,1.474-3.967,2.415L32.855,56.921z M28.772,36.101c-0.104,0-0.218,0.007-0.345,0.022
			c-0.711,0.089-0.941,1.035-0.943,1.045l-0.045,0.167c-0.13,0.405-0.32,1.442-0.058,2.019c0.31,0.682,0.711,0.858,1.026,0.936
			c0.514,0.126,1.156,0.057,1.847-0.135l0.048-1.995c-0.005-0.283-0.138-1.326-0.672-1.791
			C29.547,36.297,29.322,36.101,28.772,36.101z"/>
		<rect x="19.709" y="59.835" fill="#2C3E50" width="22.581" height="3"/>
		<rect x="20.6" y="54.494" fill="#2C3E50" width="19.911" height="3"/>
	</g>
</g>
</svg>
