<?xml version="1.0" encoding="utf-8"?>
<!-- Generator: Adobe Illustrator 16.0.0, SVG Export Plug-In . SVG Version: 6.00 Build 0)  -->
<!DOCTYPE svg PUBLIC "-//W3C//DTD SVG 1.1//EN" "http://www.w3.org/Graphics/SVG/1.1/DTD/svg11.dtd">
<svg version="1.1" id="Layer_1" xmlns="http://www.w3.org/2000/svg" xmlns:xlink="http://www.w3.org/1999/xlink" x="0px" y="0px"
	 width="68.143px" height="100px" viewBox="0 0 68.143 100" enable-background="new 0 0 68.143 100" xml:space="preserve">
<g id="Source">
</g>
<g id="Layer_2">
	<g>
		<g id="Outline_7_">
			<rect x="23.259" y="16.073" width="3.074" height="33.596"/>
			<rect x="23.259" y="78.977" width="3.074" height="5.023"/>
			<rect x="9.717" y="13" width="50.476" height="3.073"/>
			<rect x="9.717" y="84.001" width="50.476" height="3.073"/>
			<rect x="9.717" y="16.073" width="3.073" height="67.928"/>
			<rect x="57.12" y="16.073" width="3.072" height="67.928"/>
		</g>
		<path id="Seal_7_" d="M27.322,64.789l3.353,11.376h-4.567l-1.343-4.65l-1.282,4.429h-4.567l3.295-11.18
			c-2.363-1.004-4.02-3.35-4.02-6.082c0-3.648,2.957-6.605,6.604-6.605c3.648,0,6.608,2.957,6.608,6.605
			C31.403,61.436,29.715,63.797,27.322,64.789z"/>
	</g>
	<g>
		<g id="Outline_6_">
			<rect x="23.259" y="16.073" width="3.074" height="33.596"/>
			<rect x="23.259" y="78.977" width="3.074" height="5.023"/>
			<rect x="9.717" y="13" width="50.476" height="3.073"/>
			<rect x="9.717" y="84.001" width="50.476" height="3.073"/>
			<rect x="9.717" y="16.073" width="3.073" height="67.928"/>
			<rect x="57.12" y="16.073" width="3.072" height="67.928"/>
		</g>
		<path id="Seal_6_" d="M27.322,64.789l3.353,11.376h-4.567l-1.343-4.65l-1.282,4.429h-4.567l3.295-11.18
			c-2.363-1.004-4.02-3.35-4.02-6.082c0-3.648,2.957-6.605,6.604-6.605c3.648,0,6.608,2.957,6.608,6.605
			C31.403,61.436,29.715,63.797,27.322,64.789z"/>
	</g>
</g>
</svg>
