<?xml version="1.0" encoding="utf-8"?>
<!-- Generator: Adobe Illustrator 17.0.0, SVG Export Plug-In . SVG Version: 6.00 Build 0)  -->
<!DOCTYPE svg PUBLIC "-//W3C//DTD SVG 1.1//EN" "http://www.w3.org/Graphics/SVG/1.1/DTD/svg11.dtd">
<svg version="1.1" id="Layer_1" xmlns="http://www.w3.org/2000/svg" xmlns:xlink="http://www.w3.org/1999/xlink" x="0px" y="0px"
	 width="100px" height="100px" viewBox="0 0 100 100" enable-background="new 0 0 100 100" xml:space="preserve">
<g>
	<g>
		<path fill="#2C3E50" d="M54.337,62.675c-1.024,0-1.935-0.569-2.844-1.138c-0.569-0.341-1.252-0.797-1.706-0.797
			c-0.456,0-1.139,0.456-1.707,0.797c-1.024,0.568-2.162,1.251-3.3,1.023c-1.251-0.228-2.048-1.251-2.731-2.161
			c-0.453-0.569-0.908-1.138-1.25-1.252c-0.341-0.114-1.138,0-1.821,0.114c-1.25,0.228-2.616,0.341-3.413-0.114
			c-1.137-0.682-1.479-1.82-1.82-2.957c-0.227-0.683-0.455-1.365-0.796-1.708c-0.341-0.227-1.138-0.341-1.82-0.455
			c-1.138-0.113-2.389-0.341-3.186-1.364c-0.796-0.911-0.796-2.275-0.682-3.413c0-0.682,0-1.479-0.114-1.82
			c-0.228-0.342-0.91-0.683-1.479-1.025c-1.023-0.568-2.161-1.137-2.617-2.389c-0.455-1.137,0-2.388,0.456-3.413
			c0.227-0.683,0.568-1.365,0.455-1.82c-0.114-0.341-0.569-0.91-1.024-1.479c-0.796-0.91-1.593-1.82-1.593-3.072
			c0-1.251,0.911-2.275,1.593-3.071c0.455-0.456,0.91-1.138,1.024-1.479c0.113-0.455-0.228-1.138-0.455-1.82
			c-0.456-1.025-0.911-2.276-0.456-3.414c0.456-1.138,1.593-1.82,2.617-2.389c0.569-0.341,1.251-0.683,1.479-1.024
			c0.228-0.342,0.228-1.138,0.114-1.82c0-1.138-0.114-2.503,0.682-3.413c0.797-0.91,2.048-1.138,3.186-1.365
			c0.683-0.114,1.479-0.228,1.82-0.455c0.341-0.228,0.569-1.024,0.796-1.707c0.341-1.138,0.796-2.389,1.82-2.958
			c0.911-0.569,2.275-0.341,3.413-0.114c0.797,0.114,1.48,0.228,1.821,0.114c0.342-0.114,0.797-0.796,1.25-1.251
			c0.684-0.911,1.594-1.934,2.731-2.162c1.138-0.228,2.275,0.455,3.3,1.023c0.568,0.341,1.251,0.797,1.707,0.797
			c0.454,0,1.137-0.456,1.706-0.797c1.023-0.568,2.16-1.251,3.299-1.023c1.253,0.228,2.047,1.251,2.73,2.162
			c0.455,0.569,0.909,1.138,1.252,1.251c0.342,0.114,1.136,0,1.82-0.114c1.251-0.228,2.615-0.342,3.413,0.114
			c1.138,0.682,1.478,1.82,1.82,2.958c0.226,0.683,0.454,1.366,0.796,1.707c0.342,0.227,1.137,0.341,1.821,0.455
			c1.137,0.113,2.388,0.341,3.184,1.365c0.796,0.91,0.796,2.275,0.683,3.413c0,0.683,0,1.479,0.113,1.82
			c0.229,0.341,0.911,0.683,1.479,1.024c1.024,0.568,2.163,1.138,2.618,2.389c0.454,1.137,0,2.389-0.455,3.414
			c-0.229,0.682-0.569,1.365-0.456,1.82c0.113,0.341,0.569,0.91,1.022,1.479c0.799,0.911,1.594,1.82,1.594,3.071
			c0,1.252-0.909,2.276-1.594,3.072c-0.453,0.455-0.909,1.138-1.022,1.479c-0.113,0.455,0.228,1.138,0.456,1.82
			c0.455,1.024,0.909,2.276,0.455,3.413c-0.455,1.139-1.594,1.821-2.618,2.389c-0.568,0.342-1.251,0.683-1.479,1.025
			c-0.227,0.341-0.227,1.138-0.113,1.82c0,1.138,0.113,2.502-0.683,3.413c-0.796,0.91-2.047,1.138-3.184,1.364
			c-0.685,0.114-1.48,0.229-1.821,0.455c-0.342,0.229-0.57,1.025-0.796,1.708c-0.343,1.137-0.797,2.39-1.82,2.957
			c-0.912,0.569-2.276,0.342-3.527,0.114c-0.796-0.114-1.479-0.229-1.82-0.114s-0.796,0.797-1.251,1.252
			c-0.684,0.91-1.593,1.934-2.729,2.161C54.68,62.675,54.451,62.675,54.337,62.675z M49.787,58.466c1.022,0,2.048,0.567,2.844,1.137
			c0.568,0.342,1.25,0.797,1.592,0.797h0.114c0.343-0.114,0.909-0.797,1.365-1.366c0.683-0.796,1.251-1.592,2.275-2.047
			c0.911-0.341,2.047-0.114,3.072,0.113c0.796,0.113,1.592,0.342,1.934,0.113c0.341-0.227,0.568-1.022,0.797-1.705
			c0.341-1.025,0.681-2.049,1.479-2.73c0.794-0.684,1.819-0.797,2.844-1.025c0.682-0.113,1.592-0.227,1.82-0.568
			c0.227-0.341,0.227-1.137,0.227-1.934c0-1.024,0-2.162,0.454-3.072c0.57-0.91,1.479-1.366,2.391-1.934
			c0.682-0.341,1.365-0.796,1.594-1.138c0.112-0.341-0.229-1.138-0.456-1.82c-0.342-0.911-0.797-1.935-0.57-3.072
			c0.229-1.024,0.912-1.821,1.594-2.618c0.455-0.568,1.024-1.25,1.024-1.592c0-0.455-0.569-1.024-1.024-1.593
			c-0.682-0.796-1.365-1.593-1.594-2.617c-0.227-1.024,0.229-2.048,0.57-3.071c0.228-0.684,0.568-1.48,0.456-1.821
			c-0.114-0.341-0.912-0.796-1.594-1.138c-0.911-0.455-1.82-1.023-2.391-1.934c-0.566-0.91-0.454-2.048-0.454-3.072
			c0-0.683,0-1.593-0.227-1.934c-0.229-0.341-1.139-0.455-1.82-0.569c-1.024-0.114-2.05-0.341-2.844-1.023
			c-0.799-0.683-1.139-1.707-1.479-2.73c-0.229-0.684-0.456-1.48-0.797-1.707c-0.228-0.114-1.138,0-1.934,0.114
			c-1.025,0.227-2.161,0.341-3.072,0.113c-1.024-0.341-1.593-1.138-2.275-2.047c-0.456-0.569-1.022-1.251-1.365-1.366
			c-0.456,0-1.138,0.456-1.706,0.796c-0.91,0.569-1.821,1.138-2.844,1.138c-1.025,0-2.05-0.568-2.845-1.138
			c-0.569-0.341-1.251-0.796-1.594-0.796c-0.455,0.114-1.023,0.796-1.478,1.366c-0.684,0.796-1.253,1.593-2.275,2.047
			c-0.911,0.342-2.049,0.114-3.072-0.113c-0.796-0.114-1.593-0.228-1.934-0.114c-0.342,0.227-0.569,1.023-0.797,1.707
			c-0.341,1.023-0.683,2.047-1.479,2.73c-0.796,0.683-1.821,0.795-2.844,1.023c-0.683,0.114-1.593,0.228-1.82,0.569
			c-0.228,0.341-0.228,1.138-0.228,1.934c0,1.024,0,2.162-0.455,3.072c-0.568,0.911-1.479,1.366-2.389,1.934
			c-0.683,0.342-1.365,0.797-1.593,1.138c-0.114,0.341,0.228,1.138,0.455,1.821c0.342,0.91,0.797,1.933,0.569,3.071
			c-0.227,1.024-0.91,1.82-1.593,2.617c-0.455,0.568-1.024,1.252-1.024,1.593c0,0.455,0.569,1.024,1.024,1.592
			c0.683,0.797,1.366,1.593,1.593,2.618c0.228,1.023-0.227,2.047-0.569,3.072c-0.228,0.682-0.569,1.479-0.455,1.82
			s0.91,0.797,1.593,1.138c0.91,0.455,1.821,1.024,2.389,1.934c0.569,0.91,0.455,2.048,0.455,3.072c0,0.683,0,1.593,0.228,1.934
			c0.228,0.342,1.138,0.455,1.82,0.568c1.023,0.114,2.048,0.342,2.844,1.025c0.796,0.682,1.138,1.705,1.479,2.73
			c0.228,0.683,0.455,1.479,0.797,1.705c0.227,0.114,1.023,0,1.934-0.113c1.023-0.228,2.161-0.342,3.072-0.113
			c1.022,0.341,1.592,1.137,2.275,2.047c0.454,0.569,1.022,1.252,1.364,1.366c0.456,0,1.138-0.455,1.707-0.797
			C47.737,59.033,48.762,58.466,49.787,58.466z"/>
	</g>
	<g>
		<path fill="#2C3E50" d="M42.392,87.703c-0.455,0-0.91-0.114-1.365-0.455l-5.688-3.981L28.4,84.29
			c-0.797,0.113-1.594-0.113-2.162-0.796c-0.569-0.57-0.797-1.365-0.569-2.162l5.347-22.98c0.114-0.569,0.797-1.024,1.366-0.797
			c0.569,0.113,1.024,0.797,0.796,1.366L27.829,81.9v0.114h0.114l6.94-1.024c0.569-0.113,1.252,0,1.707,0.342l5.688,3.982
			c0,0,0,0,0.114,0c0.112,0,0.112-0.114,0.112-0.114l4.779-20.478c0.112-0.568,0.797-1.025,1.365-0.797
			c0.568,0.114,1.024,0.797,0.797,1.365l-4.778,20.48c-0.229,0.797-0.684,1.364-1.479,1.706
			C42.961,87.703,42.732,87.703,42.392,87.703z"/>
	</g>
	<g>
		<path fill="#2C3E50" d="M56.158,95.667c-0.342,0-0.57,0-0.912-0.114c-0.795-0.342-1.251-0.909-1.479-1.706l-6.483-28.101
			c-0.113-0.569,0.227-1.251,0.797-1.365c0.568-0.114,1.251,0.229,1.365,0.796l6.485,28.101c0,0,0,0.114,0.114,0.114
			c0.113,0,0.113,0,0.113,0l5.688-3.982c0.456-0.342,1.138-0.454,1.706-0.342l6.938,1.024h0.114V89.98l-6.257-26.964
			c-0.112-0.569,0.228-1.251,0.798-1.364c0.568-0.114,1.25,0.227,1.364,0.795l6.258,26.963c0.228,0.797,0,1.593-0.569,2.163
			c-0.569,0.567-1.365,0.909-2.161,0.795l-6.941-1.023l-5.573,3.981C57.181,95.553,56.726,95.667,56.158,95.667z"/>
	</g>
</g>
</svg>
